<svg width="271" height="270" fill="none" xmlns="http://www.w3.org/2000/svg"><g clip-path="url(#a)"><path d="M60.196 0A59.94 59.94 0 0 0 .12 60.075v149.85A59.94 59.94 0 0 0 60.196 270h149.85a59.95 59.95 0 0 0 55.538-37.064 59.931 59.931 0 0 0 4.537-23.011V60.075a59.932 59.932 0 0 0-17.556-42.519A59.946 59.946 0 0 0 210.046 0H60.196Zm73.406 28.89c26.28 0 50.04 10.148 68.13 29.104 13.77 14.31 21.51 29.464 25.47 49.41 1.35 6.638 1.35 24.75.079 32.22a95.69 95.69 0 0 1-36.45 59.58c-6.84 5.175-23.58 14.186-26.28 14.186-.99 0-1.08-1.023-.63-5.175.81-6.66 1.62-8.043 5.4-9.63 6.03-2.52 16.29-9.832 22.59-16.143a86.003 86.003 0 0 0 22.59-39.78c2.34-9.27 2.07-29.88-.54-39.42-8.19-30.33-32.94-53.91-63.27-60.21-8.82-1.8-24.84-1.8-33.75 0-30.69 6.3-56.07 31.05-63.81 62.19-2.07 8.46-2.07 29.07 0 37.53 5.13 20.61 18.45 39.51 35.91 50.76 3.42 2.25 7.56 4.59 9.27 5.31 3.78 1.62 4.59 2.97 5.31 9.63.45 4.05.337 5.22-.63 5.22-.63 0-5.22-1.98-10.08-4.32l-.45-.338c-27.81-13.68-45.63-36.832-52.11-67.635-1.62-7.942-1.89-26.91-.338-34.2 4.05-19.575 11.79-34.875 24.66-48.42 18.54-19.541 42.39-29.88 68.94-29.88l-.011.011Zm1.508 31.613c4.601.045 9.033.45 12.442 1.192 31.32 6.975 53.55 38.34 49.23 69.458-1.71 12.532-6.03 22.837-13.68 32.4-3.78 4.837-12.96 12.937-14.58 12.937-.259 0-.54-3.06-.54-6.783V162.9l4.68-5.58c17.64-21.127 16.38-50.647-2.88-70.02-7.47-7.537-16.11-11.97-27.27-14.017-7.2-1.328-8.73-1.328-16.29-.09-11.475 1.879-20.362 6.322-28.26 14.13-19.35 19.17-20.61 48.847-2.97 69.997l4.646 5.58v6.84c0 3.78-.303 6.84-.675 6.84-.337 0-2.97-1.8-5.76-4.05l-.382-.123c-9.36-7.47-17.64-20.723-21.06-33.717-2.07-7.852-2.07-22.77.09-30.6 5.67-21.127 21.24-37.519 42.84-45.214 4.612-1.63 12.746-2.474 20.407-2.373h.012Zm-1.463 33.637c3.488 0 6.975.675 9.495 2.003 5.49 2.846 9.99 8.381 11.7 14.164 5.22 17.752-13.59 33.3-30.6 25.357h-.169c-8.01-3.724-12.33-10.755-12.42-19.912 0-8.247 4.59-15.424 12.51-19.632 2.52-1.316 6.008-1.98 9.495-1.98h-.011Zm-.124 53.19c11.115-.045 19.193 3.927 22.163 10.913 2.227 5.22 1.395 21.735-2.453 48.397-2.61 18.63-4.05 23.333-7.65 26.505-4.95 4.388-11.97 5.603-18.63 3.24h-.033c-8.055-2.891-9.788-6.806-13.095-29.745-3.837-26.662-4.68-43.177-2.453-48.397 2.948-6.93 10.958-10.868 22.163-10.913h-.012Z" fill="#3E58E1"/></g><defs><clipPath id="a"><path fill="#fff" transform="translate(.12)" d="M0 0h270v270H0z"/></clipPath></defs></svg>