<svg width="25" height="25" fill="none" xmlns="http://www.w3.org/2000/svg"><g clip-path="url(#a)"><path d="M1.972 9.703a1.5 1.5 0 0 0-1.501 1.501v1.632a1.502 1.502 0 0 0 3.003 0v-1.632a1.5 1.5 0 0 0-1.502-1.501Zm21.015 0a1.5 1.5 0 0 0-1.502 1.501v1.632a1.501 1.501 0 1 0 3.003 0v-1.632a1.5 1.5 0 0 0-1.501-1.501ZM7.154 14.617a1.5 1.5 0 0 0-1.501 1.501v1.632a1.502 1.502 0 0 0 3.003 0v-1.622a1.5 1.5 0 0 0-1.502-1.501v-.01Zm0-9.827a1.5 1.5 0 0 0-1.501 1.502v5.362a1.502 1.502 0 0 0 3.003 0V6.279a1.5 1.5 0 0 0-1.502-1.501v.012Zm10.649 0A1.5 1.5 0 0 0 16.3 6.292v1.641a1.501 1.501 0 0 0 3.003 0V6.292a1.5 1.5 0 0 0-1.501-1.502ZM12.479.015a1.5 1.5 0 0 0-1.501 1.502v1.631a1.501 1.501 0 0 0 3.003 0V1.517c0-.831-.67-1.5-1.502-1.5V.014Zm0 19.374a1.5 1.5 0 0 0-1.501 1.502v1.641a1.502 1.502 0 0 0 3.003.01v-1.641c0-.821-.67-1.502-1.502-1.502v-.01Zm5.325-8.465c-.831 0-1.502.68-1.502 1.502v5.333a1.501 1.501 0 0 0 3.003 0v-5.335a1.5 1.5 0 0 0-1.501-1.501v.001ZM12.48 6.149c-.831 0-1.502.681-1.502 1.502v8.736a1.501 1.501 0 0 0 3.003 0V7.661a1.5 1.5 0 0 0-1.502-1.502v-.01Z" fill="#7B90FF"/></g><defs><clipPath id="a"><path fill="#fff" transform="translate(.467 .015)" d="M0 0h24.023v24.023H0z"/></clipPath></defs></svg>