<svg width="271" height="271" viewBox="0 0 271 271" fill="none" xmlns="http://www.w3.org/2000/svg">
<g clip-path="url(#clip0_8530:32600)">
<path d="M135.418 0.0057373C60.853 0.0057373 0.417969 60.4408 0.417969 135.006C0.417969 209.571 60.853 270.006 135.418 270.006C209.983 270.006 270.418 209.571 270.418 135.006C270.418 60.4408 209.983 0.0057373 135.418 0.0057373ZM175.513 135.006C175.513 112.866 157.558 94.9108 135.418 94.9108C113.278 94.9108 95.3231 112.855 95.3231 135.006C95.3231 157.146 113.267 175.101 135.418 175.101V198.006C100.622 198.006 72.418 169.802 72.418 135.006C72.418 100.21 100.622 72.0058 135.418 72.0058C170.214 72.0058 198.418 100.21 198.418 135.006H175.513V135.006ZM214.168 135.006C214.168 91.5133 178.911 56.2558 135.418 56.2558C91.9256 56.2558 56.668 91.5133 56.668 135.006C56.668 178.498 91.9256 213.756 135.418 213.756V240.002C77.4243 240.002 30.4217 192.988 30.4217 135.006C30.4217 77.0121 77.4355 30.0095 135.418 30.0095C193.412 30.0095 240.414 77.0233 240.414 135.006H214.168V135.006Z" fill="#3E58E1"/>
</g>
<defs>
<clipPath id="clip0_8530:32600">
<rect width="270" height="270" fill="white" transform="translate(0.417969 0.0057373)"/>
</clipPath>
</defs>
</svg>
