<svg width="271" height="271" fill="none" xmlns="http://www.w3.org/2000/svg"><g clip-path="url(#a)"><path d="M135.418.006c-74.565 0-135 60.435-135 135s60.435 135 135 135 135-60.435 135-135-60.435-135-135-135Zm40.095 135c0-22.14-17.955-40.095-40.095-40.095s-40.095 17.944-40.095 40.095c0 22.14 17.944 40.095 40.095 40.095v22.905c-34.796 0-63-28.204-63-63s28.204-63 63-63 63 28.204 63 63h-22.905Zm38.655 0c0-43.493-35.257-78.75-78.75-78.75-43.492 0-78.75 35.257-78.75 78.75 0 43.492 35.258 78.75 78.75 78.75v26.246c-57.994 0-104.996-47.014-104.996-104.996 0-57.994 47.014-104.996 104.996-104.996 57.994 0 104.996 47.013 104.996 104.996h-26.246Z" fill="#3E58E1"/></g><defs><clipPath id="a"><path fill="#fff" transform="translate(.418 .006)" d="M0 0h270v270H0z"/></clipPath></defs></svg>