<svg width="197" height="62" fill="none" xmlns="http://www.w3.org/2000/svg"><path d="M35.76 39.202c-3.94.115-7.863.21-11.804.344-.153 0-.287.21-.67.517.689.114 1.129.268 1.588.268 1.837.019 3.674-.058 5.53-.039.822.02 1.645.153 2.448.306.21.039.517.44.498.67 0 .21-.345.574-.555.593-.479.058-.995 0-1.454-.115-.574-.134-1.11-.306-1.53.287-.307-.899-.307-.899-1.053-.784.402.268.746.497 1.09.746-1.836 0-3.654.02-5.49 0-.383 0-.766-.096-1.149-.076-1.683.134-3.386.344-5.012-.383-.249-.115-.65-.038-.918.057-.192.077-.421.345-.421.536 0 .191.21.517.382.555.746.153 1.512.23 2.258.306 3.54.325 7.079.67 10.618.957 1.627.133 3.253.133 4.898.133 3.846 0 7.691-.401 11.575-.114 2.45.172 4.937-.115 7.386-.192.229 0 .478.058.803.115-.249.88-.918.995-1.511.995-2.469-.019-4.937-.096-7.386-.134-.765-.019-1.511.038-2.276.058-.498.019-1.033.133-1.512.019-1.34-.325-2.43-.153-3.061 1.74-.249-.726-.363-1.013-.478-1.339-1.033-.44-2.047-.42-3.176.039-.842.344-1.856.325-2.908.478-.077.421-.173.88-.268 1.397H30.46l.019.038c.23-.42.459-.823.803-1.454-1.434-.689-3.023-.249-4.496-.44-1.473-.191-2.965-.038-4.84-.038 2.143 1.148 3.75 1.569 5.166 1.473-.402.593-.402.593-5.53.402-.42 1.033.536 1.205 1.09 1.664-.21.249-.42.46-.745.823.803.23 1.492.44 2.276.67-.23.114-.401.267-.516.248-2.66-.631-5.453.038-8.093-.9-.517-.19-1.129-.076-1.703-.114-.46-.019-.9 0-.88-.708 0-.153-.536-.401-.842-.459-.88-.153-1.76-.23-2.908-.383.574-.21.918-.344 1.454-.554a38.59 38.59 0 0 0-.746-.69c.325-.477.65-.994 1.129-1.683-.785-.383-1.435-.689-2.086-1.014.555-.076 1.167-.172 1.933-.287-.153-.478-.287-.842-.383-1.167 1.071-.057 2.085-.134 3.463-.21-1.301-1.512-2.678-.574-3.788-.976-1.186-.421-2.392-.746-3.884-1.206 1.454-.21 2.64-.382 3.807-.535.325-1.492-.995-.574-1.435-1.225.268-.497.574-1.071.9-1.645h1.415c-.172.364-.325.708-.688 1.473.688-.344.995-.497 1.339-.65-.306-.345-.498-.574-.689-.804.383-.268.765-.516 1.148-.784l-.057-.383-3.387-.344c3.023-1.282 6.142-1.76 9.299-2.01h-.058c.804.154 1.588.383 2.392.44 2.774.154 5.567.23 8.341.345.173 0 .345.134.536.44-.784.077-1.569.134-2.525.23.593 1.243 1.76.287 2.449.995-.938.956-1.952-.249-2.947.134-.899.363-1.97.248-2.889.325.096.516.192.995.326 1.76.707.038 1.683.153 2.659.172 2.66.02 5.319 0 7.978 0 .746-.038 1.55-.038 1.492 1.09Zm-12.627-4.324c1.645.593 1.645.593 2.583.21-.765-1.071-.765-1.071-2.583-.21Zm-3.865 2.372c0 .134.02.268.02.402.267-.02.516-.057.784-.077v-.267l-.804-.058Z" fill="#fff"/><path d="M17.928 33.27c-1.186-.095-2.353-.267-3.54-.286-1.224-.02-2.486.383-3.998-.172.67-.44 1.148-.746 1.607-1.033-.822-1.665-.765-1.78 1.13-2.545-.747-.804-1.78-.02-2.527-.555-.172-1.32 1.646-.784 1.78-1.951-.536-.115-1.09-.23-1.722-.345 1.492-.67 2.908-1.282 4.61-2.047-1.109-.689-1.97-.344-2.85-.325.842-.689 1.646-1.34 2.66-2.181-.919-.536-1.588-.919-2.335-1.359a507.393 507.393 0 0 1 4.688-3.214c-.995-.096-1.703-.153-2.602-.23 2.353-1.07 3.463-3.5 6.084-4.228-.115.44-.192.746-.306 1.206.344.21.746.44 1.148.688-.46 1.263.248 2.373 2.238 3.253-1.377.555-2.544 1.014-3.654 1.454-.077.937-.153 1.798-.23 2.717 3.234-.326 6.486-.67 9.892-1.014.057.67.095 1.262.153 1.932 2.009.631 3.501-1.282 5.472-1.11v1.627l-1.206.765c-.153.096-.401.268-.497.23-1.894-1.11-3.674.727-5.644.114-1.703-.516-1.741-.21-2.736 1.32-.46.708-.9 1.454-1.913 1.703-.727.172-1.359.804-2.258 1.397 1.799.803 2.927-.172 4.133-.67.172.402.325.785.535 1.282-.822.268-1.645.536-2.391.785.057 2.008 1.722 1.281 2.793 1.913-2.238.115-4.477.23-6.715.363-.67.039-1.435-.248-1.895.536.058-.02.096-.02.096-.02Zm9.7-10.618c-1.894-.478-3.176.02-4.783.938 1.818.076 3.176.191 4.783-.938Zm-5.988 7.902c-.402.23-.804.46-1.435.804 1.052.44 1.454.23 1.435-.804ZM136.702 11.977c1.837-.46 3.252.23 4.458 1.837-.058.134-.211.497-.345.86 1.225.976 1.225.976 2.641-.095 1.339.784 2.87.708 3.884-.268a366.16 366.16 0 0 0-3.215-.536c0-.114-.019-.23-.019-.363.249-.096.517-.191.88-.344-.402-.25-.765-.46-1.454-.88.765-.268 1.263-.613 1.646-.517.899.21 1.76.612 2.621.995.784.344 1.53.746 2.544 1.243.039.421-.21 1.416.995 1.474.899.038 1.703-.632 2.143-1.894.67.516 1.282 1.013 1.894 1.473.345.248.708.688 1.071.688 1.875.039 3.75.861 5.587.326 1.454-.421 2.698.153 4.094.153.173.956-.229 1.588-.975 1.626-1.091.038-2.2-.172-3.291-.325-.631-.096-1.244-.287-1.913-.096.268.077.555.134.803.21-.803.957-1.932 1.168-3.099 1.148a106.406 106.406 0 0 1-4.936-.21c-.383-.02-.727-.249-1.091-.402 0-.153.019-.306.019-.459 1.225-.134 2.468-.268 3.827-.42-.23-.345-.326-.537-.364-.537-1.396.25-2.736.039-4.113-.287-1.167-.287-1.34.058-1.435 1.665-1.933 0-3.865.02-5.797-.02-.326 0-.651-.324-.976-.516.306-.191.593-.401.957-.631-.938-.497-.938-.497-.9.67-.88-.115-1.683-.536-2.544.459-.383.44-1.665.191-2.526.095-1.301-.172-2.583-.574-3.903-.688-.708-.058-1.454.287-2.143.516-.095.038-.038.517-.057.842-.861.287-1.645.153-2.258-.689-.478-.67-1.071-.956-1.97-.67-.364.115-.899-.305-1.569-.573-.593.478-1.378.593-2.487.268-1.435-.421-3.023-.268-4.554-.402-.708-.058-1.435-.192-2.391-.325-.115.095-.459.363-.785.67-.555.516-.516.4-1.511.037-.593-.21-1.359-.057-2.028.039-.536.076-1.014.23-1.263-.593.344-.25.708-.555 1.11-.804.421-.268.88-.478 1.32-.708-.038-.23-.096-.46-.153-.727h2.238c1.55 1.722 1.55 1.722 3.942.536.325-.153.765-.325 1.071-.249 1.167.325 1.818-.077 1.951-1.244.823-.057 1.512-.114 2.296-.172-.363-.708-.784-1.052-1.588-1.033-1.454.02-2.927-.038-4.381-.115-1.052-.057-2.2-.363-2.009 1.32-1.76-.19-1.76-.19-1.741-1.128l-2.372-.173a34.328 34.328 0 0 1-.115-.287c.536-.23 1.071-.65 1.607-.65 2.047 0 4.094.191 6.142.21.918 0 1.836-.268 2.774-.363 1.186-.134 2.391-.345 3.52.382.421.268.938.383 1.225.479-.192.268-.613.593-.574.899.057.612.612.765 1.167.631.784-.19 1.568-.44 2.353-.65.631-.153 1.263-.249 1.55.708-1.072.65-2.124.019-3.138.095-.957.077-2.085-.382-2.679 1.014.842.44 1.608.44 2.507.268 1.243-.23 2.43-1.014 3.845-.382.326.153 1.129-.766 1.78-1.225.248.402.612.976 1.033 1.646.995 0 2.066.822 3.233-.306-1.11-.555-2.085-1.034-3.099-1.55.382-.345.746-.689 1.109-1.033l-.076.057Zm-11.116 1.703c-.612.057-1.32-.325-1.454.65-.019.21.287.65.478.69.899.133.919-.556.976-1.34Zm-2.353 1.76c-.077-.153-.153-.306-.23-.44-1.014-.191-1.32.689-1.741 1.435.651-.345 1.32-.67 1.971-.995Zm7.079.383c-.785-.938-1.397-.402-2.048 0h2.048Zm24.24-.364c-.497-.268-.975-.765-1.281.172.267.077.516.21.727.172.191 0 .363-.21.554-.344ZM52.71 23.455c.192.249.403.555.651.88-.688 1.148-1.779 1.301-2.984 1.492-.938-2.793-2.813-1.569-4.688-.975.077-.613.134-1.034.192-1.474-.096-.057-.192-.095-.287-.153-.517.727-1.014 1.435-1.703 2.411-.077-1.645-.957-2.296-2.277-2.525.612-.345 1.148-.65 1.703-.976 1.684.784 2.238.574 3.138-1.148.267-.536.593-1.052.995-1.741.918-.058 2.047-.21 3.156-.134.421.038.804.612 1.416 1.129-2.104.784-.937 2.468-1.55 3.998.88-.306 1.531-.535 2.239-.784ZM71.767 24.146h1.932c-1.78 1.358-3.29 2.353-5.357 2.18-.038 2.277-1.836.996-2.793 1.455.765-.498 1.473-1.11 2.277-1.473.842-.383 1.779-.574 2.66-1.187-.651-.038-1.321-.076-1.99-.134a81.875 81.875 0 0 1-1.206-1.836c1.32-.249 2.602-.364 3.788-.785.632-.23 1.301-.86 1.569-1.492.363-.861 1.167-.976 1.664-.957 1.34.077 2.64.46 4.363.804-.632.574-.976.918-1.34 1.263-1.32-1.282-1.721-1.359-2.602-.153-.497.707-1.033 1.09-1.836 1.3-.364.077-.612.498-1.129 1.015ZM86.92 22.25c-.861-1.033-1.856-1.225-3.08-.823.095.517.19.976.325 1.703-.651.153-1.282.306-1.914.42-.516.096-1.033.173-.899.92.02.152-.076.458-.134.458-.995.02-1.052.938-1.32 1.454-.784-.134-1.454-.23-2.334-.363 1.358-.995-.134-1.894.096-3.08.344.133.612.248 1.052.44.803-.594 1.76-1.302 2.831-2.105-.401-.23-.765-.44-1.205-.689.096-.172.191-.459.287-.459.67-.038 1.359-.02 2.047-.02.727.02 1.473.097 2.2.077 1.168-.038 2.105.766 2.048 2.067Zm-6.085.497c.747.574 1.32.268 1.99-.153-1.11-.497-1.11-.497-1.99.153ZM38.055 30.209c-.899-.096-1.511-.172-2.123-.249 0-1.09.516-1.588 1.702-1.626.25.995.498 2.028.804 3.271 1.894.192 3.884.23 5.854-.21.46-.096.804-.287 1.187.115.114.114.344.172.516.172 3.234-.191 6.486.478 9.681-.402.153-.038.345.077.65.134-.42.765-1.09.67-1.664.67-5.012 0-10.006-.077-15.019-.058-3.176.02-6.352.21-9.528.326-.248 0-.478 0-.727-.077 2.679-.746 5.568.134 8.17-1.167.21-.077.268-.402.497-.9ZM35.74 39.22c1.244-1.587 3.1-1.224 4.745-1.358 1.742-.153 3.52-.038 5.281.02 1.512.057 3.023.171 4.534.286.21.02.421.21.727.383-2.468.44-4.783.631-7.193.402-2.66-.25-5.377.133-8.093.267 0 0 .019-.019 0 0ZM101.499 45.553c5.51-.956 11.078-.248 16.588-.937.019.21.019.42.038.631-2.774.115-5.529.345-8.303.306-2.775-.019-5.549.785-8.323 0ZM102.436 15.611c-.765.612-1.435 1.129-1.971 1.55h-6.964c.9-1.588 2.43-1.569 3.463-1.454 1.11.115 1.99-.038 2.832-.536 1.033-.631 1.741-.249 2.64.44ZM58.661 24.432c-.382.057-.803.134-1.224.191-.096-.86-1.206-1.53 0-2.506H55.39c.095-.746.19-1.416.287-2.105 2.008-.593 2.008-.593 3.195.153-.25.345-.498.67-.842 1.13.287.286.593.573.937.898-.095.67-.191 1.397-.306 2.239ZM60.115 20.088c.919-.115 1.665-.23 2.411-.325.804-.096 1.607-.172 2.41-.306.747-.134 1.761.248 1.952.784.23.631-.21 1.244-1.243 1.684a12.844 12.844 0 0 1-.25-.804c-4.801.65-4.801.65-5.28-1.033Zm2.143.631c-.076.115-.172.21-.248.326.172.038.363.134.535.114.153-.019.287-.172.44-.248-.095-.115-.172-.326-.268-.345-.133-.038-.306.096-.459.154ZM63.138 45.86c1.11.095 2.085.21 3.06.229.747.019 1.608.096 2.24-.21 1.358-.67 2.697.019 4.036-.23.134-.02.345.306.69.631-.537.23-.9.478-1.264.517-1.129.096-2.276.096-3.424.134-1.206.038-2.392.076-3.597.134-.842.019-1.607 0-1.741-1.206ZM67.692 43.565c-.804.248-1.301.555-1.76.516-2.296-.191-4.496.517-6.754.574-.497.02-.995.153-1.492.21-.67.077-1.359.23-1.971-.344 1.052-.765 2.047-.918 5.663-.937 1.952-.02 3.922-.02 6.314-.02ZM169.878 27.281c1.779-1.11 3.539-.019 4.974-.631 1.607-.689 3.215-.46 4.879-.65.153.841-.306 1.243-.899 1.262-2.87.038-5.759.02-8.954.02ZM124.764 45.323c.479-.287.957-.574 1.072-.632 1.626-.076 2.851-.114 4.094-.21.861-.057 1.531.038 1.358 1.416-.918.019-1.836.057-2.755.057-.937.02-1.875.077-2.793-.019-.325-.038-.612-.44-.918-.67l-.058.058Z" fill="#fff"/><path d="M45.269 25.465c.937.23 2.391-.44 3.023 1.377-1.225-.057-.747 2.64-2.717 1.473.038-.191.076-.42.153-.784-.919-.115-1.837-.21-2.583-.306.555-.44 1.205-.995 2.124-1.76ZM103.431 11.383h4.267c.038.535.076 1.052.134 1.76-1.665.095-3.195.172-4.745.249.096-.632.211-1.225.344-2.01Zm2.908 1.358c-.554-.268-.726-.44-.899-.42-.21.018-.421.19-.612.305.019.077.057.153.077.249.325-.038.669-.057 1.434-.134ZM56.193 46.396c2.162-1.416 3.865-.057 5.606-.02-1.11.67-3.884.69-5.606.02ZM164.961 18.156h4.974c.038.325.23.803.077 1.11-.153.286-.938.593-.976.554-1.071-1.435-2.774-.689-4.113-1.148.019-.191.038-.363.038-.516ZM75.097 45.994c1.607-.42 3.271-.095 5.242-.325-.325.574-.44.995-.593 1.014-1.55.057-3.08.038-4.63.038 0-.248 0-.497-.02-.727ZM62.373 26.976c.765-.154 1.34-.268 2.143-.44-.191 1.07-.498 1.817-.344 2.659.095.535-.039.574-1.244.784.057-.459.23-.899.153-1.32-.115-.497-.383-.937-.708-1.683ZM62.392 39.738c1.454-.058 2.908-.134 4.363-.153.153 0 .306.325.708.765H62.45a3.313 3.313 0 0 1-.058-.612ZM47.278 40.273c-1.703.823-3.157.632-4.63.115 1.454.096 2.85-1.435 4.63-.114ZM178.717 28.966c-1.703.823-3.061.612-4.458.096.937-.555 2.334-.613 4.458-.096ZM99.738 20.395c-.402 1.894-.746 2.085-2.315 1.282.555-1.55.555-1.55 2.315-1.282ZM52.31 46.013c.917.077 1.817.134 2.83.23a98.226 98.226 0 0 1-1.626 1.55c-.382-.383-.88-.88-1.377-1.359.077-.153.115-.287.172-.42ZM48.138 29.846c.67-.497 1.34-1.014 2.028-1.53.594.363 1.11.67 1.684 1.014-.402.88-1.052.784-1.665.727a67.086 67.086 0 0 1-2.047-.21s-.019 0 0 0ZM158.13 15.075c.498-.287.804-.478 1.11-.67.211-.134.536-.42.612-.363.995.65 2.028.516 3.291-.02-.842 1.149-.842 1.149-5.013 1.053ZM43.03 45.82c1.512.307 3.023.613 4.458.881-2.812.67-3.52.593-4.458-.88ZM91.301 43.41h7.08v.325H91.3v-.325ZM38.361 41.88c-.86-1.435-2.43-.516-3.845-1.11 1.09-.573 1.99-.765 2.946-.592.995.153 1.13.42.9 1.702ZM23.018 13.2c-.23-1.204.267-1.625 1.033-1.76.65-.114 1.435-.344 1.683.9-.86.268-1.722.536-2.716.86ZM76.148 43.411c1.646.077 3.291.154 5.147.25-.976.172-1.741.363-2.526.42-.86.058-1.74.02-2.602.02 0-.25 0-.479-.019-.69ZM86.25 25.466c-.287-.765-.478-1.282-.784-2.085.708 0 1.262-.134 1.645.057.249.115.402.823.287 1.129-.134.363-.65.555-1.148.9ZM104.33 20.988c.536-.861.536-.861 2.028-1.454.268.382.555.803.995 1.454h-3.023ZM24.721 48.862c1.205-.038 2.449-.784 3.999.039-1.607.842-2.794.21-3.999-.039ZM172.844 48.366h6.83c-2.238.287-4.477.517-6.83 0ZM167.027 34.131c1.32-.096 2.353-.172 3.444-.268-.67 1.34-.689 1.34-3.444.268ZM158.246 12.531h5.758c-.784.478-.784.478-2.659.364-1.014-.058-2.009-.134-3.023-.21-.019-.039-.057-.096-.076-.154ZM183.692 11.822c1.224-.057 2.219-.516 2.946.574-1.358.65-1.569.632-2.946-.574ZM97.806 12.301c2.277-.19 2.277-.19 3.099.536-1.358 1.263-2.085-.42-3.1-.536ZM119.655 23.474c1.052-1.244 2.2-.823 3.616-.402-.344.326-.631.69-.708.632-.918-.46-1.875-.498-2.908-.23ZM169.82 13.526a699.801 699.801 0 0 0-3.884-.535c1.474-.23 2.794-1.072 3.884.535ZM53.936 27.185c1.607-.21 2.87-.363 4.285-.535-1.167 1.09-1.167 1.09-4.285.535ZM48.12 29.846h-5.855c1.952-.115 3.903-.65 5.855 0 0 0 .019 0 0 0ZM34.42 49.035h-4.802v-.325c1.664.076 3.329.153 4.974.21l-.172.115ZM112.577 23.264c1.377-1.052 1.377-1.052 2.257.096-.784.9-1.511.44-2.257-.096ZM96.754 24.49c1.397-1.149 1.397-1.149 2.296-.096-.727.497-1.34 1.147-2.296.095ZM73.393 39.986c-1.129.058-2.258.096-3.386.153v-.383c1.128-.23 2.257-.554 3.386.23ZM49.746 39.853c1.167.115 1.932.172 3.003.287-1.3.957-1.55.938-3.003-.287ZM69.472 28.564c.248.44.497.88.803 1.454-.86.153-1.569.287-2.296.401-.038-.095-.076-.172-.115-.267l.632-.287c.21-.115.497-.21.593-.383.096-.23.019-.536.019-.823.115-.038.23-.076.364-.095ZM35.416 26.42c1.243-.364 2.123-.632 3.118-.919-.478 1.282-.727 1.359-3.118.919ZM151.434 31.108c.995-.306 1.722-.727 2.143.42-1.224.326-1.224.326-2.143-.42ZM118.928 20.28c.192-.21.268-.363.364-.382.535-.134 1.167-.421 1.473.306.076.191-.077.631-.268.784-.497.402-.918.192-1.569-.708ZM92.373 21.924c-.402.69-.823 1.378-1.378 2.316-.306-1.914-.306-1.914 1.378-2.316ZM99.643 23.992c-.153-.88-.115-1.473.784-1.435.249.02.651.44.651.67.019.995-.708.765-1.435.765ZM152.257 22.307c.88.21 1.684.402 2.468.574-.823.994-1.473.88-2.468-.574ZM74.369 43.985h-2.315v-.268h2.41c-.019.076-.057.172-.095.268ZM150.153 12.626c.88-.096 1.645-1.32 2.812-.287-.918.688-1.798.841-2.812.287ZM60.498 13.01c.134-.421.153-.976.44-1.225.345-.306.938-.459 1.359.479-.44.325-.919.67-1.397 1.033a2.61 2.61 0 0 0-.402-.287ZM52.845 27.243c-.784.134-1.492.249-2.41.402 1.167-1.454 1.492-1.492 2.41-.402ZM25.352 27.283c.86-.785 1.626-.708 2.544-.058-.899.364-1.645.65-2.544.058ZM57.915 40.254h-2.487c1.033-.88 1.741-.88 2.487 0ZM60.269 31.836l3.807-.402c-1.225.842-2.545.383-3.807.402ZM30.403 47.124c-.46.172-.919.363-1.454.574-.23-.383-.44-.746-.708-1.206.995-.248 1.569.25 2.18.65 0 .02-.018-.018-.018-.018ZM108.463 16.281c-.899 1.053-2.123.594-3.271.747.363-.555.937-.479 1.473-.517.593-.057 1.186-.153 1.798-.23ZM34.421 30.037c-1.167.077-2.315.134-3.482.21-.02-.095-.02-.19-.038-.286 1.148-.134 2.296-.287 3.443-.421.039.153.058.325.077.497ZM158.876 20.433c-.975.057-1.568.076-2.238.114.708-1.339.708-1.339 2.238-.114ZM49.459 45.935c.593.21 1.186.421 2.124.765-1.32.21-1.32.21-2.239-.344.038-.134.077-.287.115-.42ZM107.583 23.494c-.765.554-1.243.918-1.741 1.281-.306-1.32-.153-1.473 1.741-1.281ZM134.712 18.691h3.521v.115h-3.482a.261.261 0 0 0-.039-.115ZM124.821 45.286c-.746.076-1.473.134-2.219.21a2.214 2.214 0 0 1-.096-.344c.574-.268 1.167-.517 1.779-.804.211.402.345.69.479.957 0 .02.057-.02.057-.02ZM83.131 45.822c-.497 1.282-1.11 1.071-2.2.42.918-.171 1.435-.267 2.2-.42ZM70.313 48.251H67.33c.88-.191 1.779-.708 2.984 0ZM39.108 24.26c.727-.69 1.224-.804 1.645-.173.076.115-.038.498-.191.632-.747.631-.919-.172-1.454-.46ZM95.759 46.549l-1.97.21c.803-1.129 1.377-.631 1.97-.21ZM163.583 34.284c.536-.114 1.091-.248 1.627-.363.038.076.076.153.114.248-.153.077-.306.173-.459.25a2.494 2.494 0 0 1-.536.171c-.21.039-.44.058-.65.096-.038-.153-.077-.268-.096-.402ZM157.748 34.304c.459-.096.899-.21 1.702-.383-.593.803-.956 1.224-1.702.383ZM61.379 27.397c-.593.039-1.187.096-1.914.134.708-.765.708-.765 1.914-.134ZM96.027 11.709c-.612.096-1.225.172-1.837.268.517-.785 1.148-.689 1.837-.268ZM136.741 11.939c-.842.076-1.703.134-2.698.21.899-.956.899-.956 2.66-.172l.038-.038ZM177.205 12.666a85.06 85.06 0 0 1 1.895-.44c-.479 1.167-1.206.784-1.78.842a62.345 62.345 0 0 0-.115-.402ZM83.629 43.563c.899-.038 1.779-.076 2.678-.134 0 .077.02.172.02.249-.88.096-1.76.172-2.641.268-.02-.115-.038-.249-.057-.383ZM88.317 13.087c-.746.096-1.09.134-1.492.191-.02-.268-.096-.478-.039-.593.115-.23.325-.402.498-.593.267.249.535.498 1.033.995ZM65.72 24.68c-.765.058-1.205.077-1.874.134a9.71 9.71 0 0 0 .286-.612c.555-.861.957-.498 1.589.478ZM174.03 12.895c.555-.115 1.129-.25 1.684-.364.038.153.057.325.096.478-.555.172-1.148.134-1.78-.114ZM151.109 40.063c.364-.077.747-.153 1.11-.249l.115.402c-.364.115-.708.249-1.071.363a5.33 5.33 0 0 0-.154-.516ZM57.705 29.902c.249-.383.498-.765.746-1.129.536.249.345.65-.746 1.13ZM136.683 24.106c-.172-.516-.344-.784-.287-.976.058-.23.288-.478.517-.573.115-.058.555.267.536.325-.077.23-.268.459-.766 1.224ZM71.347 27.627c-.46.038-.919.057-1.359.095 0-.153-.02-.287-.02-.44h1.379c-.02.115-.02.23 0 .345ZM80.434 39.68h1.473c0 .077.02.154.02.23-.479.096-.957.172-1.436.268l-.057-.497ZM86.154 16.51c-.574.057-1.148.133-1.932.21.612-1.186 1.263-.804 1.875-.65.019.152.038.305.057.44ZM133.412 20.203c.516-.19 1.109-.727 1.473.67a37.517 37.517 0 0 0-1.531-.172c.019-.172.038-.325.058-.498ZM80.549 27.819c-.344 0-.708.038-1.033-.039-.077-.019-.058-.402-.096-.612h1.11c0 .23.019.44.019.65ZM158.398 40.274c-.593.057-1.205.095-2.181.172.938-.727 1.588-.517 2.181-.172ZM77.43 16.606c-.306-.325-.612-.65-.937-1.014 1.244-.746 1.071.23.937 1.014ZM39.759 12.187c.67.076 1.052.114 1.626.19-.593.785-.976.823-1.626-.19ZM138.156 23.818c.115-.593.173-.956.268-1.435.861 1.053.861 1.053-.268 1.435ZM85.122 15.343c-.479.077-.976.153-1.454.23a24.387 24.387 0 0 1-.115-.536c.478-.134.975-.268 1.454-.402.038.23.076.479.115.708ZM78.463 48.099c.574-.02 1.167-.058 1.741-.077v.192h-1.74v-.115ZM38.362 41.88c.555-.44 1.129-.822 2.2-.287-.937.115-1.569.192-2.2.287ZM140.434 39.202c-.307-.134-.613-.287-.919-.44 0 0 .115-.306.134-.306.306.095.612.23.918.344a1.66 1.66 0 0 1-.133.402ZM61.512 22.787c-.325 1.033-.708 1.167-1.55.383.593-.154.976-.25 1.55-.383ZM87.953 15.573c.287-.21.593-.402.88-.612.076.153.249.402.23.42-.268.211-.574.383-.861.575-.077-.134-.173-.268-.25-.383ZM117.13 43.218h1.492v.153h-1.492v-.153ZM54.07 28.507c.267-.173.535-.326.803-.498.057.172.191.46.153.479-.268.133-.555.23-.823.325-.038-.096-.095-.192-.134-.306ZM82.978 26.863c.421-.076.842-.153 1.435-.249-.344.957-.842.861-1.435.249ZM68.668 20.395c.918-.248 1.435-.363 2.028-.535-.593.689-.593.689-2.028.535ZM89.407 25.58c.268.383.555.746.957 1.34-1.11-.192-1.224-.67-.918-1.378l-.038.038ZM169.84 22.155c.172.268.382.478.344.612-.057.192-.325.402-.497.402-.173 0-.326-.268-.479-.421.172-.153.345-.325.632-.593ZM174.375 22.155c.248-.172.497-.382.516-.344.153.134.306.325.364.516.019.058-.268.307-.326.287-.172-.095-.325-.267-.554-.459ZM94.784 26.288c-.23.057-.46.115-.69.153-.018-.096-.038-.21-.076-.306.23-.058.46-.096.689-.153.038.114.057.21.077.306ZM30.479 26.556c.325-.039.65-.096.976-.134.019.114.038.23.076.344-.325.096-.65.172-.976.268a3.56 3.56 0 0 0-.076-.478ZM74.216 27.436c.287-.173.479-.345.67-.364.096-.02.23.23.344.344-.172.153-.306.345-.497.402-.077.02-.249-.191-.517-.383ZM30.326 15.765h-.957v-.306h.957v.306ZM118.527 12.914c.229-.134.401-.325.497-.306.191.077.325.268.478.421-.172.076-.325.21-.497.191-.134 0-.268-.153-.478-.306ZM75.02 40.273a2.133 2.133 0 0 1-.287-.23c.133-.076.248-.191.401-.23.058-.019.173.115.25.192a9.385 9.385 0 0 0-.364.268ZM189.814 12.11c.363-.076.746-.134 1.11-.21.019.115.057.248.076.363l-1.148.23c0-.115-.019-.249-.038-.383ZM131.938 11.575c.307-.076.613-.153.919-.21.019 0 .076.287.115.459-.326.076-.632.134-.957.21a2.77 2.77 0 0 0-.077-.459ZM48.483 40.904c.133.153.248.287.344.402-.134.114-.249.287-.383.287-.096.019-.23-.173-.344-.287.096-.096.21-.21.383-.402ZM126.945 42.915c-.363.019-.727.057-1.071.076v-.115h1.09c-.019 0-.019.02-.019.039ZM34.44 47.295c-.21-.344-.364-.497-.345-.593a.612.612 0 0 1 .364-.325c.076-.02.287.191.287.306 0 .172-.153.325-.306.612ZM37.08 47.87c-.21-.574-.325-.765-.287-.861.038-.096.268-.134.402-.153.038 0 .153.191.134.287 0 .153-.096.306-.25.727ZM50.205 50.203c-.268-.038-.536-.096-.803-.134.019-.096.038-.172.057-.268.268.077.517.153.784.21 0 .077-.019.135-.038.192ZM156.007 24.067c.173-.21.268-.421.402-.46.115-.038.287.096.44.134-.096.134-.172.307-.306.383-.096.058-.287-.019-.536-.057ZM55.657 23.839c.192.114.402.19.44.325.039.095-.19.402-.23.383-.19-.058-.382-.192-.554-.288.096-.133.21-.267.344-.42ZM89.445 25.54c-.23-.191-.478-.383-.88-.727.345-.096.574-.153.804-.21 0 .325.02.63.02.956.018.02.056-.019.056-.019ZM41.308 36.639l.803.057v.077h-.803v-.135ZM50.588 36.695h.67v.058h-.69c.02-.02.02-.039.02-.058ZM155.815 36.829l-.899.057c0-.057 0-.115-.019-.191h.899c.019.038.019.076.019.134ZM102.168 43.678c-.268.02-.555.02-.823.039v-.115h.823c-.019.038-.019.057 0 .076Z" fill="#fff"/></svg>