<svg width="234" height="116" fill="none" xmlns="http://www.w3.org/2000/svg"><path d="M117.543 65.282c.297.224.603.431.965.703-.643.79-1.477 1.12-2.321 1.161-.792.041-1.335.371-2.07.87.444.185.739.303 1.258.52-.763.296-1.37.537-1.894.744-.573-.518.218-1.349-.706-1.654-.229.522-.473 1.035-.662 1.56-.206.555-.475.732-1.053.44-.665-.322-1.36-.557-2.169-.63.263.443.542.895.869 1.426-1.29.345-2.475.689-3.672.984-1.137.278-2.219.857-3.695.897.99-.87 1.682-1.727 2.924-1.218.116-.65-.205-.668-.574-.57-1.707.458-3.41.927-5.114 1.397-.7.188-1.393.4-2.073.713 1.093.445 2.073-.37 3.416-.27-1.094.78-2.363.515-3.037 1.485-.826-.476-2.125.227-2.668-1.26 1.082-.381 2.384-.388 3.225-1.377-.247-1.263-1.065-.043-1.662-.305.417-.361.751-.635 1.05-.9-.111-.312-.32-.65-.236-.779.204-.318.447-.198.686.106.202.262.523.426.797.616.064-.057.112-.123.176-.18-.091-.29-.195-.579-.37-1.085.55.09.965.163 1.392.233.55-1.043 2.094-1.47 1.857-3.09-.268.032-.536.064-.767.086-.075.455-.018.913-.227 1.167-.187.234-.674.233-.989.383-.838.41-1.622.237-2.461.002-.657-.193-1.156.204-1.502.929-.146.289-.395.54-.591.79-.052-.342.118-.835-.675-.899.3.38.485.634.684.883-.654.9-1.14.95-1.63.108-.292-.501-.615-.48-1.121-.305.052.394.105.788.165 1.206-.313.308-.642.356-.739-.105-.123-.559-.484-.726-.917-.623-.258.07-.508.413-.618.692-.458 1.19-.553 1.228-1.605.299-.061.161-.146.289-.15.422-.01.16.046.316.083.504-.682.354-1.29.688-2.065.448-.143-.04-.372.086-.534.17-.477.232-.948.49-1.525.79.215.31.42.585.672.938l-2.652.711a94.174 94.174 0 0 1-.087-.174c.242-.13.487-.249.774-.405-.313-.43-.61-.85-.944-1.313-.363.413-.727.826-1.162 1.312.123.216.295.513.47.821-.393.303-.59.158-.784-.224-.332-.648-1.034-.763-1.522-.474-.803.491-1.226.144-1.816-.685.004.407-.016.53.014.641.036.135.121.257.204.42-.742.224-.823-.32-.878-.674-.029-.255.175-.626.384-.826.282-.274.678-.419.971-.748-.964-.307-1.846.034-2.627.362-.757.321-1.34.451-2.126.122-.727-.305-1.532-.313-2.265.291-.268.23-.782.275-1.162.233-.52-.072-1.029-.304-1.621-.5.36-.716.731-.512 1.173-.289.734.383 1.175.212 1.732-.609-.6-.326-1.174-.5-1.883-.298-.39.118-.838.067-1.245.018-1.168-.135-2.24-.058-3.192.763-.365.308-.912.429-1.371.63-.377.167-.76.31-1.185.49.46.442.897.746 1.167 1.16.13.19-.068.585-.115.9-.086.023-.175.034-.261.057-.418-.625-.835-1.25-1.256-1.888-.35.12-.664.125-.803.294-.6.661-1.432.7-2.205.907-.086.023-.18.114-.227.087-1.163-.557-2.044.43-3.139.617.12-.387.313-.702.286-.997-.04-.345-.283-.662-.436-.99-.115-.034-.239-.054-.353-.089-.045.275-.086.563-.142.894-.794-.261-1.332-.157-1.897.39-.543.527-1.349.664-2.127.411-.12.243-.175.574-.368.691-.5.292-1.047.61-1.604.693-.975.143-1.603.601-1.938 1.56.307.115.602.233 1.015.399-.326.258-.56.413-.77.614-.21.201-.384.432-.617.692-.645-.196-1.287-.234-1.616.604-.056.134-.265.334-.361.32-.984-.183-1.556.483-2.216 1.016-.186.141-.476.14-.795.226.05.579.09 1.173.127 1.703.82.307 1.339-.753 2.127-.07-.56.466-1.094.925-1.663 1.407l.568.4c-.937.778-2.386.969-2.695 2.42 1.07.556 1.47-.604 2.308-.67.008.274.015.496.018.705.06.024.106.051.13.044.706-.215 1.41-.588 2.127-.609.678-.024 1.366.332 2.016.5-.582.92-1.69.913-2.694 1.143-.237.05-.537.012-.71.15-.5.398-.954.862-1.637 1.505l3.303-.885c.348.315.687.645 1.103 1.02-.492.278-.917.51-1.525.844.42.138.633.199.838.276.291.106.6.273.377.622-.084.128-.462.19-.636.131-.438-.159-.833-.408-1.235-.63-.448-.248-.804-.153-1.07.234.47.23.909.442 1.39.668-.276.982-1.548 1.639-.338 2.618-.438.328-.798.608-1.16.876-.131.101-.398.186-.403.266.025.533-.232.852-.691 1.054-.968.418-1.903.905-2.91 1.227-.377.115-.884-.157-1.453-.268-.018.228-.043.432-.065.741-.259.017-.536.012-.82.035-.311.018-.694-.037-.917.115-.933.644-1.996.85-3.046 1.158-.368.099-.701.28-1.143.451-.643-.683-1.303-.691-2.173-.155-.959.599-2.05.945-3.176 1.312.26-.254.518-.521.801-.741.326-.259.68-.459 1.025-.696.31-.215.6-.464.926-.669.36-.229.73-.42 1.1-.611.358-.188.734-.355 1.349-.664-.49-.159-.704-.22-.977-.305.252-.238.483-.458.926-.866-2.157.249-3.598 1.503-5.306 2.106-1.67.592-3.094 1.764-4.803 2.261-.064-.088-.123-.164-.187-.253.164-.175.299-.409.51-.505.725-.339 1.48-.62 2.204-.959.257-.122.603-.306.15-.62l-.021.02c.273-.06.56-.124.836-.172.722-.154 1.359-.43 1.708-1.287-.44.026-.816.048-1.167.063-.189-.555.202-.62.483-.8.658-.44 1.317-.88 1.957-1.341.131-.101.161-.333.351-.752-.398.185-.563.256-.716.323l-2.038.941c-.153.067-.39.065-.454.174-.518.915-1.516.972-2.333 1.362-1.11.522-2.16 1.172-3.246 1.739-.37.191-.784.315-1.199.387-.618.1-1.26.114-2.199.194.429-.365.637-.618.895-.74 1.294-.623 2.594-1.221 3.895-1.82.306-.135.627-.313.947-.346 1.053-.098 1.625-.764 2.233-1.835-.607.241-.987.396-1.45.585-.093-.79.5-.936.903-1.202.415-.27.89-.462 1.32-.722.17-.099.378-.26.424-.43.066-.294.285-.708-.193-.87-.419-.137-.465.23-.534.512-.02.071-.081.14-.081.14-.698.148-1.404.166-1.954.471-.516.283-1.293-.061-1.632.688-.041.09-.534-.029-1.031-.066.472-.35.78-.578 1.045-.767-.104-.486-.194-.922-.315-1.47.543.013.901.023 1.549.033-.516-.599-.865-1.018-1.325-1.553-.419.744-.81 1.349-1.692.953-.196-.092-.571.127-.81.27-.732.46-1.407 1.035-2.175 1.412-.639.316-1.399.427-2.102.603-.234.062-.477.088-.806.137.245.619.463 1.14.683 1.712-.41.386-.754-.061-1.145-.048.381-.787.218-1.151-.522-1.163-.448 0-.894.055-1.67.105.442-.461.67-.693 1.006-1.06-.503-.01-.82-.017-1.268-.015.14-.46.264-.834.41-1.321-.184-.096-.417-.23-.679-.371-.015-.694.328-1.036 1.026-1.183.574-.115 1.173-.288 1.658-.59a12.567 12.567 0 0 1 4.884-1.716c-.045-.462-.08-.887-.134-1.385-.584.13-.936 1.224-1.605.298-.208.306-.312.702-.56.808-1.857.88-3.743 1.7-5.763 2.61-.042-.844-.068-1.482-.092-2.16 1.055.205 1.852.136 2.586-.614.382-.392 1.044-.674 1.592-.69.863-.02 1.399-.48 2.017-.922.795-.568 1.632-1.082 2.495-1.642-.316-.64-.657-1.325-1.031-2.08-.728.919-.728.919.077 2.006-.328-.044-.623-.017-.69-.118-.457-.772-1.19-1.3-1.78-2.024.422-.442.843-.883 1.307-1.363-.113-.128-.276-.295-.468-.52.91-.388 1.337-1.543 2.56-1.2.053-.395.097-.67.136-.97-.7-.352-1.347-.31-1.996-.031-.65.28-1.289.595-1.95.825-.289.104-.641.067-.98.079-.032-.216-.061-.326-.079-.44a3.888 3.888 0 0 1 .012-.398 70.057 70.057 0 0 0-1.367-.042c.375-.272.514-.44.686-.486.482-.117.934 0 1.356-.588.374-.52.295-1.013.465-1.506.015-.044.033-.075-.036.062.582-.432 1.033-.764 1.594-1.177.684.198 1.275-.052 1.927-.714.519-.52 1.393-.794 2.143-.943 1.052-.203 2.146-.193 2.907-.252 1.314-.892 2.403-1.644 3.516-2.403-.183-.438-.66-.547-.912-.309-.662.625-1.503.482-2.25.695-.81.217-1.6.508-2.408.737-.27.073-.572.075-.855.098-.45.042-.903.07-1.574.12.28.306.418.48.607.692-.431.063-.822.128-1.302.204-.07-.56-.143-1.028-.208-1.563.416-.217.84-.45 1.269-.67-.017-.06-.02-.125-.037-.187-.376.022-.755.032-1.325.066.518-.52.97-.8 1.623-.87.121.258.227.506.362.812l1.424-.382c-.345-.21-.563-.336-.928-.567 1.274-.697 2.69-.72 3.924-1.368.002-.435-.03-.755-.613-.717-1.586.122-3.163.229-4.686.834-.891.358-1.909.393-2.895.592.159-.096.339-.21.529-.287 1.21-.495 2.404-1 3.63-1.433.457-.162.966-.127 1.708-.208.028-.192.08-.587.108-.726 2.09-.06 3.658-.888 5.33-1.284.233.53.153 1.262 1.019 1.399.18.03.294.46.447.736-.926.472-1.756 1.01-2.66 1.318-.869.298-1.757.47-2.359 1.171.042.108.096.212.141.331 1.083-.382 2.171-.74 3.25-1.134.396-.145.762-.349 1.145-.543.382-.195.71-.151 1.145.246-.717.468-1.367.892-2.16 1.42.594.447 1.072.806 1.696 1.27.1-.855.432-1.484 1.239-1.371.615.085.425.702.405 1.168.529.108.886.065.875-.564-.002-.5-.032-1.004.03-1.508.025-.204.269-.375.444-.606.375.715.66 1.284 1.068 2.07.216-.519.329-.786.445-1.04.315-.69.777-.88 1.38-.397.585.462 1.091.287 1.61.016.707-.36 1.385-.779 2.11-1.118.493-.224 1.015-.338 1.367-.84.094-.144.465-.085.806-.137-.25 1.225-1.329.935-1.913 1.407-.596.476-1.262.839-1.891 1.244.27.415.541.842.921 1.425.282-.128.805-.19.98-.473.468-.757 1.127-.947 1.952-.865-.162-.51-.333-.753-.718-1.058.829-.446.978-.38 2.014.882-.292.776-.959.94-1.693.953.212 1.036.659 1.377 1.41 1.136.44-.13.868-.298 1.307-.429.061-.016.149.065.404.181-1.425.724-2.743 1.407-4.122 2.105-.032.324.022.77-.158 1.082-.09.156-.634.039-1.158.047a50.25 50.25 0 0 1-.575 1.05c.406-.057.585-.078.772-.115.166-.019.317-.046.33-.05.395.448.697.788 1 1.128.327-.298.646-.581 1.11-1.008.377-.022 1.012.19 1.388-.57.138-.273.744-.317 1.136-.475.442-.171.941-.173 1.215-.773.13-.298.802-.347 1.231-.514.316.297.636.606 1.063 1.018-.274.06-.492.08-.686.144-.555.188-1.106.389-1.661.577-.025.007-.049.066-.051.106 0 .197.073.52-.018.57-.18.115-.467.126-.687.093-.179-.031-.342-.198-.591-.342-.372 1.02-1.124 1.552-2.304 1.815.346.21.484.384.595.354.752-.189 1.605-.101 2.217-.765.172-.191.52-.271.808-.322.741-.133 1.523-.066 2.057-.775.096-.131.39-.117.599-.121.484-.011.798-.214 1.181-.553.544-.475 1.325-.658 2-.984.233-.115.459-.254.683-.499-.772.115-1.146-.838-1.987-.586-.205.068-.63-.582-.915-.86.18-.707.578-.498 1.014-.443.38.043.768-.18 1.443-.36-.45-.157-.657-.193-.791-.302-.132-.097-.261-.285-.276-.44-.008-.076.22-.256.35-.264.373-.034.75-.004 1.345.008-.307.82-.57 1.508-.874 2.34.536-.065 1.007-.125 1.53-.186.204.419.402.813.696 1.419.243-.565.42-.941.582-1.314 1.89.323 2.047.267 2.29-.693-1.087.515-2.07.041-3.253-.3.36-.373.597-.62.897-.924.173.94.627 1.108 1.325.671.565-.349.506-.912.485-1.63-.458.11-.904.163-1.312.312-.754.28-1.407.153-1.92-.434.38-.891.907-.058 1.436-.095.206-.608.605-.74 1.31-.759.75-.003 1.495-.466 2.227-.728l-.002.04c.99-.134 1.985-.255 2.8-.947.118-.098.303-.147.456-.162.456-.07.93-.118 1.465-.182.499 1.024-.842 1.08-1.143 1.872.795.709 1.524-.5 2.34-.06.106.247.26.575.404.918 1.078-.052.272-.85.546-1.252.252-.041.532-.077.797-.122.023-.059.047-.118.068-.189l-1.126-.37c.01-.108.036-.207.047-.315.55-.253 1.098-.518 1.824-.857-.474-.294-.786-.474-1.116-.675-.294.329-.527.588-.824.905-.514-.35-1.218-.371-.99-1.34.1-.41-.681-.87-.218-1.548.806.06 1.717-.618 2.596.305-.196.25-.362.465-.54.684.037.385.498.683 1.39.918.059.168.136.358.216.56.068.153.135.306.228.505l1.191-.319c.178-.416.347-.817.552-1.28-.183-.095-.398-.209-.69-.367.058-.371.11-.767.194-1.29.519.072.955.126 1.418.186.833-.723-.032-1.347-.227-1.979.866-.403 1.064-.351 1.321.265.12.297.17.783.375.86 1 .39.993 1.248 1.093 2.063-.961.982-1.671.198-2.473-.535-.19.617-.395 1.08-.452 1.556-.064.451-.946.596-.413 1.308.663-.375 1.285-.805 1.974-1.081.714-.284 1.48-.423 2.376-.664-.393-.237-.72-.425-1.047-.614.398-.186.588-.46.442-.908-.124-.362-.235-.727-.378-1.163.228-.232.489-.486.72-.706-.043-1.436-1.176-.356-1.735-.772.89-1.397 2.477-1.612 3.737-2.462l-1.696-.138c-.038-.095-.08-.203-.119-.297.406-.451.948-.834 1.202-1.362.363-.756 1.104-.889 1.694-1.244.543-.33 1.191-.464 1.792-.678-.01-.089-.034-.175-.044-.264-.259.017-.534-.028-.758.071-.661.283-1.306.232-1.964.04-.74-.21-1.034-.079-1.384.58-.095.184-.203.371-.314.546-.049.066-.128.113-.243.223-.307-.063-.656-.14-1.281-.262.564-.349.915-.562 1.3-.796-.709-.337-1.203-.362-1.788.203-.42.401-.625 1.01-.979 1.604-1.087-.814-.918-1.807-.613-2.876.102.183.174.401.309.562.135.162.338.278.55.432.283-1.352.283-1.352 1.39-1.201-.157-.288-.282-.557-.437-.792-.13-.189-.305-.352-.468-.52.066-.096.132-.193.211-.293.193.278.37.546.563.823.082-.087.16-.187.242-.275-.008-.274-.015-.549-.02-.863.104-.002.215-.032.314-.005.278.056.557.113.826.186.877.226 1.05.087.912-.823-.04-.293-.115-.575-.192-.962.32-.178.632-.34 1.186-.634-.144.447-.196.645-.293.92.562.087.974.148 1.114-.653.196-1.04.334-1.064 1.461-.984.225.348.437.699.78 1.24-.02.07-.096.38-.177.718.46.14.84.183.998-.307.184-.59.251-1.173-.72-1.505l2.546-.814c.032.07.064.14.109.208-.351.212-.706.413-1.07.628.01.037.008.077.022.127l.977-.184.818 1.48c1.13-.448 2.352-.947 3.572-1.405.19-.078.444-.014.663.02.721.135.813.084 1.254-.824a128.17 128.17 0 0 0-1.785-.127c.228-.969 1.011-.6 1.732-.661-.119-.442-.174-.796-.312-1.114-.389-.91-.688-1.83-.44-2.818.223-.889-.324-1.506-.819-2.32 1.246-.413 2.237-1.232 3.647-1.228-.212.978-1.279.83-1.753 1.562.391-.012.69-.027 1.017-.035l.408 1.523c-.547-.025-.988-.052-1.562-.082-.08.337-.26.701-.223 1.034.055.748.309 1.496-.27 2.428.646-.239 1.004-.374 1.363-.51.76.823.036 1.215-.68 1.736 1.909.541 2.913-.82 4.317-1.276-.284-.226-.487-.396-.715-.558.4-.174.949-.242 1.086-.515.295-.619-.577-.583-.738-.987-.01-.037-.023-.086-.072-.218.45-.384.614-1.296 1.677-.818l-.217 1.059c.2.012.398.012.583.015.036.477.072.955.111 1.497l1.794-.48c-.448-.394-.703-.852-1.336-.564-.104.054-.378-.28-.578-.438.379-.404.76-.796 1.212-1.272-.206-.182-.479-.412-.82-.702.284-.22.558-.426.765-.586-.288-.581-.446-1.17-.813-1.56-.39-.422-.98-.658-1.6-1.058.44-.42.962-.93 1.402-1.35 1.135.012 2.206.028 3.273.032l-.06-.024c.202.064.39.172.59.184.052 0 .116-.255.181-.404l-.027.047c.499-.055.828-.3 1.089-.752.53-.92 1.344-1.321 2.618-1.084-.207.306-.327.549-.512.69-.232.168-.561.216-.793.384-.375.271-.76.599-.387 1.21.512-.006.917-.167 1.186-.687.086-.168.253-.331.427-.417.117-.058.358.01.437.106.079.098.071.363-.011.45-.724.787-1.47 1.54-2.213 2.305-.553-.247.183-1.089-.533-1.108-.414-.02-.841.252-1.26.404l.77 2.874c.29-.289.509-.505.824-.8.195.382.348.657.571 1.097.353-.45.634-.828.987-1.278.22.23.436.45.65.655.721-.154.439-.815.727-1.116.38-.3.764-.587 1.212-.93.074.177.172.348.206.524.04.2.031.412.051.683.615.033 1.067-.193 1.474-.592.364-.36.754-.426 1.278-.29.737.198 1.519.265 2.412.407.188-.235.462-.585.798-1.003.168.284.285.476.484.778.365-.164.801-.254 1.087-.515.297-.264.68.818.88-.104.023-.112.739-.04 1.133-.093.154-.015.344-.092.444-.211.39-.46.746-.95 1.144-1.478-.29-.739-1.288.253-1.699-.545.537-.894 2.249-.84 2.072-2.385.399-.133 1.113.175 1.019-.865-.819.087-1.623.184-2.478.282.347-.62.93-.802 1.705-.957-.138-.66-.269-1.297-.4-1.933.555-.583.555-.583 1.507-.417-.246.408-.477.773-.762 1.23.794.262 1.189.854 1.347 1.64.068.35.274.532.653.668.493.17 1.18.328.85 1.207-.062.161.332.503.414.613-.117.94-.226 1.758-.324 2.574.078.045.156.09.237.147.296-.224.603-.45 1.005-.77.158.05.459.141.89.276-.011-.432-.022-.77-.039-1.227 1.377.276 1.819-1.12 2.853-1.436.242-.078.491-.131.97-.26-.541 1.027-.298 1.739.247 2.396a9.68 9.68 0 0 0-.6.068c.132.886-.737.935-1.242 1.36.155.234.269.414.513.783.6-1.2 1.635-1.07 2.56-1.252.464-.084.921-.246 1.437-.385-.205-.616-.482-.766-.965-.505-.299.16-.58.34-.889.463-.536.21-.787-.04-.84-.578.118-.15.364-.413.345-.435-.616-.677-.136-1.49-.229-2.229-.075-.624.451-1.213 1.311-1.443-.038 1.234.968 1.056 1.712 1.278-.186-.2-.401-.366-.565-.585-.556-.747-.427-1.005.671-1.325.021.323.051.63.074.914.507.22.991.406 1.473.632.149.066.38.24.36.312-.228.969.732 1.357.991 2.077-.202-.064-.398-.157-.605-.193-.758-.126-1.478-.21-2.12-.788-.435-.397-.678-.174-1.031.816.372-.034.708-.058 1.222-.104-.586.908-.361 1.65.233 2.636-.122-.994.121-1.611.741-2.146.512.586.328 1.57 1.284 1.748.211-.148.442-.315.518-.375-.106-.643-.198-1.132-.277-1.624.747.234 1.494.468 2.344.74.193-1.196 1.232-1.198 2.028-1.714.437 1.239-1.396.98-1.122 2.051.293.553 1.463.45 1.244 1.549l.848-.227c-.036-.28-.037-.53-.124-.757-.2-.499-.108-.945.297-1.25.569-.43.534-.855.173-1.416-.234-.385-.332-.846-.538-1.37.481-.22.912-.428 1.334-.62-.042-.502-.244-.619-.678-.516-.396.093-.822.075-1.299.111-.354.253-.827.55-1.243.912-.538.447-1.025.104-1.551.008-.375-.07-.794.081-1.192.122-.178.021-.357-.01-.743-.025.262-.202.337-.314.426-.325.789-.053.963-.534.883-1.223a3.786 3.786 0 0 1-.024-.876c.04-.537.369-.783 1.05-.847-.251.488-.446.843-.664 1.257.352.182.7.352 1.03.553.533.318 1.269.068 1.344-.241.237-.933 1.091-.793 1.569-1.17.414.27.795.51 1.346.85.039-.446.001-.685.097-.817.142-.209.373-.428.585-.472.15-.027.413.218.515.401.121.205.238.595.139.714-.638.763-.151 2.04-1.326 2.566l.972.78c-.196.302-.364.558-.529.826l.123.164c.193-.065.452-.081.548-.213.133-.193.081-.534.22-.703.172-.191.488-.342.728-.327.161.01.367.336.423.545.082.307-.011.648.05.974.161.944.294 1 1.5.637a55.954 55.954 0 0 0-1.203-.56c.604-.595 1.114-1.1 1.709-1.681-.08-.15-.223-.388-.379-.675.455-.267.895-.543 1.395-.835-.496-1.262-1.428.317-1.981-.666.031-.325.107-.924.176-1.601-.313-.087-.626-.174-.948-.246l-.021.019c1.048-.215 2.084-.427 3.242-.672-.312-.627-.754-1.193-.112-1.746l-.031-.018c.176.216.339.58.55.629.505.115 1.11-.034 1.3.678.524-.061 1.062-.113 1.586-.175.07-.769.133-1.418.204-2.134l1.29-.346c-.118.348-.207.556-.292.829.834.606 1.588-.018 2.495-.221-.093.34-.169.598-.277.982 1.317.147 2.461-.199 3.711-.889a72.859 72.859 0 0 0-.258-1.405c.474-.39 1.002-.73 1.938-.48-.495.317-.824.51-1.16.732.617.73 1.193 1.405 1.787 2.101-1.161.43-1.161.43-2.094-.202-.303 1.424-1.685.833-2.519 1.36.165.218.643.433 1.235.432-.98.42-1.714.972-2.49 1.022-.906.059-1.151.52-1.377 1.199-.064.201-.144.394-.274.744.288.094.594.302.846.26a57.328 57.328 0 0 0 3.839-.752c.581-.142 1.112-.469 1.643-.795.472-.35.942.616 1.552-.153-.319-.257-.631-.489-.997-.773l1.269-1.01c.439 1.882.451 1.879 2.133 1.77.006.315.008.617.019.904.179.03.297.078.327.043 1.009-1.244 2.374-1.307 3.824-1.3 1.237-.003 2.473-.202 3.714-.285 1.205-.073 2.382.046 3.75.338a496.11 496.11 0 0 1-1.736 1.676c.632.147 1.065.241 1.626.367l-.198-.736c.741-.33 1.404-.706 2.113-.909.709-.203 1.479-.225 2.316-.344.139.173.306.405.486.633.646.84 1.605.834 2.17-.055.361-.57.706-.952 1.496-.506-.163.912-1.223 1.13-1.534 1.938.407 1.075.335 1.003-.467 1.889-.582.63-.95 1.465-1.415 2.235a82.957 82.957 0 0 1-1.296-.364c.453 1.248.834 1.54 1.878 1.406 1.043-.135 2.082-.334 3.204-.517.091.24.184.49.291.791.389.027.806.06 1.343.1.043.358.071.706.108 1.09-.588.066-1.086.12-1.659.195l.273 1.02c-.397.04-.769.074-1.324.117.184-.444.297-.71.43-1.05-1.014-.491-2.012-.237-3.001-.196-.949.044-1.903.023-2.994.026.197.197.384.305.455.47.163.365.342.738.379 1.123.026.243-.308.517-.271.757.038.24.316.442.575.767-.362-.074-.589-.132-.883-.197-.129.402-.273.797-.378 1.14-.848-.51-1.645-.98-2.527-1.52-.372.77-.676 1.405-1.007 2.086.486.83.486.83-.398 1.66.1.276.223.585.336.91-.454.32-.896.635-1.396.98-.521-.572-1.009-1.31-1.953-.806-.757-1.009-2.145-.097-2.977-.993-.224-.243-.793-.156-1.396-.245.26-.504.448-.883.681-1.34-.65-.313-1.271-.226-2.035.018.256.366.464.653.695.973-.251.093-.469.165-.782.275.097.264.182.53.295.855-.183.102-.391.21-.687.382.813.335.679.963.504 1.589.691.368 1.634.154 1.987 1.126-.177.127-.373.377-.549.358a7.024 7.024 0 0 1-1.582-.353c-.524-.188-.857-.547-.609-1.192.02-.072-.109-.208-.184-.293-.302-.34-.662-.652-.896-1.037-.235-.385-.345-.842-.544-1.342.208-.253.447-.54.674-.825-.066-.048-.148-.158-.185-.148-1.367.695-2.878.31-4.361.524.57.505 1.074.962 1.694 1.507.563.086 1.317.2 2.139.322-.529.97-1.358.482-1.975.634-.361 1.11-.28 1.313.751 1.918-.033.272-.071.572-.128.995-.511-.087-.978-.159-1.448-.244-.016-.06-.017-.113-.034-.175.239-.09.482-.168.816-.297-.139-.371-.287-.726-.471-1.217-.276.246-.447.396-.668.6-.811-.717-1.742-.112-2.625-.02-.511.058-.964.285-1.357-.347-.269 1.06-.269 1.06.877 1.502.147.698-.4 1.016-.825 1.393-1.021-.03-1.756-.412-2.134-1.43-.106-.3-.535-.474-.885-.75-.588 1-1.28 1.265-2.146.392-.864 1.245-1.972 1.041-3.113.86-.479-.069-.982.066-1.678.12.061-.41.091-.787.19-1.156.037-.155.273-.257.289-.393.038-.352.099-.764-.045-1.054-.083-.162-.56-.127-1.027-.199.094.449.138.713.215 1.048-.251.146-.519.324-.916.561l-.195-1.119-1.437.385c.597.459.827 1.266 1.698 1.177.191-.024.525.386.594.644.049.184-.188.577-.399.673-.364.163-.79.146-1.23.224-.081.68-.233 1.34-1.218 1.103-.375.47-.847.28-1.334.279-.512.005-1.034.316-1.598.52-.215-.166-.469-.374-.7-.55-.396.488-.749.938-1.223 1.526.129.19.382.543.66.942-.509.9-1.399.427-2.136.625-.173-.401-.263-.785-.493-1.053-.147-.158-.58-.252-.764-.15-.333.181-.183.496.04.74.11.114.22.23.399.406-.545.225-.758.019-.944-.38-.14-.277-.385-.502-.627-.818-.589.407-1.091.595-1.77.619-.782.025-1.815.052-2.354.986.043.357.101.723.144 1.08.252.104.506.22.758.324l-1.215 1.654c.513.64.986 1.224 1.493 1.838-.514.638-1.102.703-1.616.406-.299-.775-.544-1.394-.821-2.083-.738.145-1.413.524-1.934-.192-.353-.485-.732-.963-1.142-1.51-.976.09-1.032.223-.524 2.022-.248.106-.496.212-.814.35l-.227-.848c-.171-.046-.28-.11-.397-.104-.792.041-1.566.051-2.301.498-.41.242-.984.211-1.473.303-.378.061-.682.156-.881.591-.264.584-.694 1.094-1.072 1.696.216.218.479.464.734.725-.273.31-.503.582-.72.85a11 11 0 0 1 .156.288c.682-.894 1.456-.509 2.234-.257.372-.626-.022-.968-.349-1.354-1.032-1.198-.929-1.502.569-1.903l2.788-.747c.002.5.007.814.013 1.129-.09.01-.176.033-.256.028-.354.003-.866-.136-1.029.04-.285.313-.428.811-.494 1.25-.061.412.314.535.691.566.88.093 1.749.19 2.632.294-.315.15-.63.301-1.061.509 1.081.447 1.081.447.993-.517Zm-42.536 4.633a96.764 96.764 0 0 1-1.013-.835c-1.423.487-1.495 1.006-.458 1.926.616-.204 1.15-.374 1.73-.568-.09-.187-.176-.361-.26-.523.375.07.784.369 1.19-.082-.523-.478-.827-.042-1.19.082Zm-13.5 1.787c.539.093.955.271 1.314.188.894-.2 1.778-.49 2.654-.803 1.429-.515 2.841-1.09 4.263-1.63 1.34-.503 2.682-.995 4.107-1.521-.09-.24-.193-.475-.338-.818L71.455 68.3c-.26-.233-.537-.528-.943-.13-.167.164-.498.305-.671.246-.695-.235-.77.615-1.248.65-.49.04-.984-.038-1.474 0-.182.01-.341.25-.534.315-.956.361-1.779.977-2.871 1.124-.692.12-1.66-.002-2.206 1.197ZM58.9 68.255c-1.184-.196-2.03.188-2.92.743-.858.533-.95.386-.968 1.497.397.301.816.637 1.478 1.144-.136-.754-.214-1.193-.29-1.62.306-.188.586-.368.837-.515.74.21 1.315.833 2.236.586-.362-.469-.662-.85-.964-1.242.194-.21.357-.385.591-.593Zm28.318-16.433c.423-.534.695-.897 1.02-1.3-.36-.416-.757-.863-1.21-1.374-.508 1.15-1.703 1.062-2.448 1.67 1.175 1.436 1.175 1.436 2.203.607.153.13.341.29.435.397Zm85.206-16.973c-.621-1.335-1.779-.498-2.672-.785-.029.087-.059.174-.076.257 1.186.446 2.372.892 3.585 1.343.178-.416.294-.671.404-.898.571.018 1.09.037 1.608.056-.002-.105 0-.197-.002-.302-.97-.28-1.936-.692-2.847.329Zm-30.986.287c-.011.108-.034.219-.044.327.201.065.419.19.598.169.452-.082.896-.24 1.332-.383.834-.277 1.369-1.13.943-1.885-.375-.663-.25-1.276-.178-1.94-1.131-.342-.707 1.045-1.648 1.02 1.359.65 1.544 1.048 1.227 2.37-.877-.62-1.437.333-2.23.322Zm-22.443 6.776c.549.13 1.025.239 1.542.35.008-.265.018-.425.031-.574a85.557 85.557 0 0 1-1.145-.193c.09-.353.199-.633.204-.91.008-.266-.08-.545-.124-.757.256-.174.433-.3.601-.41l-.096-.212-1.793.48c.275.782.522 1.506.78 2.226Zm-24.38-.798c.955-.467 1.012-.745.399-1.805-.07.032-.157.055-.224.1-1.884 1.267-1.35 1.44-.223 2.652.034.03.15-.027.276-.048-.06-.273-.129-.531-.227-.9Zm64.926 3.965-.038-.292c-.445-.04-.893-.09-1.27-.12-.339-.331.109-1.215-.827-.977.051.29.083.557.137.858-.465.033-.853.058-1.241.083-.035.654.302.932.749.879.822-.076 1.648-.284 2.49-.431ZM108.146 63.22c.013.247-.006.37.031.413.492.46 1.14.813 1.138 1.643.001.052.305.155.428.122.119-.045.261-.254.256-.371-.056-.354-.175-.703-.251-.986.303-.292.525-.496.974-.932-1.029.039-1.756.076-2.576.111ZM77.75 55.688c-.103-.038-.235-.042-.32-.111-.393-.29-.693-.13-.705.267-.014.241.33.741.453.708.566-.099 1.147-.241 1.632-.542.272-.165.368-.639.571-1.061-1.033.026-1.033.026-1.631.74Zm45.935.34c-.41-.35-.664-.61-.954-.81-.452-.313-.818-.057-1.05.308-.159.24-.172.586-.238.88.347.065.692.223 1.018.162.366-.059.707-.308 1.224-.54Zm-43.922-1.13c.62.598.62.598 3.12.007.055-.436-.05-.776-.563-.678-.814.152-1.587.412-2.557.672Zm27.315 11.214c.43.425.693.67.925.898 1.287-.503.146-1.422.591-2.067-1.166-.227-.729 1.011-1.516 1.17ZM83.034 52.864a116.62 116.62 0 0 1-.312-1.51c-.496.213-.851.36-1.24.53.24.502.416.863.595 1.237.331-.09.601-.162.957-.257ZM64.5 68.374c.814-.153 1.494-.27 2.284-.415-.14-.226-.199-.447-.298-.473-.495-.078-1-.193-1.486-.142-.51.058-.643.45-.5 1.03Zm29.027-2.145c-.23-.662-.553-.589-.938-.406-.6.266-1.226.486-1.829.74-.12.045-.197.197-.3.304.028.058.057.116.083.162l2.984-.8Zm37.615-12.093c.449-.436.794-.673 1.007-1.007.108-.186-.033-.517-.065-.785-.228.035-.488 0-.671.1-.552.346-.59.843-.271 1.692Zm-92.242 43.96c.035.083.083.162.115.232.98-.078 1.884-.386 2.596-1.117.052-.053-.057-.26-.09-.383-.942.462-1.783.86-2.621 1.268Zm34.976-40.659c1.298.376 1.609.109 1.577-1.383a131.3 131.3 0 0 0-1.577 1.383Zm87.887-11.584c.015.548.032 1.005.04 1.476.235.043.427.07.622.11.264-1.519.264-1.519-.662-1.586Zm-37.058 8.968c.759.179 1.208.282 1.66.398.192-.512.382-.932-.156-1.367-.427.273-.842.542-1.504.97Zm28.449-18.6c.706-.36 1.229-.619 1.981-1.004-.874-.266-1.461-.346-1.975.094-.128.114-.013.491-.006.91Zm-15.252 6.89c-.492-.46-.794-.8-1.158-1.032-.144-.093-.466.033-.664.126-.046.025-.046.42.025.44.522.229 1.004.653 1.797.466Zm4.78 7.67c.421-.244.705-.413 1.243-.715-.645-.393-1.069-.648-1.714-1.041l.471 1.756Zm-58.73 3.443c.463-.045.912-.086 1.476-.145-.675-.846-.675-.846-1.475.145Zm-9.762-2.886c-.031.377-.053.738-.08 1.18.87-.339.87-.339.08-1.18ZM35.434 71.805c.272-.363.856-.44.652-1.057-.023-.086-.22-.178-.305-.155-.43.168-.65.477-.585.96.022.033.065.048.238.252Zm54.29-19.128c-.308-.115-.427-.215-.525-.188-.245.066-.478.18-.71.296-.025.006.042.304.082.307.26.035.528.055.777.002.117-.005.197-.198.376-.417Zm26.087 3.83c-.434-.634-.434-.634-1.251-.1.513.047.886.066 1.251.1Zm-69.885 22.28c-.653.016-.653.016-.885.578.669.137.669.137.885-.579Zm-28.325 4.127c.197.145.317.297.453.313.216.021.45-.041.655-.11.037-.01.047-.315 0-.342-.208-.089-.444-.184-.666-.177-.117.005-.244.17-.442.316Zm20.03-10.08c.724.242.724.242 1.311-.219-.568-.598-.88-.093-1.31.22Zm67.682-31.73c-.685-.002-.685-.002-.982.657.411-.281.689-.474.982-.658ZM26.775 66.7c-.45-.3-.783-.514-1.265-.055.416.375.761.533 1.265.055Zm43.747 3.323c.193.33.305.55.438.751.025.046.151.025.22.034.293-.869.293-.869-.659-.785Zm98.809-28.147c-.441.026-.74.04-1.285.067.579.688.883.79 1.285-.067Zm-28.051 8.687c-.308-.51-.559-.758-1.132-.539.212.496.418.823 1.132.54Zm-83.116 23.1c.522.084.924-.037 1.158-.587-.643-.143-.848.32-1.158.587Zm20.966-2.656c.294.263.586.37.845.01.049-.065-.052-.341-.148-.407-.427-.268-.564.058-.697.397Zm68.98-41.425c-.407-.338-.704-.364-.957.164.4.314.681.331.957-.164Zm23.4 6.919c.004-.133-.004-.263.003-.383-.403.266-.825-.279-1.412.379.592-.001 1.002.007 1.409.004ZM22.715 90.651c-.093.538-.108.924.487 1.08.11-.476.042-.827-.487-1.08ZM139.87 45.348c.023-.111.047-.17.028-.191-.019-.022-.078-.045-.115-.035-.246.065-.498.106-.721.206-.058.029-.087.168-.187.432.45-.187.747-.306.995-.412Zm-47.31-6.21c.053.103.099.223.153.327.281-.128.566-.244.848-.372l-.123-.31c-.31.123-.594.239-.879.354Zm-16.96 32.105c-.05.106-.116.203-.167.308.207.38.452.656 1.277.343a18.681 18.681 0 0 1-1.11-.65Zm94.354-27.388c.047-.118.098-.223.133-.338-.238-.397-.536-.528-1.157-.045.453.168.745.274 1.024.383ZM37.27 71.484c-.266.334-.366.453-.453.569.178.123.353.287.555.351.071.02.316-.295.295-.421-.034-.175-.243-.317-.397-.5Zm19.729 1.86c-.091.104-.179.22-.27.323.203.117.409.246.608.35.015.01.142-.156.127-.165-.151-.17-.302-.34-.465-.507ZM43.164 94.466l-1.215.326c.515.204.818.4 1.215-.326Zm127.074-56.372c.018.31-.019.466.038.582.035.083.19.12.296.17.056-.133.186-.286.157-.397-.03-.11-.232-.175-.491-.355ZM73.225 64.298c.027.098.065.193.092.291l.643-.251c-.02-.074-.052-.144-.071-.218l-.663.178Zm31.381 3.003a5.706 5.706 0 0 0-.229.47c.142.04.279.109.408.1.077-.007.143-.156.212-.24-.103-.091-.203-.17-.391-.33ZM60.804 72.22c.033.123.078.242.107.353l.656-.255-.066-.246-.697.148Zm59.874-18.031c-.158-.05-.277-.15-.359-.114-.099.026-.155.16-.237.247.125.072.244.172.364.18.052-.002.139-.17.232-.313ZM95.937 42.167c-.034.168-.106.292-.071.375.035.083.162.114.256.168.038-.102.101-.211.094-.288-.023-.086-.141-.133-.28-.255Zm-20.711 8.13c-.002-.105 0-.198-.014-.3a7.616 7.616 0 0 0-.528-.003c-.012.004-.012.201-.007.318.182-.009.364-.018.549-.015Zm33.025-7.757c-.026-.098-.065-.193-.091-.291-.184.05-.356.095-.537.157-.012.003.04.2.056.209.178-.022.381-.05.572-.075ZM19.626 83.938c-.152-.078-.259-.18-.332-.161-.086.023-.143.156-.197.25.094.054.191.172.268.165.062-.016.134-.141.261-.254Zm54.916-29.562-.253-.208-.37.533c.053.052.115.088.168.14.142-.157.3-.305.455-.465ZM21.684 70.053l-.11.03c.053.249.091.488.145.737a.78.78 0 0 1 .162-.03l-.197-.737Zm-1.114 1.049c-.223-.046-.372-.111-.498-.09-.074.02-.127.165-.193.262.13.044.274.137.403.129.068.008.146-.145.288-.301Zm124.409-21.91c.068-.19.152-.318.12-.388-.038-.095-.166-.18-.262-.193-.056-.012-.204.173-.197.197.073.126.179.229.339.383Zm-57.433 4.74c.048-.065.084-.128.132-.193-.171-.1-.33-.201-.498-.288-.016-.009-.075.112-.127.166.163.114.322.216.493.315Zm50.655-5.425c-.056.133-.165.268-.124.322.051.092.194.133.291.199.053-.093.169-.203.14-.261-.039-.095-.16-.155-.307-.26Zm28.675-14.318c-.177-.07-.27-.125-.375-.123-.053.001-.103.107-.155.16.085.07.154.182.25.196.053 0 .14-.116.28-.233ZM72.05 64.823c.21.05.335.121.406.09.079-.048.184-.195.161-.281-.023-.086-.16-.155-.244-.224-.088.115-.178.219-.323.415ZM14.8 76.781c.207.036.334.068.343.053.035-.115.054-.239.077-.35-.11.082-.222.152-.42.297Z" fill="#fff"/><path d="M162.346 26.718c.223.243.508.47.648.747.233.478.602.576 1.051.483.415-.072.836-.12.814-.745-.016-.404.353-.648.701-.478.696.34 1.346.798 2.087 1.258-.171.44-.352.897-.561 1.44.513.1 1.24-.332 1.563.331.243.514.324 1.111.472 1.664-.993.371-.993.371-1.242-.51-.443-.079-.873-.16-1.399-.257-.076.258-.154.555-.256.911-.13-.241-.296-.565-.321-.559-.995.412-1.414-.318-2.063-.921.054.446.108.892.17 1.52-.686-.302-1.267-.555-1.851-.82-.042-.989-.042-.989 1.171-1.327l-1.509-.964c-.457.899-1.314 1.628-1.427 2.778-.523-.084-.897-.155-1.296-.22-.156.306-.314.598-.478.919-.137-.069-.243-.12-.333-.161-.165-.074-.427-.267-.482-.226-.658.637-1.037-.236-1.556-.307-.056-.012-.115-.575-.045-.857.052-.198.333-.326.479-.47-.213-.746-1.32-.358-1.346-1.193a51.723 51.723 0 0 1 1.585-.175c-.019-1.153-.692-1.012-1.372-.896.018-.228-.018-.508.053-.54.756-.321 1.226-.974 1.79-1.52.064-.057.241.014.362.022a188.01 188.01 0 0 1-.826 1.88c.6-.07.982-.119 1.428-.173-.113.267-.207.503-.376.904 1.194-.11 2.26-.21 3.365-.31.163-.57.122-1.362 1.068-1.22l-.068-.008Zm2.587 3.413c1.126-.657 1.126-.657.916-1.245-1.153.756-1.153.756-.916 1.245ZM78.156 45.764c.17.534 1.06.664.792 1.433-.501-.102-1.052-.39-1.463-.253-.383.142-.595.726-.93 1.197a24.212 24.212 0 0 1-1.002-.547c-.813 1.139-.813 1.139-1.739.386-2.274.992-4.822 1.358-6.92 2.71-.81.073-1.605.154-2.39.22a74.82 74.82 0 0 0-.02-.074c4.009-1.495 8.014-3.003 12.023-4.498-.061-.523-.105-.933-.15-1.342-1.083-.065-3.591.791-4.813 1.684a24.646 24.646 0 0 1-.424-.65c.124-.125.166-.215.227-.232 2.068-.685 4.135-1.37 6.217-2.047.194-.065.41-.044.603-.109.254-.081.49-.184.738-.29.027.296.069.6.093.936.671.492 1.082-.185 1.643-.598.312.377.567.69.819.992.5-.635.5-.635-.191-1.45-.499-.287-1.014.785-1.546-.02.862-.468 1.7-.93 2.537-1.39.446-.252.798-.214 1.155.335-.242.223-.494.462-.762.691.362.272.765.546 1.305.94-.537.355-.89.608-1.326.896.146.105.265.205.395.249.13.044.281.017.618.045-.56.61-.99 1.068-1.53 1.66.062.378.174.94.3 1.657-.966-.412-1.13-1.513-2.06-2.04-.155.357-.316.69-.527 1.18l-.477-1.78c-.446.053-.816.1-1.188.134.194-.553.078-1.035-.435-1.279-.227-.11-.566.047-.874.076.31.615.536 1.068.798 1.603.191-.17.355-.293.504-.425ZM209.971 42.795c.546-.37 1.071-.72 1.684-1.135-.282-.214-.544-.407-.841-.63.152-.91.348-1.897-1.218-2.043l.245-.263c.816.097 1.647.203 2.466.313.068.008.177.07.209.141.427.952 1.373 1.094 2.519 1.392-.668.258-1.341.056-1.36.772 0 .145-.163.373-.106.437.784.961-.106 1.423-.502 1.911.26.575.506 1.102.705 1.549-.756.913-1.578-.091-2.444.312.331.254.582.45.944.721-.203.226-.421.442-.605.689-.184.247-.509.558-.469.757.059.221.451.406.734.528.208.089.476.056.997.088-1.108.678-.945 1.53-.807 2.388.097.658.085.662-.539 1.184.054-.29.091-.498.135-.773-1.152-.126-1.927-.905-2.923-1.283.047-.118.098-.224.145-.342.363.127.715.309 1.098.364.343.053.721-.01 1.153-.02-.523-.82-.523-.82-1.828-.681-.076-.283-.327-.729-.206-.866.444-.554.539-1.184.626-1.84.085-.615.131-1.232.247-1.83.049-.21.289-.393.455-.609-.773-.135-.368-.835-.514-1.23ZM59.609 78.766c-.47-.282-1.327-.04-1.327-.974-.367.006-.746.016-1.15.031-.357-.496.02-.86.313-1.189.445-.5 1.39-.267 1.625-1.107.385.16.676.017 1.046-.175.66-.335 1.395-.492 2.229-.768.082.65.147 1.237.226 1.874l-1.265.34c.018.56.045 1.053.063 1.562.827.239 1.377.078 1.746-.705.259-.556.53-.576.97-.26.162.115.298.276.469.375.168.086.356.102.728.213-.408.293-.664.467-.93.657.773.424 1.514.832 2.251 1.226-.962.534-1.243.518-1.907-.094-.58-.543-.73-.515-1.627-.078-.245.119-.623-.017-1.052-.047-.963 2.009-3.213 1.861-4.919 2.766-.053-.788.555-.728 1.024-.893.47-.165.903-.413 1.628-.752-.79-.197-1.427.422-1.868-.342.258-.411.474-.785 1.185-.686.59.092.681-.209.5-1.03.15.066.306.209.445.185.252-.042.615-.112.71-.296.161-.333.01-.648-.41-.746-.111-.022-.224-.098-.33-.148.107-.292.198-.54.389-1.105-.726.287-1.176.473-1.713.683.375.61.663 1.046.95 1.483Z" fill="#fff"/><path d="M60.484 83.85c-.437.236-.864.509-1.327.699-.91.388-1.84.743-2.843 1.13-.16-.405.062-.754.431-.945.508-.268 1.088-.41 1.596-.678.62-.337 1.212-.732 1.753-1.167a6.594 6.594 0 0 0 1.201-1.217c.332-.431.75-.49 1.216-.523.477-.036.958-.06 1.5-.1.546.763.546.763-.293 1.461.11.168.21.34.367.586-1.173.63-2.446.498-3.601.755Zm2.398-.629c-.12-.744-.12-.744-.98-.856.417.376.704.614.98.856Zm-1.472-.237a1.476 1.476 0 0 0-.109-.208c-.186.09-.376.167-.563.256.063.089.159.247.17.244.175-.086.33-.194.502-.292ZM43.45 64.289c.783.027.767.018 1.168-.55.163-.228.366-.454.607-.584.813-.455 1.51-1.142 2.486-1.285.114-.017.282-.075.34-.157.509-.9 1.429-.659 2.325-.702-.29.289-.573.562-.95.926.242.212.467.415.708.626-.087.116-.153.265-.254.28-1.174.287-2.399.431-3.429 1.155-.867-.242-1.349.467-1.985.795-.578.3-.777.195-1.017-.504ZM119.066 65.219c1.546-.27 2.988-.538 4.673-.831-.232 1.049-.427 1.891-.622 2.786-1.45-.007-2.31-.908-3.153-1.696-.778.288.305 1.235-.694 1.437-.065-.588-.133-1.136-.204-1.696ZM115.475 27.601l.105.933c.347.065.683.093 1.015.202.102.038.14.278.201.407-1.684 1.28-3.692 1.595-5.575 2.23-.46.15-.835.08-.97-.621 1.297-.861 2.957-.806 4.373-1.462.049-.605.153-1.199.851-1.689ZM56.612 59.724c.43-.063.897-.043 1.289-.2.465-.178.864-.509 1.35-.81-.073-.073-.233-.227-.38-.385.976-.775 1.21-.693 1.642.678-.192.118-.378.26-.604.347-.542.237-1.075.459-1.63.647-.338.117-.695.16-1.038.252-.27.072-.59.105-.782.275-.823.76-.808.77-2.112.619.02-.27.065-.544.07-.822-.007-.762.346-1.067 1.049-.9.396.105.793.21 1.19.313.003.013-.044-.014-.044-.014ZM179.949 33.807c.626.175 1.255.362 1.964.553-.429.905-.458 1.729.524 2.348-.462.44-.623 1.114-1.314 1.089-.679-.029-.283-.662-.43-1.017-.496-.13-.983-.276-1.664-.462.558-.518.968-.905 1.263-1.181.248-.646-.79-.736-.3-1.315-.012.003-.043-.015-.043-.015ZM55.964 68.16c-.79-.788-1.54-.785-2.593-.292-1.637.767-3.381 1.38-5.297 1.498.149-.132.284-.313.465-.375 1.009-.362 2.024-.7 3.058-1.016.488-.144.883-.29.816-.785l2.85-.763c.273.676.482 1.213.704 1.746-.006.027-.003-.013-.003-.013ZM14.362 98.141c-.378-.28-.759-.573-1.284-.959 1.071-.326 2.014-.592 2.927-.916.898-.333 1.76-.748 2.65-1.118.212.944.205.867-.592.988-.403.068-.751.438-1.123.67-.257.174-.501.49-.76.506-.7.042-1.362.075-1.545 1.111a4.152 4.152 0 0 0-.273-.282ZM211.77 36.442c.603.089 1.117.24 1.472-.5.143-.301 1.035-.264 1.589-.307.089-.01.307.458.274.677-.028.192-.315.348-.543.58.496.328.977.646 1.441.956-1.174.236-2.205-.225-3.273-.426-.43-.082-.854-.337-.96-.98ZM185.125 39.962c.704.075 1.42.093 2.116.236.322.072.59.382.88.58-.205.266-.423.535-.725.932.412.06.832.106 1.215.161-1.152.467-2.575.703-3.257.517.29-.34.577-.694.868-1.035-.38-.583-1.509-.425-1.063-1.413l-.034.022ZM183.955 38.197c.091-.248.204-.713.284-.708.682.04.409-.636.764-.929.258.076.555.154.939.262.054-.291.105-.542.17-.888-.653.017-1.19.03-1.726.041.594-.778 1.448-.638 2.025-.45.837.276.728 1.292.906 2.008-1.177.223-2.281.427-3.381.642l.019.022ZM52.934 59.653c.284.57.568 1.138.849 1.695-.597.62-1.106 1.178-2.048.904-.257-.076-.625.22-1.03.38.111-1.108 1.308-2.587 2.26-2.96l-.03-.019ZM86.847 75.297c.003.407-.013.74-.592.738-.528-.003-1.233-.275-1.456.561-.824-.03-1.653-.03-2.466-.116-.108-.01-.177-.413-.277-.689.855-.15 1.658.49 2.438-.087l-.184-.688c.969-.51 1.744.27 2.596.305l-.06-.024ZM162.725 21.352c.335.463.468.665.61.85-.094.091-.157.2-.21.201-.157.003-.413-.02-.445-.09-.108-.354-.154-.723-.202-1 .414-.519.706-1.097 1.176-1.407.445-.304 1.083-.33 1.721-.501.002.25.029.4.013.536-.119 1.23-.262 1.334-1.453 1.258-.322-.019-.662.085-1.21.153ZM93.026 79.842c-.281.128-.55.253-.835.369-.503.187-1.012.547-1.497.506-.843-.05-1.475.342-2.195.601-.18.062-.484-.186-.947-.39 1.808-1.21 3.683-.895 5.39-1.353.026.098.049.184.084.267ZM54.554 75.475c-1.785.413-2.936 2.011-4.715 2.396-.274.06-.47.507-.863.955-.059-.366-.216-.706-.122-.797.355-.345.745-.66 1.185-.883 1.113-.562 2.29-1.035 3.38-1.63.4-.226.71-.348 1.135-.04ZM87.87 41.291c.86-.323 1.63-.595 2.562-.95.161.062.5.195.928.37-.118.295-.225.535-.374.864-.328-.241-.571-.413-.784-.567-.445.449-.855.835-1.301 1.283.13.19.272.428.427.663-.853-.285-1.562-.674-1.459-1.663ZM55.07 64.53c-1.116 1.09-2.302 1.723-3.872 1.71-.063-.826.553-.886.963-1.075.443-.21.963-.284 1.448-.44.41-.137.657-.887 1.462-.195ZM66.622 56.26c-.2.238-.351.555-.61.717-.623.377-1.265.734-1.945.995-.276.1-.664-.072-1.008-.125a11.97 11.97 0 0 1-.202-.314c.13-.101.274-.205.405-.306.575-.457 1.452-.376 1.883-1.176.113-.215.834-.079 1.284-.12.07.113.127.229.193.33ZM162.402 26.73c-.509-.378-1.056-.455-1.664-.266-.825.26-.831.236-2.104-.094a81.278 81.278 0 0 1 1.933-.202c.075-.31.138-.564.262-1.084.383.398.637.659.961.98.198-.145.409-.386.667-.455.221-.06.498.09.761.138-.091.248-.133.536-.281.72-.108.135-.376.167-.566.244-.025.007.031.018.031.018Z" fill="#fff"/><path d="M185.159 39.94c-.707.308-1.313.8-2.234.507-.533-.173-1.22.26-1.816.197-.788-.092-.869-.491-.298-1.408.129.19.234.333.329.491.076.138.128.282.221.48 1.259-.508 2.517-.331 3.764-.244l.034-.023ZM216.895 31.594c-.214-.403-.311-.72-.5-.932-.201-.21-.493-.316-.785-.474.406-.596.805-.532 1.194-.307.608.35 1.517.357 1.666 1.502-.588.065-1.12.142-1.575.211ZM193.674 31.34c-.396-.643-.672-1.083-.983-1.605 1.101-.558 1.981-.123 2.954.314-.456.807-1.394.597-1.971 1.292ZM45.999 70.172c-.36-1.39-.36-1.39.888-2.186-.087-.226-.18-.478-.283-.713.042-.038.097-.08.14-.117.474.347.949.694 1.664 1.2-.727.234-1.175.38-1.623.526-.36.373.399 1.341-.786 1.29ZM66.906 59.042c.032.61.047 1.106.069 1.68-.086.023-.319.137-.372.086-.588-.672-1.32-.7-2.25-.345.352-1.042 1.403-.902 1.842-1.52.067-.097.507.075.711.099ZM211.105 55.232c-.715-.506-.828-1.516-1.866-1.12.088-.602.146-1.026.215-1.505.631.292 1.187.55 1.849.86-.056.476-.112 1.005-.198 1.765ZM171.051 29.979c.62-.587 1.208-.653 1.86-.182-.074.901-.823 1.3-1.343 2.11l-.517-1.928ZM169.401 20.43c-.057.279-.101.554-.162.82-.066.294-.128.6-.432.893-.151-.368-.29-.739-.486-1.226l-1.322.275c.06-.318.088-.655.206-.95.181-.456.856-.637.986-.25.263.784.793.405 1.238.444l-.028-.006ZM76.999 75.24c-.47-.624-.724-1.228-1.6-1.006.223.388.401.709.583 1.042-.676.326-.812-.573-1.271-.568-.472.008-.928.222-1.503.14.158-.148.284-.366.465-.428.83-.288 1.687-.531 2.528-.783.39-.117.691.026.78.41.074.322.018.653.018 1.193ZM146.158 54.088l-2.292.14c.123-.572.203-.962.274-1.337.974-.195 1.43.328 2.018 1.197ZM188.154 53.524c-.636.183-.981.026-1.359-.452-.258-.326-.846-.405-1.223-.686 1.406-.548 2.009-.262 2.582 1.138ZM200.943 30.618c-1.171.248-2.317.489-3.525.747.883-1.422 1.132-1.475 3.525-.747ZM62.22 56.68l.506 1.89c-.518-.018-1-.047-1.731-.075.265-.335.356-.438.495-.607-.199-.104-.414-.218-.672-.346.318-.73.995-.464 1.401-.863ZM53.46 82.244c.988-.633 1.471.04 2.108.501-.588.75-1.43.41-2.192.759.038-.497.056-.87.084-1.26ZM88.618 44.773c-.43.457-.863.903-1.397 1.467-.269-.613-.452-1.05-.728-1.687.76-.06 1.343-.097 1.925-.134.06.128.13.241.2.354ZM132.263 61.22c-.326.259-.72.654-.77.615-.554-.444-.922.194-1.449.243l-.253-.946c.82.162 1.466-.814 2.472.088ZM57.616 62.782c.215.851-.254 1.556-.89 1.74-.512.15-.832-.16-1.063-1.071.696-.055 1.563.528 1.953-.669ZM7.531 85.811c1.415-.418 2.632-1.429 4.185-1.476-1.327.697-2.653 1.395-4.185 1.476ZM52.969 59.683c-.01-.234-.11-.603-.012-.681.72-.51 1.495-.954 2.32-1.464.222.782-.288 1.038-.67 1.285-.527.338-1.11.573-1.67.842-.003-.012.032.018.032.018ZM178.704 46.21c-.353-.09-.697-.196-1.109-.31.065-.346.125-.612.191-.906-.2-.157-.403-.326-.7-.55.239-.09.37-.19.445-.158 1.084.46 1.363.911 1.173 1.923ZM123.342 29.154c.113-.215.212-.583.329-.588.813-.06 1.374-1.013 2.382-.639-.184.59-.538.842-1.085.91-.52.073-1.027.196-1.626.317ZM198.683 34.71c1.275.632.657 1.666 1.083 2.42l-1.351.362c.639-.908.659-1.716.268-2.783ZM118.81 64.313c.111-.517.18-.852.302-1.424.646.985 1.729.26 2.532 1.046-.991.134-1.807.234-2.834.378ZM43.436 71.07c-.004-.408-.096-.752.017-1.019.086-.22.442-.513.621-.482.263.048.536.33.67.584.054.104-.22.454-.419.599-.22.164-.527.194-.889.317ZM87.122 76.816c.38-.351.747-.7 1.17-1.09.257.129.512.245.783.37-.141 1.34-1.21.64-1.763.986-.076-.086-.126-.177-.19-.266ZM171.638 28.729c-.629-.332-1.1-.666-.878-1.213.233-.602.82-.378 1.403-.218-.16.438-.319.875-.525 1.43ZM138.731 31.822c-.225-.15-.456-.326-.689-.46-.327-.19-.719-.374-.579-.833.133-.39.383-.734.919-.601.111.023.24.014.45.01-.339.355-.677.669-.237 1.13.144.146.079.492.111.76.004.012.025-.006.025-.006ZM220.502 25.258c1.378-.356 1.378-.356 1.9.412-1.133.488-1.38.45-1.9-.412ZM172.767 45.812c.552-.543 1.022-.998 1.66-1.616-.13.693-.218 1.203-.332 1.76-.452.227-.944.504-1.328-.144ZM55.895 65.153c.418.137.888.17 1.147.403.207.181.302.682.205.959-.154.41-.551.252-.832.038-.41-.298-.696-.682-.52-1.4ZM153.537 55.835c-.638.171-1.282.37-1.931.504-.473.1-.474.048-.674-.648.832-.039 1.692-.072 2.536-.114.039.095.062.181.069.258ZM105.967 34.754c.312 1.51.276 1.572-1.353 2.074.697-.595 1.055-1.125.833-1.855-.019-.021.318-.138.52-.219ZM110.369 35.023c-.038-.635-.104-1.078-.094-1.528.016-.53.265-.584 1.003-.19-.496.41.012 1.274-.909 1.718ZM133.436 56.958c.676-1.063.836-1.106 2.458-.751-.591.448-1.306.679-2.458.75ZM152.3 53.181c-.839-.183-1.337-.273-1.826-.38.491-.473.885-1.066 1.527-.685.159.102.154.525.299 1.065ZM156.943 22.373c-.074-.177-.266-.455-.197-.54.196-.25.447-.54.73-.616.372-.086.793.011 1.463.056-.723.693-1.379.896-2.042 1.073l.046.027ZM141.837 29.408c.257-.319.498-.646.755-.965.335-.42.722-.497 1.249-.15-.641.553-.933 1.526-2.035 1.097l.031.018ZM166.013 51.163c-.677-.464-1.404-.624-1.351-1.507 1.296.074 1.296.074 1.351 1.507ZM193.616 36.476c-.525-.188-.891-.327-1.297-.468.253-.726.539-1.132 1.241-1.018l.056 1.486ZM163.87 26.217c.149-1.066.554-1.175 1.792-.533-.472.693-1.168.405-1.792.533ZM176.522 28.683c-.165-.272-.33-.544-.498-.828.478-.523.942-.608 1.533-.319-.04.735-.627.853-1.07 1.116l.035.03ZM51.086 84.683c.48-.22.808-.374 1.136-.528.398.802.398.802-.483 1.393a34.783 34.783 0 0 0-.653-.865ZM61.607 84.997c1.068-.142 1.757-.813 2.817-.637-.916.904-1.46 1.036-2.817.637ZM28.715 66.329c.613-.217 1.02-.366 1.643-.599-.05.408.015.746-.125.863-.44.368-.901.32-1.518-.264ZM99.701 39.078c.21.391.399.75.603 1.168-.504.28-.921.247-1.166-.227-.205-.419-.14-.818.563-.94ZM67.213 62.199c-.324.705-.674 1.168-1.463.826.377-1.049.377-1.049 1.463-.826ZM220.95 23.94c-.482-.082-.971-.187-1.46-.24-.503-.063-.595-.355-.519-.81 1.001-.241 1.544.31 1.964 1.093l.015-.043ZM42.657 73.318c-.594.58-1.204 1.152-2.124 1.504-.073-.862.61-.624.902-.86l1.03-.869c.06.076.133.15.192.225ZM124.48 30.309c-.435.537-.719.903-1.172 1.472-.168-.429-.366-.678-.311-.864.132-.589.561-.756 1.483-.608ZM177.659 37.593c-.307-.115-.739-.157-.888-.368-.266-.402-.046-.764.547-1.054.189.41.371.795.566 1.177-.07.085-.155.16-.225.245ZM180.926 29.2c-.542.238-1.09.503-1.654.707-.156.055-.359-.062-.554-.102.105-.199.198-.54.336-.563.606-.097 1.223-.104 1.842-.152l.03.11ZM140.553 55.077l-1.437.385c-.051-.486.021-.953.473-1.035.314-.057.694.183 1.041.3-.023.112-.045.223-.077.35ZM198.191 38.423c.097-.13.153-.264.248-.303.223-.1.457-.162.773-.26.197.343.371.651.578 1.03-.677.076-1.263.246-1.599-.467ZM26.83 65.188c.916-.364 1.828-.74 2.848-1.158-.012.346-.027.586-.029.824-.97.115-1.89.217-2.82.334ZM103.718 34.173c.308.51.919.926.502 1.775-.555-.55-.884-1.04-.502-1.775ZM134.836 60.018c.676-.326 1.062-.508 1.526-.738.132.096.363.271.709.534-.719.311-1.312.457-2.235.204ZM184.161 20.937c-.573.075-1.157.152-1.779.24.278-.877.278-.877 1.779-.24ZM188.977 41.025c.128-.403.245-.803.433-1.38.077.387.094.646.193.87.084.214.254.406.402.616-.569.232-.569.232-1.028-.106ZM90.874 76.377c-.638.027-1.17.156-1.313-.53-.021-.126.273-.454.451-.476.6-.069.743.367.862 1.007ZM38.462 67.045c.465-1.164.741-1.264 1.611-.668-.523.206-.95.386-1.61.668ZM91.112 36.986c.254-1.069.73-1.354 1.731-1.056l-1.73 1.056ZM19.584 97.64c-.738.29-1.477.58-2.227.872-.036-.082-.07-.165-.103-.235.633-.538 1.397-.73 2.2-.88.044.068.08.15.13.242ZM88.07 40.027c.31-.267.636-.526.946-.793l.27.125c-.032.272.012.681-.132.785-.243.171-.636.131-.953.177-.038-.095-.08-.202-.131-.294ZM172.596 26.117l-1.189.621c.014-.438-.082-.846.045-.96.402-.318.816-.245 1.144.339ZM93.647 74.398c-.396.29-.789.593-1.24.925.178-1.009.178-1.009 1.24-.925ZM160.095 61.541c-.572.127-1.038.107-1.139-.616.958-.256.961-.244 1.139.616ZM151.754 55.17c.133-.681.204-1.056.338-1.684.343.592.562.968.899 1.536-.446.054-.742.08-1.237.147ZM134.53 61.087c-.392-.237-.797-.47-1.221-.725.81-.415.932-.355 1.221.725ZM171.426 20.863c-.569.772-.57.772-1.271.315.307-.425.673-.536 1.271-.315ZM20.647 100.226c.753-.333 1.282-.567 1.904-.852-.15.869-.15.869-1.904.852ZM137.452 59.318c.437-.433.831-.486 1.169-.01.063.088-.058.423-.171.492-.565.35-.796-.023-.998-.482ZM153.282 22.605c.599-.66.599-.66 1.367-.643-.288.644-.288.644-1.367.643ZM90.816 71.444c.608-.137 1.232-.264 1.84-.4-.541.434-1.076.893-1.773.75-.014-.101-.047-.224-.067-.35ZM154.376 54.545c.522.229 1.044.457 1.495.666-1.318.287-1.318.287-1.495-.666ZM171.165 49.955c.415.073.789.144 1.43.275-.3.304-.441.565-.628.602-.557.084-.8-.233-.802-.877ZM70.253 58.607c-.007-.367-.06-.76.03-1.114.017-.083.468-.072.72-.114.022.231.06.326.037.385-.134.286-.28.575-.426.865-.133-.004-.241-.015-.361-.022ZM191.904 37.658c.486.094.901.167 1.43.275-.993.766-1.172.735-1.43-.275ZM68.356 72.897c.435.2.733.33 1.137.511-.206.213-.307.425-.455.464-.673.141-.775-.24-.682-.975ZM56.658 59.748c.103-1.04.103-1.04 1.158-1.231-.052.79-.681.946-1.201 1.217-.004-.013.043.014.043.014ZM179.859 42.808c.345.355.735.632.216.956-.18.114-.653.07-.757-.074-.344-.5.259-.556.541-.882ZM30.843 101.44c-.628.261-1.265.536-1.893.797.546-.515.976-1.222 1.893-.797ZM176.476 28.658c.166.72-.458.794-.865.996-.129.06-.413-.166-.907-.39.825-.26 1.322-.42 1.819-.579l-.047-.027ZM103.477 39.07c.485-.103.599-1.055 1.401-.665-.284.708-.833.724-1.401.665ZM183.92 38.165c.016.944-.256 1.109-1.352.652.542-.237.964-.43 1.386-.621l-.034-.03ZM220.936 23.983c.097-.276.194-.552.371-1.073.488.593.758.915 1.029 1.238-.048.065-.093.143-.129.205l-1.256-.413-.015.043ZM54.865 77.957c.42-.296.646-.976 1.395-.44-.29.684-.723.84-1.395.44ZM95.091 38.131l-.56-.666c.401-.173.71-.296 1.124-.472.06.418.092.686.124.954l.027-.047c-.258.07-.513.15-.77.22l.055.011ZM168.511 48.152c.982-.46 1.122-.38 1.457.676-.49-.21-.913-.413-1.457-.676ZM190.899 42.206c.563-.059 1.183-.396 1.78.208-.679.366-1.225-.001-1.78-.208ZM51.992 80.006c.14-.314.16-.53.252-.581.236-.103.52-.126.775-.155.037-.01.146.25.119.297-.152.172-.315.348-.51.453-.114.07-.303.002-.636-.014ZM163 50.67c-.386-.015-.676-.016-1.167-.03.214-.333.284-.563.434-.642.443-.211.72-.062.733.672ZM45.084 83.752c-.276-.44-.448-.788.036-.997.153-.067.55.037.61.166.269.56-.205.66-.646.83ZM117.166 64.121c-.677.471-1.056.48-1.325.066-.067-.1.077-.35.133-.536.322.124.661.257 1.192.47ZM9.425 86.936c.958-.256.958-.256.888.71-.288-.239-.534-.423-.888-.71ZM142.717 58.34c-.622.43-1.09.648-1.542-.007.497-.555.952-.282 1.542.008ZM196.79 43.168c-.563-.086-.903-.127-1.317-.2.693-.804.773-.8 1.317.2ZM183.97 53.29c-.496.014-.996.016-1.585.03.49-.58.49-.58 1.585-.03ZM118.167 31.21c-.37.191-.698.345-1.034.514-.081-.057-.15-.118-.231-.175.073-.217.096-.526.239-.63.323-.218.701-.28 1.026.291ZM67.68 79.368c.377.03.742.065 1.291.102-.68.406-.68.406-1.295.176l.004-.278ZM182.761 33.989c.265-.242.392-.355.568-.534.236.292.466.56.74.894-.16.043-.297.12-.372.087-.273-.085-.522-.229-.936-.447ZM201.985 38.236c-.679-.91-.679-.91.125-1.152-.04.34-.066.636-.125 1.152ZM151.63 28.431c-.83.486-.849.465-.881-.685.319.257.581.45.881.686ZM86.393 77.434c-.436-.054-.895.148-1.29-.391.435.002.873.016 1.308.018-.016.136-.011.253-.018.373ZM112.884 32.47c-.19.274-.313.452-.449.633-.162-.114-.445-.236-.431-.331.012-.201.15-.422.315-.545.067-.045.31.127.565.243ZM126.781 27.205c.486.093.987.196 1.473.29-.767.429-.863.415-1.473-.29ZM145.422 23.141c-.415.664-.753.729-1.145.15.463-.335.463-.335 1.145-.15ZM64.83 88.332l1.966-.527c.016.061.041.107.058.169l-1.936.637c-.03-.11-.064-.194-.087-.28ZM105.045 33.03c-.4.766-.748.846-1.147.044.444-.013.796-.029 1.147-.044ZM70.757 80.583c.56-.414.56-.414 1.124-.275-.23.47-.545.567-1.124.275ZM69.787 58.443c-.302.2-.44.368-.574.364-.144 0-.347-.117-.436-.252-.047-.079.073-.27.114-.412.161.062.335.121.896.3Z" fill="#fff"/><path d="M169.433 20.448c-.113-.128-.226-.255-.315-.39-.044-.067-.067-.153-.164-.416.487 0 .918-.01 1.249-.006l-.786.803.016.009ZM224.915 23.998c-.596-.407-.968-.663-1.451-.994.864-.165.864-.165 1.451.994ZM60.375 65.663c-.399-.262-.62-.4-.954-.613.293-.184.473-.298.77-.47.061.379.106.643.184 1.083ZM218.899 28.122c-.69.567-.956.164-1.124-.462.382.148.755.311 1.124.462ZM190.647 49.222c-.843-.393-.649-.945-.874-1.49.795.313.659.837.874 1.49ZM8.93 87.396c-.209.254-.319.48-.436.486-.17.005-.333-.161-.5-.248.105-.147.194-.355.338-.407.12-.045.313.088.598.17ZM195.255 35.327c-.656.255-.935.145-1.041-.248-.026-.098.144-.249.216-.374.244.172.459.338.825.622ZM121.032 30.312c.078-.693.361-.913.959-.942-.045.618-.47.705-.959.942ZM82.164 78.501c-.294.671-.644.45-1.007.125.33-.049.674-.088 1.007-.125ZM14.44 84.577l-.963.337c-.023-.086-.062-.18-.085-.267l.982-.263c.017.061.049.132.065.193ZM10.959 85.88c.322-.125.643-.25.968-.364l.1.223-.953.374c-.012.003-.054-.104-.115-.233ZM50.25 85.54c-.074.216-.163.424-.237.641-.146-.053-.28-.109-.425-.162.13-.206.246-.408.375-.614.094.054.184.096.286.134ZM100.894 37.879c-.107-.353-.179-.571-.309-.957.391.132.611.218.959.335-.252.239-.41.386-.65.622ZM43.681 67.61c.396.25.558.364.826.529-.269.322-.46.544-.853.992.012-.596.01-.898.027-1.521ZM160.775 20.754c.34.04.49.013.547.077.129.137.215.311.37.546-.564.204-.687-.106-.917-.623ZM131.744 35.902c.487-.196.75-.293 1.023-.406-.108.53-.33.734-1.023.406ZM160.707 22.367c-.141.209-.229.324-.313.452l-.534-.37c.088-.116.189-.327.282-.326.157-.002.322.124.565.244ZM47.789 81.564c-.19 1.064-.645.739-1.096.478.306-.135.6-.266 1.096-.478ZM156.898 22.348c.05.434.066.837-.606.833-.189-.607.166-.755.652-.806l-.046-.027ZM86.893 75.325c-.155-.235-.31-.47-.456-.72.04-.05.082-.088.121-.138.318.205.645.394 1.2.745-.477.036-.693.067-.911.086l.046.027ZM12.633 77.441c.207-.16.414-.321.664-.52.07.653.07.653-.664.52ZM50.24 66.944c-.195.25-.288.445-.437.525-.08.048-.264-.1-.401-.169.09-.156.142-.354.276-.443.089-.063.272.033.563.087ZM167.547 26.429c.322-.126.57-.232.83-.341.016.746.016.746-.83.34ZM59.74 55.976c-.407.346-.598.516-.908.783-.076-.677.02-.953.909-.783ZM116.192 68.198c.787-.158 1.289-.345 1.75.294-.566-.098-1.02-.174-1.75-.294ZM115.449 32.268c.222-.349.372-.573.577-.891.24.699.24.699-.577.891ZM175.368 43.484c-.186-.253-.339-.383-.366-.533-.014-.102.144-.25.219-.362.137.121.312.232.392.382.047.08-.104.252-.245.513ZM207.773 43.923c.344.105.632.2.917.28-.041.143-.042.236-.076.258-.509.308-.849.267-.841-.538ZM196.293 23.334c.303-.147.606-.294.897-.438.054.104.108.208.15.316-.303.147-.606.294-.896.437-.054-.104-.109-.208-.151-.315ZM57.084 81.379c0-.737.294-.724.839-.409-.374.18-.606.294-.839.409ZM88.337 72.505l1.026-.393.103.235c-.331.142-.65.28-.98.42-.051-.09-.099-.17-.15-.262ZM125.713 62.62c.516.006.781.014 1.284.024-.501.49-.76.506-1.284-.025ZM76.237 76.72c-.268.032-.533.077-.939.133.274-.6.535-.657.89-.462l.049.329ZM23.999 99.667c-.176-.559-.29-1.081.68-1.144-.264.44-.483.801-.705 1.15.003.013.025-.006.025-.006ZM179.98 33.826c-.02-.074-.074-.178-.05-.237.08-.192.188-.379.283-.563.094.054.19.12.284.174-.111.175-.223.35-.34.5-.04.05-.141.064-.224.1l.047.026ZM101.499 35.176c-.342.197-.693.41-1.081.632-.249-.289-.256-.563.103-.646.295-.079.639.026.972.042l.006-.028ZM43.06 65.737c-.81.27-.886-.066-.925-.7.331.253.56.416.925.7ZM142.516 54.788c-.531-.016-.796-.024-1.089-.038.354-.542.354-.542 1.089.038ZM91.775 34.544l-.496.805-.187-.108c.15-.277.284-.563.433-.84.082.057.16.102.25.143ZM78.5 78.192c-.6.464-.9.518-1.131-.342.443.132.716.217 1.131.342ZM213.035 59.781c-.294-.066-.588-.132-.898-.207a7.9 7.9 0 0 1 .078-.35c.306.063.613.126.907.192-.032.127-.055.238-.087.365ZM30.675 67.553c.453-.174.741-.277 1.026-.393.142.33-.201.475-1.026.393ZM186.112 38.684c-.313.308-.48.47-.668.653-.255-.708-.255-.708.668-.653ZM184.642 26.666c-.386-.015-.728-.016-1.166-.03.593-.488.593-.488 1.166.03ZM29.325 68.308c.105-.146.188-.327.335-.418.1-.067.293.013.694.037-.38.3-.587.46-.794.621-.072-.073-.148-.158-.235-.24ZM156.883 58.692c-.418-.086-.681-.134-.959-.19.04-.143.048-.264.093-.29.34-.156.639-.17.866.48ZM87.456 72.858c-.187.234-.268.374-.384.432-.08.047-.216-.021-.34-.04.029-.14.028-.337.117-.4.116-.058.29 0 .607.008ZM174.191 42.235c-.235-.042-.473-.097-.711-.152-.016-.009.003-.132.012-.2.24.014.497.038.738.052a6.655 6.655 0 0 1-.039.3ZM73.63 76.13a85.55 85.55 0 0 1-.716.074c-.02-.074-.024-.138-.044-.212l.7-.188c.017.114.047.225.06.326ZM101.494 35.205c.241.211.479.41.723.635-.548.213-.548.213-.714-.651-.003-.012-.009.016-.009.016ZM48.173 64.72c-.212.242-.283.419-.406.451-.11.03-.257-.075-.403-.129.063-.109.088-.26.183-.299.129-.06.3-.014.626-.022ZM49.34 81.755c-.167-.179-.258-.273-.34-.382.122-.086.246-.211.378-.26.074-.02.187.108.284.174-.085.128-.172.244-.322.468ZM65.594 61.119l-.835.224-.017-.062c.28-.088.543-.185.822-.273l.03.11ZM214.234 62.147l.511-.453c.069.06.141.133.198.197-.139.17-.294.329-.433.498-.088-.082-.188-.16-.276-.242ZM166.829 25.517c.461-.097.685-.144 1.02-.22-.198.54-.367.743-1.02.22ZM223.643 24.259l.638-.171c.018.114.058.313.033.32a5.106 5.106 0 0 1-.615.112c-.01-.09-.033-.175-.056-.261ZM84.122 78.147c-.243.026-.486.052-.717.074-.016-.061-.045-.12-.062-.18.15-.08.275-.206.438-.236.15-.028.308.022.472.044a1.964 1.964 0 0 0-.13.298ZM52.269 87.038l1.056-.283c-.333.576-.575.654-1.056.283ZM67.063 74.071c-.155.108-.27.217-.393.25-.05.013-.22-.178-.201-.21.06-.12.175-.23.266-.334.096.067.168.14.328.294ZM64.91 74.187c.203.117.414.218.607.35 0 0-.083.181-.095.184-.223-.045-.45-.103-.672-.149.053-.146.113-.267.16-.385ZM169.626 26.28c-.201-.064-.4-.117-.614-.178.018-.083.038-.154.043-.235.219.034.454.076.674.11-.026.098-.065.2-.103.303ZM126.697 29.544a9.623 9.623 0 0 0-.071.571l-.204-.024c.028-.192.043-.38.068-.584a.663.663 0 0 0 .207.037ZM189.556 34.298c.146.053.291.054.335.12.045.068.001.198-.01.306-.139-.028-.275-.044-.396-.104-.013.003.043-.183.071-.322ZM169.528 46.155a28.828 28.828 0 0 0-.853-.337c.531-.472.752-.189.987.05-.038.103-.08.193-.134.287ZM191.101 29.844c.195-.105.379-.207.571-.324.048.08.08.15.127.23-.192.116-.388.222-.592.342l-.106-.248ZM57.246 78.398c.149.065.251.103.357.154l-.179.364c-.106-.05-.248-.092-.296-.171-.035-.083.061-.214.118-.347ZM215.408 31.993c-.138.22-.202.423-.301.449-.122.033-.272-.085-.409-.154.068-.136.099-.316.2-.382.076-.06.26.035.51.087ZM67.923 83.266c-.203.225-.284.365-.404.41-.07.032-.213-.06-.316-.1.056-.133.056-.33.157-.396.092-.051.275.044.563.086ZM67.212 76.834c.192.028.396.052.584.068-.023.111-.044.327-.06.318-.197 0-.392-.04-.583-.067.014-.096.036-.207.06-.319ZM15.742 98.67c-.277.245-.435.393-.711.638 0-.488-.017-.799.71-.638ZM167.165 22.254c-.073.217-.162.425-.235.642-.075-.032-.146-.053-.221-.085.089-.208.178-.416.276-.64.05.04.109.063.18.083ZM207.206 38.323a19.52 19.52 0 0 1-.269-.415 2.23 2.23 0 0 0 .183-.101c.101.13.178.268.269.415-.058.028-.128.06-.183.101ZM64.86 80.926c.063.036.137.069.178.124.02.02-.063.109-.099.17-.065-.047-.14-.08-.18-.135-.007-.024.066-.096.101-.159ZM32.142 63.45c-.116-.088-.261-.141-.266-.206.002-.092.083-.233.157-.252.073-.02.217.073.264.153.014.049-.086.167-.155.304ZM194.034 20.11c-.197 0-.382-.003-.58-.003.003-.04-.007-.077-.005-.117.194-.013.385-.038.579-.05l.006.17ZM66.978 81.756c-.074.165-.096.329-.157.345-.139.024-.285-.03-.42-.045.031-.127.04-.34.11-.372.104-.055.272.032.467.072ZM173.186 25.42c.167.23.289.343.341.487.013.049-.104.199-.194.21a.392.392 0 0 1-.304-.103c-.034-.03.044-.183.157-.595ZM68.701 81.608c-.087.115-.137.273-.202.278-.092-.002-.232-.083-.255-.169-.032-.07.083-.18.137-.273.078.044.183.095.32.164ZM174.274 43.33a6.642 6.642 0 0 0-.461-.1c.008-.068.028-.139.036-.207.152.025.312.035.464.06-.008.068-.025.152-.039.248ZM33.585 64.56c.1-.066.189-.13.296-.17.025-.008.091.093.144.145-.125.073-.247.158-.36.228-.032-.07-.048-.132-.08-.202ZM87.807 78.293c-.17.005-.339.011-.5.002-.012.003-.017-.114-.021-.179.17-.006.351-.015.52-.02.008.076 0 .144.001.197ZM35.039 68.463c.19-.025.366-.059.556-.084l.017.062-.54.144-.033-.122ZM46.166 73.643a1.303 1.303 0 0 1-.168-.284c-.003-.012.15-.132.168-.11.081.056.148.157.22.23-.055.04-.119.097-.22.164ZM7.67 81.76c-.255.08-.506.174-.76.256l-.047-.172.762-.204a.434.434 0 0 1 .045.12Z" fill="#fff"/></svg>