<svg width="87" height="55" fill="none" xmlns="http://www.w3.org/2000/svg"><path d="M10.473 41.359c-1.168-.21-2.032.607-3.2 1.074.117-.35.117-.607.245-.7.48-.328 1.005-.585 1.484-.9.35-.222.677-.502 1.168-.876-.41-.14-.748-.35-.853-.269-.864.631-1.822-.116-2.721.257.677-.736 1.658-.782 2.464-1.156.806-.374 1.717-.514 2.57-.876-.69-.432-1.425-.339-2.126-.35-.876-.012-1.717-.012-2.43.794-.35.385-1.203.304-2.032.49.666-2.37 2.792-2.464 4.263-3.398-.572-.468-2.079-.538-5.548-.246.596-.327 1.04-.56 1.589-.864-.572-.456-1.086-.128-1.542-.199-.479-.07-.946-.21-1.483-.327.479-.619 1.565-1.074 1.834-.759.478.572 1.062.35 1.6.456.222.046.444.128.794.233-.374.199-.642.35-1.145.62.48.128.701.233.935.256 1.121.105 2.242.257 3.364.246.876-.012 1.752-.269 2.628-.34.84-.07 1.693-.034 2.534-.046.234 0 .455.023.69.012 1.12-.047 2.253-.094 3.375-.152.327-.023.654-.082 1.18-.152-.538-.56-1.192-.84-1.064-1.588.012-.047-.303-.164-.467-.234-.105.245-.21.479-.338.771-.082-.023-.222-.117-.363-.105-1.331.117-2.184-.818-2.674-1.729-.935-1.752-2.395-1.705-3.948-1.588-.748.058-1.518-.047-2.254.35-.467.257-.981.012-1.25-.619.199-.105.409-.21.783-.397l-.982-.362c.094-.128.152-.269.222-.28.876-.164 1.752-.292 2.628-.456.76-.14 1.519-.304 2.278-.549-.876-.549-1.88-.362-2.815-.444-1.051-.081-2.102-.081-3.154-.105-1.004-.023-2.02-.058-3.025-.023-.992.035-1.985.163-2.978.257l-.14-.245c.175-.199.327-.503.549-.561.479-.152 1.004-.304 1.483-.234 1.25.199 2.371 0 3.422-.677.129-.082.292-.094.444-.14.713-.234 1.425-.467 2.324-.771-.35-.257-.513-.374-.805-.596.724 0 1.308 0 1.903-.011-.549-.584-1.18-.701-1.892-.584-.292.046-.677.151-.876.011-1.051-.724-2.184-.339-3.247-.187-.362.059-.654.678-.958 1.051-.105.117-.198.28-.21.433-.023.21.047.42.094.77-.304.036-.736.082-1.11.129-.677-.747.374-.818.397-1.32-.409-.175-.83-.35-1.296-.537.046-.28.105-.49.117-.713.011-.992.292-1.238 1.18-1.04.782.176 1.576.351 2.359.515.151.035.362.082.455 0 .841-.69 1.717-.304 2.605-.164.502.082 1.027-.023 1.798-.058-.584-.678-1.086-.76-1.623-.794-1.425-.094-2.862 0-4.252-.468-.268-.093-.607.012-.91.047-.351.035-.69.129-1.028.129-1.052.011-1.052 0-1.367-1.25 1.39.163 2.745.362 4.111.49 1.39.129 2.792.234 4.193.28 1.367.047 2.745.351 4.229.024-.34-.584-.76-.444-1.098-.397-1.028.14-1.94.058-2.57-.911-.093-.14-.304-.245-.479-.28-.794-.175-1.588-.35-2.383-.456-.408-.058-.84.023-1.25.082-.466.058-.875.175-1.202-.374-.14-.222-.654-.21-1.04-.315-.374-.911-.187-1.203.724-1.098.327.035.666.058 1.005 0-.584-.537-1.332-.42-2.02-.502-.55-.07-1.087-.094-1.274-.806.748-.584 1.413.21 2.173.058.128-.187.292-.432.455-.654 1.88 1.016 3.913.724 5.852.981.292.035.619-.163.922-.35-1.541-.397-3.142-.14-4.648-.55 0-.08.011-.151.011-.233 1.472 0 2.955-.011 4.427-.011.012-.082.012-.176.024-.257-1.449-.199-2.897-.397-4.392-.596-.502-1.542-2.301-1.261-3.364-2.208.164-.42.327-.84.502-1.32.841.152 1.647.304 2.617.48-.35-1.04-1.332-1.192-1.893-2.091.725.175 1.239.303 1.764.409.572.105 1.145.221 1.729.268.549.047 1.144.245 1.705-.245-.432-.678-1.18-.257-1.834-.596.234-.082.35-.163.456-.152 1.378.176 2.756.398 4.134.538 1.075.105 2.161.105 3.248.175.817.047 1.623.082 2.44.175 1.998.234 3.995.502 5.98.864-1.471-.116-2.943-.222-4.426-.338a432.107 432.107 0 0 1-4.006-.269c.444.28.9.456 1.378.537.526.094 1.075.14 1.6.094.35-.035.69-.257 1.04-.397.058.572.549.665.934.7a38.04 38.04 0 0 1 5.361.9c1.589.397 3.305.303 4.976.397 1.074.058 2.137.467 3.223.035.059-.023.176.105.327.21-.408.28-.782.537-1.156.783.023.105.058.21.082.315.268.012.549.07.806.012.409-.105.852-.21 1.168-.456.619-.49 1.308-.42 1.997-.362 1.425.117 2.862.269 4.287.409.011.724-.608.385-.83.642.526.678 1.075.55 1.67-.455 1.344.093 2.722.175 4.205.28-.502.316-.514.666-.117 1.005.363.315 1.122.385 1.414.093.233-.233.21-.514-.14-.63-.152-.059-.35-.012-.514-.012.011-.094.023-.176.023-.269 1.892.257 3.796.502 5.688.783 3.224.467 6.436 1.027 9.706 1.203 1.495.081 3.013.081 4.52.338 1.857.327 3.773.35 5.63.666 1.857.315 3.703.783 5.525 1.273 1.343.374 2.663.456 4.017.152.69-.152 1.309-.164 1.8.572-.153.094-.293.269-.433.257-.502-.035-.654.35-.62.666.024.28.258.643.503.806.304.21.724.245 1.098.385.14.047.257.152.549.34h-1.343c.023.63.023 1.19-.374 1.728-.432.595-1.133.14-1.682.63.678.62 1.507.9 2.301 1.297-.245.374-.444.689-.7 1.075.303.221.56.42.957.712-.724.339-1.401.642-2.126.981.573.666 1.519.783 2.325 1.133-.024.07-.059.152-.082.222-.736-.164-1.483-.304-2.208-.479-.689-.175-1.343-.28-2.009.175-.268.187-.747.14-1.11.094-.536-.082-1.062-.246-1.576-.41-3.048-1.015-6.237-1.214-9.367-1.786a38.172 38.172 0 0 0-3.282-.432c-3.2-.304-6.39-.841-9.578-1.262-.724-.093-1.471-.081-2.207-.163a49.317 49.317 0 0 1-2.932-.456c-.876-.163-1.717-.432-2.628-.268-.397.07-.83-.106-1.25-.164-.689-.093-1.378-.198-2.079-.245-.198-.012-.397.128-.876.292.654.187 1.028.315 1.402.385 1.752.327 3.516.666 5.28.935.747.116 1.494-.175 2.277.011 4.111.993 8.27 1.659 12.462 2.196 1.659.21 3.329.315 4.976.537 2.23.292 4.462.654 6.692.982.35.046.69.163 1.04.14 1.168-.047 2.3-.082 3.364.584.479.292 1.144.315 1.425-.514.572.21 1.308.081 1.273 1.028 0 .093.303.186.467.292.49.303.981.607 1.53.957-.163.094-.245.176-.327.187-.292.059-.677-.011-.666.456 0 .432.316.42.643.467.665.093.665.117.479 1.051-.666.164-1.32.316-2.068.502l.28.724-.712 1.11c.771.502 1.402.911 2.114 1.378-.502.724-1.378.456-2.009 1.028.257.444.537.935.876 1.507-.128.327-1.18.339-.385 1.215a96.258 96.258 0 0 0-1.25-.27l-.14.211c1.401 1.729 3.224 3.142 4.181 5.315-.292.221-.63.455-.362.98.701 1.344.514 2.734.07 4.182.28.572.818 1.11.48 1.974-.106.269.431.794.77 1.355-1.927-.152-3.586-.526-4.987-1.682-.292-.245-.456-.608-.935-.572-.105.011-.315-.176-.315-.269-.023-.748-.63-.806-1.133-.97-.479-.163-.97-.28-1.46-.42-.724-.198-1.367-.432-1.729-1.203-.14-.304-.56-.572-.899-.666-1.121-.292-2.254-.49-3.387-.712-.129-.024-.292.035-.654.093.946.584 1.728 1.063 2.523 1.565-1.133.199-1.776-.035-2.313-.84-.677-1.005-1.682-1.099-2.71-1.075v1.588c-1.471.21-1.612-.957-2.044-1.927-1.18-.14-2.37-.268-3.562-.432-.49-.07-.97-.187-1.448-.304-.62-.152-.654-.7-.783-1.191-.152-.572-.654-.62-1.11-.69-.49-.08-1.027-.174-1.273.573.83.76 1.74 1.402 2.885 1.787-.198.374-.525.794.117 1.11-.233-.035-.642-.012-.689-.129-.385-1.028-1.483-1.04-2.196-1.588-.502-.386-1.04-.654-1.156-1.355-.023-.175-.269-.386-.444-.42-.187-.047-.502.034-.607.186-.094.117-.035.444.07.608.117.187.35.28.584.455-.596.666-1.157.269-1.682.292.093-.77.105-.782-.362-1.226-1.145-1.075-2.57-1.519-4.088-1.694-.654-.07-1.308-.268-1.962-.233-1.215.046-2.336-.222-3.481-.62-.619-.221-1.367-.034-2.126-.034 0 .689 0 1.296.012 2.009.152.058.385.163.642.257-.268.315-.525.63-.829.992-.105-.128-.233-.233-.269-.362-.268-.806-.794-1.285-1.6-1.577-.595-.221-1.226-.537-1.658-.98-1.028-1.075-2.371-1.087-3.668-1.227-1.693-.199-3.399-.269-5.104-.374-.339-.023-.677 0-1.098.199.503.198 1.051.327 1.484.63.455.304.794.783 1.273 1.274.864.163 1.892.35 2.99.549-.07.361-.129.642-.199.98-.666-.046-1.273-.093-1.892-.128l-.035-.128c.234-.07.479-.14.76-.21-.597-.596-1.262-.503-1.916-.514-.538-.012-1.063.128-1.215-.795-.14-.829-1.005-.934-1.986-.303.584.186 1.063.338 1.53.478 0 .07.012.152.012.222-.257.047-.537.176-.782.129a44.248 44.248 0 0 1-3.049-.69c-.35-.093-.654-.385-.981-.583-.642-.397-.853-.386-1.378.163-.736.76-1.519 1.18-2.64.83-.549-.164-1.191-.024-1.81.081.385.41 1.285.28.864 1.227.748-.222.748-.222 1.308-.853.456.432.923.864 1.437 1.355-1.238-.093-2.453-.152-3.668-.304-.257-.035-.467-.409-.77-.689-.094.21-.117.467-.258.55-.175.104-.443.092-.665.08-1.554-.034-3.107-.07-4.66-.128-.993-.035-1.916.082-2.792.643-.467.303-1.051.432-1.623.666-.106-.398-.14-.69-.246-.947-.315-.724-.268-.759.432-1.226.725-.479 1.379-1.074 2.068-1.623.035-.024 0-.152-.012-.362-.35.07-.69.128-1.086.21-.035-.222-.07-.444-.105-.654 2.336-.456 2.815-.678 3.247-1.507-1.998-.479-2.698-.105-3.236 1.507Zm29.445-5.864c-.42-.595-.992-1.11-1.705-1.004-.514.082-.888-.059-1.32-.187-.432-.129-.992-.374-1.285.117-.373.63-.794.572-1.366.373-.386-.14-.853-.373-1.285.07.432.48.888.491 1.402.398.689-.129 1.355-.012 2.044.21.946.292 1.974.374 2.966.526.362.046.62-.082.514-.538.362.199.701.526 1.075.584 1.717.269 3.434.468 5.162.678.187.023.386-.094.631-.164-1.472-1.612-1.799-1.693-3.282-.864-.35-.269-.526-1.028-1.156-.666-.55.316-1.016.234-1.53.012-.456-.199-.724.011-.865.455Zm32.248-14.097c-.011.549.28.887.795.992.549.117 1.121.176 1.799.28a25.316 25.316 0 0 1-.246-.829c.28-.221.502-.397.9-.689-1.04-.28-1.88-.549-2.734-.735a1.536 1.536 0 0 0-.887.093c-.538.245-1.028.222-1.565-.012-.55-.245-1.133-.268-1.88.105.712.257 1.249.444 1.763.631 0 .55.374.853.549.55.42-.725 1.004-.363 1.53-.375l-.023-.011ZM55.593 37.656c.257.514.42.83 1.191.49.608-.268 1.6-.922 2.208.258.058.105.35.105.549.14.63.117 1.261.222 1.857.327.63-.713-.152-1.355 0-2.08.654.188 1.25.34 1.833.526.094.035.176.152.27.246-.293.14-.573.28-.97.478.642.573 1.18 1.063 1.775 1.6.432-.28.853-.56 1.518-.233.468.234 1.098.117 1.636.456.28.187.77.035 1.284.023-.362-1.04-1.355-.83-1.892-1.343-.514-.49-1.273-.713-1.927-1.04 1.226-.233 2.394-.467 3.527.094.444.222.48-.14.573-.502-1.472-.28-2.909-.573-4.345-.83-.42-.07-.841-.082-1.262-.128-.806-.082-1.611-.152-2.406-.269-.91-.14-1.81-.374-2.71-.514-.233-.035-.502.094-.724.152-.175 1.402 1.297.712 1.694 1.472-1.11.023-2.16.222-3.13-.41-.234.456-.41.783-.584 1.134-.374-1.133-1.449-1.764-2.605-1.285-.467.199-.806.023-1.25-.023.41.934 1.145 1.366 1.998 1.308.408-.024.817.07 1.226.07.222 0 .444-.07.666-.117Zm23.92-5.583c-1.518-.315-3.223-.654-4.929-1.016-1.39-.292-2.78-.62-4.17-.923-.537-.117-1.074-.14-1.343.386-.84-.292-1.576-.596-2.347-.818-.362-.105-.853-.199-1.133-.035-.49.292-.853.14-1.297-.023a7.091 7.091 0 0 0-1.693-.374c-.83-.058-1.647-.128-2.465-.269-2.476-.444-4.975-.759-7.463-1.098-1.145-.151-2.313-.198-3.457-.362-1.075-.163-2.126-.467-3.2-.63-.795-.117-1.636-.246-2.419-.129-.455.07-.817.023-1.214-.117-.608-.21-1.203-.525-1.834.024-.128.116-.56.035-.76-.094-1.109-.724-2.417-.584-3.608-.677-1.098-.082-2.208.082-3.306-.234-.035-.012-.105.07-.315.234.456.198.818.362 1.18.502.455.175.934.304 1.355.537.794.433 1.53 1.18 2.476.292.046-.035.152-.011.222-.011 1.074-.012 2.149-.082 3.107.642.467.35 1.05.444 1.6-.035.198-.175.619-.257.887-.187.783.199 1.53.62 2.325.724.782.105 1.6-.058 2.406-.093.946.876 2.125 1.04 3.48.98-.479.351-.794.585-1.226.912 1.016.782 2.114.853 3.095.97 1.261.151 2.57.618 3.866.175v-1.098c.362.467.584.759.818 1.04.128.151.257.373.42.42 1.016.233 2.044.455 3.072.63 1.95.316 3.913.596 5.863.888.724.105 1.46.199 2.196.292.023-.105.047-.198.058-.304-.759-.21-1.518-.408-2.277-.619a7.11 7.11 0 0 1-.958-.327c-.28-.116-.642-.233-.49-.654.151-.42.572-.49.876-.303 1.296.77 2.756.7 4.181.875.806.106 1.624.2 2.43.328.291.046.63.292.84.21.257-.117.41-.49.584-.724 1.25-.035 1.95 1.343 2.944 1.238.689-.514 1.203-.853 1.623-1.145Zm-38.158-.514c.537.023 1.063.047 1.635.07.14.164.269.362.444.514.619.526 1.705.49 2.23-.047.386-.408.386-.817-.104-1.039-.49-.234-1.051-.409-1.589-.444-.257-.012-.537.35-.864.584-.97-.817-2.137-1.004-3.364-.958.035.538.07.982.105 1.46.48.21.958.41 1.519.654-.012-.315-.012-.525-.012-.794Zm34.444 9.73c-.385-.841.035-1.73-.841-2.033-.782-.28-1.6-.303-2.22.047-.677-.222-1.237-.444-1.81-.572-1.12-.257-1.18-.21-1.448.642.526.21 1.086.35 1.554.642.548.35 1.074-.07 1.611.07.222.059.456.047.69.059.712.035 1.401.082 1.681.91.035.083.328.094.783.234ZM52.603 34.84c-.76-.712-1.682-.607-2.535-.77-1.121-.223-2.266-.152-3.375-.503-.794-.257-1.682-.21-2.535-.257-.128-.011-.35.21-.374.339-.023.105.187.362.316.385.84.105 1.682.14 2.523.257 1.168.164 2.336.41 3.504.538.782.07 1.6.595 2.476.011Zm3.434-1.985c-1.25-.911-2.453-1.122-3.726-.035 1.214.093 1.705 1.833 3.223 1.343-.116-.386-.21-.69-.327-1.051.316-.094.55-.176.83-.257Zm8.35-12.848c-.852-.386-1.74-.62-2.662-.596-1.437.024-2.862-.012-4.252-.432-.198-.058-.444.035-.666.07.117.304.257.444.41.467 2.055.327 4.11.643 6.166.935.362.046.794.116 1.005-.444ZM32.689 32.342l-.035.315c1.928.62 3.983.362 5.946.783.292.058.619-.07.934-.105.012-.082.012-.164.023-.246-.222-.105-.444-.292-.677-.303-2.056-.176-4.123-.304-6.19-.444Zm-8 1.413c-.456-.28-.853-.572-1.297-.76-.198-.08-.595-.034-.7.106-.234.304-.012.572.303.724.14.07.28.129.432.164 1.075.28 2.161.56 3.247.806.164.035.374-.152.818-.35-.97-.515-1.729-.912-2.453-1.297-.093.046-.152.058-.163.081-.047.129-.094.27-.187.526Zm50.504.479c-.047-.28-.047-.339-.07-.35-1.274-.748-2.769-.853-4.123-1.367-.094-.035-.34.163-.41.304a.681.681 0 0 0 .047.525c.094.14.304.257.48.292 1.33.21 2.65.397 4.076.596Zm-46.755.736c1.075-.327 1.834-.199 2.593.187.479.233 1.016.257 1.577-.176-.713-.642-1.285-1.284-2.325-.946-.21.07-.49-.023-.724-.105-.233-.081-.444-.245-.852-.467-.094.514-.164.888-.269 1.507Zm6.915-3.633c.712.432 1.413.292 2.09.21.432-.046.62-.642.292-.887-.56-.42-1.063-1.075-1.962-.713-.117.41-.257.853-.42 1.39Zm3.527-13.233c.549.748 1.145.77 1.67.467.63-.35 1.227-.374 1.892-.245.502.093 1.04.175 1.6-.339-1.506-.479-2.943-.409-4.356-.397-.245 0-.48.304-.806.514Zm30.368 15.674c-.094.631.315.9.712.9.841-.012 1.565.315 2.336.56.409.129.83.105 1.098-.362-1.086-.514-3.504-1.18-4.146-1.098Zm-18.14 3.189c-.023-.105-.058-.21-.081-.315-.292-.07-.62-.07-.864-.222-.246-.152-.386-.456-.596-.654-.28-.246-.596-.374-.923-.047-.303.315-.292.934.094 1.098a6.622 6.622 0 0 0 1.646.455c.222.024.48-.21.725-.315Zm2.652-1.927c1.437.934 2.488 1.11 3.224.572-.935-1.051-2.103-.747-3.224-.572Zm-22.145-4.707c-.386-1.215-.56-1.285-2.406-.993.689.736 1.367 1.238 2.406.993Zm11.248 3.153c-.69-.514-1.379-.689-2.114-.642-.21.012-.398.245-.608.385.164.176.316.48.514.503.713.105 1.437.14 2.208-.246Zm28.335 13.678c-.607-1.157-1.495-1.414-2.534-.725.128.176.245.468.397.49.689.118 1.401.164 2.137.234ZM57.321 32.785c.643.373 1.18.724 1.74 1.016.223.117.515.128.772.105.128-.012.268-.234.303-.397.024-.07-.163-.245-.28-.304-.339-.14-.783-.152-1.016-.385-.49-.514-.923-.432-1.519-.035ZM52.603 19.47c-.62-.817-1.297-.63-1.857-.712-.561-.093-.62.058-.49.864.7-.046 1.4-.093 2.347-.151Zm-.41-4.578c-.01.117-.034.222-.046.339.42.082.841.222 1.262.245.747.047.747.023 1.063-.456-.771-.198-1.519-.502-2.278-.128Zm-2.662 16.76c.654.491 1.285 1.099 2.242.456-.654-.712-1.425-.712-2.242-.455ZM36.917 13.42c.957.444 1.553.432 2.523-.011-.62-.503-1.507-.514-2.523.011Zm19.575 13.327c-.91-.526-1.927-.642-2.57-.269.795.094 1.496.806 2.57.27Zm17.321 2.756c-.233-.397-.385-.63-.455-.759-.818.094-1.495.164-2.173.246 0 .058.012.128.012.187.806.105 1.624.21 2.616.326Zm-5.7-.957c-.875-.841-1.53-.876-2.23-.21.689.35 1.355.443 2.23.21Zm-34.537 1.95c.047-.128.105-.245.152-.373-.374-.21-.724-.468-1.121-.62-.129-.046-.35.187-.526.293.105.175.175.455.316.502.373.117.782.128 1.18.198Zm14.051-11.598c.677.082 1.355.339 2.137-.152-.84-.397-1.495-.245-2.137.152ZM25.95 29.608c-.525-.945-1.074-1.05-1.95-.478.642.163 1.168.292 1.95.479Zm2.628 12.965c-.058-.619-.397-.759-.747-.689-.339.07-.596.327-.49.876.431-.07.828-.128 1.237-.187Zm48.285-20.626c.444.91.444.91 1.448.28-.549-.105-.934-.187-1.448-.28Zm-45.645.362c.888.619 1.156.654 2.009.198-.608-.058-1.227-.117-2.01-.198Zm42.047 15.51c.374.596.783.666 1.449.328-.42-.503-.818-.62-1.448-.327ZM21.99 33.5c-.35-1.029-.41-1.052-1.098-.421.409.163.747.292 1.098.42Zm44.605 13.01c-.502-.455-.759-.91-1.413-.502.222.63.666.63 1.413.502Zm-18.98-15.58c-.151.817.094 1.016.631.934.047-.012.082-.117.175-.257-.198-.175-.42-.35-.806-.678Zm21.258-2.535c0 .093 0 .187-.012.28.794.222.794.222 1.39-.187-.56-.035-.97-.07-1.378-.093Zm-20.475 1.892c.023-.105.035-.21.058-.315-.502-.094-1.016-.175-1.518-.269-.012.082-.023.175-.047.257.503.117 1.005.222 1.507.327Zm16.398-9.309c.561.526.561.526 1.087.047-.362-.245-.69-.362-1.087-.047Zm16.726 11.855.07-.292c-.338-.42-.665-.163-1.016.21.315.024.63.047.946.082Zm-2.745 8.982c.012-.093.012-.198.024-.292-.304-.011-.608-.035-.911-.047-.012.094-.012.176-.024.269.304.012.608.047.911.07Zm-1.448-12.1c0-.082.012-.164.012-.245-.55-.234-.55-.234-1.051.198.432.012.735.035 1.04.047ZM20.004 15.99c-.035.07-.058.128-.093.199.175.081.362.163.537.256.035-.07.058-.128.093-.198-.175-.094-.362-.175-.537-.257Zm41.709 17.695c.012-.059.035-.117.047-.175-.21-.07-.409-.129-.62-.199-.023.07-.034.129-.058.199.21.07.42.128.631.175ZM16.757 20.38c-.012.047-.035.094-.047.129.246.093.491.175.736.269.012-.047.035-.094.047-.14-.245-.082-.49-.176-.736-.258Zm48.367 13.432c.315.468.56.48.747-.081-.315.035-.525.058-.747.081Zm1.53-8.456v.164h.876v-.164h-.876ZM6.292 10.5l-.175.28c.175.082.35.164.525.223a.643.643 0 0 0 .105-.164c-.151-.117-.303-.222-.455-.339ZM85.307 16.002c-.9.736-1.974.748-3.06.678-.082 0-.163 0-.222-.036-2.266-1.354-4.859-1.424-7.358-1.81-2.371-.362-4.766-.596-7.148-.888-1.998-.257-3.995-.502-5.98-.794-1.332-.198-2.652-.525-3.995-.724-1.763-.269-3.527-.479-5.29-.713-.772-.105-1.543-.186-2.313-.303-1.332-.21-2.64-.49-4.007-.42a3.387 3.387 0 0 1-1.588-.304 3.087 3.087 0 0 0-2.16-.176c-.924.246-1.741-.151-2.594-.315-.187-.035-.397-.269-.514-.21-1.133.502-2.067-.42-3.165-.397-1.063.023-2.126-.327-3.189-.456-1.144-.128-2.289-.163-3.433-.303-1.227-.152-2.442-.42-3.668-.561-.876-.105-1.775-.07-2.663-.117-.572-.035-1.133-.105-1.705-.14-.83-.047-1.624-.584-2.488-.187-.83-.549-1.764-.175-2.64-.269-.9-.093-1.798-.256-2.71-.292-.443-.023-.899.14-1.331.257-1.682.48-2.908.024-3.808-1.471-.093-.164-.198-.316-.35-.573.222-.046.362-.105.479-.081 2.581.28 5.174.56 7.755.876 3.014.362 6.015.747 9.017 1.11 1.542.186 3.084.338 4.637.49 1.939.187 3.866.35 5.805.537 2.243.21 4.497.397 6.74.63 2.627.281 5.244.62 7.872.888 1.027.106 2.067.07 3.106.094.199 0 .386.012.584.035 4.462.666 8.924 1.355 13.386 1.986 1.576.222 3.177.257 4.753.443 2.348.28 4.696.538 6.962 1.297.77.257 1.576.385 2.382.56.175.036.374 0 .56-.035 1.554-.315 2.512.176 3.341 1.694Z" fill="#1C2024"/><path d="M5.124 30.52c-.49.257-.888.479-1.402.747 1.075.514 1.624.339 2.09-.56.234.07.48.14.737.21.257.07.502.233.759.222 1.121-.035 2.23-.164 3.352-.164.818 0 1.682-.012 2.464.864-.443 0-.689.012-.934 0-1.857-.046-3.714-.116-5.56-.151-.233 0-.455.058-.689.105-1.121.245-2.242.49-3.434.747-.14-.56-.245-.946.41-1.156.35-.105.677-.339.992-.56.327-.234.642-.526 1.215-.304ZM17.306 3.06c-1.074.83-1.973.794-2.908.07-1.717 1.005-3.457.63-5.28-.07.036-.28.083-.596.141-1.004 1.355.84 2.78.455 4.135.63 1.308.175 2.616.257 3.912.374ZM56.995 48.297c-.748.175-1.04-.234-1.32-.584s-.584-.538-1.063-.573c-.608-.047-1.215-.233-1.822-.339-.56-.105-.911-.385-.97-1.062.269-.152.561-.433.865-.444.28-.012.759.187.829.408.198.584.642.771 1.121.888.748.187 1.343.526 1.729 1.215.105.187.35.28.63.49ZM85.166 12.345c-.455.456-.992.748-.093 1.355-.14.012-.292.012-.432.023-.199-.116-.538-.198-.596-.362-.28-.922-1.121-1.168-1.834-1.425-1.483-.525-3.025-.887-4.543-1.331-.094-.024-.175-.105-.245-.257 1.308.058 2.558.362 3.796.806 1.25.455 2.534.77 3.947 1.191ZM49.039 45.599c-1.776-.444-1.81-.48-2.22-1.928.48 0 .806.164 1.075.55.56.805 1.262 1.226 2.29.794.21-.082.502.046.84.081-.128.444-.245.806-.373 1.262-1.052.467-1.367.35-1.612-.76ZM76.36 10.15c-.188.105-.351.257-.55.292-.595.105-5.127-.619-6.178-.993 2.382-.245 4.508.41 6.692.467.012.07.023.152.035.234ZM5.101 13.935c-2.336.292-3.165-.024-3.27-1.367 1.063.607 2.418.094 3.27 1.367ZM9.025.513c1.401.164 2.861-.233 4.204.55-1.308.455-2.616-.21-3.924-.036-.117.012-.269-.198-.397-.303.035-.07.082-.14.117-.21ZM83.322 10.29c-.222-.14-.433-.327-.678-.409-1.822-.584-3.702-.91-5.56-1.378 1.449.246 2.956-.011 4.357.654.304.152.677.316.981.269.736-.105.876.292.9.864ZM63.581 48.483c-.035.386-.058.55-.082.806-.42-.607-1.074-1.016-.736-1.974 1.005.246 1.53 1.227 2.441 1.6a72.933 72.933 0 0 1-1.623-.432ZM8.301 3.317c-.584-.268-.817-.584-.525-1.18.268-.537.596-.595 1.086-.303-.187.49-.35.934-.56 1.483ZM74.619 8.246c-1.145-.059-2.29-.117-3.422-.164.011-.105.011-.21.023-.303 1.145.093 2.278.187 3.422.268a1.027 1.027 0 0 0-.023.199ZM39.768 44.419c.631-.327 1.098-.42 1.379.175.07.14-.059.538-.187.572-.631.246-.818-.315-1.192-.747ZM32.431 44.303c-.805.385-1.53.35-2.125-.386.7.129 1.413.257 2.125.386ZM65.86 8.865c.794.07 1.378.129 2.009.175-.725.48-1.063.456-2.01-.175ZM79.513 52.338c-.397-.151-.795-.315-1.332-.525.923-.409.923-.409 1.332.525ZM33.752 46.253c-.456-.69-.456-.69-1.32-1.122.549.094 1.086.199 1.74.316-.163.315-.257.502-.42.806ZM52.93 7.265l-1.788-.21v-.129c.608.024 1.203.059 1.81.082-.011.082-.011.175-.023.257ZM39.134 44.465c-.444-.035-.922.21-1.53-.315h1.554c-.012.105-.012.21-.024.315ZM5.124 36.559c-.199.163-.386.327-.584.49-.094-.14-.292-.304-.269-.42.059-.42.374-.374.666-.34.058.094.117.176.187.27ZM84.442 11.646c-.455-.222-.91-.433-1.355-.655.024-.07.059-.14.082-.21.467.175.935.35 1.413.526-.046.117-.093.222-.14.338ZM11.092 4.614c-.362-.024-.735-.035-1.32-.07.596-.584.982-.362 1.367-.234-.023.094-.035.199-.046.304ZM19.63 3.47c-.409.163-.747.291-1.191.466.42-.829.432-.84 1.191-.467ZM41.506 46.276c-.07.269-.128.537-.21.84-.163-.034-.292-.07-.526-.127.21-.316.374-.573.538-.818.07.035.14.07.198.105ZM25.39 44.78c-.725.2-.83-.07-.597-.689.246.292.42.491.596.69ZM6.21 40.82a6.99 6.99 0 0 1 .713-.151c.011 0 .105.28.081.28-.221.105-.443.199-.677.292-.035-.14-.07-.28-.117-.42ZM1.585 28.101l1.6.21c-.583.35-1.12.234-1.6-.21ZM1.364 30.087c.257-.175.514-.35.841-.584.21.876-.35.713-.69.818a2.658 2.658 0 0 0-.151-.234ZM64.178 8.643c.385.035.759.059 1.308.105-.537.62-.934.012-1.308.21v-.315ZM59.692 49.383c.327.163.654.338.981.502-.023.058-.058.128-.082.187-.338-.14-.677-.292-1.016-.432.035-.082.07-.176.117-.257Z" fill="#1C2024"/><path d="M83.32 10.29c.632-.373.632-.373 1.099.035-.42-.011-.76-.023-1.098-.035ZM45.22 44.57c.059-.15.105-.303.164-.443 0 0 .187.047.187.07-.024.164-.059.316-.094.479-.093-.035-.175-.07-.257-.105ZM15.017 1.343l.958.07c0 .059-.012.117-.012.187-.315-.023-.63-.058-.958-.082 0-.058 0-.116.012-.175ZM34.731 42.515c.257-.292.328-.362.398-.432.105.128.21.257.292.397.011.023-.14.187-.21.175-.164-.012-.304-.082-.48-.14ZM27.445 44.325c-.199-.093-.397-.175-.607-.268.023-.059.035-.117.058-.176.21.059.409.129.62.187a7.676 7.676 0 0 1-.071.257ZM33.308 42.632c-.21-.082-.432-.164-.643-.246.024-.058.035-.105.059-.163.21.082.432.175.642.257a.813.813 0 0 0-.058.152ZM6.934 5.828c-.21-.093-.42-.175-.62-.268.024-.082.048-.152.071-.234.21.07.432.152.642.222-.035.093-.058.187-.093.28ZM12.739 4.286c.07.07.105.117.151.163-.082.047-.163.106-.257.14-.023.012-.081-.081-.128-.128.07-.058.152-.117.233-.175ZM5.381 24.05h-.724v-.106h.724v.106ZM56.27 30.1c.106.292.187.514.246.724.023.058-.024.14-.047.28-.572-.093-.864-.549-1.39-1.004h1.191ZM62.6 30.788c-.432-.186-.853-.362-1.355-.572.853-.245.853-.245 1.448.339-.023.07-.058.152-.093.233ZM62.158 31.536a99.199 99.199 0 0 0-1.39-.595c.537.082 1.028-.152 1.39.595ZM58.548 29.959c-.397-.024-.794-.059-1.192-.082.012-.082.024-.175.047-.257.374.07.76.152 1.133.222a.397.397 0 0 1 .012.117ZM72.178 21.409c.538 0 1.11-.304 1.74.21-.712.164-1.226-.011-1.74-.21-.011-.012 0 0 0 0Z" fill="#1C2024"/></svg>