<svg width="87" height="55" viewBox="0 0 87 55" fill="none" xmlns="http://www.w3.org/2000/svg">
<path d="M10.4734 41.3586C9.30538 41.1484 8.44108 41.966 7.27309 42.4332C7.38989 42.0828 7.38987 41.8258 7.51835 41.7324C7.99722 41.4053 8.52284 41.1484 9.00172 40.833C9.35211 40.6111 9.67915 40.3308 10.1697 39.957C9.76091 39.8169 9.42219 39.6066 9.31707 39.6884C8.45276 40.3191 7.495 39.5716 6.59565 39.9454C7.27308 39.2095 8.2542 39.1628 9.06012 38.789C9.86603 38.4153 10.7771 38.2751 11.6297 37.913C10.9406 37.4809 10.2047 37.5743 9.50393 37.5627C8.62794 37.551 7.78701 37.551 7.07453 38.3569C6.72414 38.7423 5.87149 38.6606 5.04222 38.8474C5.70797 36.4764 7.83371 36.383 9.30538 35.4486C8.73306 34.9814 7.22636 34.9113 3.75743 35.2033C4.3531 34.8763 4.79695 34.6427 5.3459 34.339C4.77359 33.8835 4.25968 34.2105 3.80416 34.1404C3.32529 34.0704 2.85807 33.9302 2.3208 33.8134C2.79967 33.1944 3.88592 32.7389 4.15456 33.0542C4.63344 33.6265 5.21743 33.4046 5.7547 33.5097C5.97662 33.5564 6.19854 33.6382 6.54894 33.7433C6.17518 33.9419 5.90654 34.0937 5.4043 34.3624C5.88318 34.4908 6.1051 34.596 6.3387 34.6193C7.45996 34.7244 8.58124 34.8763 9.70251 34.8646C10.5785 34.8529 11.4545 34.596 12.3305 34.5259C13.1714 34.4558 14.0241 34.4908 14.865 34.4792C15.0986 34.4792 15.3205 34.5025 15.5541 34.4908C16.6754 34.4441 17.8084 34.3974 18.9296 34.339C19.2567 34.3156 19.5837 34.2572 20.1093 34.1872C19.572 33.6265 18.9179 33.3462 19.0464 32.5987C19.0581 32.552 18.7427 32.4352 18.5792 32.3651C18.4741 32.6104 18.369 32.844 18.2405 33.136C18.1587 33.1126 18.0186 33.0192 17.8784 33.0309C16.5469 33.1477 15.6943 32.2133 15.2037 31.3022C14.2693 29.5503 12.8093 29.597 11.2559 29.7138C10.5084 29.7722 9.73755 29.667 9.00172 30.0642C8.53452 30.3211 8.02058 30.0758 7.75194 29.4451C7.9505 29.34 8.16076 29.2349 8.53452 29.048C8.12572 28.8962 7.86875 28.8027 7.55339 28.6859C7.64683 28.5575 7.70525 28.4173 7.77533 28.4056C8.65132 28.2421 9.52731 28.1136 10.4033 27.9501C11.1625 27.8099 11.9217 27.6464 12.6809 27.4011C11.8049 26.8522 10.8004 27.0391 9.86602 26.9573C8.81483 26.8756 7.76364 26.8756 6.71245 26.8522C5.70797 26.8288 4.69184 26.7938 3.68737 26.8288C2.69457 26.8639 1.70178 26.9924 0.708993 27.0858C0.662274 27.004 0.615531 26.9223 0.568812 26.8405C0.74401 26.642 0.895872 26.3383 1.11779 26.2799C1.59666 26.128 2.12225 25.9762 2.60113 26.0463C3.85088 26.2448 4.97215 26.0463 6.02334 25.3688C6.15182 25.2871 6.31532 25.2754 6.46716 25.2287C7.17963 24.9951 7.89212 24.7615 8.79147 24.4578C8.44107 24.2009 8.27754 24.0841 7.98554 23.8621C8.7097 23.8621 9.2937 23.8621 9.88937 23.8505C9.34041 23.2665 8.70971 23.1497 7.99723 23.2665C7.70524 23.3132 7.3198 23.4183 7.12124 23.2781C6.07005 22.554 4.9371 22.9394 3.87423 23.0913C3.51215 23.1497 3.22016 23.7687 2.91648 24.1425C2.81136 24.2593 2.71792 24.4228 2.70624 24.5746C2.68288 24.7849 2.75296 24.9951 2.79968 25.3455C2.496 25.3805 2.06385 25.4272 1.69009 25.474C1.01266 24.7265 2.06384 24.6564 2.0872 24.1541C1.6784 23.9789 1.25794 23.8037 0.790747 23.6169C0.837466 23.3365 0.895866 23.1263 0.907546 22.9044C0.919225 21.9116 1.19953 21.6663 2.0872 21.8649C2.86975 22.0401 3.66401 22.2153 4.44656 22.3788C4.5984 22.4138 4.80862 22.4606 4.90206 22.3788C5.74301 21.6897 6.61901 22.0751 7.50668 22.2153C8.00892 22.297 8.5345 22.1919 9.30537 22.1569C8.72138 21.4794 8.21916 21.3977 7.68188 21.3626C6.25694 21.2692 4.82029 21.3626 3.43038 20.8954C3.16175 20.802 2.82305 20.9071 2.51938 20.9422C2.16898 20.9772 1.83026 21.0706 1.49154 21.0706C0.44035 21.0823 0.440356 21.0706 0.124998 19.8209C1.51491 19.9844 2.86977 20.183 4.23631 20.3115C5.62622 20.4399 7.0278 20.5451 8.42938 20.5918C9.79593 20.6385 11.1742 20.9422 12.6575 20.6151C12.3188 20.0311 11.8983 20.1713 11.5596 20.218C10.5318 20.3582 9.62074 20.2764 8.99002 19.307C8.89658 19.1668 8.68633 19.0617 8.51114 19.0267C7.7169 18.8515 6.92268 18.6763 6.12845 18.5712C5.71965 18.5128 5.2875 18.5945 4.87871 18.6529C4.41151 18.7113 4.00271 18.8281 3.67567 18.2792C3.53551 18.0572 3.02161 18.0689 2.63617 17.9638C2.26242 17.0528 2.44929 16.7608 3.36032 16.8659C3.68736 16.9009 4.02606 16.9243 4.36478 16.8659C3.78078 16.3286 3.03329 16.4454 2.34418 16.3637C1.79522 16.2936 1.25793 16.2702 1.07105 15.5577C1.81857 14.9737 2.48433 15.768 3.24352 15.6161C3.372 15.4293 3.53551 15.184 3.69903 14.9621C5.57949 15.9782 7.6118 15.6862 9.55066 15.9432C9.84266 15.9782 10.1697 15.7797 10.4734 15.5928C8.93162 15.1957 7.33147 15.4526 5.82476 15.0438C5.82476 14.9621 5.83645 14.892 5.83645 14.8102C7.30812 14.8102 8.79145 14.7985 10.2631 14.7985C10.2748 14.7168 10.2748 14.6234 10.2865 14.5416C8.8382 14.343 7.38988 14.1445 5.89485 13.9459C5.39262 12.4042 3.59391 12.6845 2.53104 11.7384C2.69456 11.3179 2.85808 10.8975 3.03328 10.4186C3.87423 10.5704 4.68013 10.7223 5.64956 10.8975C5.29917 9.85796 4.31806 9.70612 3.75743 8.80676C4.48158 8.98196 4.99551 9.11044 5.5211 9.21556C6.09342 9.32068 6.66574 9.43747 7.24973 9.4842C7.79869 9.53091 8.39434 9.72948 8.95498 9.23892C8.52282 8.56148 7.77531 8.98196 7.12124 8.64325C7.35484 8.56149 7.47163 8.47972 7.57674 8.49141C8.95497 8.6666 10.3332 8.88852 11.7114 9.02868C12.786 9.1338 13.8722 9.1338 14.9585 9.20388C15.7761 9.2506 16.582 9.28564 17.3995 9.37908C19.3968 9.61268 21.3941 9.88131 23.3796 10.2434C21.908 10.1266 20.4363 10.0215 18.953 9.90467C17.6098 9.82291 16.2783 9.72948 14.9468 9.63604C15.3906 9.91635 15.8461 10.0916 16.325 10.1733C16.8506 10.2667 17.3995 10.3135 17.9251 10.2667C18.2755 10.2317 18.6142 10.0098 18.9646 9.86964C19.023 10.442 19.5136 10.5354 19.899 10.5704C21.7094 10.7456 23.4848 11.0376 25.2601 11.4698C26.8486 11.8669 28.5655 11.7735 30.2357 11.8669C31.3103 11.9253 32.3732 12.3341 33.4594 11.9019C33.5178 11.8786 33.6346 12.007 33.7864 12.1122C33.3776 12.3925 33.0039 12.6494 32.6301 12.8947C32.6535 12.9998 32.6885 13.105 32.7119 13.2101C32.9805 13.2218 33.2608 13.2802 33.5178 13.2218C33.9266 13.1166 34.3704 13.0115 34.6858 12.7662C35.3048 12.2757 35.9939 12.3458 36.6831 12.4042C38.108 12.521 39.5446 12.6728 40.9696 12.813C40.9812 13.5371 40.3622 13.1984 40.1403 13.4554C40.6659 14.1328 41.2148 14.0043 41.8105 12.9998C43.1537 13.0933 44.5319 13.175 46.0153 13.2802C45.513 13.5955 45.5014 13.9459 45.8985 14.2846C46.2606 14.6 47.0198 14.6701 47.3118 14.3781C47.5454 14.1445 47.522 13.8642 47.1716 13.7474C47.0197 13.689 46.8212 13.7357 46.6577 13.7357C46.6693 13.6422 46.681 13.5605 46.681 13.467C48.5732 13.724 50.477 13.9693 52.3691 14.2496C55.5928 14.7168 58.8048 15.2774 62.0751 15.4526C63.5702 15.5344 65.0885 15.5344 66.5952 15.7913C68.4523 16.1184 70.3678 16.1417 72.2249 16.4571C74.082 16.7724 75.9275 17.2396 77.7495 17.7302C79.0927 18.104 80.4126 18.1857 81.7674 17.882C82.4565 17.7302 83.0756 17.7185 83.5661 18.4544C83.4143 18.5478 83.2741 18.723 83.134 18.7113C82.6317 18.6763 82.4799 19.0617 82.5149 19.3771C82.5383 19.6574 82.7719 20.0195 83.0172 20.183C83.3209 20.3932 83.7413 20.4282 84.1151 20.5684C84.2552 20.6151 84.372 20.7202 84.664 20.9071C84.1151 20.9071 83.7647 20.9071 83.3208 20.9071C83.3442 21.5378 83.3442 22.0985 82.9471 22.6358C82.5149 23.2314 81.8141 22.7759 81.2652 23.2665C81.9426 23.8855 82.7719 24.1658 83.5661 24.5629C83.3208 24.9367 83.1223 25.252 82.8653 25.6375C83.169 25.8594 83.426 26.058 83.8231 26.35C83.0989 26.6887 82.4215 26.9924 81.6973 27.3311C82.2697 27.9968 83.2157 28.1136 84.0216 28.464C83.9983 28.5341 83.9632 28.6159 83.9399 28.6859C83.204 28.5224 82.4565 28.3823 81.7324 28.2071C81.0433 28.0319 80.3892 27.9267 79.7234 28.3823C79.4548 28.5691 78.9759 28.5224 78.6139 28.4757C78.0766 28.3939 77.551 28.2304 77.0371 28.0669C73.9886 27.0507 70.8 26.8522 67.6698 26.2799C66.5835 26.0813 65.4973 25.9528 64.3877 25.8477C61.1875 25.544 57.9988 25.0068 54.8102 24.5863C54.0861 24.4929 53.3386 24.5045 52.6027 24.4228C51.6216 24.306 50.6405 24.1425 49.6711 23.9673C48.7951 23.8037 47.9541 23.5351 47.0431 23.6986C46.646 23.7687 46.2138 23.5935 45.7934 23.5351C45.1043 23.4417 44.4151 23.3365 43.7143 23.2898C43.5158 23.2781 43.3172 23.4183 42.8384 23.5818C43.4924 23.7687 43.8662 23.8972 44.2399 23.9673C45.9919 24.2943 47.7556 24.633 49.5192 24.9016C50.2668 25.0184 51.0143 24.7265 51.7968 24.9133C55.9081 25.9061 60.0662 26.5719 64.2593 27.1091C65.9178 27.3194 67.588 27.4245 69.2349 27.6464C71.4658 27.9384 73.6966 28.3005 75.9275 28.6275C76.2779 28.6743 76.6166 28.7911 76.967 28.7677C78.135 28.721 79.2679 28.6859 80.3308 29.3517C80.8097 29.6437 81.4754 29.667 81.7557 28.8378C82.3281 29.048 83.0639 28.9195 83.0288 29.8656C83.0288 29.959 83.3325 30.0525 83.496 30.1576C83.9866 30.4613 84.4772 30.765 85.0261 31.1153C84.8626 31.2088 84.7808 31.2906 84.6991 31.3022C84.4071 31.3606 84.0216 31.2905 84.0333 31.7577C84.0333 32.1899 84.3487 32.1782 84.6757 32.2249C85.3415 32.3184 85.3415 32.3417 85.1546 33.2761C84.4888 33.4396 83.8347 33.5915 83.0872 33.7784C83.204 34.082 83.2858 34.2923 83.3676 34.5025C83.1573 34.8296 82.9237 35.1916 82.6551 35.6121C83.426 36.1143 84.0567 36.5231 84.7692 36.9903C84.2669 37.7145 83.3909 37.4459 82.7602 38.0182C83.0172 38.462 83.2975 38.9526 83.6362 39.5249C83.5077 39.8519 82.4565 39.8636 83.2508 40.7396C82.6668 40.6111 82.3397 40.541 82.001 40.4709C81.9543 40.541 81.9076 40.6111 81.8608 40.6812C83.2624 42.4098 85.0845 43.8231 86.0423 45.9955C85.7503 46.2174 85.4116 46.451 85.6802 46.9766C86.381 48.3198 86.1941 49.7097 85.7503 51.158C86.0306 51.7304 86.5679 52.2676 86.2291 53.1319C86.124 53.4006 86.6613 53.9262 87 54.4868C85.0728 54.335 83.4143 53.9612 82.0127 52.8049C81.7207 52.5596 81.5572 52.1975 81.0783 52.2326C80.9732 52.2443 80.7629 52.0574 80.7629 51.964C80.7396 51.2164 80.1322 51.158 79.63 50.9945C79.1511 50.831 78.6606 50.7142 78.17 50.574C77.4459 50.3755 76.8035 50.1419 76.4414 49.371C76.3012 49.0673 75.8808 48.7987 75.542 48.7053C74.4208 48.4133 73.2878 48.2147 72.1549 47.9928C72.0264 47.9694 71.8629 48.0278 71.5008 48.0862C72.4469 48.6702 73.2294 49.1491 74.0237 49.6513C72.8907 49.8499 72.2483 49.6163 71.711 48.8104C71.0336 47.8059 70.0291 47.7125 69.0013 47.7358C69.0013 48.2965 69.0013 48.7987 69.0013 49.3243C67.5296 49.5345 67.3895 48.3665 66.9573 47.3971C65.7777 47.257 64.5863 47.1285 63.395 46.965C62.9044 46.8949 62.4255 46.7781 61.9466 46.6613C61.3276 46.5094 61.2926 45.9605 61.1641 45.4699C61.0122 44.8976 60.51 44.8509 60.0545 44.7808C59.5639 44.6991 59.0267 44.6056 58.7814 45.3531C59.6107 46.1123 60.5217 46.7547 61.6663 47.1402C61.4678 47.5139 61.1407 47.9344 61.7831 48.2497C61.5495 48.2147 61.1407 48.2381 61.094 48.1213C60.7086 47.0934 59.6107 47.0818 58.8982 46.5328C58.396 46.1474 57.8587 45.8787 57.7419 45.1779C57.7185 45.0027 57.4733 44.7925 57.2981 44.7575C57.1112 44.7107 56.7958 44.7925 56.6907 44.9443C56.5972 45.0611 56.6557 45.3882 56.7608 45.5517C56.8776 45.7386 57.1112 45.832 57.3448 46.0072C56.7491 46.673 56.1885 46.2758 55.6629 46.2992C55.7563 45.5283 55.768 45.5167 55.3008 45.0728C54.1562 43.9983 52.7312 43.5544 51.2128 43.3792C50.5588 43.3092 49.9047 43.1106 49.2506 43.1456C48.0359 43.1924 46.9146 42.9237 45.77 42.5266C45.151 42.3047 44.4034 42.4916 43.6443 42.4916C43.6443 43.1807 43.6443 43.788 43.6559 44.5005C43.8078 44.5589 44.0414 44.664 44.2983 44.7575C44.0297 45.0728 43.7727 45.3882 43.4691 45.7503C43.3639 45.6218 43.2355 45.5167 43.2004 45.3882C42.9318 44.5823 42.4062 44.1034 41.6003 43.8114C41.0046 43.5895 40.3739 43.2741 39.9417 42.8303C38.9139 41.7557 37.5707 41.744 36.2743 41.6039C34.5807 41.4053 32.8754 41.3353 31.1701 41.2301C30.8314 41.2068 30.4927 41.2301 30.0722 41.4287C30.5745 41.6273 31.1234 41.7557 31.5556 42.0594C32.0111 42.3631 32.3498 42.842 32.8287 43.3325C33.693 43.496 34.7208 43.6829 35.8187 43.8815C35.7486 44.2435 35.6903 44.5239 35.6202 44.8626C34.9544 44.8159 34.3471 44.7691 33.728 44.7341C33.7164 44.6874 33.7047 44.6523 33.693 44.6056C33.9266 44.5355 34.1719 44.4655 34.4522 44.3954C33.8565 43.7997 33.1908 43.8931 32.5367 43.8815C31.9994 43.8698 31.4738 44.0099 31.322 43.0872C31.1818 42.258 30.3175 42.1528 29.3364 42.7836C29.9204 42.9704 30.3993 43.1223 30.8665 43.2624C30.8665 43.3325 30.8781 43.4143 30.8781 43.4844C30.6212 43.5311 30.3409 43.6596 30.0956 43.6128C29.0678 43.4143 28.0516 43.1924 27.0471 42.9237C26.6968 42.8303 26.3931 42.5383 26.066 42.3397C25.4236 41.9426 25.2134 41.9543 24.6878 42.5032C23.952 43.2624 23.1694 43.6829 22.0481 43.3325C21.4992 43.169 20.8568 43.3092 20.2378 43.4143C20.6232 43.8231 21.5225 43.6946 21.1021 44.6407C21.8496 44.4187 21.8496 44.4187 22.4102 43.788C22.8657 44.2202 23.3329 44.6523 23.8468 45.1429C22.6088 45.0495 21.3941 44.9911 20.1794 44.8392C19.9224 44.8042 19.7122 44.4304 19.4085 44.1501C19.315 44.3604 19.2917 44.6173 19.1515 44.6991C18.9763 44.8042 18.7077 44.7925 18.4858 44.7808C16.9324 44.7458 15.3789 44.7107 13.8255 44.6523C12.8327 44.6173 11.91 44.7341 11.034 45.2947C10.5668 45.5984 9.98283 45.7269 9.41051 45.9605C9.30539 45.5634 9.27034 45.2714 9.16522 45.0144C8.84987 44.2903 8.89658 44.2552 9.59737 43.788C10.3215 43.3092 10.9756 42.7135 11.6647 42.1645C11.6997 42.1412 11.6647 42.0127 11.653 41.8025C11.3026 41.8725 10.9639 41.9309 10.5668 42.0127C10.5318 41.7908 10.4967 41.5689 10.4617 41.3586C12.7977 40.9031 13.2765 40.6812 13.7087 39.8519C11.7114 39.373 11.0106 39.7468 10.4734 41.3586ZM39.9184 35.4953C39.4979 34.8996 38.9256 34.3857 38.2131 34.4908C37.6992 34.5726 37.3254 34.4324 36.8933 34.304C36.4611 34.1755 35.9005 33.9302 35.6085 34.4208C35.2347 35.0515 34.8143 34.9931 34.2419 34.7945C33.8565 34.6544 33.3893 34.4208 32.9572 34.8646C33.3893 35.3435 33.8448 35.3552 34.3587 35.2617C35.0479 35.1332 35.7136 35.25 36.4027 35.4719C37.3488 35.7639 38.3766 35.8457 39.3694 35.9975C39.7315 36.0443 39.9885 35.9158 39.8833 35.4603C40.2454 35.6588 40.5841 35.9859 40.9579 36.0443C42.6748 36.3129 44.3918 36.5115 46.1204 36.7217C46.3073 36.7451 46.5058 36.6283 46.7511 36.5582C45.2794 34.9464 44.9524 34.8646 43.4691 35.6939C43.1187 35.4252 42.9435 34.666 42.3128 35.0281C41.7638 35.3435 41.2966 35.2617 40.7827 35.0398C40.3272 34.8412 40.0585 35.0515 39.9184 35.4953ZM72.1665 21.3977C72.1549 21.9466 72.4469 22.2854 72.9608 22.3905C73.5097 22.5073 74.0821 22.5657 74.7595 22.6708C74.6427 22.297 74.5726 22.0518 74.5142 21.8415C74.7945 21.6196 75.0164 21.4444 75.4135 21.1524C74.374 20.8721 73.5331 20.6035 72.6805 20.4166C72.4002 20.3582 72.0497 20.3932 71.7928 20.51C71.2555 20.7553 70.765 20.7319 70.2277 20.4983C69.6787 20.2531 69.0947 20.2297 68.3472 20.6034C69.0597 20.8604 69.597 21.0473 70.1109 21.2342C70.1109 21.7831 70.4846 22.0868 70.6598 21.7831C71.0803 21.059 71.6643 21.421 72.1899 21.4094L72.1665 21.3977ZM55.5928 37.6561C55.8497 38.17 56.0133 38.4854 56.7841 38.1466C57.3915 37.878 58.3843 37.2239 58.9916 38.4036C59.05 38.5087 59.342 38.5087 59.5406 38.5438C60.1713 38.6606 60.802 38.7657 61.3977 38.8708C62.0284 38.1583 61.2458 37.5159 61.3977 36.7918C62.0518 36.9787 62.6474 37.1305 63.2314 37.3174C63.3249 37.3524 63.4066 37.4692 63.5001 37.5626C63.2081 37.7028 62.9277 37.843 62.5306 38.0415C63.173 38.6138 63.7103 39.1044 64.306 39.6417C64.7382 39.3614 65.1586 39.081 65.8244 39.4081C66.2916 39.6417 66.9223 39.5249 67.4596 39.8636C67.7399 40.0505 68.2304 39.8986 68.7444 39.887C68.3823 38.8474 67.3895 39.0577 66.8522 38.5438C66.3383 38.0532 65.5791 37.8313 64.925 37.5043C66.1514 37.2707 67.3194 37.0371 68.4524 37.5977C68.8962 37.8196 68.9312 37.4575 69.0247 37.0955C67.553 36.8151 66.1164 36.5231 64.6797 36.2662C64.2593 36.1961 63.8388 36.1844 63.4183 36.1377C62.6124 36.0559 61.8065 35.9859 61.0122 35.8691C60.1012 35.7289 59.2019 35.4953 58.3025 35.3551C58.0689 35.3201 57.8003 35.4486 57.5784 35.507C57.4032 36.9086 58.8748 36.2195 59.2719 36.9787C58.1624 37.002 57.1112 37.2006 56.1417 36.5699C55.9081 37.0254 55.7329 37.3524 55.5577 37.7028C55.184 36.5699 54.1094 35.9391 52.9531 36.418C52.4859 36.6166 52.1472 36.4414 51.7034 36.3947C52.1122 37.3291 52.848 37.7612 53.7006 37.7028C54.1094 37.6795 54.5182 37.7729 54.927 37.7729C55.149 37.7729 55.3709 37.7028 55.5928 37.6561ZM79.5132 32.0731C77.9948 31.7577 76.2896 31.419 74.5843 31.057C73.1944 30.765 71.8045 30.4379 70.4146 30.1342C69.8773 30.0174 69.34 29.9941 69.0714 30.5197C68.2304 30.2277 67.4946 29.924 66.7237 29.7021C66.3616 29.597 65.8711 29.5035 65.5908 29.667C65.1002 29.959 64.7381 29.8072 64.2943 29.6437C63.7453 29.4568 63.173 29.3166 62.6007 29.2699C61.7714 29.2115 60.9538 29.1415 60.1363 29.0013C57.6601 28.5575 55.1606 28.2421 52.6728 27.9034C51.5282 27.7515 50.3602 27.7048 49.2156 27.5413C48.141 27.3778 47.0898 27.0741 46.0153 26.9106C45.221 26.7938 44.3801 26.6653 43.5975 26.7821C43.142 26.8522 42.7799 26.8055 42.3828 26.6653C41.7755 26.4551 41.1798 26.1397 40.5491 26.6887C40.4206 26.8055 39.9884 26.7237 39.7899 26.5952C38.6803 25.8711 37.3722 26.0112 36.1808 25.9178C35.0829 25.836 33.9733 25.9996 32.8754 25.6842C32.8404 25.6725 32.7703 25.7543 32.56 25.9178C33.0156 26.1164 33.3776 26.2799 33.7397 26.42C34.1952 26.5952 34.6741 26.7237 35.0946 26.9573C35.8888 27.3895 36.6246 28.137 37.5707 27.2493C37.6174 27.2143 37.7226 27.2376 37.7926 27.2376C38.8672 27.2259 39.9417 27.1559 40.8995 27.88C41.3667 28.2304 41.9507 28.3239 42.4996 27.845C42.6982 27.6698 43.1187 27.588 43.3873 27.6581C44.1699 27.8567 44.9174 28.2771 45.7116 28.3823C46.4941 28.4874 47.3117 28.3239 48.1177 28.2888C49.0637 29.1648 50.2434 29.3283 51.5983 29.2699C51.1194 29.6203 50.804 29.8539 50.3719 30.181C51.388 30.9635 52.4859 31.0336 53.4671 31.1504C54.7285 31.3022 56.0366 31.7694 57.3331 31.3256C57.3331 30.9752 57.3331 30.7299 57.3331 30.2277C57.6952 30.6949 57.9171 30.9869 58.1507 31.2672C58.2791 31.419 58.4076 31.6409 58.5712 31.6877C59.5873 31.9213 60.6151 32.1432 61.643 32.3184C63.5935 32.6337 65.5557 32.9141 67.5063 33.2061C68.2304 33.3112 68.9663 33.4046 69.7021 33.498C69.7255 33.3929 69.7488 33.2995 69.7605 33.1944C69.0013 32.9841 68.2421 32.7856 67.4829 32.5753C67.1559 32.4819 66.8405 32.3885 66.5252 32.2483C66.2449 32.1315 65.8828 32.0147 66.0346 31.5942C66.1864 31.1738 66.6069 31.1037 66.9106 31.2905C68.2071 32.0614 69.667 31.9913 71.092 32.1665C71.8979 32.2717 72.7155 32.3651 73.5214 32.4936C73.8134 32.5403 74.1521 32.7856 74.3624 32.7038C74.6193 32.587 74.7712 32.2133 74.9464 31.9797C76.1961 31.9446 76.8969 33.3228 77.8897 33.2177C78.5788 32.7038 79.0927 32.3651 79.5132 32.0731ZM41.355 31.5592C41.8923 31.5825 42.4179 31.6059 42.9902 31.6293C43.1304 31.7928 43.2588 31.9913 43.434 32.1432C44.053 32.6688 45.1393 32.6337 45.6649 32.0965C46.0503 31.6877 46.0503 31.2789 45.5598 31.057C45.0692 30.8234 44.5086 30.6482 43.9713 30.6131C43.7143 30.6014 43.434 30.9635 43.107 31.1971C42.1376 30.3795 40.9696 30.1926 39.7432 30.2394C39.7782 30.7766 39.8132 31.2205 39.8483 31.6993C40.3272 31.9096 40.806 32.1081 41.3667 32.3534C41.355 32.0381 41.355 31.8278 41.355 31.5592ZM75.799 41.2885C75.4136 40.4476 75.834 39.5599 74.958 39.2562C74.1755 38.9759 73.3579 38.9526 72.7389 39.303C72.0614 39.081 71.5008 38.8591 70.9285 38.7306C69.8072 38.4737 69.7488 38.5204 69.4802 39.373C70.0058 39.5833 70.5664 39.7234 71.0336 40.0154C71.5825 40.3658 72.1082 39.9453 72.6454 40.0855C72.8673 40.1439 73.1009 40.1322 73.3345 40.1439C74.047 40.1789 74.7361 40.2257 75.0164 41.0549C75.0515 41.1367 75.3435 41.1484 75.799 41.2885ZM52.6027 34.8412C51.8435 34.1288 50.9208 34.2339 50.0682 34.0704C48.9469 33.8484 47.8023 33.9185 46.6927 33.5681C45.8985 33.3112 45.0108 33.3579 44.1582 33.3112C44.0297 33.2995 43.8078 33.5214 43.7844 33.6499C43.761 33.755 43.9713 34.012 44.0998 34.0353C44.9407 34.1404 45.7817 34.1755 46.6226 34.2923C47.7906 34.4558 48.9586 34.7011 50.1266 34.8296C50.9091 34.8996 51.7267 35.4252 52.6027 34.8412ZM56.0366 32.8557C54.7869 31.9446 53.5838 31.7344 52.3107 32.8206C53.5254 32.9141 54.016 34.6544 55.5344 34.1638C55.4176 33.7784 55.3241 33.4747 55.2073 33.1126C55.5227 33.0192 55.7563 32.9374 56.0366 32.8557ZM64.3877 20.0078C63.5351 19.6223 62.6474 19.3887 61.7247 19.4121C60.2881 19.4355 58.8632 19.4004 57.4733 18.9799C57.2747 18.9215 57.0294 19.015 56.8075 19.05C56.9243 19.3537 57.0644 19.4939 57.2163 19.5172C59.2719 19.8443 61.3276 20.1596 63.3833 20.4516C63.7453 20.4983 64.1775 20.5684 64.3877 20.0078ZM32.6885 32.3417C32.6768 32.4469 32.6652 32.552 32.6535 32.6571C34.5807 33.2761 36.6363 33.0192 38.5985 33.4397C38.8905 33.4981 39.2176 33.3696 39.5329 33.3345C39.5446 33.2528 39.5446 33.171 39.5563 33.0893C39.3344 32.9841 39.1124 32.7973 38.8789 32.7856C36.8232 32.6104 34.7559 32.4819 32.6885 32.3417ZM24.6878 33.755C24.2323 33.4747 23.8352 33.1827 23.3913 32.9958C23.1928 32.9141 22.7957 32.9608 22.6905 33.1009C22.4569 33.4046 22.6788 33.6732 22.9942 33.8251C23.1344 33.8952 23.2745 33.9536 23.4264 33.9886C24.5009 34.2689 25.5871 34.5492 26.6734 34.7945C26.8369 34.8296 27.0471 34.6427 27.491 34.4441C26.5215 33.9302 25.7623 33.5331 25.0382 33.1477C24.9447 33.1944 24.8864 33.2061 24.8747 33.2294C24.828 33.3579 24.7812 33.4981 24.6878 33.755ZM75.1916 34.2339C75.1449 33.9536 75.1449 33.8952 75.1216 33.8835C73.8484 33.136 72.3534 33.0309 70.9985 32.5169C70.9051 32.4819 70.6598 32.6805 70.5898 32.8206C70.5314 32.9725 70.5547 33.2177 70.6365 33.3462C70.7299 33.4864 70.9401 33.6032 71.1153 33.6382C72.4469 33.8484 73.7667 34.0353 75.1916 34.2339ZM28.437 34.9697C29.5116 34.6427 30.2708 34.7712 31.03 35.1566C31.5088 35.3902 32.0461 35.4136 32.6068 34.9814C31.8943 34.339 31.322 33.6966 30.2825 34.0353C30.0722 34.1054 29.7919 34.012 29.5583 33.9302C29.3247 33.8485 29.1145 33.6849 28.7057 33.463C28.6122 33.9769 28.5422 34.3507 28.437 34.9697ZM35.3515 31.3373C36.064 31.7694 36.7648 31.6293 37.4422 31.5475C37.8744 31.5008 38.0613 30.9051 37.7342 30.6598C37.1736 30.2394 36.6714 29.5853 35.772 29.9474C35.6552 30.3562 35.515 30.8 35.3515 31.3373ZM38.8789 18.104C39.4278 18.8515 40.0235 18.8748 40.5491 18.5712C41.1798 18.2208 41.7755 18.1974 42.4412 18.3259C42.9435 18.4193 43.4807 18.5011 44.0414 17.9872C42.5347 17.5083 41.098 17.5784 39.6848 17.59C39.4395 17.59 39.2059 17.8937 38.8789 18.104ZM69.2466 33.7784C69.1531 34.4091 69.5619 34.6777 69.9591 34.6777C70.8 34.666 71.5242 34.9931 72.295 35.2383C72.7038 35.3668 73.1243 35.3435 73.3929 34.8763C72.3067 34.3624 69.889 33.6966 69.2466 33.7784ZM51.1077 36.967C51.0844 36.8619 51.0493 36.7567 51.0259 36.6516C50.7339 36.5815 50.4069 36.5815 50.1616 36.4297C49.9164 36.2779 49.7762 35.9742 49.566 35.7756C49.2856 35.5304 48.9703 35.4019 48.6433 35.7289C48.3396 36.0443 48.3513 36.6633 48.7367 36.8268C49.2506 37.0487 49.8229 37.2006 50.3835 37.2823C50.6055 37.3057 50.8624 37.0721 51.1077 36.967ZM53.759 35.0398C55.1957 35.9742 56.2468 36.1494 56.9827 35.6121C56.0483 34.5609 54.8803 34.8646 53.759 35.0398ZM31.614 30.3328C31.2285 29.1181 31.0533 29.048 29.2079 29.34C29.897 30.0758 30.5745 30.5781 31.614 30.3328ZM42.8617 33.4864C42.1726 32.9725 41.4835 32.7973 40.7476 32.844C40.5374 32.8557 40.3505 33.0893 40.1403 33.2294C40.3038 33.4046 40.4557 33.7083 40.6542 33.7316C41.3667 33.8368 42.0908 33.8718 42.8617 33.4864ZM71.1971 47.1635C70.5898 46.0072 69.7021 45.7503 68.6626 46.4394C68.7911 46.6146 68.9079 46.9066 69.0597 46.9299C69.7488 47.0467 70.4613 47.0934 71.1971 47.1635ZM57.3214 32.7856C57.9638 33.1593 58.5011 33.5097 59.0617 33.8017C59.2836 33.9185 59.5756 33.9302 59.8326 33.9068C59.9611 33.8952 60.1012 33.6732 60.1363 33.5097C60.1596 33.4396 59.9727 33.2645 59.8559 33.2061C59.5172 33.0659 59.0734 33.0542 58.8398 32.8206C58.3492 32.3067 57.9171 32.3885 57.3214 32.7856ZM52.6027 19.4705C51.9837 18.6529 51.3063 18.8398 50.7456 18.758C50.185 18.6646 50.1266 18.8164 50.2551 19.6223C50.9559 19.5756 51.6566 19.5289 52.6027 19.4705ZM52.1939 14.892C52.1822 15.0088 52.1589 15.1139 52.1472 15.2307C52.5677 15.3125 52.9882 15.4526 53.4087 15.476C54.1562 15.5227 54.1561 15.4993 54.4715 15.0205C53.7006 14.8219 52.9531 14.5182 52.1939 14.892ZM49.5309 31.6526C50.185 32.1432 50.8157 32.7505 51.7735 32.1081C51.1194 31.3957 50.3485 31.3957 49.5309 31.6526ZM36.9167 13.4203C37.8744 13.8642 38.4701 13.8525 39.4395 13.4086C38.8205 12.9064 37.9328 12.8947 36.9167 13.4203ZM56.4921 26.7471C55.5811 26.2215 54.5649 26.1047 53.9226 26.4784C54.7168 26.5719 55.4176 27.2844 56.4921 26.7471ZM73.8134 29.5035C73.5798 29.1064 73.428 28.8728 73.3579 28.7443C72.5403 28.8378 71.8629 28.9078 71.1854 28.9896C71.1854 29.048 71.1971 29.1181 71.1971 29.1765C72.003 29.2816 72.8206 29.3867 73.8134 29.5035ZM68.1136 28.5458C67.2376 27.7048 66.5836 27.6698 65.8828 28.3355C66.5719 28.6859 67.2376 28.7794 68.1136 28.5458ZM33.5762 30.4963C33.6229 30.3678 33.6813 30.251 33.728 30.1226C33.3543 29.9123 33.0039 29.6554 32.6068 29.5035C32.4783 29.4568 32.2564 29.6904 32.0812 29.7955C32.1863 29.9707 32.2564 30.251 32.3965 30.2978C32.7703 30.4146 33.1791 30.4262 33.5762 30.4963ZM47.6271 18.8982C48.3045 18.9799 48.982 19.2369 49.7645 18.7464C48.9236 18.3492 48.2695 18.5011 47.6271 18.8982ZM25.9492 29.6086C25.4236 28.6626 24.8747 28.5575 23.9987 29.1298C24.6411 29.2933 25.1667 29.4218 25.9492 29.6086ZM28.5772 42.5733C28.5188 41.9543 28.1801 41.8141 27.8297 41.8842C27.491 41.9543 27.234 42.2112 27.3391 42.7602C27.7713 42.6901 28.1684 42.6317 28.5772 42.5733ZM76.8619 21.9466C77.3057 22.8577 77.3057 22.8577 78.3102 22.227C77.7612 22.1218 77.3758 22.0401 76.8619 21.9466ZM31.2169 22.3087C32.1045 22.9278 32.3732 22.9628 33.2258 22.5073C32.6184 22.4489 31.9994 22.3905 31.2169 22.3087ZM73.2645 37.8196C73.6382 38.4153 74.047 38.4854 74.7128 38.1466C74.2923 37.6444 73.8952 37.5276 73.2645 37.8196ZM21.9897 33.4981C21.6393 32.4702 21.5809 32.4469 20.8918 33.0776C21.3006 33.2411 21.6393 33.3696 21.9897 33.4981ZM66.5952 46.5094C66.093 46.0539 65.8361 45.5984 65.182 46.0072C65.4039 46.6379 65.8477 46.6379 66.5952 46.5094ZM47.6154 30.9285C47.4636 31.7461 47.7089 31.9446 48.2461 31.8629C48.2929 31.8512 48.3279 31.7461 48.4213 31.6059C48.2228 31.4307 48.0008 31.2555 47.6154 30.9285ZM68.8728 28.3939C68.8728 28.4874 68.8728 28.5808 68.8612 28.6743C69.6554 28.8962 69.6554 28.8962 70.251 28.4874C69.6904 28.4523 69.2816 28.4173 68.8728 28.3939ZM48.398 30.2861C48.4213 30.181 48.433 30.0758 48.4564 29.9707C47.9541 29.8773 47.4402 29.7955 46.938 29.7021C46.9263 29.7838 46.9146 29.8773 46.8913 29.959C47.3935 30.0758 47.8957 30.181 48.398 30.2861ZM64.7965 20.9772C65.3572 21.5028 65.3572 21.5028 65.8828 21.0239C65.5207 20.7786 65.1937 20.6619 64.7965 20.9772ZM81.5221 32.8323C81.5455 32.7389 81.5689 32.6337 81.5922 32.5403C81.2535 32.1198 80.9265 32.3768 80.5761 32.7505C80.8914 32.7739 81.2068 32.7973 81.5221 32.8323ZM78.7774 41.8141C78.789 41.7207 78.789 41.6156 78.8007 41.5221C78.497 41.5105 78.1934 41.4871 77.8897 41.4754C77.878 41.5689 77.878 41.6506 77.8663 41.744C78.17 41.7557 78.4737 41.7908 78.7774 41.8141ZM77.3291 29.7138C77.3291 29.632 77.3407 29.5502 77.3407 29.4685C76.7918 29.2349 76.7918 29.2349 76.2895 29.667C76.7217 29.6787 77.0254 29.7021 77.3291 29.7138ZM20.0042 15.9899C19.9691 16.06 19.9458 16.1184 19.9107 16.1885C20.0859 16.2702 20.2728 16.352 20.448 16.4454C20.483 16.3753 20.5064 16.3169 20.5414 16.2469C20.3662 16.1534 20.1794 16.0717 20.0042 15.9899ZM61.713 33.6849C61.7247 33.6265 61.7481 33.5681 61.7598 33.5097C61.5495 33.4396 61.351 33.3812 61.1407 33.3112C61.1174 33.3812 61.1057 33.4396 61.0823 33.5097C61.2926 33.5798 61.5028 33.6382 61.713 33.6849ZM16.7572 20.3815C16.7455 20.4283 16.7221 20.475 16.7104 20.51C16.9557 20.6035 17.201 20.6852 17.4463 20.7786C17.4579 20.7319 17.4813 20.6852 17.493 20.6385C17.2477 20.5567 17.0024 20.4633 16.7572 20.3815ZM65.1236 33.8134C65.4389 34.2806 65.6842 34.2923 65.8711 33.7316C65.5557 33.7667 65.3455 33.79 65.1236 33.8134ZM66.6536 25.3572C66.6536 25.4156 66.6536 25.4623 66.6536 25.5207C66.9456 25.5207 67.2376 25.5207 67.5296 25.5207C67.5296 25.4623 67.5296 25.4156 67.5296 25.3572C67.2376 25.3572 66.9456 25.3572 66.6536 25.3572ZM6.29196 10.5003C6.23356 10.5938 6.17516 10.6872 6.11676 10.7807C6.29196 10.8624 6.46716 10.9442 6.64235 11.0026C6.65403 11.0026 6.75917 10.8391 6.74749 10.8391C6.59565 10.7223 6.4438 10.6171 6.29196 10.5003Z" fill="#EFF2FF"/>
<path d="M85.3073 16.002C84.4079 16.7379 83.3334 16.7495 82.2471 16.6795C82.1654 16.6795 82.0836 16.6795 82.0252 16.6444C79.7593 15.2896 77.1664 15.2195 74.6669 14.834C72.2959 14.472 69.9015 14.2384 67.5188 13.9464C65.5215 13.6894 63.5243 13.4441 61.5387 13.1521C60.2072 12.9536 58.8874 12.6265 57.5442 12.428C55.7805 12.1593 54.0168 11.9491 52.2532 11.7155C51.4823 11.6104 50.7114 11.5286 49.9406 11.4118C48.6091 11.2016 47.3009 10.9213 45.9344 10.9913C45.4088 11.0264 44.8248 10.9096 44.3459 10.6877C43.6217 10.3606 42.9093 10.3139 42.1851 10.5125C41.2624 10.7578 40.4448 10.3606 39.5922 10.1971C39.4053 10.1621 39.1951 9.92848 39.0783 9.98688C37.9453 10.4891 37.0109 9.5664 35.913 9.58976C34.8501 9.61312 33.7873 9.26272 32.7244 9.13424C31.5798 9.00577 30.4351 8.97073 29.2905 8.83057C28.0641 8.67873 26.8494 8.4101 25.623 8.26994C24.747 8.16482 23.8477 8.19986 22.96 8.15314C22.3877 8.1181 21.8271 8.04802 21.2547 8.01298C20.4255 7.96626 19.6312 7.42899 18.7669 7.8261C17.9377 7.27715 17.0033 7.6509 16.1273 7.55746C15.2279 7.46402 14.3286 7.3005 13.4175 7.26546C12.9737 7.2421 12.5182 7.40562 12.086 7.52242C10.4041 8.0013 9.17773 7.54578 8.27837 6.05076C8.18494 5.88724 8.07982 5.7354 7.92798 5.47844C8.1499 5.43172 8.29007 5.37332 8.40686 5.39668C10.9881 5.677 13.581 5.95731 16.1623 6.27267C19.1757 6.63475 22.1775 7.02018 25.1792 7.38226C26.7209 7.56914 28.2627 7.72098 29.8161 7.87282C31.755 8.0597 33.6821 8.22322 35.621 8.4101C37.8636 8.62033 40.1178 8.80721 42.3603 9.04081C44.9883 9.32112 47.6046 9.65985 50.2326 9.92848C51.2604 10.0336 52.2999 9.99856 53.3394 10.0219C53.538 10.0219 53.7248 10.0336 53.9234 10.057C58.3851 10.7227 62.8468 11.4118 67.3086 12.0425C68.8853 12.2645 70.4855 12.2995 72.0623 12.4864C74.4099 12.7667 76.7576 13.0237 79.0235 13.7828C79.7944 14.0398 80.6003 14.1683 81.4062 14.3435C81.5814 14.3785 81.78 14.3435 81.9668 14.3084C83.5203 13.9931 84.478 14.4836 85.3073 16.002Z" fill="#EFF2FF"/>
<path d="M5.12369 30.5197C4.63313 30.7766 4.23601 30.9985 3.7221 31.2672C4.79665 31.7811 5.34562 31.6059 5.81282 30.7065C6.04641 30.7766 6.2917 30.8467 6.54866 30.9168C6.80561 30.9869 7.05089 31.1504 7.30785 31.1387C8.42912 31.1037 9.5387 30.9752 10.66 30.9752C11.4776 30.9752 12.3419 30.9635 13.1244 31.8395C12.6806 31.8395 12.4353 31.8512 12.19 31.8395C10.3329 31.7928 8.47583 31.7227 6.63041 31.6877C6.39681 31.6877 6.17488 31.746 5.94128 31.7928C4.82001 32.038 3.69875 32.2833 2.5074 32.5403C2.36724 31.9796 2.26212 31.5942 2.9162 31.384C3.26659 31.2789 3.59363 31.0453 3.90899 30.8233C4.23603 30.5897 4.55137 30.2977 5.12369 30.5197Z" fill="#EFF2FF"/>
<path d="M17.3065 3.06004C16.2319 3.88932 15.3326 3.85428 14.3982 3.13013C12.6813 4.1346 10.941 3.76084 9.1189 3.06004C9.15394 2.77973 9.20065 2.46437 9.25905 2.05558C10.6139 2.89653 12.0389 2.5111 13.3937 2.68629C14.7019 2.86149 16.01 2.94325 17.3065 3.06004Z" fill="#EFF2FF"/>
<path d="M56.9945 48.2965C56.247 48.4717 55.955 48.0629 55.6747 47.7125C55.3944 47.3621 55.0907 47.1752 54.6118 47.1402C54.0045 47.0934 53.3971 46.9066 52.7897 46.8014C52.2291 46.6963 51.8787 46.416 51.8203 45.7386C52.0889 45.5867 52.381 45.3064 52.6846 45.2947C52.965 45.2831 53.4438 45.4816 53.5139 45.7035C53.7125 46.2875 54.1563 46.4744 54.6352 46.5912C55.3827 46.7781 55.9784 47.1168 56.3638 47.8059C56.4689 47.9928 56.7142 48.0862 56.9945 48.2965Z" fill="#EFF2FF"/>
<path d="M85.1664 12.3452C84.7109 12.8007 84.1736 13.0927 85.0729 13.7C84.9328 13.7117 84.7809 13.7117 84.6408 13.7234C84.4422 13.6066 84.1035 13.5248 84.0451 13.3613C83.7648 12.4386 82.9238 12.1933 82.2114 11.9364C80.728 11.4108 79.1863 11.0487 77.6679 10.6049C77.5745 10.5815 77.4927 10.4997 77.4226 10.3479C78.7308 10.4063 79.9805 10.71 81.2186 11.1538C82.4683 11.6093 83.7531 11.9247 85.1664 12.3452Z" fill="#EFF2FF"/>
<path d="M49.0388 45.5985C47.2634 45.1547 47.2284 45.1197 46.8196 43.6714C47.2985 43.6714 47.6255 43.8349 47.8942 44.2203C48.4548 45.0262 49.1556 45.4467 50.1834 45.0145C50.3936 44.9328 50.6856 45.0613 51.0243 45.0963C50.8959 45.5401 50.7791 45.9022 50.6506 46.3577C49.5994 46.8249 49.284 46.7081 49.0388 45.5985Z" fill="#EFF2FF"/>
<path d="M76.3592 10.1501C76.1723 10.2552 76.0088 10.407 75.8103 10.4421C75.2146 10.5472 70.6828 9.82304 69.6316 9.44929C72.0143 9.20401 74.14 9.85808 76.3242 9.91648C76.3359 9.98656 76.3475 10.0683 76.3592 10.1501Z" fill="#EFF2FF"/>
<path d="M5.10118 13.9346C2.7652 14.2266 1.93593 13.9112 1.83081 12.568C2.89368 13.1754 4.24855 12.6615 5.10118 13.9346Z" fill="#EFF2FF"/>
<path d="M9.02476 0.513468C10.4263 0.676987 11.8863 0.279872 13.2295 1.06242C11.9214 1.51794 10.6132 0.852188 9.30506 1.02739C9.18826 1.03907 9.03644 0.828824 8.90796 0.723705C8.943 0.653625 8.98972 0.583547 9.02476 0.513468Z" fill="#EFF2FF"/>
<path d="M83.3215 10.2903C83.0996 10.1501 82.8894 9.96325 82.6441 9.88149C80.822 9.29749 78.9416 8.97046 77.0845 8.50326C78.5328 8.74854 80.0395 8.49158 81.4411 9.15733C81.7448 9.30917 82.1185 9.47269 82.4222 9.42597C83.158 9.32085 83.2982 9.71797 83.3215 10.2903Z" fill="#EFF2FF"/>
<path d="M63.581 48.4834C63.546 48.8688 63.5226 49.0323 63.4993 49.2893C63.0788 48.682 62.4247 48.2732 62.7634 47.3154C63.7679 47.5607 64.2935 48.5418 65.2045 48.9155C64.6906 48.7871 64.1767 48.6469 63.581 48.4834Z" fill="#EFF2FF"/>
<path d="M8.30145 3.31738C7.71746 3.04875 7.48386 2.73339 7.77585 2.13772C8.04449 1.60044 8.37151 1.54204 8.86206 1.83404C8.67518 2.32459 8.51169 2.76843 8.30145 3.31738Z" fill="#EFF2FF"/>
<path d="M74.6187 8.24585C73.4741 8.18745 72.3295 8.12905 71.1965 8.08233C71.2082 7.97721 71.2082 7.87209 71.2199 7.77865C72.3645 7.87209 73.4975 7.96553 74.6421 8.04729C74.6304 8.10569 74.6187 8.17577 74.6187 8.24585Z" fill="#EFF2FF"/>
<path d="M39.7683 44.419C40.399 44.092 40.8662 43.9985 41.1465 44.5942C41.2166 44.7344 41.0881 45.1315 40.9597 45.1665C40.3289 45.4118 40.1421 44.8512 39.7683 44.419Z" fill="#EFF2FF"/>
<path d="M32.4314 44.3026C31.6255 44.6881 30.9013 44.653 30.3057 43.9172C31.0065 44.0457 31.7189 44.1742 32.4314 44.3026Z" fill="#EFF2FF"/>
<path d="M65.8596 8.86528C66.6539 8.93536 67.2379 8.99376 67.8686 9.04048C67.1444 9.51935 66.8057 9.49599 65.8596 8.86528Z" fill="#EFF2FF"/>
<path d="M79.5127 52.3384C79.1156 52.1865 78.7184 52.023 78.1812 51.8128C79.1039 51.404 79.1039 51.404 79.5127 52.3384Z" fill="#EFF2FF"/>
<path d="M33.7517 46.2527C33.2962 45.5636 33.2962 45.5636 32.4319 45.1314C32.9808 45.2249 33.5181 45.33 34.1722 45.4468C34.0087 45.7621 33.9152 45.949 33.7517 46.2527Z" fill="#EFF2FF"/>
<path d="M52.9294 7.26514C52.3337 7.19506 51.738 7.12498 51.1423 7.0549C51.1423 7.00818 51.1423 6.97314 51.1423 6.92642C51.7497 6.94978 52.3454 6.98483 52.9527 7.00818C52.941 7.08994 52.941 7.18338 52.9294 7.26514Z" fill="#EFF2FF"/>
<path d="M39.1343 44.4649C38.6905 44.4299 38.2116 44.6752 37.6042 44.1496C38.27 44.1496 38.7138 44.1496 39.1577 44.1496C39.146 44.2547 39.146 44.3598 39.1343 44.4649Z" fill="#EFF2FF"/>
<path d="M5.12379 36.5585C4.92523 36.722 4.73836 36.8856 4.5398 37.0491C4.44636 36.9089 4.24782 36.7454 4.27118 36.6286C4.32958 36.2081 4.64493 36.2548 4.93693 36.2899C4.99533 36.3833 5.05371 36.4651 5.12379 36.5585Z" fill="#EFF2FF"/>
<path d="M84.4423 11.6455C83.9868 11.4236 83.5312 11.2134 83.0874 10.9914C83.1108 10.9214 83.1458 10.8513 83.1692 10.7812C83.6364 10.9564 84.1036 11.1316 84.5824 11.3068C84.5357 11.4236 84.489 11.5287 84.4423 11.6455Z" fill="#EFF2FF"/>
<path d="M11.0925 4.61377C10.7305 4.59041 10.3567 4.57873 9.77271 4.54369C10.3684 3.95969 10.7538 4.18161 11.1392 4.31009C11.1159 4.40353 11.1042 4.50865 11.0925 4.61377Z" fill="#EFF2FF"/>
<path d="M19.6303 3.46908C19.2215 3.6326 18.8828 3.76108 18.439 3.93628C18.8594 3.10701 18.8711 3.09533 19.6303 3.46908Z" fill="#EFF2FF"/>
<path d="M41.5063 46.276C41.4362 46.5446 41.3779 46.8133 41.2961 47.1169C41.1326 47.0819 41.0041 47.0469 40.7705 46.9885C40.9807 46.6731 41.1442 46.4162 41.3078 46.1709C41.3778 46.2059 41.4479 46.241 41.5063 46.276Z" fill="#EFF2FF"/>
<path d="M25.3891 44.7805C24.6649 44.9791 24.5598 44.7104 24.7934 44.0914C25.0387 44.3834 25.2139 44.582 25.3891 44.7805Z" fill="#EFF2FF"/>
<path d="M6.21021 40.8207C6.4438 40.7623 6.67741 40.7039 6.92269 40.6689C6.93437 40.6689 7.0278 40.9492 7.00444 40.9492C6.78253 41.0543 6.5606 41.1478 6.327 41.2412C6.29196 41.1011 6.25692 40.9609 6.21021 40.8207Z" fill="#EFF2FF"/>
<path d="M1.58545 28.1012C2.12272 28.1712 2.64831 28.2413 3.18559 28.3114C2.60159 28.6618 2.06432 28.545 1.58545 28.1012Z" fill="#EFF2FF"/>
<path d="M1.36401 30.0874C1.62097 29.9122 1.87792 29.7371 2.20496 29.5035C2.4152 30.3794 1.85457 30.2159 1.51586 30.321C1.46914 30.2393 1.42241 30.1692 1.36401 30.0874Z" fill="#EFF2FF"/>
<path d="M64.1777 8.64324C64.5632 8.67828 64.9369 8.70164 65.4859 8.74836C64.9486 9.36739 64.5515 8.76003 64.1777 8.95859C64.1777 8.85347 64.1777 8.74836 64.1777 8.64324Z" fill="#EFF2FF"/>
<path d="M59.692 49.3827C60.019 49.5462 60.3461 49.7214 60.6731 49.8849C60.6497 49.9433 60.6147 50.0134 60.5913 50.0718C60.2526 49.9316 59.9139 49.7798 59.5752 49.6396C59.6102 49.5579 59.6453 49.4644 59.692 49.3827Z" fill="#EFF2FF"/>
<path d="M83.3208 10.2904C83.9515 9.91664 83.9515 9.91664 84.4187 10.3254C83.9983 10.3138 83.6595 10.3021 83.3208 10.2904Z" fill="#EFF2FF"/>
<path d="M45.2202 44.5709C45.2786 44.4191 45.3254 44.2672 45.3838 44.1271C45.3838 44.1271 45.5706 44.1738 45.5706 44.1971C45.5473 44.3607 45.5122 44.5125 45.4772 44.676C45.3837 44.641 45.302 44.6059 45.2202 44.5709Z" fill="#EFF2FF"/>
<path d="M15.0168 1.34315C15.3322 1.36651 15.6475 1.38986 15.9746 1.41322C15.9746 1.47162 15.9629 1.53002 15.9629 1.6001C15.6475 1.57674 15.3322 1.5417 15.0051 1.51834C15.0051 1.45994 15.0051 1.40155 15.0168 1.34315Z" fill="#EFF2FF"/>
<path d="M34.7314 42.5148C34.9884 42.2228 35.0585 42.1527 35.1286 42.0826C35.2337 42.2111 35.3388 42.3396 35.4206 42.4797C35.4323 42.5031 35.2804 42.6666 35.2103 42.6549C35.0468 42.6432 34.9066 42.5732 34.7314 42.5148Z" fill="#EFF2FF"/>
<path d="M27.445 44.3252C27.2464 44.2318 27.0479 44.15 26.8376 44.0566C26.861 43.9982 26.8727 43.9398 26.896 43.8814C27.1063 43.9398 27.3048 44.0098 27.5151 44.0682C27.4917 44.1617 27.4684 44.2434 27.445 44.3252Z" fill="#EFF2FF"/>
<path d="M33.3077 42.6316C33.0974 42.5498 32.8755 42.4681 32.6653 42.3863C32.6886 42.3279 32.7003 42.2812 32.7237 42.2228C32.9339 42.3046 33.1558 42.398 33.3661 42.4797C33.3427 42.5265 33.3194 42.5849 33.3077 42.6316Z" fill="#EFF2FF"/>
<path d="M6.93395 5.82837C6.72371 5.73493 6.5135 5.65317 6.31494 5.55973C6.3383 5.47797 6.36164 5.40789 6.385 5.32614C6.59524 5.39621 6.81716 5.47798 7.0274 5.54806C6.99236 5.6415 6.96899 5.73493 6.93395 5.82837Z" fill="#EFF2FF"/>
<path d="M12.7385 4.28589C12.8086 4.35597 12.8436 4.4027 12.8903 4.44942C12.8085 4.49613 12.7268 4.55454 12.6333 4.58958C12.61 4.60126 12.5516 4.50781 12.5049 4.46109C12.575 4.40269 12.6567 4.34429 12.7385 4.28589Z" fill="#EFF2FF"/>
<path d="M5.3814 24.0496C5.13612 24.0496 4.9025 24.0496 4.65723 24.0496C4.65723 24.0145 4.65723 23.9795 4.65723 23.9444C4.9025 23.9444 5.13612 23.9444 5.3814 23.9444C5.3814 23.9795 5.3814 24.0145 5.3814 24.0496Z" fill="#EFF2FF"/>
<path d="M56.2704 30.0998C56.3756 30.3918 56.4573 30.6137 56.5157 30.8239C56.5391 30.8823 56.4924 30.9641 56.469 31.1042C55.8967 31.0108 55.6047 30.5553 55.0791 30.0998C55.5813 30.0998 55.885 30.0998 56.2704 30.0998Z" fill="#EFF2FF"/>
<path d="M62.6 30.7883C62.1678 30.6015 61.7474 30.4263 61.2451 30.216C62.0977 29.9707 62.0978 29.9707 62.6934 30.5547C62.6701 30.6248 62.635 30.7066 62.6 30.7883Z" fill="#EFF2FF"/>
<path d="M62.158 31.5364C61.6207 31.3028 61.2703 31.1509 60.7681 30.9407C61.3053 31.0225 61.7959 30.7889 62.158 31.5364Z" fill="#EFF2FF"/>
<path d="M58.5478 29.9587C58.1507 29.9354 57.7536 29.9003 57.3564 29.877C57.3681 29.7952 57.3798 29.7018 57.4032 29.62C57.7769 29.6901 58.1623 29.7719 58.5361 29.8419C58.5478 29.877 58.5478 29.9237 58.5478 29.9587Z" fill="#EFF2FF"/>
<path d="M72.1783 21.409C72.7156 21.409 73.2879 21.1053 73.9186 21.6192C73.2061 21.7827 72.6922 21.6075 72.1783 21.409C72.1666 21.3973 72.1783 21.409 72.1783 21.409Z" fill="#EFF2FF"/>
</svg>
