<svg width="117" height="46" viewBox="0 0 117 46" fill="none" xmlns="http://www.w3.org/2000/svg">
<g clip-path="url(#clip0_10856_42922)">
<path d="M17.661 29.176C17.9345 28.5509 18.1103 28.1797 18.2666 27.8281C16.9382 28.5314 15.688 29.176 14.0861 28.1211C15.0628 27.2225 15.8833 26.402 17.2703 27.3593C17.5047 26.7146 17.6414 26.3239 17.8172 25.7769C18.8917 25.6988 20.0443 25.6011 21.2945 25.5034C21.1578 23.7453 23.1113 23.9211 23.5606 23.042C24.5374 23.2178 25.2992 23.4327 26.0611 23.4132C26.2955 23.4132 26.5299 22.8271 26.9011 22.3192C27.1941 22.3192 27.7607 22.3192 28.3467 22.3192C28.5226 23.0615 28.7961 23.6866 29.9096 23.1983C29.89 22.9052 29.851 22.5731 29.8119 22.1629C30.183 22.0848 30.5542 22.0066 30.9253 21.909C30.9644 21.8113 30.9839 21.7136 31.023 21.6159C30.3197 21.3229 29.6165 21.0103 28.8937 20.7954C28.7374 20.7368 28.4835 21.108 28.2491 21.1471C27.6435 21.2643 26.7644 21.5964 26.4909 21.3229C25.69 20.5415 24.9476 20.9713 24.0685 21.1471C23.8927 20.5806 24.4592 19.721 23.6192 19.5452C23.209 19.4475 22.6815 19.6429 22.2517 19.8187C21.6462 20.0531 21.0991 20.4047 20.5521 20.6978C20.4935 20.3657 20.3764 19.8187 20.2982 19.3499C21.861 18.9201 23.5801 18.4512 25.5336 17.9238C25.9243 18.041 26.608 18.2363 27.2918 18.4512C26.569 16.654 24.7717 17.7089 23.5801 16.7321C24.7131 16.4586 25.69 16.2633 26.7839 16.3805C27.7802 16.4782 28.7961 16.2047 29.8119 16.1461C30.1049 16.1266 30.3979 16.2438 30.691 16.2828C30.984 16.3414 31.3551 16.4977 31.5895 16.4C34.0705 15.3061 36.6882 15.9507 39.2278 15.8921C41.1813 15.8531 43.1544 16.107 45.1274 16.1656C45.6939 16.1852 46.2604 15.9507 46.8269 15.9703C47.3934 16.0093 47.9405 16.2438 48.5461 16.6149C47.2372 16.7321 45.9479 16.8494 44.5414 16.9666C45.3618 18.588 45.4399 18.6075 46.7488 18.4122C47.3935 18.334 48.1553 17.9043 48.6242 18.7833C48.2335 19.2522 47.8428 19.6819 47.5302 20.1508C46.9637 21.0103 46.2213 20.7564 45.4595 20.5806C44.5608 20.3852 43.6036 20.1313 43.4083 21.6745C44.5413 21.7527 45.6353 21.8504 46.8856 21.948C46.5925 22.3387 46.3386 22.6708 45.9284 23.2178C47.2177 23.3546 48.2726 23.5108 49.347 23.589C50.4801 23.6866 51.6131 23.7257 52.8633 23.7843C52.1992 25.269 52.8243 26.2262 53.6252 27.3397C52.9415 27.4179 52.414 27.4765 51.8866 27.5351C51.8475 27.6523 51.7498 27.789 51.7694 27.8672C52.0038 28.4337 52.3554 28.9221 52.1991 29.6449C52.1405 29.9574 52.961 30.2114 52.7266 31.0514C52.4921 31.8133 53.3517 32.3212 54.4652 32.3798C55.4615 32.4189 56.4578 32.497 57.4931 32.9268C57.0633 33.1221 56.6336 33.337 55.8131 33.7082C57.2977 33.8059 58.3918 33.8645 59.7006 33.9621C59.603 33.4738 59.5248 33.2003 59.4857 32.9268C59.4467 32.6924 59.4076 32.4775 59.349 32.1454C59.6811 32.2235 59.9741 32.204 60.0131 32.3017C60.4038 33.2003 60.8532 34.0403 61.9081 34.4114C61.869 34.5482 61.8299 34.6849 61.7909 34.8022C60.4429 34.9389 58.9583 35.4663 57.7471 35.0952C56.575 34.7435 55.6568 34.6849 54.5824 35.2515C54.1331 34.9194 53.7033 34.6068 53.1173 34.1575C52.8828 35.9157 54.4847 35.7008 55.1489 36.5994C54.6801 36.5799 54.3284 36.5603 53.9768 36.5408C52.4921 36.4626 51.027 36.365 49.7182 37.3808C49.0735 37.8887 48.4093 38.1036 48.1554 36.8924C48.1358 36.7557 47.0027 36.8729 46.3385 36.8729C46.3581 38.1817 47.5497 37.8692 48.0967 38.5529C47.1981 39.2562 46.065 38.6506 44.8734 39.1976C46.7292 40.3111 48.7219 40.0766 50.4215 40.9362C47.3349 40.7994 44.3265 41.1901 41.2985 41.5222C42.9395 42.2646 44.7562 41.3269 46.2995 41.9325C47.9795 42.5967 49.6009 41.5613 51.2223 42.4795C49.5618 42.6553 47.9014 42.7725 46.2604 42.9874C44.5218 43.2023 42.8027 43.4758 40.9859 42.5381C41.0836 44.0423 41.9627 44.3939 42.9394 44.9409C43.0957 44.4134 43.2129 44.0227 43.3301 43.6516C45.479 43.4562 45.5962 43.5148 45.8893 44.9409C44.0139 44.9995 42.158 45.019 40.3022 45.1362C39.2473 45.1948 38.9348 44.2767 38.1143 43.7297C38.0166 44.2572 37.9384 44.7065 37.8407 45.2925C36.5514 45.273 35.2426 45.6051 34.1486 44.3939C33.8947 44.1204 33.3086 44.0813 32.8788 44.0423C31.7263 43.9446 30.5737 43.9055 29.1672 43.5539C29.4993 43.4367 29.8314 43.3195 30.1635 43.2023C30.1049 43.085 30.0463 42.9874 29.9877 42.8702C29.1867 42.7725 28.3858 42.6748 27.1746 42.5185C30.1635 42.4013 32.7421 42.2841 35.3403 42.1864C35.3403 42.0301 35.3403 41.8934 35.3403 41.7371C32.1951 41.5808 29.0695 41.4246 25.8853 41.2878C26.53 40.4283 26.5299 40.4283 27.702 40.0766C27.4676 39.6859 27.0574 39.3148 27.0574 38.9241C27.0379 38.5334 27.4286 38.1427 27.6435 37.7129C27.2332 37.1464 26.8425 36.5994 26.2956 35.857C25.9635 36.404 25.729 36.7752 25.3774 37.3222C24.4592 35.857 23.0917 35.6812 21.5289 35.7594C19.4777 35.857 17.4071 35.6617 15.3559 35.6617C14.7112 35.6617 14.086 35.9352 13.4414 35.9743C12.7576 36.0329 12.0739 35.9938 11.3706 35.8375C12.992 34.5287 15.1409 35.7984 16.9773 34.8021C16.2935 33.884 15.3753 34.2942 14.3009 34.0012C15.3949 33.6105 16.1958 33.2198 17.0358 33.044C17.8954 32.8682 18.794 32.9072 19.9075 32.8486C19.5168 32.2235 19.2824 31.8328 18.9699 31.3249C18.4815 31.6765 18.0712 31.95 17.5633 32.3017C16.821 30.9537 15.3949 31.7351 13.9102 31.0709C15.0042 31.0709 15.6879 31.1295 16.3521 31.0514C16.8405 30.9928 17.3094 30.7779 17.7978 30.6607C18.462 30.5044 19.2824 30.0551 19.7903 30.2895C21.7829 31.1295 23.6582 30.2114 25.5336 29.9965C26.4518 29.8988 27.2918 29.3714 28.2685 29.8207C28.5029 29.9379 28.8742 29.723 29.4016 29.6253C28.6593 28.8244 27.8974 28.8049 27.077 28.883C25.4165 29.0588 23.834 28.9611 22.2126 28.3946C21.3336 28.1016 20.2005 28.4142 19.2042 28.5509C18.7159 28.629 18.3252 28.9025 17.661 29.176ZM50.7535 25.5816C50.7926 25.6988 50.8121 25.8551 50.8903 25.9137C51.0661 26.0309 51.281 26.109 51.4959 26.1872C51.4959 26.1872 51.6326 25.9137 51.613 25.9137C51.4372 25.7964 51.2614 25.6597 51.0465 25.6011C50.9488 25.562 50.8121 25.6402 50.6949 25.6597C50.7731 24.8783 50.48 24.4681 49.6009 24.4681C49.64 25.269 50.2456 25.3862 50.7535 25.5816ZM30.984 28.9221C32.1561 30.2309 35.1059 30.1528 37.6259 28.7267C36.5515 28.7658 35.4771 28.883 34.4026 29.0393C33.2891 29.1956 32.2928 27.8476 30.984 28.9221ZM40.185 17.4354C41.4547 18.7443 42.3143 18.7052 43.9943 17.4159C42.6659 16.7126 41.5329 17.748 40.185 17.4354ZM48.6633 28.3946C48.7024 28.9221 48.7414 29.43 48.7804 29.8793C49.6204 30.2309 50.187 30.1137 50.2066 29.2151C50.2066 28.1407 49.4056 28.3165 48.6633 28.3946ZM42.4706 21.1666C41.7283 21.7527 40.3217 20.0336 39.8334 21.8894C40.9469 22.3583 41.7087 21.7527 42.4706 21.1666ZM28.6398 37.4003C28.6007 37.5566 28.5616 37.7129 28.5225 37.8692C29.1867 38.0841 29.8314 38.3185 30.4956 38.5334C30.3198 36.9706 29.3626 37.4589 28.6398 37.4003ZM20.6889 34.431C20.6499 34.2552 20.6108 34.0598 20.5521 33.884C19.7707 34.1966 18.794 33.4738 18.1103 34.2161C18.1298 34.3724 18.1689 34.5287 18.1885 34.6849C19.0285 34.6068 19.8685 34.5091 20.6889 34.431ZM39.2473 41.7762C38.2706 41.5613 37.2938 41.1511 36.1998 41.9129C37.411 42.7334 38.2901 41.7567 39.2473 41.7762ZM28.5421 17.1619C28.4835 17.2987 28.4054 17.4549 28.3467 17.5917C28.8351 18.3536 29.4407 18.7052 30.5737 17.9238C29.7533 17.6308 29.1477 17.3963 28.5421 17.1619ZM43.0371 38.9827C42.2752 39.4515 42.2753 39.4515 42.2167 40.3697C43.2325 40.3111 43.1934 39.7445 43.0371 38.9827ZM35.5161 22.0848C35.4965 20.8345 35.0473 20.6392 34.0119 21.0689C34.5198 21.4206 34.9105 21.6745 35.5161 22.0848ZM26.569 31.4421C26.53 31.5593 26.5104 31.6765 26.4714 31.7937C26.7644 31.8719 27.0574 31.9695 27.3504 32.0282C27.37 32.0282 27.4481 31.8133 27.4871 31.6961C27.1746 31.5984 26.8816 31.5202 26.569 31.4421ZM38.0948 17.4354C38.0752 17.5135 38.0557 17.5722 38.0557 17.6503C38.2705 17.7284 38.4855 17.8847 38.7004 17.8847C38.9348 17.8847 39.1497 17.7675 39.3841 17.6894C39.3646 17.6112 39.345 17.5135 39.3254 17.4354C38.9152 17.4354 38.505 17.4354 38.0948 17.4354ZM28.5225 35.857C28.8156 36.0329 28.9718 36.1891 29.089 36.1696C29.2453 36.1305 29.4016 35.9547 29.4602 35.818C29.4797 35.7398 29.2649 35.4663 29.2063 35.4859C29.0109 35.5445 28.8351 35.6812 28.5225 35.857ZM37.9971 39.5883C38.212 39.7641 38.3096 39.9008 38.4464 39.9399C38.5245 39.9594 38.7394 39.8227 38.7394 39.8031C38.7198 39.6664 38.6613 39.432 38.5636 39.4124C38.4268 39.3734 38.2706 39.4906 37.9971 39.5883ZM20.4936 27.2225C20.6889 26.9881 20.9234 26.8513 20.8843 26.7537C20.8257 26.5388 20.6499 26.363 20.5327 26.1872C20.4155 26.3044 20.1615 26.4216 20.181 26.5192C20.2005 26.7341 20.3568 26.9295 20.4936 27.2225ZM32.9375 22.8662C32.9375 22.9248 32.9375 22.9834 32.9375 23.042C33.2696 23.0615 33.5822 23.1006 33.9143 23.1201C33.9143 23.042 33.9142 22.9639 33.9337 22.8662C33.6016 22.8662 33.2696 22.8662 32.9375 22.8662Z" fill="#2541D6"/>
<path d="M95.684 13.8587C93.5742 13.8977 91.4644 13.9173 89.3546 13.9759C88.7881 13.9954 88.2216 14.1126 87.5964 13.8196C95.5863 12.3935 103.596 10.9675 111.566 9.56093C111.722 9.61953 111.879 9.63906 111.937 9.71721C112.582 10.5377 111.781 11.827 112.855 12.5693C112.953 12.6475 112.699 13.4289 112.465 13.761C111.957 14.4838 111.351 15.148 110.785 15.8317C111.82 16.3592 113.031 16.9843 114.125 17.5508C114.184 18.0196 114.106 18.6448 114.32 18.762C114.965 19.1332 114.614 19.8169 114.809 20.0904C115.278 20.735 115.024 21.0085 114.75 21.575C114.418 22.2783 114.438 23.1574 114.281 24.0365C114.75 24.5835 115.219 25.3258 115.864 25.8142C116.587 26.3612 115.844 27.2207 116.567 27.8458C116.938 28.1584 116.684 29.4282 116.411 30.151C115.844 31.6552 116.001 32.9836 116.626 34.4292C117.368 36.1483 116.157 38.1799 114.34 38.2581C112.426 38.3557 110.511 38.2971 108.597 38.2385C108.108 38.219 107.62 37.965 107.014 37.7892C106.682 38.219 106.311 38.7074 105.94 39.1762C104.885 38.8832 103.889 38.6292 102.834 38.3362C102.599 38.8441 102.424 39.2543 102.209 39.7037C100.314 38.1604 99.3371 37.5939 98.458 39.7427C97.1296 39.6841 95.7621 39.5083 94.4142 39.5669C93.0663 39.6255 91.7379 39.9185 90.1946 40.1139C91.6597 38.3948 91.7965 38.3557 93.5938 39.0395C94.2775 38.5901 94.9221 38.1604 95.684 37.6525C94.8244 37.0859 93.3789 37.8478 92.8905 36.539C93.0663 36.0701 93.2421 35.6013 93.5547 34.7808C91.4839 35.7185 89.7649 35.9529 88.0067 35.5427C87.9286 35.3864 87.8504 35.2301 87.7722 35.0738C88.1043 34.898 88.456 34.7417 88.7881 34.5854C88.6123 34.3901 88.5341 34.2338 88.456 34.2338C88.1239 34.2143 87.7527 34.1166 87.4988 34.2533C85.4085 35.4255 83.3378 34.6245 81.1694 34.3315C81.5406 33.1789 82.5954 33.9799 83.2987 33.3547C82.908 33.1984 82.5954 32.925 82.322 32.9836C81.1889 33.1789 79.8996 32.9054 79.0791 34.1752C78.5712 34.9566 78.2391 34.8199 77.1451 33.7064C75.4651 33.9799 74.0781 35.5622 72.1832 34.9175C71.7925 33.1594 71.8706 33.1203 74.7618 33.1203C74.8204 32.964 74.9376 32.8077 74.9572 32.6319C74.9962 32.4561 74.9572 32.2608 74.9572 32.124C75.4455 32.417 75.9339 32.7101 76.52 33.0812C76.7739 32.3975 76.813 31.7724 77.1256 31.577C77.6335 31.2645 78.3368 31.0496 78.9424 31.0887C81.5797 31.1863 83.9043 30.1314 86.7174 29.2914C85.5257 28.7054 84.6467 28.9789 83.8066 28.9789C82.8494 28.9789 81.8726 28.9984 80.9154 29.0961C80.3489 29.1547 79.7824 29.3109 79.2745 29.5454C78.5712 29.8775 77.9656 29.9947 77.1647 29.0375C84.8811 27.7872 92.3631 26.576 99.845 25.3649C100.119 24.7202 99.8841 24.2318 99.259 24.2514C98.5557 24.2709 97.8524 23.6848 97.071 24.3881C96.7584 24.6811 95.7622 24.4858 95.2543 24.2123C94.551 23.8411 93.8868 23.8997 93.457 24.3295C92.3435 25.4625 91.1128 25.0132 89.8821 24.7788C89.4328 24.7007 89.003 24.603 88.5536 24.5053C87.5964 24.31 86.9322 25.3649 85.8383 24.9742C85.0569 24.7007 84.0801 24.9351 83.201 24.9351C83.1034 24.9351 83.0057 24.8179 82.7908 24.6616C83.4745 24.349 84.0801 24.0755 84.9592 23.6653C84.2364 23.7044 83.7675 23.7434 83.2596 23.7825C83.7284 22.8253 83.7285 22.8253 86.1509 22.5518C86.0727 22.1025 85.975 21.6532 85.8968 21.2039C86.6001 21.0476 87.2058 20.9108 87.8113 20.7546C88.3974 20.5983 88.9834 20.4029 89.843 20.149C89.6867 20.9499 89.589 21.3992 89.4718 22.0439C90.5463 21.4969 91.5035 21.028 92.4021 20.5592C91.5621 20.5592 90.976 20.0708 90.8393 19.0941C92.2849 17.8243 92.6169 17.8634 93.1248 19.4652C96.3677 19.7973 97.8328 19.0355 98.5947 16.4568C97.6375 16.5936 96.7975 16.7499 95.938 16.828C94.2775 16.9843 92.617 17.121 90.9565 17.2187C90.7807 17.2382 90.5853 16.9843 90.3899 16.8475C90.1555 16.6912 89.9406 16.4178 89.7062 16.4178C89.0811 16.3982 88.456 16.4764 87.8309 16.535C87.5769 16.5545 87.3034 16.5545 87.069 16.6522C85.9555 17.1992 84.8616 17.7852 83.6308 18.4299C82.6932 16.9452 81.0326 17.9415 79.4502 17.3554C80.5833 16.4959 81.4819 16.4764 82.4196 16.8671C83.455 17.2968 83.455 17.2773 83.9239 16.281C86.8541 15.7731 89.7258 15.2457 92.5975 14.7573C93.1054 14.6791 93.6328 14.7573 94.1212 14.6401C94.6877 14.5033 95.5277 14.6401 95.5667 13.6828C95.977 13.6242 96.3677 13.5852 96.778 13.5266C96.6998 13.3507 96.6412 13.1945 96.5631 13.0186C96.3286 13.3898 95.9965 13.6242 95.684 13.8587ZM96.6803 37.7892C100.47 37.7111 106.897 36.4999 108.03 35.5622C106.409 36.0115 104.768 36.4999 103.283 35.445C101.388 37.5939 99.2784 36.3631 97.1491 35.992C96.9928 36.539 96.8561 37.0664 96.6803 37.7892ZM107.21 24.3295C107.21 24.2318 107.21 24.1146 107.19 24.0169C105.862 23.9583 104.533 23.8802 103.205 23.8216C101.974 23.7825 101.681 23.9779 101.076 25.3258C103.205 24.9937 105.217 24.6616 107.21 24.3295ZM94.2384 34.1557C92.9295 33.0617 91.9137 33.6478 90.5463 34.6831C92.0505 34.4878 93.1444 34.3315 94.2384 34.1557ZM97.7352 14.1712C98.7315 13.9173 99.7473 13.6633 100.744 13.4094C98.4775 12.8233 98.458 12.8233 97.7352 14.1712ZM105.237 16.5545C105.237 16.4764 105.237 16.3982 105.237 16.3005C104.69 16.3005 104.143 16.3005 103.615 16.3005C103.615 16.3787 103.615 16.4568 103.615 16.5545C104.143 16.5545 104.69 16.5545 105.237 16.5545ZM81.5014 32.1436C81.5014 32.0849 81.5014 32.0459 81.5014 31.9873C80.9545 31.9873 80.4075 31.9873 79.8801 31.9873C79.8801 32.0459 79.8801 32.0849 79.8801 32.1436C80.427 32.1436 80.9545 32.1436 81.5014 32.1436ZM90.0579 29.2523C90.0188 29.0765 89.9993 28.9007 89.9602 28.7249C89.6281 28.7835 89.3156 28.8421 89.003 28.9398C88.9639 28.9593 89.0225 29.2523 89.042 29.4282C89.3741 29.3696 89.7258 29.3109 90.0579 29.2523ZM73.4335 34.1166C73.453 34.2338 73.453 34.351 73.4726 34.4682C73.8047 34.4487 74.1172 34.4096 74.4493 34.3901C74.4298 34.2729 74.4298 34.1361 74.4102 34.0189C74.0781 34.0385 73.7656 34.0775 73.4335 34.1166ZM99.2784 17.121C99.3761 17.2187 99.4543 17.3359 99.552 17.4336C99.7669 17.1992 100.001 16.9647 100.216 16.7303C100.158 16.6717 100.099 16.5936 100.021 16.535C99.7864 16.7303 99.5324 16.9257 99.2784 17.121ZM100.118 18.469C100.197 18.6252 100.255 18.7815 100.333 18.9378C100.665 18.7815 100.978 18.6252 101.31 18.4885C101.271 18.3713 101.232 18.2736 101.193 18.1564C100.822 18.2541 100.47 18.3713 100.118 18.469Z" fill="#2541D6"/>
<path d="M111.644 2.13747C111.155 2.39142 110.765 2.74306 110.374 2.74306C108.694 2.80167 107.014 2.76259 105.334 2.72352C104.123 2.70399 102.892 2.4891 101.7 2.58677C98.3598 2.8798 95.0583 3.34865 91.7178 3.64167C90.956 3.70028 90.1354 3.29004 89.1392 3.05562C90.3503 2.31328 90.3308 2.37189 91.2295 2.76259C91.5811 2.91887 92.2062 3.03609 92.4406 2.84074C93.9643 1.59049 95.8006 1.3756 97.6369 1.16071C101.29 0.750472 104.963 0.379311 108.616 0.00814382C108.87 -0.0113913 109.143 0.0081391 109.397 0.0276743C110.979 0.16442 111.019 0.203488 111.644 2.13747Z" fill="#2541D6"/>
<path d="M90.4488 7.45449C90.7027 7.31774 90.9762 7.06379 91.2302 7.06379C94.5121 7.16146 97.5009 5.83308 100.666 5.3447C101.056 5.28609 101.427 5.16888 101.818 5.18842C102.795 5.24703 103.362 4.79771 103.518 3.99677C104.104 3.99677 104.553 4.05538 104.983 3.97724C106.175 3.78189 107.366 3.46932 108.558 3.31304C108.968 3.25443 109.417 3.46933 109.828 3.62561C110.453 3.86003 111.058 4.17258 111.879 4.54375C110.414 5.38376 109.281 6.80983 107.386 6.98564C107.073 7.00518 106.624 7.06378 106.487 6.88797C105.725 5.98935 105.354 6.8489 104.846 7.29821C104.358 6.94658 103.889 6.61448 103.322 6.20424C99.2787 8.00147 94.8637 7.39589 90.605 7.94287C90.5464 7.78659 90.5074 7.63031 90.4488 7.45449Z" fill="#2541D6"/>
<path d="M24.7328 5.28325C25.8268 4.91208 26.5105 4.54091 27.2333 4.46277C28.1514 4.34556 29.1086 4.44324 30.0463 4.50184C30.6714 4.54091 31.4333 4.91207 31.9022 4.67765C33.9729 3.62275 36.1023 4.26742 38.1925 4.30649C40.2437 4.3651 42.2949 4.79486 44.3461 5.02928C44.5805 5.06835 44.893 5.0879 45.0884 4.99022C46.7684 4.05254 48.2531 5.2637 49.894 5.51766C49.6401 5.5958 49.3862 5.75209 49.1517 5.73256C48.4485 5.69349 48.4485 5.67395 46.6903 6.35768C46.4168 6.47489 45.9284 6.53349 45.7526 6.37721C44.4046 5.2051 42.8028 5.65441 41.4939 6.02558C39.1106 6.70931 36.8641 6.06464 34.559 5.90836C32.8203 5.81069 31.1403 5.55674 29.3626 5.79116C27.9756 5.98651 26.491 5.49813 24.7328 5.28325Z" fill="#2541D6"/>
<path d="M51.358 14.2891C49.8929 14.3282 48.5841 14.4063 47.2948 14.4063C41.8054 14.4649 36.316 14.504 30.8266 14.5431C29.088 14.5626 27.3688 14.6017 25.6302 14.6017C25.2981 14.6017 24.9465 14.4454 24.6535 14.1524C27.0953 13.957 29.5373 13.6835 31.9987 13.5663C33.9913 13.4686 35.9838 13.5859 37.9374 12.9021C38.8555 12.5896 39.9886 12.6677 40.9849 12.8435C43.0165 13.2147 45.0286 13.0779 47.0603 12.8435C47.8222 12.7458 48.545 12.7654 49.2287 13.3905C49.7171 13.8594 50.5376 13.9766 51.358 14.2891Z" fill="#2541D6"/>
<path d="M91.6207 10.2616C98.6143 9.34342 105.491 7.722 112.601 7.15548C112.504 8.71829 111.488 8.83551 110.531 8.99179C108.226 9.34342 105.92 9.63645 103.615 9.96855C101.72 10.2225 99.8059 10.3592 97.9305 10.6523C96.0552 10.9258 94.2579 11.1406 92.3826 10.9844C92.1286 10.9648 91.8942 10.8672 91.6597 10.8086C91.6597 10.5937 91.6403 10.4374 91.6207 10.2616Z" fill="#2541D6"/>
<path d="M66.4792 33.9597C67.5145 33.9597 68.1592 33.9597 68.8234 33.9597C68.7257 33.6276 68.6476 33.3932 68.4718 32.7681C69.2727 33.3737 69.8197 33.8034 70.5034 34.3114C70.3471 34.7216 70.1713 35.1709 69.9369 35.7765C68.882 35.2295 67.9052 34.7216 66.4792 33.9597Z" fill="#2541D6"/>
<path d="M59.0361 31.2052C57.5515 30.5019 55.8129 32.1234 54.3282 30.6387C56.2818 29.9159 58.0594 30.0917 59.0361 31.2052Z" fill="#2541D6"/>
<path d="M1.07538 36.0918C2.79447 36.1895 2.48187 37.5765 2.79443 38.69C0.469752 39.0025 1.73957 36.8732 1.07538 36.0918Z" fill="#2541D6"/>
<path d="M94.2181 18.1176C96.2888 17.5901 96.2888 17.5901 96.7968 18.6255C94.8823 19.0553 94.6674 19.0162 94.2181 18.1176Z" fill="#2541D6"/>
<path d="M21.9585 36.4417C22.1538 36.6761 22.4078 36.9691 22.6813 37.2622C22.7985 37.184 22.6617 37.3403 22.5054 37.3599C21.177 37.4771 19.8487 37.5552 18.4617 37.438C19.6729 37.0864 20.884 36.7543 21.9585 36.4417Z" fill="#2541D6"/>
<path d="M63.2758 35.2309C63.2954 34.7621 63.3148 34.3909 63.3344 34.0002C64.4088 33.7267 64.8386 34.3714 65.4247 35.3481C64.5651 35.3091 63.94 35.27 63.2758 35.2309Z" fill="#2541D6"/>
<path d="M53.0386 19.1149C51.9837 19.8377 50.9873 19.0953 49.952 18.6851C50.9678 18.6851 51.9836 18.6851 52.9995 18.6851C53.019 18.8218 53.019 18.9586 53.0386 19.1149Z" fill="#2541D6"/>
<path d="M86.8737 11.4377C88.0263 11.2228 89.1789 11.0079 90.6636 10.7344C89.7259 11.7112 89.7258 11.7112 86.8737 11.4377Z" fill="#2541D6"/>
<path d="M59.6408 37.3192C58.7812 36.8504 58.1952 36.5183 57.4919 36.1471C58.4491 35.7564 59.2892 35.3266 59.9925 36.2643C60.0901 36.4206 59.7971 36.8699 59.6408 37.3192Z" fill="#2541D6"/>
<path d="M22.0756 38.7685C22.8179 39.0224 24.0682 38.2215 24.244 39.7843C23.1696 40.175 22.3491 40.1164 22.0756 38.7685Z" fill="#2541D6"/>
<path d="M30.7297 45.1369C31.9799 44.0234 32.0581 44.0234 33.2888 44.9415C32.4879 45.8206 31.726 45.3127 30.7297 45.1369Z" fill="#2541D6"/>
<path d="M10.5885 31.3636C9.8071 31.6371 9.31877 33.4148 8.00992 31.7543C8.98668 31.598 9.78756 31.4808 10.5885 31.3636Z" fill="#2541D6"/>
<path d="M2.24716 34.7222C3.20438 33.7454 3.92718 33.6087 4.8844 34.7222C3.94671 34.7222 3.24345 34.7222 2.24716 34.7222Z" fill="#2541D6"/>
<path d="M2.61768 27.3784C1.75813 27.4175 0.898545 27.4761 0.0389985 27.5151C0.0194633 27.3784 0.0195206 27.2221 -1.45558e-05 27.0854C0.800926 26.5579 1.68003 26.6556 2.55911 26.8509C2.59818 27.0268 2.61768 27.2026 2.61768 27.3784Z" fill="#2541D6"/>
<path d="M10.1783 33.4716C11.155 33.4716 11.7801 33.4716 12.4053 33.4716C11.5262 34.8195 11.5262 34.8195 10.1783 33.4716Z" fill="#2541D6"/>
<path d="M41.6686 9.83357C43.0946 8.89588 43.0947 8.89588 43.4463 10.0875C42.9188 10.0289 42.489 9.95078 41.6686 9.83357Z" fill="#2541D6"/>
<path d="M15.5699 19.5255C16.4099 19.4669 17.2304 19.4083 18.0704 19.3497C18.0704 19.4864 18.0704 19.6231 18.0704 19.7599C17.25 19.7013 16.4099 19.6622 15.5894 19.6036C15.5894 19.6036 15.5894 19.5645 15.5699 19.5255Z" fill="#2541D6"/>
<path d="M84.8217 8.13672C85.3687 8.13672 85.8962 8.13672 86.8339 8.13672C85.8962 8.93766 85.3491 8.89858 84.8217 8.58602C84.8217 8.42974 84.8217 8.293 84.8217 8.13672Z" fill="#2541D6"/>
<path d="M88.5144 40.3681C87.6744 40.4072 86.8148 40.4463 85.9748 40.4854C85.9553 40.4072 85.9553 40.3095 85.9357 40.2314C86.7757 40.1142 87.5962 40.0165 88.4362 39.8993C88.4753 40.0556 88.4949 40.2119 88.5144 40.3681Z" fill="#2541D6"/>
<path d="M38.4846 9.56185C39.0707 9.48371 39.6567 9.40558 40.4381 9.28837C39.6567 9.87442 39.6567 9.87442 38.4846 9.56185Z" fill="#2541D6"/>
<path d="M88.1632 7.96226C88.6711 8.02086 89.1791 8.05994 89.687 8.11855C89.1596 8.78274 88.6516 8.93902 88.1632 7.96226Z" fill="#2541D6"/>
<path d="M23.9504 41.1473C23.3253 41.1473 22.6806 41.1473 21.8601 41.1473C22.6806 40.1901 23.3058 40.6004 23.9504 41.1473Z" fill="#2541D6"/>
<path d="M17.8564 24.5054C18.5206 24.5054 19.1653 24.5054 19.8295 24.5054C19.8295 24.5836 19.8295 24.6617 19.8295 24.7203C19.1653 24.7203 18.501 24.7203 17.8368 24.7203C17.8368 24.6617 17.8369 24.5836 17.8564 24.5054Z" fill="#2541D6"/>
<path d="M86.2488 38.4724C85.8581 38.3943 85.4674 38.3161 85.0962 38.238C85.1158 38.1403 85.1157 38.0426 85.1352 37.945C85.5259 37.945 85.9167 37.945 86.3269 37.945C86.2878 38.1208 86.2683 38.2966 86.2488 38.4724Z" fill="#2541D6"/>
<path d="M3.04763 31.869C3.71183 31.8299 4.37597 31.7713 5.04016 31.7323C4.37597 32.5918 3.71183 32.123 3.04763 31.869Z" fill="#2541D6"/>
<path d="M33.5049 12.4527C33.837 12.4527 34.1691 12.4527 34.5012 12.4527C34.4817 12.5894 34.4816 12.7066 34.4621 12.8434C34.13 12.8043 33.7979 12.7457 33.4854 12.7066C33.4854 12.6285 33.5049 12.5308 33.5049 12.4527Z" fill="#2541D6"/>
<path d="M80.8774 25.1899C80.5649 25.268 80.2523 25.3462 79.9593 25.4243C79.9202 25.3266 79.9006 25.229 79.8616 25.1313C80.1546 25.0336 80.4281 24.9164 80.7211 24.8187C80.7602 24.9359 80.8188 25.0727 80.8774 25.1899Z" fill="#2541D6"/>
<path d="M53.7229 25.66C54.3675 25.3084 54.7191 25.113 55.3442 24.7614C55.1489 25.8749 54.7778 26.0116 53.7229 25.66Z" fill="#2541D6"/>
<path d="M12.0339 29.1959C12.1511 29.0396 12.2096 28.8833 12.2682 28.8833C12.4245 28.8833 12.5808 28.9615 12.7371 29.0005C12.6785 29.0982 12.6198 29.2545 12.5417 29.2545C12.3854 29.274 12.2292 29.2154 12.0339 29.1959Z" fill="#2541D6"/>
<path d="M55.4807 26.8707C55.8518 26.8707 56.2229 26.8707 56.5941 26.8707C56.5941 26.9098 56.5941 26.9488 56.5941 26.9879C56.2229 26.9879 55.8518 26.9879 55.4807 26.9879C55.5002 26.9488 55.4807 26.9098 55.4807 26.8707Z" fill="#2541D6"/>
<path d="M90.1948 36.9527C90.4096 36.7964 90.5464 36.7182 90.6831 36.6401C90.7613 36.7768 90.8785 36.894 90.898 37.0503C90.9176 37.1285 90.7222 37.3043 90.6831 37.2848C90.5269 37.2261 90.4096 37.1089 90.1948 36.9527Z" fill="#2541D6"/>
<path d="M19.6727 38.4527C19.8876 38.5308 20.1221 38.5894 20.337 38.6871C20.3565 38.7066 20.2979 38.902 20.2784 38.9996C20.0439 38.941 19.8095 38.8824 19.5946 38.8238C19.6142 38.7066 19.6532 38.5894 19.6727 38.4527Z" fill="#2541D6"/>
<path d="M29.3233 44.1566C29.5382 44.5473 29.7335 44.7427 29.6944 44.9185C29.6749 45.0943 29.4405 45.2506 29.2842 45.4069C29.1474 45.2506 28.913 45.0943 28.913 44.938C28.913 44.7427 29.1084 44.5473 29.3233 44.1566Z" fill="#2541D6"/>
<path d="M70.7566 30.6603C70.4636 30.6407 70.1511 30.6212 69.8581 30.6212C69.8581 30.5431 69.8385 30.4845 69.8385 30.4063C70.1315 30.3673 70.4246 30.3282 70.7371 30.2891C70.7371 30.4063 70.7566 30.5431 70.7566 30.6603Z" fill="#2541D6"/>
<path d="M62.4938 30.6801C62.8064 30.6019 63.1189 30.5238 63.4315 30.4652C63.4705 30.5433 63.5292 30.641 63.5682 30.7191C63.4315 30.8364 63.2947 31.0122 63.158 31.0317C62.9626 31.0708 62.7282 30.9731 62.5134 30.934C62.5134 30.8559 62.4938 30.7778 62.4938 30.6801Z" fill="#2541D6"/>
<path d="M11.5663 27.1655C11.8007 27.0678 11.9961 26.9115 12.0742 26.9506C12.25 27.0287 12.3673 27.2241 12.5236 27.3608C12.3477 27.4194 12.1915 27.5171 12.0352 27.4976C11.8984 27.4976 11.7811 27.3413 11.5663 27.1655Z" fill="#2541D6"/>
<path d="M83.9045 22.1046C84.178 22.046 84.4515 21.9873 84.7055 21.9287C84.725 22.0264 84.7445 22.1436 84.764 22.2413C84.4905 22.2804 84.217 22.2999 83.9435 22.339C83.924 22.2804 83.9045 22.2022 83.9045 22.1046Z" fill="#2541D6"/>
<path d="M35.125 9.09357C34.871 9.19125 34.6171 9.28892 34.3631 9.3866C34.3241 9.26939 34.2264 9.07403 34.2459 9.0545C34.4803 8.91775 34.7343 8.82008 34.9688 8.70287C35.0274 8.82008 35.0664 8.95682 35.125 9.09357Z" fill="#2541D6"/>
</g>
<defs>
<clipPath id="clip0_10856_42922">
<rect width="116.848" height="45.4428" fill="white"/>
</clipPath>
</defs>
</svg>
