<svg width="117" height="46" fill="none" xmlns="http://www.w3.org/2000/svg"><g clip-path="url(#a)" fill="#2541D6"><path d="M17.661 29.176c.273-.625.45-.996.606-1.348-1.329.703-2.579 1.348-4.18.293.976-.898 1.796-1.719 3.183-.762.235-.644.371-1.035.547-1.582 1.075-.078 2.227-.176 3.477-.274-.136-1.758 1.817-1.582 2.267-2.461.976.176 1.738.39 2.5.371.235 0 .469-.586.84-1.094h1.446c.176.742.45 1.368 1.563.88-.02-.294-.059-.626-.098-1.036.371-.078.742-.156 1.113-.254.04-.098.059-.195.098-.293-.703-.293-1.407-.606-2.13-.82-.156-.06-.41.312-.644.351-.605.117-1.485.45-1.758.176-.801-.782-1.543-.352-2.422-.176-.176-.566.39-1.426-.45-1.602-.41-.098-.938.098-1.367.274-.606.234-1.153.586-1.7.879-.058-.332-.176-.88-.254-1.348 1.563-.43 3.282-.899 5.236-1.426.39.117 1.074.312 1.758.527-.723-1.797-2.52-.742-3.712-1.719 1.133-.273 2.11-.469 3.204-.351.996.097 2.012-.176 3.028-.235.293-.02.586.098.879.137.293.058.664.215.899.117 2.48-1.094 5.098-.45 7.638-.508 1.953-.039 3.926.215 5.9.274.566.02 1.132-.215 1.699-.196.566.04 1.114.274 1.72.645-1.31.117-2.6.234-4.006.352.82 1.621.899 1.64 2.208 1.445.645-.078 1.406-.508 1.875.371-.39.47-.781.899-1.094 1.368-.566.86-1.309.605-2.07.43-.9-.196-1.856-.45-2.052 1.093 1.133.079 2.227.176 3.478.274-.294.39-.547.723-.958 1.27 1.29.137 2.345.293 3.419.371 1.133.098 2.266.137 3.516.195-.664 1.485-.039 2.442.762 3.556-.684.078-1.211.137-1.738.195-.04.117-.137.254-.118.332.235.567.586 1.055.43 1.778-.058.312.762.566.528 1.406-.235.762.625 1.27 1.738 1.329.996.039 1.993.117 3.028.547-.43.195-.86.41-1.68.781 1.485.098 2.579.157 3.888.254-.098-.488-.176-.762-.215-1.035-.04-.235-.078-.45-.137-.782.332.078.625.059.664.157.39.898.84 1.738 1.895 2.11-.039.136-.078.273-.117.39-1.348.137-2.833.664-4.044.293-1.172-.352-2.09-.41-3.165.157-.449-.333-.879-.645-1.465-1.095-.234 1.759 1.368 1.544 2.032 2.442-.469-.02-.82-.039-1.172-.058-1.485-.078-2.95-.176-4.259.84-.645.508-1.309.723-1.563-.489-.02-.136-1.152-.02-1.816-.02.02 1.31 1.21.997 1.758 1.68-.899.704-2.032.099-3.224.646 1.856 1.113 3.849.879 5.549 1.738-3.087-.137-6.095.254-9.123.586 1.64.743 3.457-.195 5 .41 1.68.665 3.302-.37 4.923.547-1.66.176-3.32.294-4.962.508-1.738.215-3.457.489-5.274-.449.098 1.504.977 1.856 1.953 2.403.157-.528.274-.918.391-1.29 2.149-.195 2.266-.136 2.56 1.29-1.876.058-3.732.078-5.588.195-1.055.059-1.367-.86-2.188-1.406-.097.527-.176.977-.273 1.563-1.29-.02-2.598.312-3.692-.9-.254-.273-.84-.312-1.27-.35-1.153-.098-2.305-.137-3.712-.49l.996-.35c-.058-.118-.117-.216-.175-.333-.801-.097-1.602-.195-2.813-.351 2.988-.118 5.567-.235 8.165-.333v-.449c-3.145-.156-6.27-.312-9.455-.45.645-.859.645-.859 1.817-1.21-.234-.391-.645-.762-.645-1.153-.02-.39.372-.781.587-1.211-.41-.567-.801-1.114-1.348-1.856-.332.547-.567.918-.919 1.465-.918-1.465-2.285-1.64-3.848-1.563-2.051.098-4.122-.097-6.173-.097-.645 0-1.27.273-1.915.312a6.774 6.774 0 0 1-2.07-.136c1.621-1.31 3.77-.04 5.606-1.036-.683-.918-1.602-.508-2.676-.8 1.094-.392 1.895-.782 2.735-.958.86-.176 1.758-.137 2.871-.195-.39-.625-.625-1.016-.937-1.524-.488.352-.899.625-1.407.977-.742-1.348-2.168-.567-3.653-1.231 1.094 0 1.778.058 2.442-.02.488-.058.957-.273 1.446-.39.664-.157 1.484-.606 1.992-.372 1.993.84 3.868-.078 5.744-.293.918-.097 1.758-.625 2.735-.175.234.117.605-.098 1.133-.196-.743-.8-1.505-.82-2.325-.742-1.66.176-3.243.078-4.864-.488-.88-.293-2.012.02-3.009.156-.488.078-.879.352-1.543.625Zm33.093-3.594c.039.117.058.273.136.332.176.117.391.195.606.273 0 0 .137-.273.117-.273-.176-.118-.352-.254-.566-.313-.098-.039-.235.04-.352.059.078-.782-.215-1.192-1.094-1.192.039.801.645.918 1.153 1.114Zm-19.77 3.34c1.172 1.309 4.122 1.23 6.642-.195-1.075.039-2.149.156-3.223.312-1.114.157-2.11-1.191-3.419-.117Zm9.201-11.487c1.27 1.31 2.13 1.27 3.81-.02-1.33-.702-2.462.333-3.81.02Zm8.478 10.96c.04.527.078 1.035.117 1.484.84.352 1.407.235 1.427-.664 0-1.074-.801-.898-1.544-.82Zm-6.192-7.228c-.743.586-2.15-1.133-2.638.722 1.114.47 1.876-.136 2.638-.722ZM28.64 37.4l-.117.47c.664.214 1.308.449 1.973.663-.176-1.562-1.133-1.074-1.856-1.133Zm-7.951-2.969c-.04-.176-.078-.371-.137-.547-.781.313-1.758-.41-2.442.332.02.156.059.313.079.469.84-.078 1.68-.176 2.5-.254Zm18.558 7.345c-.976-.215-1.953-.625-3.047.137 1.211.82 2.09-.156 3.047-.137ZM28.542 17.162c-.059.137-.137.293-.195.43.488.762 1.094 1.113 2.227.332-.82-.293-1.426-.528-2.032-.762Zm14.495 21.82c-.762.47-.762.47-.82 1.388 1.016-.059.976-.625.82-1.387Zm-7.52-16.897c-.02-1.25-.47-1.446-1.505-1.016.508.352.898.605 1.504 1.016Zm-8.948 9.357c-.039.117-.059.235-.098.352.293.078.586.175.88.234.019 0 .097-.215.136-.332a15.993 15.993 0 0 0-.918-.254Zm11.526-14.007c-.02.079-.04.137-.04.215.215.078.43.235.645.235.235 0 .45-.118.684-.196-.02-.078-.039-.175-.059-.254h-1.23Zm-9.572 18.422c.293.176.449.332.566.313.156-.04.313-.215.371-.352.02-.078-.195-.352-.254-.332-.195.059-.37.195-.683.371Zm9.474 3.731c.215.176.313.313.45.352.078.02.292-.117.292-.137-.02-.137-.078-.371-.175-.39-.137-.04-.293.078-.567.175ZM20.494 27.222c.195-.234.43-.37.39-.468-.058-.215-.234-.391-.351-.567-.117.117-.372.235-.352.332.02.215.176.41.313.704Zm12.444-4.356v.176c.332.02.644.059.976.078 0-.078 0-.156.02-.254h-.996ZM95.684 13.859c-2.11.039-4.22.058-6.33.117-.566.02-1.132.137-1.758-.156 7.99-1.427 16-2.853 23.97-4.26.156.06.313.08.371.157.645.82-.156 2.11.918 2.852.098.079-.156.86-.39 1.192-.508.723-1.114 1.387-1.68 2.07 1.035.528 2.246 1.153 3.34 1.72.059.469-.019 1.094.195 1.211.645.371.294 1.055.489 1.328.469.645.215.919-.059 1.485-.332.703-.312 1.582-.469 2.462.469.547.938 1.289 1.583 1.777.723.547-.02 1.407.703 2.032.371.312.117 1.582-.156 2.305-.567 1.504-.41 2.833.215 4.278.742 1.72-.469 3.75-2.286 3.83-1.914.097-3.829.038-5.743-.02-.489-.02-.977-.274-1.583-.45-.332.43-.703.918-1.074 1.387-1.055-.293-2.051-.547-3.106-.84-.235.508-.41.918-.625 1.368-1.895-1.544-2.872-2.11-3.751.039-1.328-.059-2.696-.235-4.044-.176-1.348.059-2.676.352-4.22.547 1.466-1.72 1.602-1.758 3.4-1.075a380.6 380.6 0 0 0 2.09-1.386c-.86-.567-2.305.195-2.793-1.114.175-.469.351-.938.664-1.758-2.071.938-3.79 1.172-5.548.762l-.235-.47c.332-.175.684-.331 1.016-.488-.176-.195-.254-.351-.332-.351-.332-.02-.703-.117-.957.02-2.09 1.172-4.161.37-6.33.078.372-1.153 1.426-.352 2.13-.977-.391-.157-.704-.43-.977-.371-1.133.195-2.422-.079-3.243 1.191-.508.782-.84.645-1.934-.469-1.68.274-3.067 1.856-4.962 1.211-.39-1.758-.312-1.797 2.579-1.797.058-.156.176-.312.195-.488.04-.176 0-.371 0-.508.489.293.977.586 1.563.957.254-.684.293-1.309.606-1.504.507-.313 1.21-.527 1.816-.488 2.638.097 4.962-.958 7.775-1.798-1.191-.586-2.07-.312-2.91-.312-.958 0-1.934.02-2.892.117a5.246 5.246 0 0 0-1.64.45c-.704.332-1.31.449-2.11-.508l22.68-3.673c.274-.645.04-1.133-.586-1.114-.703.02-1.407-.566-2.188.137-.313.293-1.309.098-1.817-.176-.703-.37-1.367-.312-1.797.117-1.113 1.133-2.344.684-3.575.45-.45-.078-.879-.176-1.328-.274-.958-.195-1.622.86-2.716.47-.781-.274-1.758-.04-2.637-.04-.098 0-.195-.117-.41-.273.684-.313 1.29-.586 2.168-.997-.723.04-1.192.078-1.7.117.47-.957.47-.957 2.892-1.23-.078-.45-.176-.899-.254-1.348a57.87 57.87 0 0 0 1.914-.45c.586-.156 1.172-.351 2.032-.605-.156.8-.254 1.25-.371 1.895 1.074-.547 2.032-1.016 2.93-1.485-.84 0-1.426-.488-1.563-1.465 1.446-1.27 1.778-1.23 2.286.371 3.243.332 4.708-.43 5.47-3.008-.957.137-1.797.293-2.657.371-1.66.156-3.321.293-4.981.39-.176.02-.372-.234-.567-.37-.234-.157-.45-.43-.684-.43-.625-.02-1.25.058-1.875.117-.254.02-.528.02-.762.117-1.114.547-2.207 1.133-3.438 1.778-.938-1.485-2.598-.488-4.18-1.075 1.132-.86 2.03-.879 2.969-.488 1.035.43 1.035.41 1.504-.586 2.93-.508 5.802-1.035 8.673-1.524.508-.078 1.036 0 1.524-.117.567-.137 1.407 0 1.446-.957.41-.059.8-.098 1.211-.156-.078-.176-.137-.332-.215-.508-.234.37-.567.605-.879.84Zm.996 23.93c3.79-.078 10.217-1.29 11.35-2.227-1.621.45-3.262.938-4.747-.117-1.895 2.149-4.005.918-6.134.547a44.867 44.867 0 0 0-.469 1.797Zm10.53-13.46c0-.097 0-.214-.02-.312-1.328-.059-2.657-.137-3.985-.195-1.231-.04-1.524.156-2.129 1.504 2.129-.332 4.141-.664 6.134-.997Zm-12.972 9.827c-1.308-1.094-2.324-.508-3.692.527 1.504-.195 2.598-.352 3.692-.527Zm3.497-19.985c.996-.254 2.012-.508 3.009-.762-2.266-.586-2.286-.586-3.009.762Zm7.502 2.384V16.3h-1.622v.255h1.622ZM81.501 32.144v-.157h-1.62v.157h1.62Zm8.557-2.892c-.04-.175-.059-.351-.098-.527a7.57 7.57 0 0 0-.957.215c-.04.02.02.312.039.488.332-.058.684-.117 1.016-.176Zm-16.625 4.865c.02.117.02.234.04.351.332-.02.644-.058.976-.078-.02-.117-.02-.254-.039-.371-.332.02-.644.059-.977.098ZM99.278 17.12c.098.098.176.215.274.313.215-.235.449-.47.664-.704-.058-.058-.117-.136-.195-.195-.235.195-.489.39-.743.586Zm.84 1.348c.079.156.137.313.215.469.332-.156.645-.313.977-.45-.039-.117-.078-.214-.117-.332-.371.098-.723.215-1.075.313ZM111.644 2.137c-.489.254-.879.606-1.27.606-1.68.059-3.36.02-5.04-.02-1.211-.019-2.442-.234-3.634-.136-3.34.293-6.642.762-9.982 1.055-.762.058-1.583-.352-2.579-.586 1.211-.743 1.192-.684 2.09-.293.352.156.977.273 1.212.078 1.523-1.25 3.36-1.465 5.196-1.68 3.653-.41 7.326-.782 10.979-1.153.254-.02.527 0 .781.02 1.582.136 1.622.175 2.247 2.11ZM90.449 7.454c.254-.136.527-.39.781-.39 3.282.097 6.27-1.23 9.436-1.72.39-.058.761-.175 1.152-.156.977.059 1.544-.39 1.7-1.191.586 0 1.035.058 1.465-.02 1.192-.195 2.383-.508 3.575-.664.41-.059.859.156 1.27.313.625.234 1.23.547 2.051.918-1.465.84-2.598 2.266-4.493 2.442-.313.02-.762.078-.899-.098-.762-.899-1.133-.04-1.641.41-.488-.351-.957-.684-1.524-1.094-4.043 1.797-8.458 1.192-12.717 1.739-.059-.156-.098-.313-.156-.489ZM24.733 5.283c1.094-.37 1.777-.742 2.5-.82.918-.117 1.876-.02 2.813.039.625.039 1.387.41 1.856.176 2.07-1.055 4.2-.41 6.29-.372 2.052.06 4.103.489 6.154.723.235.04.547.059.742-.039 1.68-.937 3.165.274 4.806.528-.254.078-.508.234-.742.215-.703-.04-.703-.06-2.462.625-.273.117-.762.175-.937.02-1.348-1.173-2.95-.724-4.26-.352-2.382.683-4.629.039-6.934-.118-1.739-.097-3.419-.351-5.196-.117-1.387.196-2.872-.293-4.63-.508ZM51.358 14.29c-1.465.038-2.774.116-4.063.116-5.49.059-10.979.098-16.468.137-1.739.02-3.458.059-5.197.059-.332 0-.683-.157-.976-.45 2.441-.195 4.883-.468 7.345-.586 1.992-.097 3.985.02 5.938-.664.919-.312 2.052-.234 3.048-.058 2.032.37 4.044.234 6.075 0 .762-.098 1.485-.079 2.169.546.488.47 1.309.587 2.129.9ZM91.62 10.262c6.994-.919 13.871-2.54 20.981-3.107-.097 1.563-1.113 1.68-2.07 1.837-2.305.351-4.611.644-6.916.977-1.895.254-3.81.39-5.684.683-1.876.274-3.673.489-5.548.332-.254-.02-.489-.117-.723-.175 0-.215-.02-.372-.04-.547ZM66.48 33.96h2.343c-.097-.332-.175-.567-.351-1.192.8.606 1.348 1.035 2.031 1.543-.156.41-.332.86-.566 1.465a286.576 286.576 0 0 1-3.458-1.816Z"/><path d="M59.036 31.205c-1.485-.703-3.223.918-4.708-.566 1.954-.723 3.731-.547 4.708.566ZM1.075 36.092c1.72.098 1.407 1.485 1.72 2.598-2.325.313-1.055-1.817-1.72-2.598ZM94.218 18.118c2.07-.528 2.07-.528 2.579.508-1.915.43-2.13.39-2.579-.508ZM21.959 36.442c.195.234.449.527.722.82.117-.078-.02.078-.176.098-1.328.117-2.656.195-4.043.078 1.21-.352 2.422-.684 3.497-.996ZM63.276 35.23c.02-.468.039-.84.058-1.23 1.075-.273 1.505.371 2.09 1.348-.859-.039-1.484-.078-2.148-.117ZM53.039 19.115c-1.055.723-2.052-.02-3.087-.43h3.047c.02.137.02.274.04.43ZM86.874 11.438c1.152-.215 2.305-.43 3.79-.704-.938.977-.938.977-3.79.704ZM59.64 37.32c-.859-.47-1.445-.802-2.148-1.173.957-.39 1.797-.82 2.5.117.098.157-.195.606-.351 1.055ZM22.076 38.769c.742.253 1.992-.547 2.168 1.015-1.074.391-1.895.332-2.168-1.015ZM30.73 45.137c1.25-1.114 1.328-1.114 2.559-.196-.801.88-1.563.372-2.56.196ZM10.588 31.364c-.78.273-1.27 2.05-2.578.39.977-.156 1.778-.273 2.579-.39ZM2.247 34.722c.957-.977 1.68-1.113 2.637 0H2.247ZM2.618 27.378c-.86.04-1.72.098-2.579.137-.02-.137-.02-.293-.039-.43.8-.527 1.68-.43 2.56-.234.038.176.058.352.058.527ZM10.178 33.472h2.227c-.879 1.347-.879 1.347-2.227 0ZM41.669 9.834c1.426-.938 1.426-.938 1.777.254-.527-.06-.957-.137-1.777-.254ZM15.57 19.526c.84-.06 1.66-.118 2.5-.176v.41c-.82-.059-1.66-.098-2.48-.156 0 0 0-.04-.02-.078ZM84.822 8.137h2.012c-.938.8-1.485.762-2.012.449v-.45ZM88.514 40.368c-.84.04-1.7.078-2.54.117-.019-.078-.019-.175-.038-.254.84-.117 1.66-.215 2.5-.332.04.157.059.313.078.47ZM38.485 9.562c.586-.078 1.172-.156 1.953-.274-.781.586-.781.586-1.953.274ZM88.163 7.962c.508.059 1.016.098 1.524.157-.527.664-1.035.82-1.524-.157ZM23.95 41.147h-2.09c.82-.957 1.446-.547 2.09 0ZM17.856 24.505h1.973v.215h-1.992c0-.058 0-.136.02-.215ZM86.249 38.472c-.39-.078-.782-.156-1.153-.234.02-.098.02-.195.04-.293h1.19a4.89 4.89 0 0 0-.077.527ZM3.048 31.869c.664-.04 1.328-.098 1.992-.137-.664.86-1.328.391-1.992.137ZM33.505 12.453h.996c-.02.136-.02.254-.039.39-.332-.039-.664-.097-.977-.136 0-.079.02-.176.02-.254ZM80.877 25.19a62.03 62.03 0 0 0-.918.234c-.039-.097-.058-.195-.097-.293.293-.097.566-.215.86-.312.038.117.097.254.155.37ZM53.723 25.66c.645-.352.996-.547 1.621-.899-.195 1.114-.566 1.25-1.621.899ZM12.034 29.196c.117-.156.176-.313.234-.313.156 0 .313.079.47.117-.06.098-.118.255-.196.255-.157.019-.313-.04-.508-.06ZM55.48 26.87h1.114v.118h-1.113c.02-.04 0-.078 0-.117ZM90.195 36.953a4.63 4.63 0 0 1 .488-.313c.078.137.195.254.215.41.02.079-.176.254-.215.235-.156-.059-.273-.176-.488-.332ZM19.673 38.453c.215.078.45.136.664.234.02.02-.04.215-.059.313a34.035 34.035 0 0 1-.683-.176c.02-.117.058-.235.078-.371ZM29.323 44.157c.215.39.41.586.371.762-.02.175-.253.332-.41.488-.137-.156-.371-.313-.371-.469 0-.195.195-.39.41-.781ZM70.757 30.66c-.293-.02-.606-.039-.899-.039 0-.078-.02-.136-.02-.215.294-.039.587-.078.9-.117 0 .117.019.254.019.371ZM62.494 30.68c.312-.078.625-.156.938-.215.038.078.097.176.136.254-.136.117-.273.293-.41.313-.195.039-.43-.059-.645-.098 0-.078-.02-.156-.02-.254ZM11.566 27.166c.235-.098.43-.255.508-.215.176.078.293.273.45.41-.176.058-.332.156-.489.137-.137 0-.254-.157-.469-.332ZM83.904 22.105c.274-.059.547-.118.802-.176.019.097.038.215.058.312-.273.04-.547.059-.82.098a.73.73 0 0 1-.04-.234ZM35.125 9.094l-.762.293c-.039-.118-.137-.313-.117-.332.234-.137.488-.235.723-.352.058.117.097.254.156.39Z"/></g><defs><clipPath id="a"><path fill="#fff" d="M0 0h116.848v45.443H0z"/></clipPath></defs></svg>