<svg width="197" height="62" viewBox="0 0 197 62" fill="none" xmlns="http://www.w3.org/2000/svg">
<path d="M35.7604 39.2018C31.8191 39.3166 27.8969 39.4122 23.9557 39.5462C23.8026 39.5462 23.6687 39.7566 23.286 40.0627C23.9748 40.1775 24.4149 40.3306 24.8741 40.3306C26.7108 40.3497 28.5475 40.2732 30.4033 40.2923C31.226 40.3115 32.0487 40.4454 32.8522 40.5984C33.0627 40.6367 33.3688 41.0385 33.3497 41.2681C33.3497 41.4785 33.0053 41.842 32.7949 41.8612C32.3165 41.9186 31.8 41.8612 31.3408 41.7464C30.7668 41.6125 30.2311 41.4403 29.8102 42.0334C29.5041 41.1342 29.5041 41.1341 28.7579 41.2489C29.1597 41.5168 29.5041 41.7464 29.8485 41.9951C28.0118 41.9951 26.1942 42.0142 24.3575 41.9951C23.9748 41.9951 23.5922 41.8994 23.2095 41.9186C21.5259 42.0525 19.8231 42.263 18.1969 41.5359C17.9482 41.4211 17.5463 41.4977 17.2785 41.5933C17.0871 41.6699 16.8576 41.9377 16.8576 42.129C16.8576 42.3204 17.0681 42.6456 17.2403 42.6839C17.9864 42.8369 18.7517 42.9135 19.4978 42.99C23.0373 43.3152 26.5768 43.6596 30.1163 43.9466C31.7426 44.0805 33.3688 44.0805 35.0142 44.0805C38.8598 44.0805 42.7055 43.6788 46.5893 43.9657C49.0383 44.1379 51.5255 43.851 53.9745 43.7744C54.204 43.7744 54.4527 43.8318 54.778 43.8892C54.5292 44.7693 53.8596 44.8841 53.2665 44.8841C50.7984 44.865 48.3303 44.7884 45.8814 44.7502C45.1161 44.731 44.37 44.7884 43.6047 44.8076C43.1072 44.8267 42.5715 44.9415 42.0932 44.8267C40.7539 44.5015 39.6634 44.6736 39.032 46.5677C38.7833 45.8407 38.6685 45.5537 38.5537 45.2285C37.5206 44.7884 36.5065 44.8076 35.3777 45.2667C34.5359 45.6111 33.5218 45.592 32.4696 45.7451C32.393 46.166 32.2974 46.6251 32.2017 47.1417C31.5895 47.1417 31.0155 47.1417 30.4607 47.1417L30.4798 47.18C30.7094 46.7591 30.939 46.3573 31.2834 45.7259C29.8485 45.0372 28.2605 45.4772 26.7873 45.2859C25.3141 45.0946 23.8217 45.2476 21.9468 45.2476C24.0896 46.3956 25.6967 46.8165 27.1125 46.7208C26.7107 47.3139 26.7107 47.3139 21.5833 47.1226C21.1623 48.1557 22.119 48.3279 22.6738 48.7871C22.4634 49.0358 22.2529 49.2463 21.9277 49.6098C22.7313 49.8394 23.42 50.0498 24.2044 50.2794C23.9748 50.3942 23.8026 50.5473 23.6878 50.5281C21.0284 49.8968 18.2351 50.5664 15.5949 49.6289C15.0783 49.4376 14.4661 49.5524 13.8921 49.5141C13.4329 49.495 12.9929 49.5141 13.012 48.8062C13.012 48.6532 12.4763 48.4045 12.1702 48.3471C11.2901 48.194 10.41 48.1175 9.26202 47.9644C9.83599 47.754 10.1804 47.62 10.7161 47.4096C10.3717 47.0843 10.1613 46.893 9.96995 46.7208C10.2952 46.2425 10.6204 45.7259 11.0987 45.0372C10.3143 44.6545 9.66383 44.3484 9.01333 44.0231C9.56817 43.9466 10.1803 43.8509 10.9456 43.7361C10.7926 43.2578 10.6586 42.8943 10.563 42.5691C11.6344 42.5117 12.6484 42.4351 14.026 42.3586C12.725 40.8472 11.3475 41.7846 10.2378 41.3829C9.05158 40.962 7.84618 40.6367 6.35386 40.1775C7.80792 39.9671 8.9942 39.7949 10.1613 39.6418C10.4865 38.1495 9.16639 39.0678 8.72635 38.4173C8.9942 37.9199 9.30026 37.3459 9.62551 36.772C10.1612 36.772 10.6012 36.772 11.0413 36.772C10.8691 37.1355 10.7161 37.4799 10.3526 38.2452C11.0414 37.9008 11.3475 37.7477 11.6919 37.5947C11.3857 37.2503 11.1944 37.0207 11.0031 36.7911C11.3857 36.5232 11.7684 36.2745 12.151 36.0067C12.1319 35.8727 12.1127 35.758 12.0936 35.624C10.9648 35.5092 9.83601 35.3944 8.7072 35.2796C11.7301 33.9978 14.8487 33.5195 18.0056 33.2707L17.9481 33.2707C18.7517 33.4238 19.5361 33.6534 20.3397 33.7108C23.1138 33.8638 25.9072 33.9404 28.6814 34.0552C28.8536 34.0552 29.0257 34.1891 29.2171 34.4952C28.4326 34.5717 27.6483 34.6291 26.6916 34.7248C27.2847 35.9684 28.4518 35.0118 29.1406 35.7197C28.2031 36.6763 27.1891 35.471 26.1942 35.8536C25.295 36.2171 24.2235 36.1023 23.3052 36.1789C23.4008 36.6954 23.4965 37.1737 23.6305 37.939C24.3384 37.9773 25.3141 38.0921 26.2898 38.1112C28.9492 38.1304 31.6087 38.1112 34.2681 38.1112C35.0143 38.073 35.8178 38.073 35.7604 39.2018ZM23.133 34.8779C24.7784 35.471 24.7784 35.471 25.7159 35.0883C24.9506 34.0169 24.9506 34.0169 23.133 34.8779ZM19.2682 37.2503C19.2682 37.3842 19.2874 37.5181 19.2874 37.6521C19.5552 37.6329 19.804 37.5947 20.0718 37.5755C20.0718 37.4799 20.0718 37.4033 20.0718 37.3077C19.804 37.2885 19.5361 37.2694 19.2682 37.2503Z" fill="white"/>
<path d="M17.9282 33.2709C16.742 33.1752 15.5749 33.003 14.3887 32.9839C13.1642 32.9648 11.9015 33.3666 10.3901 32.8117C11.0597 32.3717 11.538 32.0656 11.9972 31.7786C11.1745 30.1141 11.2319 29.9993 13.1261 29.234C12.3799 28.4304 11.3467 29.2148 10.6005 28.6791C10.4284 27.359 12.2459 27.8947 12.3798 26.7276C11.8441 26.6128 11.2893 26.498 10.6579 26.3832C12.1502 25.7136 13.566 25.1014 15.2688 24.3361C14.1591 23.6473 13.2982 23.9917 12.4181 24.0108C13.2599 23.3221 14.0635 22.6716 15.0775 21.8297C14.1591 21.294 13.4896 20.9114 12.7434 20.4713C14.1783 19.4765 15.6515 18.4624 17.4308 17.2571C16.436 17.1614 15.728 17.104 14.8288 17.0275C17.1821 15.9561 18.2917 13.5263 20.9129 12.7992C20.7981 13.2393 20.7215 13.5454 20.6067 14.0046C20.9511 14.215 21.3529 14.4446 21.7547 14.6934C21.2955 15.9561 22.0034 17.0658 23.9932 17.9459C22.6157 18.5007 21.4486 18.9599 20.3389 19.3999C20.2624 20.3374 20.1859 21.1984 20.1094 22.1167C23.3428 21.7915 26.5952 21.4471 30.0008 21.1027C30.0582 21.7723 30.0965 22.3654 30.1539 23.0351C32.1628 23.6664 33.655 21.7532 35.6257 21.9254C35.6257 22.4037 35.6257 22.9394 35.6257 23.5516C35.2622 23.7812 34.8413 24.0491 34.4204 24.3169C34.2673 24.4126 34.0186 24.5848 33.9229 24.5465C32.0288 23.4369 30.2495 25.2736 28.2789 24.6613C26.5761 24.1447 26.5378 24.4509 25.543 25.9815C25.0838 26.6894 24.6437 27.4355 23.6297 27.6842C22.9027 27.8564 22.2713 28.4878 21.372 29.0809C23.1705 29.8845 24.2993 28.9087 25.5047 28.4113C25.6768 28.8131 25.83 29.1957 26.0404 29.6932C25.2177 29.961 24.395 30.2289 23.6489 30.4776C23.7063 32.4865 25.3707 31.7594 26.4421 32.3908C24.2036 32.5056 21.9652 32.6204 19.7267 32.7543C19.0571 32.7926 18.2917 32.5056 17.8325 33.29C17.8899 33.2709 17.9282 33.2709 17.9282 33.2709ZM27.6284 22.6524C25.7343 22.1741 24.4524 22.6716 22.8453 23.5899C24.6628 23.6664 26.0212 23.7812 27.6284 22.6524ZM21.64 30.5541C21.2382 30.7837 20.8364 31.0133 20.205 31.3577C21.2573 31.7977 21.6591 31.5873 21.64 30.5541Z" fill="white"/>
<path d="M136.702 11.977C138.539 11.5178 139.954 12.2066 141.16 13.8137C141.102 13.9476 140.949 14.3112 140.815 14.6747C142.04 15.6504 142.04 15.6504 143.456 14.579C144.795 15.3634 146.326 15.2869 147.34 14.3112C146.23 14.1198 145.178 13.9476 144.125 13.7755C144.125 13.6607 144.106 13.5459 144.106 13.4119C144.355 13.3163 144.623 13.2206 144.986 13.0676C144.584 12.8188 144.221 12.6084 143.532 12.1875C144.297 11.9196 144.795 11.5752 145.178 11.6709C146.077 11.8813 146.938 12.2831 147.799 12.6658C148.583 13.0102 149.329 13.4119 150.343 13.9094C150.382 14.3303 150.133 15.3252 151.338 15.3826C152.237 15.4208 153.041 14.7512 153.481 13.4885C154.151 14.005 154.763 14.5025 155.375 14.9617C155.72 15.2104 156.083 15.6504 156.446 15.6504C158.321 15.6887 160.196 16.5114 162.033 15.9757C163.487 15.5548 164.731 16.1287 166.127 16.1287C166.3 17.0854 165.898 17.7167 165.152 17.755C164.061 17.7933 162.952 17.5828 161.861 17.4297C161.23 17.3341 160.617 17.1427 159.948 17.3341C160.216 17.4106 160.503 17.468 160.751 17.5445C159.948 18.5012 158.819 18.7116 157.652 18.6925C156.006 18.6542 154.361 18.5968 152.716 18.482C152.333 18.4629 151.989 18.2333 151.625 18.0802C151.625 17.9272 151.644 17.7741 151.644 17.6211C152.869 17.4871 154.112 17.3532 155.471 17.2001C155.241 16.8558 155.145 16.6644 155.107 16.6644C153.711 16.9132 152.371 16.7027 150.994 16.3775C149.827 16.0905 149.654 16.4349 149.559 18.042C147.626 18.042 145.694 18.0611 143.762 18.0228C143.436 18.0228 143.111 17.6976 142.786 17.5063C143.092 17.3149 143.379 17.1045 143.743 16.8749C142.805 16.3775 142.805 16.3775 142.843 17.5445C141.963 17.4297 141.16 17.0088 140.299 18.0037C139.916 18.4438 138.634 18.195 137.773 18.0994C136.472 17.9272 135.19 17.5254 133.87 17.4106C133.162 17.3532 132.416 17.6976 131.727 17.9272C131.632 17.9654 131.689 18.4437 131.67 18.769C130.809 19.056 130.025 18.9221 129.412 18.0802C128.934 17.4106 128.341 17.1236 127.442 17.4106C127.078 17.5254 126.543 17.1045 125.873 16.8366C125.28 17.3149 124.495 17.4297 123.386 17.1045C121.951 16.6836 120.363 16.8366 118.832 16.7027C118.124 16.6453 117.397 16.5114 116.441 16.3775C116.326 16.4731 115.982 16.741 115.656 17.0471C115.101 17.5637 115.14 17.4489 114.145 17.0854C113.552 16.8749 112.786 17.028 112.117 17.1236C111.581 17.2001 111.103 17.3532 110.854 16.5305C111.198 16.2818 111.562 15.9757 111.964 15.727C112.385 15.4591 112.844 15.2486 113.284 15.0191C113.246 14.7895 113.188 14.5599 113.131 14.292C113.877 14.292 114.604 14.292 115.369 14.292C116.919 16.0139 116.919 16.0139 119.311 14.8277C119.636 14.6747 120.076 14.5025 120.382 14.579C121.549 14.9043 122.2 14.5025 122.333 13.3354C123.156 13.278 123.845 13.2206 124.629 13.1632C124.266 12.4553 123.845 12.1109 123.041 12.1301C121.587 12.1492 120.114 12.0918 118.66 12.0153C117.608 11.9579 116.46 11.6518 116.651 13.3354C114.891 13.1441 114.891 13.1441 114.91 12.2066C114.126 12.1492 113.341 12.0918 112.538 12.0344C112.499 11.9387 112.461 11.8431 112.423 11.7474C112.959 11.5178 113.494 11.0969 114.03 11.0969C116.077 11.0969 118.124 11.2882 120.172 11.3074C121.09 11.3074 122.008 11.0395 122.946 10.9439C124.132 10.8099 125.337 10.5995 126.466 11.3265C126.887 11.5944 127.404 11.7092 127.691 11.8048C127.499 12.0727 127.078 12.3979 127.117 12.704C127.174 13.3163 127.729 13.4693 128.284 13.3354C129.068 13.1441 129.852 12.8954 130.637 12.6849C131.268 12.5318 131.9 12.4362 132.187 13.3928C131.115 14.0433 130.063 13.4119 129.049 13.4885C128.092 13.565 126.964 13.1058 126.37 14.5025C127.212 14.9425 127.978 14.9425 128.877 14.7703C130.12 14.5407 131.307 13.7563 132.722 14.3877C133.048 14.5407 133.851 13.6224 134.502 13.1632C134.75 13.565 135.114 14.139 135.535 14.8086C136.53 14.8086 137.601 15.6313 138.768 14.5025C137.658 13.9476 136.683 13.4693 135.669 12.9528C136.051 12.6084 136.415 12.264 136.778 11.9196L136.702 11.977ZM125.586 13.6798C124.974 13.7372 124.266 13.3545 124.132 14.3303C124.113 14.5407 124.419 14.9808 124.61 15.0191C125.509 15.153 125.529 14.4642 125.586 13.6798ZM123.233 15.44C123.156 15.2869 123.08 15.1338 123.003 14.9999C121.989 14.8086 121.683 15.6887 121.262 16.4348C121.913 16.0905 122.582 15.7652 123.233 15.44ZM130.312 15.8226C129.527 14.8851 128.915 15.4208 128.264 15.8226C128.953 15.8226 129.623 15.8226 130.312 15.8226ZM154.552 15.4591C154.055 15.1912 153.577 14.6938 153.271 15.6313C153.538 15.7078 153.787 15.8417 153.998 15.8035C154.189 15.8035 154.361 15.593 154.552 15.4591Z" fill="white"/>
<path d="M52.7109 23.455C52.9022 23.7037 53.1127 24.0098 53.3614 24.3351C52.6726 25.483 51.5821 25.6361 50.3767 25.8274C49.4392 23.0341 47.5643 24.2585 45.6893 24.8516C45.7658 24.2394 45.8232 23.8185 45.8806 23.3784C45.7849 23.3211 45.6893 23.2828 45.5936 23.2254C45.077 23.9524 44.5796 24.6603 43.8909 25.6361C43.8143 23.9907 42.9343 23.3402 41.6141 23.1106C42.2264 22.7662 42.762 22.4601 43.3169 22.1348C45.0005 22.9193 45.5554 22.7088 46.4546 20.9869C46.7224 20.4512 47.0477 19.9346 47.4495 19.2458C48.3679 19.1884 49.4967 19.0354 50.6063 19.1119C51.0273 19.1502 51.4099 19.7242 52.0221 20.2407C49.9176 21.0252 51.0846 22.7088 50.4724 24.2394C51.3525 23.9333 52.003 23.7037 52.7109 23.455Z" fill="white"/>
<path d="M71.767 24.1456C72.5323 24.1456 72.9148 24.1456 73.6993 24.1456C71.9199 25.504 70.4085 26.4989 68.3422 26.3267C68.3039 28.6034 66.5056 27.3216 65.5489 27.7808C66.3142 27.2833 67.0221 26.6711 67.8257 26.3076C68.6675 25.9249 69.605 25.7336 70.4851 25.1214C69.8345 25.0831 69.1649 25.0448 68.4953 24.9874C68.1318 24.4517 67.7682 23.8969 67.2899 23.1507C68.61 22.902 69.892 22.7872 71.0782 22.3663C71.7095 22.1367 72.3791 21.5053 72.647 20.874C73.0105 20.013 73.8141 19.8982 74.3115 19.9173C75.6508 19.9939 76.9518 20.3765 78.6737 20.7209C78.0423 21.2949 77.6979 21.6393 77.3344 21.9836C76.0143 20.7018 75.6126 20.6252 74.7325 21.8306C74.235 22.5385 73.6993 22.9211 72.8958 23.1316C72.5322 23.2081 72.2835 23.629 71.767 24.1456Z" fill="white"/>
<path d="M86.9196 22.2497C86.0586 21.2166 85.0637 21.0253 83.8393 21.427C83.9349 21.9436 84.0306 22.4028 84.1645 23.1298C83.514 23.2829 82.8827 23.4359 82.2513 23.5507C81.7347 23.6464 81.2181 23.7229 81.352 24.4691C81.3712 24.6221 81.2756 24.9283 81.2182 24.9283C80.2233 24.9474 80.1659 25.8657 79.8981 26.3823C79.1136 26.2484 78.444 26.1527 77.5639 26.0188C78.9223 25.0239 77.4299 24.1247 77.6595 22.9385C78.0039 23.0724 78.2718 23.1872 78.7118 23.3785C79.5154 22.7854 80.472 22.0775 81.5434 21.274C81.1416 21.0444 80.7781 20.8339 80.3381 20.5852C80.4337 20.413 80.5294 20.126 80.625 20.126C81.2947 20.0878 81.9835 20.1069 82.6723 20.1069C83.3993 20.126 84.1454 20.2026 84.8725 20.1834C86.0396 20.1452 86.977 20.9487 86.9196 22.2497ZM80.8355 22.7472C81.5817 23.3211 82.1556 23.015 82.8253 22.5941C81.7156 22.0967 81.7156 22.0967 80.8355 22.7472Z" fill="white"/>
<path d="M38.0553 30.2087C37.1561 30.1131 36.5438 30.0365 35.9316 29.96C35.9316 28.8695 36.4481 28.372 37.6343 28.3338C37.8831 29.3286 38.1318 30.3618 38.4379 31.6054C40.332 31.7967 42.3218 31.835 44.2925 31.3949C44.7516 31.2993 45.096 31.108 45.4786 31.5097C45.5934 31.6245 45.823 31.6819 45.9952 31.6819C49.2286 31.4906 52.4811 32.1602 55.6762 31.2802C55.8293 31.2419 56.0206 31.3567 56.3267 31.4141C55.9058 32.1794 55.2361 32.0837 54.6622 32.0837C49.6495 32.0837 44.6559 32.0072 39.6432 32.0263C36.4673 32.0454 33.2913 32.2368 30.1153 32.3516C29.8666 32.3516 29.6371 32.3516 29.3884 32.275C32.0669 31.5289 34.9558 32.409 37.5578 31.108C37.7683 31.0314 37.8257 30.7062 38.0553 30.2087Z" fill="white"/>
<path d="M35.7406 39.2205C36.9842 37.6325 38.8401 37.996 40.4855 37.8621C42.2266 37.709 44.0058 37.8238 45.766 37.8812C47.2775 37.9386 48.789 38.0534 50.3004 38.1682C50.5109 38.1873 50.7213 38.3786 51.0274 38.5508C48.5593 38.9909 46.2444 39.1822 43.8337 38.9526C41.1743 38.7039 38.4574 39.0865 35.7406 39.2205C35.7406 39.2205 35.7598 39.2013 35.7406 39.2205Z" fill="white"/>
<path d="M101.499 45.5533C107.009 44.5967 112.577 45.3046 118.087 44.6158C118.106 44.8263 118.106 45.0367 118.125 45.2472C115.351 45.362 112.596 45.5915 109.822 45.5533C107.047 45.5341 104.273 46.3377 101.499 45.5533Z" fill="white"/>
<path d="M102.436 15.6112C101.671 16.2234 101.001 16.74 100.465 17.1609C98.1313 17.1609 95.931 17.1609 93.5011 17.1609C94.4004 15.5729 95.931 15.592 96.9641 15.7068C98.0738 15.8216 98.9539 15.6686 99.7958 15.1711C100.829 14.5397 101.537 14.9224 102.436 15.6112Z" fill="white"/>
<path d="M58.6612 24.432C58.2786 24.4894 57.8576 24.5659 57.4367 24.6233C57.341 23.7623 56.2314 23.0927 57.4367 22.1169C56.614 22.1169 56.0592 22.1169 55.3896 22.1169C55.4852 21.3708 55.5809 20.7011 55.6766 20.0124C57.6855 19.4193 57.6854 19.4193 58.8716 20.1654C58.6229 20.5098 58.3742 20.8351 58.0298 21.2943C58.3168 21.5812 58.6229 21.8682 58.9673 22.1935C58.8716 22.8631 58.776 23.5901 58.6612 24.432Z" fill="white"/>
<path d="M60.1154 20.0881C61.0337 19.9733 61.7799 19.8585 62.5261 19.7628C63.3296 19.6672 64.1332 19.5907 64.9368 19.4567C65.6829 19.3228 66.697 19.7054 66.8883 20.2412C67.1179 20.8725 66.6778 21.4848 65.6447 21.9248C65.549 21.657 65.4724 21.3891 65.3959 21.1212C60.5937 21.7717 60.5937 21.7717 60.1154 20.0881ZM62.2582 20.7195C62.1817 20.8343 62.0861 20.9299 62.0095 21.0447C62.1817 21.083 62.373 21.1786 62.5452 21.1595C62.6983 21.1404 62.8322 20.9873 62.9852 20.9108C62.8896 20.796 62.813 20.5855 62.7174 20.5664C62.5835 20.5281 62.4113 20.6621 62.2582 20.7195Z" fill="white"/>
<path d="M63.1378 45.8593C64.2474 45.955 65.2232 46.0698 66.1989 46.0889C66.9451 46.108 67.806 46.1846 68.4374 45.8785C69.7958 45.2088 71.1351 45.8976 72.4743 45.6489C72.6083 45.6297 72.8187 45.955 73.1631 46.2802C72.6274 46.5098 72.2639 46.7585 71.9004 46.7968C70.7715 46.8925 69.6236 46.8925 68.4757 46.9307C67.2703 46.969 66.0842 47.0073 64.8788 47.0647C64.037 47.0838 63.2717 47.0647 63.1378 45.8593Z" fill="white"/>
<path d="M67.6919 43.5647C66.8883 43.8134 66.3909 44.1195 65.9317 44.0813C63.6359 43.89 61.4356 44.5979 59.178 44.6553C58.6805 44.6744 58.1831 44.8083 57.6857 44.8657C57.016 44.9422 56.3272 45.0953 55.715 44.5213C56.7673 43.756 57.7622 43.603 61.3782 43.5838C63.3297 43.5647 65.3003 43.5647 67.6919 43.5647Z" fill="white"/>
<path d="M169.878 27.2811C171.657 26.1714 173.417 27.262 174.852 26.6497C176.459 25.961 178.067 26.1906 179.731 25.9992C179.884 26.8411 179.425 27.2428 178.832 27.262C175.962 27.3002 173.073 27.2811 169.878 27.2811Z" fill="white"/>
<path d="M124.764 45.3228C125.243 45.0358 125.721 44.7488 125.836 44.6914C127.462 44.6149 128.687 44.5767 129.93 44.481C130.791 44.4236 131.461 44.5193 131.288 45.8968C130.37 45.9159 129.452 45.9542 128.533 45.9542C127.596 45.9733 126.658 46.0307 125.74 45.935C125.415 45.8968 125.128 45.495 124.822 45.2654L124.764 45.3228Z" fill="white"/>
<path d="M45.2686 25.4645C46.2061 25.6941 47.6601 25.0244 48.2915 26.842C47.067 26.7846 47.5453 29.4823 45.5747 28.3152C45.6129 28.1239 45.6513 27.8943 45.7278 27.5308C44.8094 27.416 43.8911 27.3203 43.1449 27.2246C43.6997 26.7846 44.3503 26.2298 45.2686 25.4645Z" fill="white"/>
<path d="M103.431 11.3827C104.866 11.3827 106.225 11.3827 107.698 11.3827C107.736 11.9184 107.774 12.435 107.832 13.1429C106.167 13.2385 104.637 13.3151 103.087 13.3916C103.183 12.7602 103.298 12.1671 103.431 11.3827ZM106.339 12.7411C105.785 12.4732 105.613 12.301 105.44 12.3202C105.23 12.3393 105.019 12.5115 104.828 12.6263C104.847 12.7028 104.885 12.7794 104.905 12.875C105.23 12.8368 105.574 12.8176 106.339 12.7411Z" fill="white"/>
<path d="M56.1928 46.3959C58.3548 44.9801 60.0576 46.3385 61.7987 46.3768C60.689 47.0464 57.9147 47.0655 56.1928 46.3959Z" fill="white"/>
<path d="M164.961 18.1557C166.568 18.1557 168.156 18.1557 169.935 18.1557C169.973 18.481 170.165 18.9593 170.012 19.2654C169.859 19.5524 169.074 19.8585 169.036 19.8202C167.965 18.3853 166.262 19.1315 164.923 18.6723C164.942 18.481 164.961 18.3088 164.961 18.1557Z" fill="white"/>
<path d="M75.0967 45.9943C76.7038 45.5734 78.3683 45.8986 80.339 45.669C80.0137 46.243 79.8989 46.6639 79.7458 46.683C78.1961 46.7404 76.6656 46.7213 75.1159 46.7213C75.1159 46.4726 75.1158 46.2239 75.0967 45.9943Z" fill="white"/>
<path d="M62.3731 26.9755C63.1384 26.8224 63.7123 26.7076 64.5159 26.5354C64.3246 27.6068 64.0185 28.353 64.1716 29.1948C64.2672 29.7305 64.1333 29.7688 62.9279 29.9792C62.9853 29.5201 63.1575 29.08 63.081 28.6591C62.9662 28.1617 62.6984 27.7216 62.3731 26.9755Z" fill="white"/>
<path d="M62.3924 39.7376C63.8465 39.6802 65.3005 39.6037 66.7546 39.5846C66.9076 39.5846 67.0607 39.9098 67.4625 40.3499C65.5684 40.3499 64.0186 40.3499 62.4498 40.3499C62.4115 40.1394 62.3924 39.9481 62.3924 39.7376Z" fill="white"/>
<path d="M47.2781 40.2735C45.5753 41.0962 44.1212 40.9048 42.648 40.3883C44.1021 40.4839 45.4988 38.9533 47.2781 40.2735Z" fill="white"/>
<path d="M178.717 28.9661C177.014 29.7888 175.656 29.5784 174.259 29.0618C175.196 28.5069 176.593 28.4495 178.717 28.9661Z" fill="white"/>
<path d="M99.7381 20.3946C99.3363 22.2887 98.9919 22.4801 97.423 21.6765C97.9779 20.1268 97.9779 20.1268 99.7381 20.3946Z" fill="white"/>
<path d="M52.3092 46.0132C53.2275 46.0897 54.1267 46.1471 55.1407 46.2428C54.5094 46.855 54.0502 47.295 53.5145 47.7925C53.1318 47.4098 52.6345 46.9124 52.137 46.4341C52.2135 46.281 52.2518 46.1471 52.3092 46.0132Z" fill="white"/>
<path d="M48.1384 29.8461C48.8081 29.3487 49.4776 28.8321 50.1664 28.3156C50.7595 28.6791 51.2761 28.9852 51.8501 29.3296C51.4483 30.2097 50.7978 30.114 50.1855 30.0566C49.4968 29.9992 48.8081 29.9227 48.1384 29.8461C48.1384 29.8461 48.1193 29.8461 48.1384 29.8461Z" fill="white"/>
<path d="M158.13 15.075C158.628 14.788 158.934 14.5967 159.24 14.4053C159.451 14.2714 159.776 13.9844 159.852 14.0418C160.847 14.6923 161.88 14.5584 163.143 14.0227C162.301 15.1706 162.301 15.1706 158.13 15.075Z" fill="white"/>
<path d="M43.0303 45.8209C44.5417 46.127 46.0532 46.4331 47.4881 46.701C44.6756 47.3706 43.9678 47.2941 43.0303 45.8209Z" fill="white"/>
<path d="M91.3011 43.4101C93.6544 43.4101 96.0268 43.4101 98.3801 43.4101C98.3801 43.5249 98.3801 43.6206 98.3801 43.7354C96.0268 43.7354 93.6735 43.7354 91.3011 43.7354C91.3011 43.6397 91.3011 43.5249 91.3011 43.4101Z" fill="white"/>
<path d="M38.3615 41.8804C37.5006 40.4454 35.9317 41.3638 34.5159 40.7707C35.6064 40.1967 36.5056 40.0054 37.4622 40.1776C38.4571 40.3307 38.5911 40.5985 38.3615 41.8804Z" fill="white"/>
<path d="M23.0176 13.2009C22.788 11.9956 23.2854 11.5747 24.0507 11.4407C24.7012 11.326 25.4857 11.0964 25.7344 12.34C24.8735 12.6078 24.0125 12.8757 23.0176 13.2009Z" fill="white"/>
<path d="M76.1484 43.4115C77.7937 43.4881 79.4391 43.5646 81.295 43.6603C80.3192 43.8325 79.5539 44.0238 78.7694 44.0812C77.9085 44.1386 77.0285 44.1003 76.1675 44.1003C76.1675 43.8516 76.1675 43.622 76.1484 43.4115Z" fill="white"/>
<path d="M86.2501 25.4661C85.9631 24.7008 85.7718 24.1842 85.4657 23.3806C86.1736 23.3806 86.7284 23.2467 87.1111 23.438C87.3598 23.5528 87.5129 24.2607 87.3981 24.5668C87.2641 24.9304 86.7476 25.1217 86.2501 25.4661Z" fill="white"/>
<path d="M104.33 20.9875C104.866 20.1266 104.866 20.1266 106.358 19.5335C106.626 19.9161 106.913 20.337 107.353 20.9875C106.148 20.9875 105.268 20.9875 104.33 20.9875Z" fill="white"/>
<path d="M24.721 48.8625C25.9263 48.8243 27.17 48.0781 28.7197 48.9008C27.1126 49.7426 25.9263 49.1113 24.721 48.8625Z" fill="white"/>
<path d="M172.844 48.3663C175.293 48.3663 177.474 48.3663 179.674 48.3663C177.436 48.6533 175.197 48.8829 172.844 48.3663Z" fill="white"/>
<path d="M167.027 34.1312C168.347 34.0355 169.38 33.959 170.471 33.8633C169.801 35.2026 169.782 35.2026 167.027 34.1312Z" fill="white"/>
<path d="M158.246 12.5312C160.178 12.5312 162.11 12.5312 164.004 12.5312C163.22 13.0095 163.22 13.0095 161.345 12.8947C160.331 12.8373 159.336 12.7608 158.322 12.6842C158.303 12.646 158.265 12.5886 158.246 12.5312Z" fill="white"/>
<path d="M183.692 11.8223C184.916 11.7649 185.911 11.3057 186.638 12.3962C185.28 13.0467 185.069 13.0276 183.692 11.8223Z" fill="white"/>
<path d="M97.8059 12.3014C100.083 12.1101 100.083 12.1101 100.905 12.8371C99.547 14.0999 98.8199 12.4162 97.8059 12.3014Z" fill="white"/>
<path d="M119.655 23.4741C120.707 22.2305 121.855 22.6514 123.271 23.0723C122.927 23.3976 122.64 23.7611 122.563 23.7037C121.645 23.2445 120.688 23.2063 119.655 23.4741Z" fill="white"/>
<path d="M169.82 13.5264C168.596 13.3542 167.352 13.182 165.936 12.9907C167.41 12.7611 168.73 11.9192 169.82 13.5264Z" fill="white"/>
<path d="M53.9357 27.1854C55.5428 26.975 56.8055 26.8219 58.2213 26.6497C57.0542 27.7403 57.0543 27.7403 53.9357 27.1854Z" fill="white"/>
<path d="M48.1197 29.8462C46.1682 29.8462 44.2166 29.8462 42.2651 29.8462C44.2166 29.7314 46.1682 29.1957 48.1197 29.8462C48.1197 29.8462 48.1388 29.8462 48.1197 29.8462Z" fill="white"/>
<path d="M34.4202 49.0352C32.8131 49.0352 31.225 49.0352 29.6179 49.0352C29.6179 48.9204 29.6179 48.8247 29.6179 48.7099C31.2824 48.7864 32.947 48.863 34.5923 48.9204C34.5349 48.9586 34.4776 48.9969 34.4202 49.0352Z" fill="white"/>
<path d="M112.577 23.2644C113.954 22.2121 113.954 22.2121 114.834 23.36C114.05 24.2593 113.323 23.8001 112.577 23.2644Z" fill="white"/>
<path d="M96.7541 24.4892C98.1508 23.3412 98.1508 23.3412 99.05 24.3935C98.323 24.8909 97.7108 25.5414 96.7541 24.4892Z" fill="white"/>
<path d="M73.3931 39.9861C72.2643 40.0435 71.1354 40.0818 70.0066 40.1392C70.0066 40.0052 70.0066 39.8904 70.0066 39.7565C71.1354 39.5269 72.2643 39.2017 73.3931 39.9861Z" fill="white"/>
<path d="M49.7457 39.8532C50.9127 39.968 51.678 40.0254 52.7494 40.1401C51.4484 41.0968 51.1997 41.0776 49.7457 39.8532Z" fill="white"/>
<path d="M69.4716 28.5636C69.7203 29.0036 69.969 29.4437 70.2751 30.0176C69.4142 30.1707 68.7063 30.3046 67.9792 30.4194C67.941 30.3238 67.9027 30.2472 67.8644 30.1516C68.0749 30.0559 68.2854 29.9603 68.4958 29.8646C68.7063 29.7498 68.9933 29.6541 69.089 29.4819C69.1846 29.2524 69.108 28.9462 69.108 28.6593C69.2228 28.621 69.3377 28.5827 69.4716 28.5636Z" fill="white"/>
<path d="M35.4157 26.4199C36.6593 26.0564 37.5394 25.7885 38.5342 25.5015C38.0559 26.7834 37.8072 26.8599 35.4157 26.4199Z" fill="white"/>
<path d="M151.434 31.1077C152.429 30.8016 153.156 30.3806 153.577 31.5286C152.353 31.8538 152.353 31.8538 151.434 31.1077Z" fill="white"/>
<path d="M118.928 20.2803C119.12 20.0699 119.196 19.9168 119.292 19.8977C119.827 19.7637 120.459 19.4768 120.765 20.2038C120.841 20.3951 120.688 20.8352 120.497 20.9882C120 21.39 119.579 21.1795 118.928 20.2803Z" fill="white"/>
<path d="M92.3728 21.9245C91.9711 22.6132 91.5502 23.302 90.9954 24.2395C90.6892 22.3263 90.6892 22.3263 92.3728 21.9245Z" fill="white"/>
<path d="M99.6427 23.9922C99.4896 23.1122 99.5279 22.519 100.427 22.5573C100.676 22.5764 101.078 22.9974 101.078 23.2269C101.097 24.2218 100.37 23.9922 99.6427 23.9922Z" fill="white"/>
<path d="M152.257 22.3067C153.137 22.5171 153.941 22.7085 154.725 22.8807C153.902 23.8755 153.252 23.7608 152.257 22.3067Z" fill="white"/>
<path d="M74.3688 43.9846C73.6035 43.9846 72.8191 43.9846 72.0538 43.9846C72.0538 43.889 72.0538 43.8124 72.0538 43.7168C72.8574 43.7168 73.6609 43.7168 74.4644 43.7168C74.4453 43.7933 74.407 43.889 74.3688 43.9846Z" fill="white"/>
<path d="M150.153 12.6256C151.033 12.5299 151.798 11.3054 152.965 12.3386C152.047 13.0273 151.167 13.1804 150.153 12.6256Z" fill="white"/>
<path d="M60.4981 13.0099C60.632 12.589 60.6512 12.0341 60.9382 11.7854C61.2826 11.4793 61.8757 11.3262 62.2966 12.2637C61.8566 12.589 61.3782 12.9334 60.8999 13.2969C60.766 13.1821 60.632 13.0864 60.4981 13.0099Z" fill="white"/>
<path d="M52.8453 27.2432C52.0609 27.3772 51.3531 27.492 50.4347 27.645C51.6018 26.191 51.927 26.1527 52.8453 27.2432Z" fill="white"/>
<path d="M25.3519 27.2826C26.2128 26.4982 26.9781 26.5748 27.8964 27.2253C26.9972 27.5888 26.2511 27.8758 25.3519 27.2826Z" fill="white"/>
<path d="M57.9153 40.2539C57.2074 40.2539 56.4995 40.2539 55.4281 40.2539C56.4612 39.3738 57.1691 39.3738 57.9153 40.2539Z" fill="white"/>
<path d="M60.2686 31.8359C61.5313 31.7019 62.8132 31.568 64.0759 31.4341C62.8514 32.2759 61.5313 31.8167 60.2686 31.8359Z" fill="white"/>
<path d="M30.4026 47.1238C29.9434 47.296 29.4842 47.4873 28.9485 47.6978C28.7189 47.3151 28.5085 46.9516 28.2407 46.4924C29.2356 46.2437 29.8095 46.7411 30.4218 47.1429C30.4218 47.162 30.4026 47.1238 30.4026 47.1238Z" fill="white"/>
<path d="M108.463 16.2814C107.564 17.3337 106.34 16.8745 105.192 17.0276C105.555 16.4727 106.129 16.5493 106.665 16.511C107.258 16.4536 107.851 16.3579 108.463 16.2814Z" fill="white"/>
<path d="M34.421 30.0371C33.2539 30.1136 32.1059 30.171 30.9388 30.2476C30.9197 30.1519 30.9198 30.0562 30.9006 29.9606C32.0486 29.8266 33.1965 29.6736 34.3444 29.5397C34.3827 29.6927 34.4018 29.8649 34.421 30.0371Z" fill="white"/>
<path d="M158.876 20.4326C157.901 20.49 157.308 20.5091 156.638 20.5474C157.346 19.2081 157.346 19.2081 158.876 20.4326Z" fill="white"/>
<path d="M49.459 45.9352C50.0521 46.1456 50.6452 46.3561 51.5827 46.7005C50.2626 46.9109 50.2625 46.9109 49.3442 46.3561C49.3824 46.2222 49.4207 46.0691 49.459 45.9352Z" fill="white"/>
<path d="M107.583 23.4935C106.818 24.0484 106.34 24.4119 105.842 24.7754C105.536 23.4553 105.689 23.3022 107.583 23.4935Z" fill="white"/>
<path d="M134.712 18.6914C135.88 18.6914 137.066 18.6914 138.233 18.6914C138.233 18.7296 138.233 18.7679 138.233 18.8062C137.066 18.8062 135.918 18.8062 134.751 18.8062C134.751 18.7679 134.732 18.7296 134.712 18.6914Z" fill="white"/>
<path d="M124.821 45.2859C124.075 45.3624 123.348 45.4198 122.602 45.4963C122.563 45.3815 122.525 45.2668 122.506 45.152C123.08 44.8841 123.673 44.6354 124.285 44.3484C124.496 44.7502 124.63 45.0372 124.764 45.305C124.764 45.3241 124.821 45.2859 124.821 45.2859Z" fill="white"/>
<path d="M83.131 45.8218C82.6336 47.1036 82.0213 46.8932 80.9308 46.2427C81.8491 46.0705 82.3657 45.9748 83.131 45.8218Z" fill="white"/>
<path d="M70.3131 48.251C69.1461 48.251 68.2277 48.251 67.3285 48.251C68.2086 48.0597 69.1078 47.5431 70.3131 48.251Z" fill="white"/>
<path d="M39.1075 24.2597C39.8345 23.5709 40.3319 23.4561 40.7529 24.0875C40.8294 24.2022 40.7146 24.5849 40.5615 24.7188C39.8154 25.3502 39.6432 24.5466 39.1075 24.2597Z" fill="white"/>
<path d="M95.7588 46.5486C95.2231 46.606 94.6873 46.6634 93.7881 46.759C94.5917 45.6302 95.1657 46.1277 95.7588 46.5486Z" fill="white"/>
<path d="M163.583 34.2843C164.119 34.1695 164.674 34.0355 165.21 33.9207C165.248 33.9973 165.286 34.0738 165.324 34.1695C165.171 34.246 165.018 34.3416 164.865 34.4182C164.693 34.4947 164.521 34.5521 164.329 34.5904C164.119 34.6286 163.889 34.6478 163.679 34.686C163.641 34.533 163.602 34.4182 163.583 34.2843Z" fill="white"/>
<path d="M157.748 34.3036C158.207 34.208 158.647 34.0932 159.45 33.921C158.857 34.7245 158.494 35.1454 157.748 34.3036Z" fill="white"/>
<path d="M61.3786 27.3973C60.7855 27.4356 60.1924 27.493 59.4653 27.5312C60.1732 26.766 60.1732 26.766 61.3786 27.3973Z" fill="white"/>
<path d="M96.0268 11.709C95.4145 11.8046 94.8023 11.8811 94.19 11.9768C94.7066 11.1924 95.338 11.288 96.0268 11.709Z" fill="white"/>
<path d="M136.741 11.9387C135.899 12.0152 135.038 12.0726 134.043 12.1492C134.942 11.1926 134.942 11.1925 136.703 11.977C136.703 11.977 136.741 11.9387 136.741 11.9387Z" fill="white"/>
<path d="M177.205 12.6659C177.76 12.532 178.315 12.3981 179.1 12.2259C178.621 13.393 177.894 13.0103 177.32 13.0677C177.282 12.9338 177.244 12.7999 177.205 12.6659Z" fill="white"/>
<path d="M83.6287 43.5632C84.5279 43.5249 85.408 43.4866 86.3072 43.4292C86.3072 43.5058 86.3263 43.6014 86.3263 43.6779C85.4462 43.7736 84.5661 43.8501 83.686 43.9458C83.6669 43.831 83.6478 43.6971 83.6287 43.5632Z" fill="white"/>
<path d="M88.3169 13.087C87.5707 13.1827 87.2263 13.2209 86.8245 13.2783C86.8053 13.0105 86.7289 12.8 86.7863 12.6852C86.9011 12.4556 87.1114 12.2834 87.2836 12.0921C87.5515 12.3408 87.8194 12.5896 88.3169 13.087Z" fill="white"/>
<path d="M65.7206 24.6803C64.9553 24.7377 64.5152 24.7568 63.8455 24.8142C64.0177 24.4698 64.0751 24.3359 64.1325 24.202C64.6873 23.341 65.0892 23.7045 65.7206 24.6803Z" fill="white"/>
<path d="M174.03 12.8945C174.585 12.7797 175.159 12.6458 175.714 12.531C175.752 12.6841 175.771 12.8563 175.81 13.0093C175.255 13.1815 174.662 13.1432 174.03 12.8945Z" fill="white"/>
<path d="M151.109 40.0628C151.473 39.9862 151.856 39.9097 152.219 39.8141C152.257 39.948 152.296 40.0819 152.334 40.2158C151.97 40.3306 151.626 40.4646 151.263 40.5793C151.224 40.4072 151.167 40.235 151.109 40.0628Z" fill="white"/>
<path d="M57.7051 29.9021C57.9538 29.5195 58.2025 29.1368 58.4512 28.7733C58.9869 29.022 58.7956 29.4238 57.7051 29.9021Z" fill="white"/>
<path d="M136.683 24.1062C136.511 23.5896 136.339 23.3218 136.396 23.1304C136.454 22.9009 136.684 22.6521 136.913 22.5565C137.028 22.4991 137.468 22.8243 137.449 22.8817C137.372 23.1113 137.181 23.3409 136.683 24.1062Z" fill="white"/>
<path d="M71.3465 27.6265C70.8873 27.6648 70.4281 27.6839 69.988 27.7222C69.988 27.5691 69.9689 27.4352 69.9689 27.2821C70.4281 27.2821 70.8873 27.2821 71.3465 27.2821C71.3273 27.3969 71.3273 27.5117 71.3465 27.6265Z" fill="white"/>
<path d="M80.434 39.6805C80.9315 39.6805 81.4098 39.6805 81.9072 39.6805C81.9072 39.7571 81.9263 39.8336 81.9263 39.9101C81.448 40.0058 80.9697 40.0823 80.4914 40.178C80.4722 40.0058 80.4531 39.8527 80.434 39.6805Z" fill="white"/>
<path d="M86.1543 16.5093C85.5803 16.5667 85.0063 16.6432 84.2219 16.7197C84.8341 15.5335 85.4847 15.9162 86.0969 16.0692C86.116 16.2223 86.1351 16.3753 86.1543 16.5093Z" fill="white"/>
<path d="M133.412 20.2034C133.928 20.0121 134.521 19.4764 134.885 20.873C134.273 20.7965 133.813 20.7391 133.354 20.7009C133.373 20.5287 133.392 20.3756 133.412 20.2034Z" fill="white"/>
<path d="M80.549 27.8186C80.2046 27.8186 79.8411 27.8568 79.5159 27.7803C79.4393 27.7612 79.4585 27.3785 79.4202 27.1681C79.7837 27.1681 80.1472 27.1681 80.5298 27.1681C80.5298 27.3976 80.549 27.6081 80.549 27.8186Z" fill="white"/>
<path d="M158.398 40.2736C157.805 40.331 157.193 40.3693 156.217 40.4458C157.155 39.7188 157.805 39.9292 158.398 40.2736Z" fill="white"/>
<path d="M77.4304 16.6062C77.1243 16.281 76.8182 15.9557 76.4929 15.5922C77.7365 14.846 77.5643 15.8218 77.4304 16.6062Z" fill="white"/>
<path d="M39.7586 12.1865C40.4283 12.263 40.8109 12.3013 41.3849 12.3778C40.7918 13.1622 40.4091 13.2005 39.7586 12.1865Z" fill="white"/>
<path d="M138.156 23.8184C138.271 23.2253 138.329 22.8617 138.424 22.3834C139.285 23.4357 139.285 23.4357 138.156 23.8184Z" fill="white"/>
<path d="M85.1216 15.3434C84.6432 15.4199 84.1458 15.4965 83.6675 15.573C83.6292 15.4008 83.5909 15.2286 83.5527 15.0373C84.031 14.9034 84.5284 14.7694 85.0067 14.6355C85.045 14.8651 85.0833 15.1138 85.1216 15.3434Z" fill="white"/>
<path d="M78.4633 48.0988C79.0373 48.0797 79.6303 48.0414 80.2043 48.0223C80.2043 48.0797 80.2043 48.1562 80.2043 48.2136C79.6303 48.2136 79.0373 48.2136 78.4633 48.2136C78.4633 48.1754 78.4633 48.1371 78.4633 48.0988Z" fill="white"/>
<path d="M38.362 41.8804C38.9169 41.4403 39.4908 41.0577 40.5623 41.5934C39.6248 41.7082 38.9934 41.7847 38.362 41.8804Z" fill="white"/>
<path d="M140.434 39.2019C140.127 39.068 139.821 38.9149 139.515 38.7619C139.515 38.7619 139.63 38.4557 139.649 38.4557C139.955 38.5514 140.261 38.6853 140.567 38.8001C140.548 38.9341 140.491 39.068 140.434 39.2019Z" fill="white"/>
<path d="M61.5119 22.7869C61.1867 23.8201 60.804 23.954 59.9622 23.1696C60.5553 23.0165 60.938 22.9208 61.5119 22.7869Z" fill="white"/>
<path d="M87.9528 15.5729C88.2398 15.3625 88.546 15.1711 88.833 14.9607C88.9095 15.1138 89.0817 15.3625 89.0626 15.3816C88.7947 15.5921 88.4886 15.7642 88.2016 15.9556C88.1251 15.8216 88.0294 15.6877 87.9528 15.5729Z" fill="white"/>
<path d="M117.13 43.2183C117.627 43.2183 118.125 43.2183 118.622 43.2183C118.622 43.2757 118.622 43.3139 118.622 43.3713C118.125 43.3713 117.627 43.3713 117.13 43.3713C117.13 43.3139 117.13 43.2757 117.13 43.2183Z" fill="white"/>
<path d="M54.0695 28.5066C54.3373 28.3344 54.6051 28.1814 54.873 28.0092C54.9304 28.1814 55.0643 28.4684 55.0261 28.4875C54.7582 28.6214 54.4712 28.7171 54.2033 28.8127C54.1651 28.7171 54.1077 28.6214 54.0695 28.5066Z" fill="white"/>
<path d="M82.9781 26.863C83.399 26.7865 83.8199 26.7099 84.413 26.6143C84.0686 27.5709 83.5712 27.4752 82.9781 26.863Z" fill="white"/>
<path d="M68.6678 20.3954C69.5861 20.1467 70.1027 20.0319 70.6958 19.8597C70.1027 20.5485 70.1027 20.5485 68.6678 20.3954Z" fill="white"/>
<path d="M89.4075 25.5802C89.6754 25.9628 89.9624 26.3263 90.3642 26.9194C89.2545 26.7281 89.1397 26.2498 89.4458 25.5419C89.4458 25.5419 89.4075 25.5802 89.4075 25.5802Z" fill="white"/>
<path d="M169.84 22.1549C170.012 22.4228 170.222 22.6332 170.184 22.7672C170.127 22.9585 169.859 23.1689 169.687 23.1689C169.514 23.1689 169.361 22.9011 169.208 22.748C169.38 22.595 169.553 22.4228 169.84 22.1549Z" fill="white"/>
<path d="M174.375 22.1552C174.623 21.9831 174.872 21.7726 174.891 21.8109C175.044 21.9448 175.197 22.1361 175.255 22.3274C175.274 22.3848 174.987 22.6336 174.929 22.6144C174.757 22.5188 174.604 22.3466 174.375 22.1552Z" fill="white"/>
<path d="M94.7835 26.2878C94.5539 26.3452 94.3243 26.4027 94.0947 26.4409C94.0756 26.3453 94.0564 26.2305 94.0182 26.1348C94.2478 26.0774 94.4774 26.0391 94.707 25.9817C94.7452 26.0965 94.7643 26.1922 94.7835 26.2878Z" fill="white"/>
<path d="M30.4788 26.5556C30.804 26.5174 31.1293 26.46 31.4546 26.4217C31.4737 26.5365 31.4928 26.6513 31.5311 26.7661C31.2058 26.8617 30.8805 26.9383 30.5553 27.0339C30.5362 26.8617 30.5171 26.7087 30.4788 26.5556Z" fill="white"/>
<path d="M74.2164 27.4355C74.5034 27.2633 74.6947 27.0911 74.886 27.072C74.9817 27.0528 75.1156 27.3016 75.2304 27.4163C75.0582 27.5694 74.9243 27.7607 74.733 27.8181C74.6565 27.8373 74.4843 27.6268 74.2164 27.4355Z" fill="white"/>
<path d="M30.3257 15.7649C30.0005 15.7649 29.6752 15.7649 29.3691 15.7649C29.3691 15.6692 29.3691 15.5736 29.3691 15.4588C29.6944 15.4588 30.0196 15.4588 30.3257 15.4588C30.3257 15.5544 30.3257 15.6501 30.3257 15.7649Z" fill="white"/>
<path d="M118.527 12.9142C118.756 12.7803 118.928 12.5889 119.024 12.6081C119.215 12.6846 119.349 12.8759 119.502 13.029C119.33 13.1055 119.177 13.2395 119.005 13.2203C118.871 13.2203 118.737 13.0673 118.527 12.9142Z" fill="white"/>
<path d="M75.0196 40.2727C74.8857 40.177 74.8091 40.1196 74.7326 40.0431C74.8665 39.9666 74.9813 39.8518 75.1343 39.8135C75.1917 39.7944 75.3066 39.9283 75.3831 40.0048C75.2492 40.1005 75.1153 40.1962 75.0196 40.2727Z" fill="white"/>
<path d="M189.814 12.1103C190.177 12.0337 190.56 11.9763 190.924 11.8998C190.943 12.0146 190.981 12.1485 191 12.2633C190.617 12.3399 190.235 12.4164 189.852 12.4929C189.852 12.3781 189.833 12.2442 189.814 12.1103Z" fill="white"/>
<path d="M131.938 11.575C132.245 11.4985 132.551 11.4219 132.857 11.3645C132.876 11.3645 132.933 11.6515 132.972 11.8237C132.646 11.9003 132.34 11.9577 132.015 12.0342C131.996 11.862 131.977 11.7089 131.938 11.575Z" fill="white"/>
<path d="M48.4825 40.9039C48.6164 41.057 48.7312 41.1909 48.8268 41.3057C48.6929 41.4205 48.5781 41.5927 48.4442 41.5927C48.3485 41.6118 48.2146 41.4205 48.0998 41.3057C48.1955 41.21 48.3103 41.0952 48.4825 40.9039Z" fill="white"/>
<path d="M126.945 42.9147C126.582 42.9338 126.218 42.9721 125.874 42.9912C125.874 42.9529 125.874 42.9147 125.874 42.8764C126.237 42.8764 126.601 42.8764 126.964 42.8764C126.945 42.8764 126.945 42.8955 126.945 42.9147Z" fill="white"/>
<path d="M34.4395 47.2952C34.2291 46.9508 34.076 46.7977 34.0951 46.7021C34.1525 46.5681 34.3056 46.4151 34.4587 46.3768C34.5352 46.3577 34.7457 46.5681 34.7457 46.6829C34.7457 46.8551 34.5926 47.0082 34.4395 47.2952Z" fill="white"/>
<path d="M37.0799 47.8699C36.8694 47.2959 36.7546 47.1046 36.7929 47.0089C36.8312 46.9133 37.0608 46.875 37.1947 46.8558C37.233 46.8558 37.3478 47.0472 37.3287 47.1428C37.3287 47.2959 37.233 47.449 37.0799 47.8699Z" fill="white"/>
<path d="M50.2051 50.2031C49.9373 50.1649 49.6694 50.1075 49.4015 50.0692C49.4206 49.9735 49.4398 49.897 49.459 49.8013C49.7268 49.8779 49.9756 49.9544 50.2434 50.0118C50.2434 50.0883 50.2242 50.1457 50.2051 50.2031Z" fill="white"/>
<path d="M156.007 24.0667C156.18 23.8563 156.275 23.6458 156.409 23.6076C156.524 23.5693 156.696 23.7032 156.849 23.7415C156.753 23.8754 156.677 24.0476 156.543 24.1241C156.447 24.1815 156.256 24.105 156.007 24.0667Z" fill="white"/>
<path d="M55.6574 23.8386C55.8487 23.9534 56.0591 24.0299 56.0974 24.1639C56.1357 24.2595 55.9061 24.5656 55.8679 24.5465C55.6765 24.4891 55.4852 24.3552 55.313 24.2595C55.4087 24.1256 55.5235 23.9917 55.6574 23.8386Z" fill="white"/>
<path d="M89.4455 25.54C89.2159 25.3486 88.9672 25.1573 88.5654 24.8129C88.9098 24.7173 89.1394 24.6599 89.369 24.6025C89.369 24.9277 89.3881 25.2338 89.3881 25.5591C89.4072 25.5782 89.4455 25.54 89.4455 25.54Z" fill="white"/>
<path d="M41.3079 36.6385C41.5758 36.6577 41.8437 36.6768 42.1115 36.6959C42.1115 36.7151 42.1115 36.7533 42.1115 36.7725C41.8437 36.7725 41.5758 36.7725 41.3079 36.7725C41.3079 36.7342 41.3079 36.6959 41.3079 36.6385Z" fill="white"/>
<path d="M50.5878 36.6953C50.8173 36.6953 51.0469 36.6953 51.2574 36.6953C51.2574 36.7144 51.2574 36.7336 51.2574 36.7527C51.0278 36.7527 50.7982 36.7527 50.5686 36.7527C50.5877 36.7336 50.5878 36.7144 50.5878 36.6953Z" fill="white"/>
<path d="M155.815 36.8286C155.509 36.8477 155.222 36.8669 154.916 36.886C154.916 36.8286 154.916 36.7712 154.897 36.6947C155.203 36.6947 155.49 36.6947 155.796 36.6947C155.815 36.7329 155.815 36.7712 155.815 36.8286Z" fill="white"/>
<path d="M102.168 43.6783C101.9 43.6974 101.613 43.6974 101.345 43.7166C101.345 43.6783 101.345 43.64 101.345 43.6018C101.613 43.6018 101.9 43.6018 102.168 43.6018C102.149 43.64 102.149 43.6592 102.168 43.6783Z" fill="white"/>
</svg>
