<svg width="2000" height="58" viewBox="0 0 2000 58" fill="none" xmlns="http://www.w3.org/2000/svg">
<g clip-path="url(#clip0)">
<path fill-rule="evenodd" clip-rule="evenodd" d="M2000 0H-0.999985C-6.13271 6.18683e-05 -14.1442 3.08619 -19.8892 5.29924C-21.8188 6.04254 -23.4927 6.68735 -24.716 7.08366C-26.0906 7.08247 -27.4687 7.08844 -28.8484 7.09443C-30.7344 7.1026 -32.6234 7.11079 -34.5109 7.10072C-37.3164 7.07945 -40.125 7.05487 -42.9351 7.03028C-50.0777 6.96776 -57.2299 6.90517 -64.3645 6.89661C-65.7173 6.89122 -67.0833 7.04191 -68.4791 7.1959C-69.0726 7.26137 -69.6715 7.32744 -70.277 7.38236C-69.0825 8.96505 -69.0825 8.96505 -63.6887 8.53076L-63.8301 10.2008C-63.0504 10.0829 -62.2722 10.0252 -61.5155 9.96915C-59.6602 9.83167 -57.9343 9.7038 -56.6335 8.72102C-55.9914 8.22407 -53.1998 8.65952 -52.2663 9.276C-51.9827 9.48684 -51.7526 9.70733 -51.457 9.99043L-51.4559 9.99154C-51.2895 10.1509 -51.1024 10.3302 -50.8733 10.5387C-49.4242 10.1327 -48.0233 9.7503 -46.6224 9.36792L-46.6207 9.36744C-45.6882 9.11292 -44.7557 8.85839 -43.8089 8.59689C-42.3637 9.13746 -41.265 9.76772 -41.1219 10.7264C-41.4739 10.7592 -41.8218 10.7919 -42.1697 10.8246L-42.1713 10.8248C-42.9162 10.8948 -43.6607 10.9648 -44.4441 11.0355C-44.4989 11.1981 -44.5635 11.3609 -44.6346 11.54L-44.6351 11.5412C-44.7124 11.7358 -44.7976 11.9504 -44.8859 12.2043C-45.2511 12.176 -45.6462 12.1689 -46.0353 12.162C-46.8257 12.1478 -47.5918 12.1341 -48.0351 11.9441C-50.9115 10.6964 -54.0015 11.1658 -57.1298 11.641C-57.5081 11.6985 -57.8876 11.7561 -58.2667 11.8107C-58.3919 11.8292 -58.5205 11.8501 -58.6507 11.8712C-59.1977 11.96 -59.774 12.0537 -60.2535 11.9941C-61.928 11.816 -63.6002 11.6106 -65.2964 11.4022C-66.1817 11.2935 -67.0735 11.1839 -67.9757 11.077C-68.2485 11.1593 -68.473 11.2742 -68.7003 11.3906C-69.2791 11.687 -69.8762 11.9928 -71.3363 11.7916C-72.5831 11.6067 -74.0669 11.7439 -75.5626 11.8823C-76.5041 11.9693 -77.4502 12.0568 -78.3449 12.0647C-79.8687 12.079 -81.3874 12.0327 -82.9074 11.9864C-86.3073 11.8828 -89.7136 11.779 -93.1976 12.3519C-94.887 11.7506 -96.7145 12.0088 -98.4982 12.2608C-99.2182 12.3625 -99.9311 12.4632 -100.625 12.5059C-104.629 12.7254 -108.467 12.4986 -112.255 12.1866C-114.553 11.9955 -116.327 12.1962 -118.187 12.905C-118.861 13.1548 -119.661 13.3327 -120.519 13.5236C-120.956 13.6207 -121.408 13.7211 -121.866 13.8361C-122.41 13.5013 -122.91 13.2005 -123.464 12.8666C-123.657 12.7506 -123.857 12.6305 -124.067 12.5036C-125.081 12.8384 -126.008 13.1505 -126.979 13.4845C-126.991 13.4848 -127.019 13.4889 -127.055 13.4942C-127.139 13.5068 -127.265 13.5255 -127.324 13.5117C-129.235 12.7288 -131.37 13.0304 -133.511 13.3325C-135.406 13.6002 -137.305 13.8683 -139.056 13.3842C-139.517 13.2658 -140.681 13.35 -141.086 13.5683C-142.654 14.3774 -144.144 14.2563 -145.739 13.8627C-145.991 13.8039 -146.327 13.7255 -146.546 13.7716C-147.063 13.8694 -147.578 13.9929 -148.091 14.1161C-149.045 14.3452 -149.994 14.573 -150.947 14.6312C-151.374 14.6613 -151.76 14.5159 -152.159 14.3657C-152.885 14.0919 -153.654 13.8021 -154.796 14.5313C-155.047 14.683 -155.723 14.6781 -156.386 14.6734C-156.674 14.6713 -156.96 14.6692 -157.208 14.6801C-161.042 14.9176 -164.877 15.1551 -168.709 15.3714C-170.131 15.4602 -171.548 15.4857 -172.917 15.468C-174.244 15.4496 -175.57 15.4205 -176.897 15.3915C-178.223 15.3625 -179.549 15.3334 -180.876 15.315C-181.346 15.3023 -181.961 15.4823 -182.364 15.6794C-183.886 16.4454 -185.474 16.4738 -187.427 16.2555C-190.259 15.9278 -191.535 16.3051 -193.041 17.4612L-193.057 17.4539L-193.059 17.475L-193.041 17.4612C-192.886 17.5325 -192.721 17.6291 -192.556 17.7261C-192.197 17.9375 -191.834 18.1502 -191.569 18.1025C-189.442 17.79 -187.718 17.6748 -185.538 18.2478C-184.113 18.6233 -181.046 18.3363 -179.583 17.7613C-177.412 16.9204 -175.665 17.0369 -173.585 17.274C-173.233 17.3114 -172.883 17.3622 -172.534 17.4129C-171.026 17.6316 -169.539 17.8473 -168.073 16.9643C-167.862 16.8454 -167.324 16.8487 -166.853 16.8516C-166.72 16.8524 -166.591 16.8532 -166.478 16.8512C-165.781 16.8328 -165.083 16.8491 -164.385 16.8654C-162.588 16.9074 -160.788 16.9495 -158.982 16.4004C-158.569 16.2796 -157.853 16.4483 -157.081 16.6299C-156.703 16.7188 -156.312 16.8108 -155.937 16.8735C-155.285 16.7269 -154.572 16.5613 -153.967 16.4212C-153.437 16.2981 -152.991 16.1946 -152.746 16.1409L-152.124 16.2751C-150.005 16.7316 -148.436 17.0696 -146.939 17.4088L-145.951 16.9953C-144.972 16.5856 -144.115 16.2271 -143.207 15.8435C-142.723 15.9 -142.238 16.0006 -141.753 16.1012C-140.198 16.4237 -138.645 16.7456 -137.144 15.6084C-135.93 15.6775 -134.655 15.5789 -133.373 15.4799C-130.782 15.2798 -128.164 15.0775 -125.97 16.2526C-123.492 15.3217 -121.179 14.837 -118.162 15.6483C-117.479 15.8342 -116.586 15.8824 -115.644 15.9332C-114.679 15.9852 -113.663 16.04 -112.77 16.2483C-112.167 16.3888 -111.119 16.1483 -110.247 15.9483C-110.147 15.9251 -110.048 15.9026 -109.953 15.8812C-109.215 15.7096 -108.507 15.4973 -107.726 15.263C-107.258 15.1227 -106.764 14.9744 -106.221 14.8223C-104.594 15.8485 -102.607 15.6653 -100.557 14.7421C-100.034 14.969 -99.5605 15.1818 -99.093 15.3919C-98.6 15.6134 -98.1137 15.8319 -97.5831 16.0608C-97.5075 16.0238 -97.4183 15.9865 -97.3279 15.9487C-97.0975 15.8524 -96.8593 15.7528 -96.8195 15.646C-96.3043 14.6237 -95.2491 14.3093 -93.4053 14.8039C-89.5908 15.812 -88.6017 15.7732 -85.1089 14.5075C-82.1635 15.6579 -79.0948 16.3629 -75.1244 15.0254C-74.3303 14.7579 -72.8352 14.8155 -71.907 14.9888C-68.316 15.5999 -64.7607 15.6206 -61.3322 14.6094C-58.3636 15.4849 -55.5595 16.2791 -52.0022 15.2656C-51.5641 15.1522 -50.8809 15.1822 -50.3712 15.2364C-48.0767 15.4697 -45.784 15.7241 -43.2803 16.0169C-43.1141 16.5838 -43.7489 16.9963 -45.1188 16.9786C-46.4203 16.9596 -47.7278 16.8983 -49.0337 16.837C-51.6361 16.715 -54.232 16.5933 -56.7613 16.8072C-57.7509 16.8919 -58.7533 16.8115 -59.7615 16.7305C-61.612 16.582 -63.4825 16.4318 -65.3314 17.2983C-65.9449 17.5989 -67.5302 17.4668 -68.8288 17.3586C-69.0444 17.3406 -69.2525 17.3233 -69.4465 17.3087C-74.8581 16.9413 -80.3682 16.7234 -85.7514 17.5374C-89.0939 18.0405 -91.7872 17.9621 -94.5109 17.2299C-95.668 17.7361 -96.6909 18.1765 -98.1127 18.7719C-98.4167 18.3129 -98.6524 17.9465 -98.8881 17.5801C-99.0059 17.397 -99.1237 17.2139 -99.25 17.0192C-99.4987 17.0762 -99.7571 17.12 -100.009 17.1627C-100.465 17.2401 -100.9 17.3139 -101.215 17.4555C-102.682 18.0727 -104.079 18.3722 -105.985 18.1108C-106.632 18.0258 -107.419 18.1274 -108.178 18.2254C-108.414 18.2559 -108.648 18.2861 -108.873 18.3101C-109.066 18.3324 -109.288 18.3928 -109.489 18.4477C-109.739 18.516 -109.958 18.5757 -110.05 18.5423C-111.893 17.8064 -113.854 18.0704 -115.806 18.3335C-117.016 18.4964 -118.222 18.6589 -119.396 18.5831C-120.292 18.5252 -121.138 18.3837 -122.001 18.2393C-122.371 18.1776 -122.743 18.1153 -123.123 18.0589C-125.107 19.7196 -127.097 19.9451 -130.009 18.8997C-130.882 18.5776 -132.196 18.4114 -133.351 18.3898C-135.096 18.3627 -136.868 18.4066 -138.774 18.4538C-139.625 18.4749 -140.504 18.4967 -141.419 18.5131C-141.102 19.3306 -140.854 19.9383 -140.569 20.6297C-140.82 20.6415 -141.057 20.6628 -141.266 20.6818C-141.667 20.718 -141.966 20.7451 -142.073 20.6777C-146.06 18.6595 -150.708 18.8904 -155.739 20.0992C-156.745 20.3494 -158.441 20.6331 -159.022 20.4113C-161.738 19.3547 -163.739 20.027 -165.854 20.7377C-166.647 21.0043 -167.456 21.2762 -168.325 21.4644C-169.065 21.6206 -170.143 21.3761 -171.249 21.1255C-171.775 21.0062 -172.308 20.8855 -172.813 20.806C-177.818 22.2253 -177.819 22.2254 -181.558 21.8492C-181.673 22.1522 -181.781 22.4551 -181.896 22.7767L-181.896 22.7779C-182.055 23.2229 -182.227 23.7039 -182.449 24.2711C-181.727 24.1354 -181.128 24.0187 -180.592 23.9144C-179.931 23.7858 -179.366 23.676 -178.79 23.5724C-175.674 25.2473 -171.887 25.0529 -167.929 22.8502C-163.091 23.9245 -158.014 23.6858 -152.82 22.5797C-152.209 22.4478 -151.475 22.5105 -150.734 22.5739C-150.312 22.61 -149.888 22.6463 -149.483 22.6467C-147.381 22.6228 -145.278 22.5809 -142.995 22.5355L-142.992 22.5354C-141.782 22.5113 -140.52 22.4862 -139.182 22.4622C-136.544 23.1959 -133.16 23.7262 -129.194 22.9376C-128.584 22.8211 -127.804 22.7228 -127.166 22.7747C-122.915 23.1038 -119.15 22.1772 -115.409 21.2565L-114.942 21.1416C-111.011 22.2954 -110.117 23.377 -112.068 24.6572C-113.928 25.8725 -115.688 25.9039 -118.753 24.6502C-119.121 24.9518 -119.444 25.2316 -119.768 25.5113L-119.769 25.5126C-120.048 25.7709 -120.284 26.0284 -120.851 26.6506C-121.71 25.6985 -122.104 25.2832 -122.613 24.7463L-122.618 24.7406C-123.756 25.16 -124.868 25.5669 -126.05 25.9995L-126.052 26.0004L-127.218 26.427C-126.04 27.6934 -123.988 27.7622 -121.568 27.5289C-118.946 27.2739 -116.303 27.0548 -113.653 26.8352L-113.65 26.835C-112.808 26.7651 -111.964 26.6952 -111.121 26.6241C-110.69 26.5953 -110.262 26.6087 -109.881 26.6652C-106.535 27.133 -103.257 27.3909 -99.5622 26.776C-97.1031 26.3646 -94.63 26.5857 -92.187 26.8041C-91.2615 26.8868 -90.3401 26.9692 -89.4256 27.0166C-88.0182 27.0969 -86.8182 27.0965 -85.3499 26.9646C-79.3873 26.3935 -73.414 26.2023 -67.5338 26.6035C-66.526 26.6711 -65.5657 26.8357 -64.4746 27.0228C-63.9507 27.1126 -63.3967 27.2075 -62.7928 27.2994C-61.3539 26.4207 -59.5268 26.4609 -57.5685 26.504C-56.3285 26.5313 -55.0359 26.5598 -53.7559 26.3568C-53.4644 26.9637 -53.2088 27.4866 -52.8727 28.0716C-52.5722 28.2692 -51.9872 28.2942 -51.3799 28.3201C-50.346 28.3643 -49.2475 28.4111 -49.3782 29.3176C-49.8358 29.3007 -50.2939 29.2894 -50.7508 29.2781C-51.8297 29.2515 -52.9024 29.225 -53.9476 29.1251C-54.9743 29.0354 -55.9943 28.8666 -57.13 28.6787C-57.5471 28.6096 -57.9801 28.538 -58.4345 28.4667C-58.689 28.8131 -59.0004 29.1535 -59.3084 29.49C-60.4074 30.691 -61.4618 31.8433 -59.7227 33.0487C-58.8712 33.1146 -58.0514 33.1811 -57.2316 33.2476C-55.9199 33.354 -54.6081 33.4604 -53.1664 33.5645C-53.0399 33.131 -52.8987 32.6626 -52.7497 32.1684L-52.7485 32.1645C-52.6134 31.7164 -52.472 31.2472 -52.3293 30.7636C-50.3495 30.6648 -50.3566 31.2559 -50.6822 32.0638C-50.7427 32.2201 -50.8251 32.3789 -50.9091 32.5405C-51.2816 33.2581 -51.683 34.0313 -50.3213 34.8855C-50.1854 34.7114 -50.0932 34.5487 -50.0114 34.4042C-49.8618 34.14 -49.7466 33.9366 -49.461 33.836C-48.8392 33.6214 -48.1054 33.4744 -47.3761 33.3284C-47.1217 33.2774 -46.8675 33.2265 -46.6191 33.1729C-46.0874 33.9985 -44.8207 33.9771 -43.5479 33.9557C-42.8262 33.9435 -42.1026 33.9313 -41.5099 34.0734C-40.0398 34.427 -39.3046 33.8441 -38.904 33.1615C-38.5223 33.2989 -38.1422 33.4355 -37.761 33.5726L-37.759 33.5733C-36.1882 34.1379 -34.597 34.71 -32.7915 35.3737C-32.3615 34.8472 -32.0337 34.4362 -31.7059 34.0253L-31.7032 34.022C-31.4853 33.7487 -31.2672 33.4753 -31.019 33.1679C-30.4994 33.2403 -29.9329 33.2856 -29.3821 33.3295C-28.2267 33.4217 -27.1408 33.5084 -26.7036 33.8293C-25.3934 34.7724 -23.4568 34.8676 -21.5276 34.9624C-20.4234 35.0167 -19.3217 35.0709 -18.3413 35.2838C-16.6585 35.6547 -14.7555 34.9451 -14.471 33.6103C-14.0785 33.7299 -13.72 33.9408 -13.3662 34.1489C-12.3643 34.7381 -11.4 35.3051 -9.80861 33.7168C-9.42073 33.9916 -9.08234 34.2342 -8.77849 34.4521L-8.77744 34.4528C-8.35327 34.7569 -7.99648 35.0128 -7.66632 35.2404C-6.24768 35.2694 -4.83553 35.27 -3.43797 35.2706C-0.494461 35.2719 2.38428 35.2732 5.12241 35.539C9.59476 35.9886 14.1427 36.0367 18.7033 36.0851C20.686 36.1061 22.6712 36.1271 24.6534 36.1811C24.7702 36.1848 24.8969 36.1836 25.0246 36.1823C25.3642 36.179 25.7099 36.1757 25.8893 36.2645C28.4949 37.3787 31.1167 36.783 33.1824 36.1762C36.3317 36.4364 38.9285 36.6432 41.5681 36.8492L41.6542 36.8554C43.6983 37.0008 43.716 37.002 44.8907 38.6048C43.7763 38.5913 42.6872 38.5858 41.6157 38.5804C39.3117 38.5688 37.0895 38.5576 34.8739 38.4676C33.5535 38.4082 32.2675 38.2613 30.9783 38.1141C29.9748 37.9995 28.9693 37.8847 27.9439 37.8107C26.8798 37.7242 25.6763 37.7669 24.5532 37.8714C24.408 37.8831 24.2627 37.8952 24.1178 37.9073C22.2392 38.0638 20.4219 38.2152 19.5403 37.3492L19.2421 37.3898C15.2452 37.9332 11.6905 38.4166 8.20906 37.5522C6.69791 37.1782 5.07761 37.0806 3.28201 37.5349C2.53802 37.717 1.23601 37.9092 0.865829 37.7259C-0.856781 36.9799 -2.76151 37.1635 -4.66911 37.3473C-5.50827 37.4282 -6.34799 37.5091 -7.173 37.511C-9.44879 37.5046 -11.7084 37.4649 -13.962 37.4252C-15.7392 37.394 -17.5127 37.3628 -19.2876 37.3481C-20.1442 37.3423 -21.0134 37.3579 -21.8825 37.3734C-22.7517 37.389 -23.6208 37.4045 -24.4774 37.3988C-28.8104 37.3543 -33.1002 37.2699 -37.4268 37.1847L-37.4279 37.1846L-37.9155 37.175C-38.4969 37.1704 -39.0737 37.1118 -39.6506 37.0532C-39.881 37.0298 -40.1115 37.0064 -40.3423 36.9864C-40.5827 36.9656 -40.8407 36.9283 -41.0996 36.8909C-41.7111 36.8024 -42.3276 36.7133 -42.7297 36.8391C-44.6774 37.4014 -46.3996 37.274 -48.2457 37.1374C-48.6898 37.1046 -49.141 37.0712 -49.6043 37.0467C-52.5535 36.8771 -55.5982 36.9564 -58.6437 37.0356C-60.2226 37.0767 -61.8017 37.1178 -63.3679 37.1242C-64.3755 37.1317 -65.3812 37.1471 -66.3855 37.1624C-69.3985 37.2085 -72.4005 37.2544 -75.4074 37.0867C-77.3039 36.9788 -79.2607 37.0412 -81.2219 37.1038C-83.0536 37.1622 -84.8893 37.2208 -86.6832 37.1408C-88.6142 37.0469 -90.5333 37.1963 -92.4589 37.3463C-94.9597 37.541 -97.4713 37.7366 -100.034 37.4009C-101.709 37.1864 -103.7 37.399 -105.848 37.6284C-106.852 37.7357 -107.891 37.8467 -108.949 37.9194C-109.169 38.2502 -109.414 38.6129 -109.69 39.021C-109.965 39.4299 -110.272 39.8843 -110.616 40.3975C-109.653 40.2915 -108.699 40.2322 -107.77 40.1744C-104.946 39.9987 -102.357 39.8376 -100.463 38.4217C-99.601 38.6688 -98.7704 38.9037 -97.9616 39.1324L-97.9596 39.133C-96.6883 39.4925 -95.4708 39.8368 -94.2699 40.1893L-94.3951 40.1493C-94.1069 39.9498 -93.8335 39.7576 -93.5058 39.5272C-93.264 39.3572 -92.9926 39.1664 -92.6637 38.9364C-92.5457 39.0272 -92.4459 39.1165 -92.3523 39.2004C-92.1267 39.4023 -91.9365 39.5727 -91.6105 39.6563C-91.1161 39.7843 -90.5874 39.8603 -90.0554 39.9368C-89.6849 39.9901 -89.3128 40.0436 -88.9494 40.1151C-86.6263 40.5167 -86.4153 41.0618 -88.0876 42.0837C-88.3429 42.2374 -88.6811 42.361 -89.0141 42.4826C-89.1369 42.5275 -89.2589 42.5721 -89.3758 42.6178C-89.4315 42.6028 -89.4874 42.5883 -89.5434 42.5742L-89.42 42.6352L-89.3758 42.6178C-89.0751 42.6986 -88.7779 42.7912 -88.4809 42.8837C-87.6776 43.1339 -86.8761 43.3836 -86.0132 43.3975C-83.5826 43.4427 -81.1221 43.3836 -78.359 43.3172C-77.1822 43.2889 -75.9503 43.2593 -74.6426 43.2359C-75.6679 42.3716 -76.4742 41.6859 -77.1973 41.071C-77.546 40.7745 -77.876 40.4938 -78.2012 40.2182C-79.207 40.2448 -79.9856 40.5774 -80.7205 40.8912C-81.7743 41.3413 -82.7381 41.753 -84.1531 41.169C-85.5193 40.6025 -86.5689 39.8404 -85.3187 38.7416C-84.5674 38.7832 -83.8157 38.8203 -83.0655 38.8574C-81.5158 38.9339 -79.972 39.0101 -78.4514 39.1251C-77.0959 39.2252 -75.7422 39.3474 -74.345 39.4734C-73.3717 39.5613 -72.3771 39.651 -71.3462 39.7366C-69.6807 38.9799 -67.5457 38.9287 -65.3873 38.8769C-64.5998 38.858 -63.8092 38.8391 -63.0371 38.7858C-62.218 38.7289 -60.8589 39.38 -60.5549 39.8389C-60.0972 40.5061 -61.3331 40.9292 -62.6458 41.2482C-66.3193 42.1161 -69.5758 41.6044 -72.8664 40.9879C-73.4566 40.8718 -74.0449 40.7348 -74.7585 40.5576C-74.7533 42.5204 -73.4407 43.2145 -70.2788 43.3268C-68.4851 43.4002 -66.7003 43.5791 -65.0085 43.8443C-64.5006 43.9197 -63.864 44.4993 -64.0572 44.7561C-64.9145 46.0105 -63.5623 46.0425 -61.6336 46.088C-61.3611 46.0945 -61.0772 46.1012 -60.7863 46.1117C-60.9452 45.7735 -61.0962 45.4568 -61.2431 45.1486L-61.2438 45.1471C-61.5331 44.5401 -61.8066 43.9662 -62.0934 43.3278C-61.7206 43.2907 -61.3685 43.2377 -61.0409 43.1884C-60.457 43.1005 -59.9509 43.0242 -59.5431 43.071C-55.5139 43.5687 -51.4756 43.9608 -47.1477 43.4612C-47.0578 43.4451 -46.9705 43.459 -46.8694 43.4752C-46.8236 43.4825 -46.7751 43.4902 -46.7221 43.4958C-45.1796 43.5564 -43.6367 43.6131 -42.0951 43.6697C-37.3618 43.8436 -32.6395 44.0171 -27.9762 44.2998C-27.6866 44.318 -27.4038 44.3388 -27.1258 44.3592C-25.3983 44.4862 -23.8535 44.5997 -21.9941 44.0028C-20.2325 43.4436 -19.4974 43.8737 -19.2472 45.4733L-22.3376 45.5287C-22.6042 46.6521 -22.9387 47.5656 -25.6213 47.8669C-27.5964 48.0915 -28.1101 47.5328 -28.8125 46.7688C-28.9719 46.5955 -29.1411 46.4115 -29.3392 46.2238C-30.2309 46.9042 -31.0165 47.4928 -31.7658 48.0543L-31.7701 48.0575C-32.3283 48.4757 -32.8665 48.879 -33.4134 49.2939C-36.2659 49.0706 -36.4393 48.0816 -36.5608 46.9863C-36.575 46.6488 -37.1723 46.1108 -37.6426 46.0981C-39.0948 46.0397 -39.1003 46.6096 -39.0592 47.1365C-39.0441 47.2101 -39.0284 47.2785 -39.0127 47.3468C-39.0039 47.3852 -38.9951 47.4237 -38.9864 47.4631C-38.9796 47.4937 -38.9729 47.5248 -38.9662 47.557C-38.7034 48.5021 -39.5709 49.1298 -41.5453 49.1651C-43.7343 49.2043 -43.8397 48.4253 -43.6375 47.5564C-43.556 47.2623 -43.6047 46.9613 -43.6744 46.5301C-43.7103 46.3083 -43.7519 46.0513 -43.784 45.7437C-44.3468 46.1033 -44.7846 46.3803 -45.1552 46.6148L-45.1563 46.6155C-45.5907 46.8903 -45.933 47.1068 -46.2754 47.3293C-46.6545 47.2516 -47.0228 47.1738 -47.3912 47.096C-47.7596 47.0181 -48.1281 46.9402 -48.5072 46.8626C-48.6394 46.9495 -48.7763 47.0252 -48.9018 47.0947C-49.1211 47.216 -49.3056 47.3182 -49.3693 47.4267C-50.2798 49.0682 -50.9827 49.2709 -54.0229 48.7344C-54.3 48.6864 -54.577 48.618 -54.8556 48.5492C-56.0205 48.2614 -57.2127 47.9669 -58.5565 49.1322C-58.9696 48.443 -59.2735 47.984 -59.5793 47.5463C-59.7061 47.5542 -59.8297 47.559 -59.9443 47.5635C-60.2581 47.5758 -60.5056 47.5855 -60.5737 47.6486C-62.6949 49.4173 -65.263 49.3789 -68.5947 48.742C-71.5326 48.1863 -74.7778 48.3395 -78.0062 48.492C-78.8104 48.5299 -79.6135 48.5679 -80.4107 48.5948C-82.3646 48.6754 -82.65 49.3189 -82.9598 50.0173C-83.0796 50.2873 -83.203 50.5656 -83.428 50.8227L-84.0854 50.8534C-86.0757 50.9462 -88.1253 51.0419 -90.1415 51.154C-90.1442 51.1857 -90.1572 51.2123 -90.1702 51.2389C-90.1831 51.2655 -90.1961 51.2921 -90.1988 51.3238C-89.5764 51.3341 -88.9594 51.3493 -88.3439 51.3645C-87.1395 51.3941 -85.9412 51.4237 -84.721 51.4158C-83.3045 51.3904 -81.8006 51.3424 -81.4589 50.3443C-81.3516 50.0891 -80.4591 49.672 -79.987 49.6635C-79.4924 49.6593 -78.9966 49.6528 -78.5003 49.6462C-74.4775 49.5932 -70.4202 49.5398 -66.7046 50.7133C-64.2853 49.7638 -61.5432 49.8255 -58.7889 49.8875C-57.7581 49.9107 -56.7256 49.9339 -55.7077 49.9042C-53.1543 49.8289 -50.6001 49.9911 -47.9668 50.1582C-46.8338 50.2301 -45.6862 50.3029 -44.5177 50.3582C-44.5522 50.4697 -44.5911 50.5903 -44.632 50.7173C-44.7314 51.0253 -44.8429 51.371 -44.9328 51.7163C-44.8416 51.7329 -44.7501 51.7456 -44.6619 51.7578C-44.5462 51.7738 -44.4363 51.789 -44.3409 51.8113C-43.9296 51.5237 -43.531 51.2423 -43.1042 50.9411C-42.7274 50.675 -42.3286 50.3935 -41.8799 50.0787C-41.611 50.1712 -41.3373 50.2536 -41.0718 50.3336C-40.4735 50.5138 -39.9168 50.6815 -39.5514 50.9235C-37.6863 52.1776 -36.4146 52.3448 -34.5206 51.2345C-33.4815 50.6038 -32.4854 50.4803 -31.1602 50.5199C-30.8982 50.5263 -30.6348 50.532 -30.3707 50.5378C-29.1255 50.5648 -27.8609 50.5923 -26.632 50.6921C-26.0794 50.7456 -25.5036 51.0307 -25.2264 51.3002C-24.3144 52.1703 -22.7836 52.3118 -20.9756 52.2161C-20.6106 51.4497 -20.2474 50.7044 -19.7376 49.7454C-20.3534 49.6874 -20.979 49.6342 -21.6226 49.5795C-22.3564 49.5171 -23.1136 49.4527 -23.9064 49.3769C-21.0895 47.9968 -19.539 48.4122 -17.9225 51.0848C-17.2767 51.0733 -16.6113 51.0503 -15.935 51.027C-14.3187 50.9713 -12.6397 50.9135 -11.0158 51.0034C-10.3688 51.0358 -9.68164 50.9965 -8.98285 50.9566C-7.33099 50.8622 -5.61421 50.7641 -4.20924 51.5992C-5.83965 52.1 -7.40941 52.0356 -9.10471 51.966C-10.5206 51.9079 -12.024 51.8463 -13.7235 52.1072C-13.1476 52.1743 -12.6978 52.2323 -12.3253 52.2803C-11.6823 52.3632 -11.2696 52.4164 -10.8371 52.4354C-8.36484 52.5304 -5.89561 52.6282 -3.42706 52.726C3.82945 53.0134 11.0806 53.3007 18.3852 53.5163C18.7411 53.5267 19.1271 53.5606 19.526 53.5956C21.139 53.7371 22.9626 53.8972 23.8632 52.595C23.9115 52.5308 26.1773 52.5958 26.2506 52.7423C26.6569 53.8854 28.3019 53.9229 29.9297 53.9601C30.2432 53.9672 30.556 53.9744 30.8592 53.9894C34.4406 54.1678 38.0218 54.3488 41.603 54.5297C52.3602 55.0734 63.1174 55.6171 73.8806 56.0894C84.4267 56.5548 95.023 56.9351 105.626 57.2306C109.232 57.3362 112.846 57.3361 116.47 57.336C118.691 57.3359 120.915 57.3358 123.144 57.3601C126.399 57.3914 129.654 57.4342 132.912 57.4771L132.913 57.4771C137.325 57.5351 141.744 57.5932 146.178 57.623C148.152 57.6428 150.137 57.6223 152.124 57.6019C154.705 57.5754 157.288 57.5488 159.85 57.6103C163.028 57.6841 166.236 57.5703 169.443 57.4566C174.008 57.2948 178.571 57.133 183.044 57.5115C188.991 56.968 194.871 57.0471 200.746 57.1262C205.367 57.1884 209.985 57.2506 214.629 57.0094C216.334 56.9198 218.041 56.8165 219.747 56.7133C222.306 56.5586 224.864 56.4038 227.418 56.2948C228.792 56.2408 230.18 56.2784 231.559 56.3158C232.164 56.3323 232.769 56.3486 233.37 56.3572C233.656 56.3604 233.934 56.38 234.208 56.3993C234.631 56.4292 235.045 56.4584 235.464 56.4252C235.908 56.3907 236.35 56.3551 236.791 56.3197L236.795 56.3194C240.898 55.9896 244.905 55.6675 249.154 56.2011C252.399 56.595 255.96 56.5017 259.51 56.4087C260.601 56.3801 261.691 56.3515 262.771 56.3371C264.959 56.3085 267.162 56.2268 269.365 56.1452C271.569 56.0635 273.772 55.9818 275.96 55.9532C278.713 55.9202 281.432 55.9761 284.166 56.0323C284.968 56.0488 285.772 56.0653 286.578 56.0796C287.808 56.1094 289.037 56.1548 290.267 56.2003C292.545 56.2844 294.829 56.3688 297.14 56.3548C298.546 56.348 299.953 56.3414 301.36 56.3348C312.909 56.2806 324.485 56.2262 336.038 56.0382C341.757 55.9357 347.469 55.7241 353.184 55.5124L353.185 55.5123C356.864 55.3761 360.544 55.2397 364.229 55.1324C367.199 55.0492 370.175 55.0085 373.152 54.9678C376.461 54.9226 379.771 54.8773 383.073 54.7737C395.064 54.369 407.061 53.9011 419.059 53.4118C420.608 53.3499 422.157 53.2883 423.706 53.2267C434.584 52.794 445.463 52.3613 456.351 51.8152C472.189 51.0251 487.974 50.3626 503.797 50.2481C507.733 50.2165 511.677 50.1647 515.622 50.1129C522.38 50.0241 529.143 49.9353 535.879 49.9479C544.032 49.9652 552.174 50.1089 560.296 50.2523C562.675 50.2943 565.053 50.3362 567.428 50.375C567.696 50.3804 567.964 50.3955 568.235 50.411C568.528 50.4276 568.826 50.4446 569.136 50.4499C573.305 50.502 577.479 50.5398 581.653 50.5776C589.997 50.6533 598.342 50.7289 606.639 50.918C615.299 51.119 623.928 51.4459 632.565 51.773C636.213 51.9112 639.863 52.0495 643.517 52.1784C646.636 52.2914 649.711 52.4261 652.826 52.5814C655.045 52.6894 657.304 52.839 659.518 53.0104C660.155 53.0592 660.792 53.1187 661.43 53.1784C662.583 53.2862 663.742 53.3945 664.924 53.4413C666.512 53.5047 668.1 53.5697 669.688 53.6348C676.131 53.8987 682.579 54.1628 689.064 54.3176C693.747 54.4343 698.434 54.5034 703.121 54.5724C707.808 54.6415 712.495 54.7106 717.177 54.8273C735.367 55.2613 753.626 55.2355 771.864 55.2098C775.411 55.2048 778.957 55.1998 782.502 55.1982C801.617 55.1936 820.727 55.2313 839.72 55.651C849.683 55.8705 859.661 55.7384 869.642 55.6064C876.073 55.5213 882.506 55.4362 888.937 55.4451C897.353 55.4665 905.748 55.5299 914.137 55.5932C919.116 55.6308 924.094 55.6684 929.072 55.6971C934.442 55.7347 939.811 55.777 945.18 55.8192L945.182 55.8192C955.067 55.897 964.952 55.9748 974.839 56.0233L975.204 56.0332C976.158 56.0593 977.113 56.0854 978.072 56.0789C980.441 56.074 982.81 56.0704 985.179 56.0676C991.033 56.0856 996.888 56.0911 1002.74 56.0967C1006.97 56.1007 1011.2 56.1047 1015.44 56.1134C1016.39 56.1198 1017.34 56.0936 1018.3 56.0674C1019.06 56.0464 1019.82 56.0255 1020.59 56.0212C1021.14 56.0175 1021.65 56.001 1022.13 55.9698C1031.01 55.9208 1039.91 55.8509 1048.8 55.7811C1054.21 55.7386 1059.62 55.696 1065.03 55.6582C1070.04 55.6292 1075.05 55.5914 1080.07 55.5536L1080.07 55.5536C1088.52 55.4899 1096.98 55.4261 1105.45 55.4042C1111.92 55.3949 1118.37 55.4795 1124.82 55.5641L1124.82 55.5641C1134.84 55.6954 1144.84 55.8266 1154.91 55.6069C1174.1 55.1867 1193.33 55.148 1212.56 55.1514C1216.12 55.1528 1219.69 55.1576 1223.25 55.1624H1223.25C1241.59 55.1871 1259.95 55.2117 1278.34 54.7772C1283.07 54.6605 1287.8 54.5912 1292.53 54.522C1297.26 54.4527 1301.99 54.3835 1306.72 54.2667C1313.28 54.1118 1319.82 53.8477 1326.35 53.5838C1327.96 53.5187 1329.57 53.4537 1331.18 53.3903C1332.38 53.3435 1333.57 53.2353 1334.75 53.1276C1335.41 53.0679 1336.06 53.0085 1336.71 52.9598C1338.97 52.7885 1341.28 52.6389 1343.53 52.531C1346.7 52.3758 1349.82 52.241 1352.98 52.128C1356.68 51.9991 1360.38 51.8609 1364.08 51.7227C1372.83 51.3955 1381.58 51.0686 1390.33 50.8674C1398.71 50.6781 1407.12 50.6021 1415.53 50.5261L1415.53 50.5261C1419.74 50.488 1423.95 50.45 1428.15 50.3978C1428.46 50.3924 1428.77 50.3755 1429.06 50.3589C1429.34 50.3434 1429.61 50.3283 1429.88 50.3229C1432.28 50.284 1434.68 50.242 1437.08 50.1999C1445.28 50.0563 1453.5 49.9123 1461.7 49.8946C1468.48 49.8816 1475.27 49.9699 1482.05 50.0581C1486 50.1097 1489.96 50.1611 1493.91 50.1925C1509.8 50.3059 1525.54 50.9664 1541.31 51.7545C1552.15 52.299 1563.01 52.7305 1573.86 53.1619C1575.4 53.2233 1576.95 53.2847 1578.49 53.3465C1590.46 53.8343 1602.43 54.3009 1614.41 54.7043C1617.71 54.8075 1621.03 54.8525 1624.35 54.8975C1627.34 54.9379 1630.32 54.9784 1633.29 55.0613C1636.98 55.1682 1640.65 55.3042 1644.32 55.4401C1650.03 55.6511 1655.73 55.8621 1661.46 55.964C1673.04 56.1511 1684.68 56.2047 1696.28 56.2582L1700.52 56.278C1702.84 56.2918 1705.16 56.2074 1707.47 56.1232C1708.71 56.0777 1709.96 56.0323 1711.2 56.0025C1712.02 55.9882 1712.83 55.9717 1713.64 55.9551C1716.4 55.8989 1719.15 55.8429 1721.91 55.8756C1724.1 55.9041 1726.3 55.9855 1728.5 56.067C1730.7 56.1484 1732.9 56.2298 1735.1 56.2583C1736.18 56.2726 1737.27 56.301 1738.36 56.3295C1741.91 56.4222 1745.48 56.5152 1748.82 56.1217C1753.2 55.5886 1757.17 55.91 1761.23 56.239C1761.67 56.2745 1762.1 56.3101 1762.54 56.3447C1762.96 56.3777 1763.38 56.3485 1763.81 56.3187C1764.09 56.2994 1764.38 56.2798 1764.66 56.2766C1765.27 56.268 1765.88 56.2516 1766.49 56.2352C1767.89 56.1978 1769.29 56.1601 1770.66 56.2139C1773.21 56.3226 1775.75 56.477 1778.29 56.6314C1779.99 56.7343 1781.68 56.8373 1783.38 56.9267C1788 57.1672 1792.66 57.1049 1797.32 57.0425C1803.25 56.9632 1809.18 56.8838 1815.05 57.4263C1819.62 57.048 1824.18 57.2093 1828.74 57.3706C1831.94 57.484 1835.15 57.5973 1838.36 57.5235C1840.95 57.462 1843.54 57.4883 1846.13 57.5147C1848.12 57.535 1850.12 57.5552 1852.11 57.5354C1856.57 57.5054 1861.03 57.4471 1865.48 57.3889L1865.48 57.3889C1868.77 57.3459 1872.05 57.303 1875.33 57.2715C1877.58 57.2472 1879.81 57.2471 1882.05 57.2471C1885.69 57.247 1889.33 57.2469 1892.98 57.1412C1903.7 56.8455 1914.44 56.4652 1925.14 55.9998C1936.07 55.5276 1947 54.9841 1957.93 54.4406C1961.57 54.2597 1965.21 54.0788 1968.85 53.9005C1969.16 53.8855 1969.47 53.8783 1969.79 53.8712C1971.43 53.834 1973.1 53.7964 1973.74 52.655C1973.84 52.5087 1976.14 52.4437 1976.17 52.5078C1976.81 53.808 1978.68 53.648 1980.33 53.5066C1980.74 53.4716 1981.13 53.4377 1981.49 53.4274C1988.88 53.2116 1996.24 52.9244 2003.59 52.637L2003.61 52.6366C2006.1 52.5389 2008.61 52.4413 2011.11 52.3464C2011.55 52.3274 2011.97 52.2743 2012.64 52.1914C2013.02 52.1435 2013.49 52.0855 2014.08 52.0185C2012.42 51.758 2010.9 51.8197 2009.46 51.8778C2007.74 51.9473 2006.15 52.0117 2004.61 51.5118C2006.2 50.6779 2007.91 50.7757 2009.55 50.8699C2010.24 50.9097 2010.93 50.9488 2011.58 50.9165C2013.23 50.8266 2014.91 50.8843 2016.53 50.9398C2017.2 50.9631 2017.87 50.9859 2018.51 50.9974C2020.69 48.3287 2022.33 47.9138 2024.88 49.2917C2024.07 49.3674 2023.3 49.4318 2022.54 49.4941C2021.89 49.5488 2021.25 49.602 2020.61 49.6599C2020.93 50.6174 2021.14 51.3616 2021.35 52.1268C2023.15 52.2222 2024.72 52.0809 2025.81 51.212C2026.15 50.9429 2026.79 50.6582 2027.35 50.6048C2028.61 50.505 2029.89 50.4775 2031.15 50.4504C2031.41 50.4447 2031.68 50.4389 2031.94 50.4325C2033.29 50.3929 2034.26 50.5162 2035.18 51.1459C2036.85 52.2545 2038.17 52.0874 2040.3 50.835C2040.72 50.5936 2041.31 50.4263 2041.95 50.2465L2041.95 50.246C2042.24 50.1661 2042.53 50.0837 2042.82 49.9914C2043.21 50.3069 2043.55 50.5888 2043.88 50.8552L2044.38 51.2691C2044.57 51.4206 2044.75 51.57 2044.94 51.7212C2045.01 51.7048 2045.09 51.6922 2045.18 51.6803L2045.27 51.6676C2045.36 51.6555 2045.46 51.6429 2045.55 51.6264C2045.53 51.2822 2045.49 50.9377 2045.45 50.6306L2045.45 50.5808C2045.44 50.4716 2045.42 50.3675 2045.41 50.2703C2046.6 50.2151 2047.77 50.1423 2048.92 50.0704C2051.61 49.9034 2054.21 49.7413 2056.76 49.8163C2057.78 49.8459 2058.82 49.8227 2059.86 49.7994C2062.65 49.7374 2065.42 49.6756 2067.66 50.6235C2071.64 49.4516 2075.71 49.5047 2079.74 49.5574C2080.24 49.5639 2080.74 49.5704 2081.23 49.5746C2081.71 49.583 2082.52 49.9994 2082.57 50.2543C2082.71 51.2509 2084.21 51.2987 2085.63 51.3239C2086.86 51.3317 2088.07 51.3022 2089.29 51.2725C2089.91 51.2573 2090.53 51.2421 2091.16 51.2318C2091.17 51.2001 2091.16 51.1735 2091.15 51.1468C2091.14 51.1203 2091.14 51.0938 2091.14 51.0622C2089.14 50.9504 2087.09 50.8551 2085.11 50.7625L2084.46 50.7318C2084.28 50.4751 2084.22 50.1972 2084.15 49.9275C2083.98 49.2303 2083.83 48.5878 2081.88 48.5074C2081.08 48.4806 2080.28 48.4428 2079.48 48.4049C2076.27 48.2529 2073.03 48.1001 2069.96 48.6551C2066.48 49.2912 2063.89 49.3297 2062.12 47.5638C2062.06 47.5009 2061.82 47.4912 2061.51 47.4789C2061.39 47.4744 2061.27 47.4696 2061.14 47.4617C2060.74 47.8988 2060.34 48.3572 2059.79 49.0453C2058.67 47.8818 2057.41 48.176 2056.18 48.4634C2055.89 48.5321 2055.6 48.6004 2055.31 48.6484C2052.14 49.1843 2051.47 48.9819 2050.9 47.3429C2050.85 47.2346 2050.69 47.1326 2050.49 47.0114C2050.38 46.9421 2050.26 46.8664 2050.15 46.7797C2049.75 46.8572 2049.36 46.935 2048.97 47.0127L2048.36 47.1354C2048.18 47.1723 2047.99 47.209 2047.8 47.2458C2047.51 47.0259 2047.21 46.812 2046.84 46.5414L2046.83 46.5334L2046.81 46.5203C2046.49 46.2888 2046.11 46.0156 2045.62 45.6628C2045.53 45.9703 2045.43 46.2265 2045.35 46.4482C2045.19 46.8787 2045.08 47.1791 2045.1 47.4727C2045.13 48.3404 2044.86 49.1182 2042.67 49.0792C2040.69 49.044 2039.95 48.4173 2040.41 47.4736C2040.44 47.4001 2040.47 47.3319 2040.5 47.2637C2040.53 47.1955 2040.56 47.1273 2040.59 47.0538C2040.74 46.5277 2040.85 45.9586 2039.37 46.017C2038.9 46.0297 2038.19 46.567 2038.1 46.9039C2037.76 47.9976 2037.38 48.9851 2034.46 49.2082C2034.01 48.8066 2033.57 48.4159 2033.11 48.0119L2033.07 47.9745L2033.05 47.9645C2032.42 47.4058 2031.75 46.8199 2031 46.1429C2030.76 46.3304 2030.55 46.5141 2030.35 46.6872C2029.49 47.45 2028.86 48.008 2026.92 47.7839C2024.28 47.4832 2024.13 46.571 2024.1 45.4493L2021 45.3942C2021.58 43.797 2022.41 43.3675 2024.07 43.9258C2025.81 44.5216 2027.39 44.4082 2029.15 44.2813C2029.44 44.2609 2029.73 44.2401 2030.02 44.2219C2034.77 43.9394 2039.55 43.7659 2044.35 43.592L2044.36 43.5917C2045.92 43.5351 2047.48 43.4785 2049.04 43.4181C2049.1 43.4125 2049.15 43.4047 2049.2 43.3974C2049.3 43.3813 2049.39 43.3674 2049.48 43.3835C2053.73 43.8821 2057.87 43.4904 2062.03 42.9932C2062.45 42.9464 2062.94 43.0225 2063.51 43.1102C2063.83 43.1595 2064.17 43.2124 2064.54 43.2494C2064.12 43.8878 2063.72 44.4615 2063.31 45.0685L2063.31 45.0702L2063.25 45.1591C2063.05 45.438 2062.86 45.7249 2062.65 46.0292C2062.95 46.0187 2063.23 46.012 2063.51 46.0055C2065.46 45.9599 2066.82 45.9279 2066.22 44.6754C2066.08 44.4191 2066.84 43.8402 2067.36 43.765C2069.12 43.5001 2070.95 43.3213 2072.77 43.2479C2075.98 43.1356 2077.44 42.4425 2077.85 40.4826C2077.09 40.6596 2076.47 40.7965 2075.86 40.9124C2072.42 41.5281 2069.04 42.0392 2065.52 41.1729C2064.27 40.8545 2063.11 40.432 2063.71 39.7658C2064.11 39.3076 2065.61 38.6574 2066.42 38.7141C2067.19 38.7673 2067.98 38.7862 2068.77 38.805C2070.93 38.8566 2073.06 38.9076 2074.58 39.663C2075.64 39.5775 2076.66 39.4878 2077.66 39.4001C2079.09 39.2741 2080.47 39.1521 2081.86 39.052C2083.41 38.9371 2084.98 38.861 2086.55 38.7845C2087.31 38.7475 2088.08 38.7103 2088.84 38.6687C2089.88 39.7658 2088.66 40.5268 2087.17 41.0925C2085.63 41.6757 2084.74 41.2648 2083.78 40.8154C2083.1 40.5021 2082.39 40.1701 2081.38 40.1435C2081.01 40.4126 2080.62 40.6859 2080.22 40.9746C2079.36 41.5939 2078.4 42.2842 2077.18 43.1569C2078.49 43.1802 2079.72 43.2097 2080.9 43.2379C2083.67 43.304 2086.13 43.3629 2088.58 43.3176C2089.45 43.3036 2090.31 43.0543 2091.17 42.8044C2091.49 42.712 2091.81 42.6195 2092.13 42.5389L2092.17 42.5563L2092.3 42.4953C2092.24 42.5094 2092.19 42.5239 2092.13 42.5389C2092.02 42.4941 2091.91 42.4505 2091.8 42.4067L2091.79 42.4039C2091.48 42.2824 2091.17 42.1591 2090.94 42.0057C2089.47 40.9853 2089.79 40.4411 2092.21 40.0399C2092.59 39.9685 2092.98 39.9151 2093.36 39.8619C2093.91 39.7854 2094.46 39.7095 2094.98 39.5817C2095.33 39.4981 2095.56 39.3279 2095.82 39.1262C2095.94 39.0425 2096.05 38.9534 2096.19 38.8628C2096.48 39.0954 2096.72 39.288 2096.93 39.4594C2097.2 39.6865 2097.44 39.8766 2097.68 40.0738L2097.55 40.1137C2098.83 39.7622 2100.12 39.4188 2101.47 39.0603L2101.48 39.0592C2102.34 38.8304 2103.22 38.5955 2104.14 38.3484C2105.76 39.7621 2108.33 39.9228 2111.13 40.0981C2112.05 40.1557 2113 40.2149 2113.95 40.3207C2113.73 39.849 2113.53 39.427 2113.35 39.0445L2113.3 38.9537L2113.26 38.8605C2113.08 38.4878 2112.92 38.1533 2112.78 37.8464C2111.73 37.7738 2110.71 37.6631 2109.72 37.556C2107.61 37.327 2105.65 37.1149 2103.92 37.3292C2101.27 37.6645 2098.79 37.4694 2096.31 37.275C2094.41 37.1254 2092.51 36.9763 2090.55 37.0702C2088.72 37.1502 2086.89 37.0918 2085.06 37.0336C2083.1 36.9712 2081.14 36.909 2079.21 37.0168C2076.16 37.1845 2073.15 37.1389 2070.13 37.093C2069.12 37.0777 2068.11 37.0624 2067.1 37.055C2065.52 37.0487 2063.94 37.0077 2062.36 36.9668C2059.32 36.8879 2056.27 36.809 2053.27 36.9785C2052.8 37.0029 2052.34 37.0363 2051.88 37.0691C2050 37.2056 2048.24 37.3329 2046.4 36.7716C2046.02 36.6459 2045.38 36.735 2044.75 36.8233C2044.48 36.8607 2044.21 36.898 2043.97 36.9188C2043.85 36.9285 2043.73 36.9391 2043.62 36.95C2043.5 36.9615 2043.38 36.9735 2043.26 36.9855C2042.66 37.044 2042.07 37.1026 2041.49 37.1073L2040.99 37.1169C2036.62 37.2022 2032.29 37.2868 2027.92 37.3314C2027.06 37.3373 2026.19 37.3218 2025.32 37.3063C2024.45 37.2908 2023.58 37.2753 2022.71 37.2811C2020.92 37.296 2019.13 37.3272 2017.34 37.3585C2015.06 37.3982 2012.78 37.438 2010.49 37.4445C2009.66 37.4427 2008.84 37.3619 2008.01 37.2812C2006.13 37.0978 2004.25 36.9146 2002.36 37.6596C2001.95 37.8427 2000.68 37.6508 1999.97 37.4689C1998.26 37.0155 1996.61 37.113 1995.01 37.4865C1991.33 38.3499 1987.86 37.8674 1983.95 37.325L1983.66 37.2846C1982.59 38.1493 1980.8 37.9982 1978.94 37.842L1978.66 37.8185L1978.51 37.8063C1977.4 37.702 1976.2 37.6594 1975.11 37.7458C1974.06 37.8198 1973.03 37.9345 1972 38.049C1970.67 38.196 1969.34 38.3427 1968 38.4021C1965.76 38.4921 1963.52 38.5034 1961.2 38.5152C1960.12 38.5206 1959.02 38.5261 1957.9 38.5397C1959.41 36.9393 1959.43 36.938 1961.52 36.7927L1961.6 36.7866C1964.3 36.5807 1966.96 36.3741 1970.18 36.1141C1972.13 36.7199 1974.64 37.3145 1977.49 36.2018C1977.69 36.1131 1978.04 36.1165 1978.38 36.1197C1978.45 36.1204 1978.52 36.1211 1978.59 36.1209C1978.65 36.1208 1978.7 36.1201 1978.75 36.1185C1980.76 36.0644 1982.76 36.0433 1984.76 36.0222C1989.36 35.9737 1993.94 35.9253 1998.53 35.4762C2001.34 35.2107 2004.24 35.2092 2007.2 35.2077C2008.6 35.207 2010.02 35.2063 2011.46 35.1773C2011.84 34.9498 2012.25 34.6942 2012.74 34.3902C2013.09 34.1726 2013.48 33.9303 2013.93 33.6559C2015.2 35.2417 2016.29 34.6754 2017.42 34.087C2017.81 33.8793 2018.22 33.6687 2018.64 33.5492C2018.65 34.882 2020.42 35.5904 2022.19 35.22C2023.22 35.0073 2024.33 34.9532 2025.46 34.8989C2027.42 34.8041 2029.38 34.7089 2030.9 33.7672C2031.4 33.4468 2032.51 33.3601 2033.69 33.268C2034.26 33.2241 2034.84 33.1789 2035.37 33.1065C2035.54 33.3764 2035.68 33.6201 2035.83 33.8605L2035.89 33.9616C2036.13 34.3722 2036.38 34.7828 2036.7 35.309C2038.65 34.6462 2040.37 34.075 2042.07 33.5112L2042.07 33.5099L2043.31 33.0997C2043.57 33.7812 2044.19 34.3632 2045.74 34.0101C2046.36 33.8681 2047.09 33.8803 2047.81 33.8924C2049.09 33.9137 2050.36 33.935 2051.06 33.1106C2051.3 33.1641 2051.55 33.2149 2051.79 33.2658C2052.5 33.4116 2053.2 33.5583 2053.79 33.7725C2054.05 33.873 2054.13 34.0761 2054.22 34.34L2054.22 34.3433C2054.28 34.4867 2054.33 34.648 2054.43 34.8204C2055.98 33.9674 2055.74 33.1955 2055.51 32.479C2055.46 32.3176 2055.41 32.159 2055.38 32.0029C2055.22 31.1963 2055.33 30.6061 2057.3 30.7046C2057.35 31.1844 2057.39 31.65 2057.44 32.0949C2057.48 32.5929 2057.53 33.0648 2057.57 33.5012C2059.04 33.3972 2060.38 33.2909 2061.72 33.1845C2062.23 33.1446 2062.73 33.1046 2063.24 33.0648C2063.58 33.0384 2063.92 33.0121 2064.27 32.9858C2066.27 31.7822 2065.44 30.6316 2064.58 29.4325C2064.34 29.0965 2064.1 28.7567 2063.92 28.4108C2063.45 28.4816 2063 28.5528 2062.57 28.6215L2062.56 28.6223C2061.38 28.8101 2060.32 28.9788 2059.27 29.0684C2058.2 29.1682 2057.11 29.1947 2056.02 29.2214C2055.56 29.2327 2055.1 29.244 2054.63 29.2609C2054.69 28.3558 2055.8 28.3089 2056.85 28.2648C2057.47 28.2389 2058.06 28.2139 2058.4 28.0165C2058.86 27.4324 2059.23 26.9103 2059.64 26.3043C2060.89 26.5069 2062.2 26.4784 2063.45 26.4511C2065.43 26.4079 2067.27 26.3677 2068.54 27.245C2069.17 27.1532 2069.74 27.0583 2070.29 26.9686C2071.43 26.7818 2072.43 26.6173 2073.45 26.5499C2079.45 26.1489 2085.42 26.3395 2091.3 26.9094C2092.75 27.0409 2093.96 27.0413 2095.39 26.961C2096.32 26.9136 2097.26 26.8313 2098.21 26.7486C2100.71 26.5304 2103.24 26.3095 2105.63 26.7202C2109.22 27.334 2112.57 27.0762 2116.03 26.609C2116.43 26.5525 2116.86 26.5391 2117.29 26.5679C2118.12 26.6389 2118.96 26.7087 2119.79 26.7785C2122.41 26.9976 2125.03 27.2162 2127.61 27.4707C2130 27.7035 2132.08 27.6346 2133.52 26.3701L2132.44 25.9452C2131.34 25.5126 2130.3 25.1059 2129.24 24.6865L2129.23 24.6956C2128.61 25.23 2128.13 25.645 2127.07 26.5937C2126.63 25.9724 2126.45 25.7154 2126.22 25.4575L2126.21 25.4473C2125.94 25.171 2125.68 24.8944 2125.37 24.5964C2122.03 25.8484 2120.27 25.8172 2118.65 24.6038C2116.95 23.3257 2118.07 22.2456 2122.26 21.0933L2122.71 21.208C2126.28 22.1271 2129.88 23.0521 2134.22 22.7232C2134.87 22.6714 2135.64 22.7695 2136.23 22.8858C2140.06 23.673 2143.57 23.1433 2146.37 22.4105C2147.71 22.4344 2148.98 22.4594 2150.19 22.4834C2152.48 22.5287 2154.59 22.5704 2156.7 22.5941C2157.1 22.5937 2157.54 22.5574 2157.97 22.5213C2158.73 22.4581 2159.48 22.3953 2160.07 22.527C2165.06 23.6312 2170.12 23.8692 2175.21 22.7963C2178.74 24.9954 2182.51 25.1893 2185.98 23.5167C2186.54 23.6196 2187.08 23.7287 2187.72 23.8563L2187.73 23.8582C2188.24 23.9622 2188.82 24.0787 2189.52 24.2142C2189.41 23.6478 2189.34 23.1675 2189.27 22.7231C2189.22 22.4015 2189.18 22.0988 2189.12 21.7959C2185.28 22.1718 2185.28 22.1718 2180.54 20.7549C2180.02 20.8342 2179.46 20.9547 2178.9 21.0739C2177.74 21.3242 2176.6 21.5685 2175.89 21.4125C2175.06 21.2246 2174.3 20.9531 2173.56 20.6871C2171.57 19.9775 2169.7 19.3063 2166.75 20.3615C2166.12 20.583 2164.47 20.2998 2163.51 20.0501C2158.7 18.8434 2154.07 18.6131 2149.65 20.6285C2149.53 20.6959 2149.23 20.6688 2148.83 20.6326C2148.63 20.6138 2148.39 20.5924 2148.14 20.5807C2148.57 19.8903 2148.95 19.2834 2149.43 18.4672C2148.52 18.4509 2147.64 18.4292 2146.79 18.4082C2144.88 18.3612 2143.11 18.3174 2141.35 18.3446C2140.18 18.3661 2138.82 18.5322 2137.88 18.8539C2134.73 19.8979 2132.78 19.6728 2131.13 18.0147C2130.73 18.0711 2130.34 18.1333 2129.96 18.195C2129.06 18.3391 2128.18 18.4805 2127.27 18.5384C2126.07 18.6142 2124.89 18.452 2123.71 18.2893C2121.8 18.0268 2119.88 17.7632 2117.88 18.4982C2117.78 18.5316 2117.57 18.472 2117.33 18.4037C2117.14 18.349 2116.93 18.2886 2116.74 18.2664C2116.52 18.2424 2116.29 18.2124 2116.06 18.1819C2115.32 18.0841 2114.54 17.9827 2113.88 18.0676C2111.91 18.3287 2110.56 18.0298 2109.21 17.4135C2108.93 17.2721 2108.5 17.1985 2108.06 17.1213C2107.82 17.0787 2107.57 17.0349 2107.33 16.978C2107.16 17.176 2107 17.362 2106.84 17.5483C2106.53 17.9108 2106.22 18.2741 2105.82 18.7281C2104.51 18.1337 2103.58 17.694 2102.52 17.1887C2099.63 17.9199 2096.9 17.9984 2093.64 17.4962C2088.4 16.6838 2082.81 16.9016 2077.29 17.2688C2077.09 17.2832 2076.88 17.3003 2076.67 17.3181L2076.66 17.3186C2075.33 17.4268 2073.71 17.5588 2073.15 17.2587C2071.47 16.3936 2069.56 16.5436 2067.67 16.6921C2066.64 16.773 2065.61 16.8534 2064.63 16.7688C2062.13 16.5554 2059.5 16.6771 2056.85 16.7991C2055.53 16.8603 2054.2 16.9216 2052.89 16.9406C2051.51 16.9584 2050.95 16.5465 2051.24 15.9805C2053.81 15.6879 2056.17 15.4338 2058.53 15.2007C2059.05 15.1466 2059.75 15.1166 2060.16 15.2298C2063.53 16.2415 2066.52 15.4484 2069.68 14.574C2072.92 15.5835 2076.5 15.5627 2080.24 14.9523C2081.21 14.7791 2082.73 14.7216 2083.47 14.9886C2087.19 16.3239 2090.42 15.6197 2093.62 14.4709C2096.87 15.7344 2097.86 15.7732 2101.9 14.7664C2103.86 14.2723 2104.86 14.5862 2105.16 15.607C2105.18 15.7137 2105.4 15.8131 2105.61 15.9092C2105.7 15.947 2105.78 15.9842 2105.85 16.0211C2106.43 15.7927 2106.96 15.5746 2107.5 15.3535C2108.02 15.1436 2108.54 14.931 2109.11 14.7043C2110.98 15.6259 2112.94 15.8088 2114.79 14.784C2115.31 14.9358 2115.77 15.0838 2116.21 15.2239C2116.95 15.4578 2117.62 15.6698 2118.33 15.8411C2118.42 15.8624 2118.51 15.8849 2118.61 15.908C2119.44 16.1077 2120.45 16.3478 2121.08 16.2074C2122.03 15.9994 2123.06 15.9447 2124.04 15.8927C2125 15.8419 2125.91 15.7937 2126.63 15.6081C2129.83 14.7978 2132.06 15.2816 2134.36 16.2109C2136.81 15.0376 2139.4 15.2393 2141.97 15.439C2143.23 15.5378 2144.5 15.6361 2145.73 15.5671C2147.01 16.7025 2148.64 16.381 2150.27 16.0589C2150.78 15.9585 2151.28 15.858 2151.78 15.8015C2152.62 16.1846 2153.41 16.5426 2154.31 16.9518L2155.21 17.3643C2156.79 17.0258 2158.43 16.6885 2160.66 16.2332L2160.67 16.2304L2161.32 16.0979C2161.55 16.1515 2161.98 16.2548 2162.49 16.3776C2163.07 16.5175 2163.75 16.6829 2164.38 16.8292C2164.76 16.7667 2165.18 16.675 2165.57 16.5864L2165.58 16.5859C2166.39 16.4045 2167.15 16.236 2167.54 16.3566C2169.24 16.9048 2171.06 16.8627 2172.87 16.8206C2173.58 16.8043 2174.28 16.788 2174.98 16.8063C2175.1 16.8083 2175.23 16.8075 2175.36 16.8067C2175.83 16.8038 2176.38 16.8004 2176.56 16.9191C2177.86 17.8008 2179.4 17.5853 2180.96 17.3668C2181.32 17.3162 2181.68 17.2654 2182.04 17.2281C2184.18 16.9912 2185.97 16.8748 2187.98 17.7143C2189.33 18.2883 2192.36 18.5748 2193.87 18.1998C2196.18 17.6274 2197.89 17.7424 2199.96 18.0543C2200.22 18.1019 2200.63 17.8896 2201.03 17.6785C2201.22 17.5817 2201.41 17.4851 2201.58 17.4139L2201.59 17.4276L2201.59 17.4066L2201.58 17.4139C2200.3 16.2596 2199.09 15.8829 2196.18 16.2103C2194.17 16.4284 2192.58 16.4001 2191.2 15.6354C2190.84 15.4385 2190.26 15.2589 2189.78 15.2716C2188.44 15.29 2187.1 15.3191 2185.76 15.3482C2184.42 15.3773 2183.08 15.4063 2181.74 15.4248C2180.36 15.4426 2178.94 15.4172 2177.53 15.3286C2173.72 15.1128 2169.91 14.8759 2166.11 14.639C2165.86 14.6282 2165.57 14.6303 2165.28 14.6323C2164.61 14.6371 2163.93 14.642 2163.71 14.4906C2162.71 13.7625 2161.88 14.0519 2161.09 14.3254C2160.66 14.4754 2160.24 14.6206 2159.82 14.5906C2158.87 14.5325 2157.96 14.3051 2157.05 14.0763C2156.56 13.9534 2156.07 13.8302 2155.57 13.7325C2155.36 13.6865 2155 13.7648 2154.74 13.8235C2153.05 14.2166 2151.53 14.3376 2150.12 13.5299C2149.76 13.3119 2148.6 13.2279 2148.11 13.3461C2146.25 13.8296 2144.4 13.562 2142.55 13.2949C2140.46 12.9932 2138.37 12.6923 2136.29 13.4741C2136.22 13.4879 2136.1 13.4692 2136.02 13.4566C2135.99 13.4514 2135.96 13.4472 2135.95 13.447C2135.04 13.1136 2134.17 12.8019 2133.22 12.4677L2132.53 12.8364L2132.51 12.8456C2131.89 13.1729 2131.34 13.4691 2130.73 13.7984C2130.29 13.6836 2129.86 13.5833 2129.44 13.4863C2128.62 13.2958 2127.85 13.1182 2127.22 12.8688C2125.5 12.1613 2123.75 11.961 2121.4 12.1518C2117.53 12.4637 2113.62 12.6903 2109.64 12.4714C2108.95 12.4288 2108.25 12.3282 2107.55 12.2267C2105.81 11.9752 2104.02 11.7176 2102.2 12.3181C2098.81 11.7462 2095.37 11.85 2091.92 11.9537C2090.39 12 2088.85 12.0463 2087.32 12.0322C2086.42 12.0243 2085.49 11.937 2084.56 11.8501C2083.08 11.7121 2081.62 11.5752 2080.33 11.7599C2078.82 11.9608 2078.28 11.6556 2077.76 11.3597C2077.55 11.2436 2077.35 11.1286 2077.09 11.0465C2076.17 11.1528 2075.25 11.2617 2074.34 11.3698L2074.33 11.3714C2072.58 11.5796 2070.86 11.7848 2069.14 11.9627C2068.64 12.0222 2068.08 11.9288 2067.55 11.8401C2067.42 11.819 2067.3 11.7981 2067.18 11.7797C2066.8 11.7252 2066.44 11.6677 2066.07 11.6103C2063.02 11.136 2060.01 10.6675 2056.86 11.9135C2056.37 12.1033 2055.6 12.117 2054.8 12.1311C2054.41 12.1381 2054.01 12.1452 2053.64 12.1735C2053.6 11.9218 2053.56 11.7095 2053.52 11.5163L2053.52 11.5095C2053.48 11.331 2053.45 11.1686 2053.43 11.0065C2052.66 10.9358 2051.92 10.8659 2051.19 10.796L2050.15 10.6981C2050.49 9.74078 2051.73 9.11139 2053.29 8.57154C2054.19 8.83222 2055.08 9.08596 2055.96 9.33969C2057.29 9.72193 2058.62 10.1041 2060 10.51C2060.27 10.3014 2060.5 10.1221 2060.7 9.96276C2061.06 9.67997 2061.33 9.45974 2061.66 9.24914C2062.73 8.63353 2065.62 8.19857 2066.17 8.69473C2067.27 9.67596 2068.98 9.80355 2070.82 9.9407C2071.57 9.99664 2072.34 10.0542 2073.1 10.1719L2073.3 8.50435C2078.64 8.93768 2078.64 8.93768 2080.17 7.35728C2079.57 7.30257 2078.98 7.23676 2078.4 7.17153L2078.4 7.17123C2077.03 7.01754 2075.68 6.86713 2074.32 6.8726C2067.14 6.88156 2059.94 6.94448 2052.74 7.00732C2050.78 7.02438 2048.83 7.04144 2046.88 7.05741L2047 7C2047 7 2016 0 2000 0ZM1982.55 28.8935L1982.56 28.8935C1982.65 29.1933 1982.72 29.3978 1982.77 29.545C1982.84 29.7508 1982.87 29.8447 1982.86 29.9307C1982.82 30.013 1982.62 30.0794 1982.43 30.1432L1982.35 30.1666C1982.33 30.1761 1982.3 30.1856 1982.27 30.1951C1982.21 30.1622 1982.14 30.1293 1982.07 30.0963C1981.87 29.9975 1981.66 29.8987 1981.67 29.8037C1981.69 29.6878 1981.82 29.5641 1982.1 29.3167C1982.22 29.2046 1982.37 29.0671 1982.55 28.8935ZM-16.8551 11.3832C-16.3544 11.5589 -15.8473 11.736 -15.3369 11.9136C-15.7574 12.0978 -16.2048 12.2922 -16.7115 12.5019C-17.0916 11.9419 -17.0863 11.5987 -16.8551 11.3832ZM2021 45.3942C2018.78 45.5874 2016.56 45.7804 2014.07 45.9901C2013.44 45.5346 2013.88 45.1194 2015.24 44.9321C2016.07 44.8072 2016.65 44.6737 2017.1 44.5698C2018.42 44.265 2018.63 44.2162 2021 45.3942ZM-19.2472 45.4733C-16.6539 44.2934 -16.4536 44.3423 -15.2029 44.6474C-14.7767 44.7514 -14.2286 44.8851 -13.4224 45.0102C-12.1097 45.1977 -11.7592 45.6135 -12.4835 46.0697C-14.9086 45.8598 -17.0779 45.6666 -19.2472 45.4733ZM2041.34 11.1724C2046.22 10.0636 2047.2 10.0085 2050.07 10.6978C2049.59 10.7588 2049.11 10.8266 2048.62 10.8946C2046.31 11.2196 2043.96 11.55 2041.34 11.1724ZM-39.6422 10.9232C-40.1096 10.8551 -40.5753 10.7873 -41.0429 10.7262C-38.0434 10.0356 -37.0814 10.0908 -32.4582 11.2009C-35.1379 11.5793 -37.4086 11.2485 -39.6422 10.9232ZM-53.8469 24.3954C-52.1371 24.8477 -50.4467 24.5276 -48.4374 23.4286L-48.6135 23.357C-49.9137 22.8274 -51.1576 22.3208 -53.1654 22.927C-53.3399 22.9857 -53.7403 22.8561 -54.2091 22.7043C-54.4517 22.6257 -54.7126 22.5412 -54.9699 22.4739C-55.7301 23.3528 -55.3992 24.0011 -53.8469 24.3954ZM-41.3503 23.5808C-45.4287 24.6566 -45.4699 24.6675 -48.3188 23.4492C-48.0641 22.6325 -47.0252 21.9539 -45.5146 22.1568C-43.4441 22.4581 -41.5 22.9517 -39.5773 23.4398C-39.102 23.5604 -38.628 23.6807 -38.1537 23.7978C-38.0793 23.8215 -38.1193 23.9444 -38.1809 24.1335C-38.2229 24.2625 -38.275 24.4224 -38.3076 24.6027C-38.795 24.4387 -39.2317 24.2929 -39.6351 24.1583L-39.6367 24.1578C-40.2673 23.9473 -40.8172 23.7643 -41.3503 23.5808ZM-49.6348 40.5928C-48.6166 40.8224 -47.3697 41.1035 -46.7076 40.0682C-50.5666 39.0431 -54.2154 38.844 -59.3282 39.5213C-57.4624 40.1603 -56.0096 40.6602 -54.2711 41.2585L-54.2474 41.2667C-53.3406 40.174 -52.1459 40.2371 -50.4488 40.4389C-50.2105 40.463 -49.9324 40.5257 -49.6348 40.5928ZM-46.463 39.8326C-46.4992 39.9087 -46.5354 39.9846 -46.5797 40.0559C-46.4553 40.0831 -46.3286 40.1152 -46.2011 40.1474C-45.4469 40.338 -44.6651 40.5356 -44.1804 39.799C-44.0391 39.6487 -44.5201 39.2561 -44.9028 39.2208C-46.1008 39.0719 -46.2831 39.4547 -46.463 39.8326ZM-107.883 24.329L-107.76 24.39C-107.778 24.3826 -107.795 24.3751 -107.814 24.3678C-107.838 24.3581 -107.862 24.3484 -107.887 24.3389L-107.883 24.329ZM-108.417 24.1545C-108.235 24.2147 -108.052 24.275 -107.887 24.3389C-107.998 24.6546 -108.112 24.9942 -108.209 25.6434C-106.808 25.5754 -105.447 25.5105 -104.112 25.4469L-104.109 25.4467C-101.508 25.3227 -99.006 25.2034 -96.5038 25.075C-95.3013 25.0117 -94.0975 24.9334 -92.8947 24.8551C-89.8348 24.6558 -86.7808 24.457 -83.7705 24.5091C-81.7156 24.5356 -80.5835 24.3255 -79.4334 23.3974C-77.2714 25.1949 -74.4566 25.3556 -70.9816 24.3013C-70.3217 24.0996 -69.2862 24.0177 -68.5637 24.0892C-67.1566 24.2241 -65.7742 24.4096 -64.4259 24.5906C-63.8188 24.672 -63.2186 24.7526 -62.6262 24.8272C-61.6054 24.2076 -60.6709 23.6301 -59.738 23.0536L-59.6877 23.0225C-60.2311 22.1612 -61.6968 21.9024 -63.1746 21.6414C-64.0602 21.4851 -64.95 21.3279 -65.6483 21.0399C-65.9295 21.1425 -66.216 21.2664 -66.5106 21.3937C-67.2353 21.707 -68.0085 22.0412 -68.8693 22.1316C-69.6406 22.2178 -70.4715 22.057 -71.3818 21.8809C-71.7991 21.8002 -72.2331 21.7162 -72.6857 21.6513C-73.5853 22.1529 -74.4867 22.6755 -75.7494 23.4157C-75.938 23.113 -76.0882 22.8625 -76.2384 22.6119C-76.3886 22.3614 -76.5388 22.1108 -76.7274 21.8082C-77.6252 21.8243 -78.5386 21.8419 -79.4638 21.8597C-82.2985 21.9144 -85.2436 21.9713 -88.1856 21.9921C-89.8008 22.0026 -91.4078 21.9158 -92.9861 21.8305C-93.2095 21.8185 -93.4325 21.8064 -93.6546 21.7947C-94.7408 21.7453 -95.8071 21.6776 -96.9499 21.605C-97.5589 21.5663 -98.19 21.5262 -98.857 21.4868L-99.0235 23.4526C-99.1634 23.4004 -99.2865 23.3537 -99.3972 23.3116C-99.7139 23.1911 -99.9293 23.1093 -100.147 23.0506C-100.634 22.9394 -101.118 22.8261 -101.603 22.7128L-101.604 22.7124C-103.252 22.327 -104.898 21.9421 -106.628 21.6469C-107.345 21.512 -108.865 21.7504 -109.233 22.0525C-109.784 22.4844 -109.797 23.1389 -109.536 23.5986C-109.409 23.8272 -108.915 23.9902 -108.417 24.1545ZM-22.1367 39.6153C-20.1369 39.1839 -18.7136 39.4644 -17.3751 39.7282C-16.7851 39.8445 -16.2117 39.9575 -15.6126 40.0049C-14.9143 40.0564 -14.1917 40.1465 -13.4654 40.237C-11.7995 40.4446 -10.1146 40.6546 -8.66116 40.4081C-6.27731 40.023 -3.96721 40.1629 -1.67233 40.3019C0.843155 40.4543 3.34035 40.6055 5.89632 40.0631C6.1145 40.0169 6.49376 40.0945 6.65828 40.176C8.75597 41.2148 11.6692 41.226 15.2728 41.1826C14.0437 41.5843 12.9745 41.9404 11.9616 42.2779L11.9598 42.2785C10.7213 42.691 9.56682 43.0756 8.30684 43.4812C8.09142 43.2953 7.81856 43.0721 7.51813 42.8264L7.51694 42.8254C7.14931 42.5246 6.74046 42.1902 6.34515 41.8491C5.94255 41.8563 5.54341 41.8692 5.14819 41.882C4.23741 41.9115 3.34697 41.9404 2.48404 41.897C0.134094 41.8124 -2.09067 41.7679 -4.60161 42.0661C-6.05194 42.2364 -7.62431 41.955 -9.20613 41.6719C-9.93767 41.5409 -10.6712 41.4097 -11.3957 41.3225C-11.7766 41.266 -12.247 41.2532 -12.6386 41.3235C-16.727 42.0299 -19.2486 40.9355 -22.1367 39.6153ZM-24.0719 40.7053C-24.4262 40.7645 -24.7626 40.811 -25.0766 40.8544C-25.7643 40.9495 -26.3445 41.0297 -26.7706 41.1967C-29.5695 42.3655 -31.9534 42.1761 -34.3963 41.1645C-36.6317 40.2336 -39.2444 39.7105 -42.6317 40.742C-42.3258 40.1667 -41.9753 39.5694 -41.3672 39.474C-39.8917 39.2577 -38.0693 38.9929 -36.8461 39.2243C-33.9794 39.785 -31.2289 39.6936 -28.2351 39.2601C-27.7702 39.1915 -27.268 39.1975 -26.8156 39.2029C-26.6345 39.205 -26.4614 39.2071 -26.3018 39.2043C-25.9511 39.4415 -25.619 39.6645 -25.274 39.896C-24.9014 40.1461 -24.5139 40.4063 -24.0719 40.7053ZM-7.032 45.2577L-7.02971 45.2567C-6.60175 45.0747 -6.19916 44.9034 -5.85748 44.7479C-3.99222 44.9889 -2.38083 45.1924 -0.302734 45.4507C-0.419342 45.6191 -0.466202 45.8007 -0.511795 45.9775C-0.657135 46.5409 -0.789795 47.0552 -3.12851 46.9365C-3.86128 46.9002 -4.79236 47.3559 -5.65303 47.7772C-5.89514 47.8957 -6.1317 48.0115 -6.35669 48.1129C-7.10359 48.4479 -7.75391 48.818 -8.5388 49.2647C-8.78378 49.4041 -9.04205 49.5511 -9.32027 49.7067C-9.53888 49.3326 -9.72955 49.0123 -9.90286 48.7213C-10.1747 48.2648 -10.4038 47.8801 -10.6309 47.4717L-6.89671 47.4048C-7.17509 46.9566 -7.40115 46.574 -7.62187 46.2004C-7.72995 46.0175 -7.83708 45.8361 -7.94814 45.6509C-7.63849 45.5157 -7.32913 45.3841 -7.032 45.2577ZM24.3411 47.9643C25.0972 46.8627 26.599 46.8351 28.0303 46.8089C28.5426 46.7995 29.0458 46.7902 29.5026 46.732C30.6293 46.5852 31.9437 46.7515 31.5323 47.5609C31.2175 48.242 30.173 48.4296 28.8961 48.3258C27.7757 48.245 26.6292 48.1512 25.3479 48.0464L25.3426 48.046C25.018 48.0194 24.6848 47.9922 24.3411 47.9643ZM13.9577 47.0949C13.9809 46.9812 13.9828 46.8658 13.9848 46.7536C13.9889 46.5103 13.9928 46.2821 14.2119 46.1193C14.532 45.8814 15.2777 45.6782 15.8804 45.6463C16.2256 45.619 16.8854 45.9237 16.9552 46.1124C17.2251 46.973 16.44 47.6413 14.6998 47.9469C13.2208 48.2055 11.799 48.2944 11.3645 47.3524C11.314 47.234 11.4367 47.0913 11.5648 46.9424C11.618 46.8805 11.6721 46.8176 11.7152 46.755C12.4341 46.8687 13.0689 46.963 13.9577 47.0949ZM-26.9083 23.5964L-26.1575 23.3843L-26.1563 23.384C-24.9055 23.0307 -24.2321 22.8404 -23.5281 22.6495C-23.2065 23.0069 -22.4742 23.1568 -21.7055 23.3142C-20.5082 23.5593 -19.2226 23.8226 -19.263 24.9159C-20.3395 24.7311 -21.3425 24.5573 -22.394 24.375L-22.3961 24.3747C-23.737 24.1422 -25.1568 23.8961 -26.9083 23.5964ZM66.1583 38.4773C66.1823 38.4203 66.2147 38.3632 66.2483 38.3042C66.2898 38.2312 66.3334 38.1546 66.364 38.0725C66.8489 38.0374 67.334 37.9997 67.819 37.9621C69.2752 37.8489 70.7316 37.7358 72.1817 37.694C72.5883 37.6867 72.9749 37.915 73.3457 38.1341C73.4836 38.2155 73.62 38.2961 73.7537 38.3623C73.5503 38.4308 73.3499 38.5132 73.1497 38.5955C72.6985 38.7809 72.249 38.9657 71.772 38.9889C70.3109 39.0362 68.8176 38.9574 67.369 38.8567C67.0736 38.8474 66.8074 38.7368 66.5335 38.623C66.4111 38.5721 66.287 38.5206 66.1583 38.4773ZM-10.2645 31.5088C-8.25949 30.7166 -6.58266 30.8521 -4.86292 30.9911C-4.56694 31.015 -4.26968 31.039 -3.96927 31.0584C-5.69337 32.6933 -5.69402 32.6932 -10.2645 31.5088ZM36.9945 43.2841C31.9977 43.5846 31.1286 43.2204 32.504 41.655C32.9276 41.8087 33.3386 41.9583 33.7651 42.1136L33.7683 42.1148C34.6803 42.4469 35.6637 42.805 36.9945 43.2841ZM5.41362 47.7861C5.27911 47.857 5.14429 47.9282 5.01025 47.9938C4.64182 47.9197 4.25575 47.8648 3.86945 47.8098C2.84201 47.6637 1.81247 47.5173 1.10814 47.0084C1.76385 46.849 2.3647 46.7065 2.96547 46.5639L2.96721 46.5635L2.96895 46.5631C3.56972 46.4205 4.17056 46.2779 4.82628 46.1186C4.86296 46.1731 4.90108 46.2301 4.94054 46.2891L5.02611 46.4173C5.25549 46.761 5.52432 47.1638 5.81699 47.5783C5.68295 47.6439 5.54813 47.7151 5.41362 47.7861ZM22.1233 50.3677L22.0803 50.8751C19.3389 51.8739 19.3386 51.874 17.9295 50.2952C18.9047 50.3038 19.7817 50.322 20.6113 50.3392C21.1297 50.35 21.6295 50.3603 22.1233 50.3677ZM-16.4047 27.43L-16.4116 27.4438C-16.7499 28.1186 -17.0239 28.6653 -17.4143 29.3996C-17.9038 29.0525 -18.3251 28.7514 -18.7307 28.4616L-18.7323 28.4604C-19.264 28.0804 -19.7688 27.7197 -20.365 27.2996C-19.9288 27.2458 -19.544 27.1977 -19.179 27.152L-19.1779 27.1518C-18.2025 27.0298 -17.3687 26.9254 -16.078 26.7795C-16.196 27.0136 -16.3033 27.2276 -16.4047 27.43ZM-34.5417 28.2077C-32.6691 26.8444 -31.3671 26.6523 -29.7451 27.7419C-31.0399 27.8495 -32.3795 27.979 -34.5417 28.2077ZM78.6412 39.3513C78.0955 39.1533 77.6496 38.9999 77.2357 38.8574C76.7668 38.6961 76.3386 38.5488 75.8533 38.3669C77.0489 37.8982 77.9557 37.5522 79.525 36.9534L79.7074 36.8837C79.4399 37.5303 79.2378 37.9889 79.0336 38.4521C78.9087 38.7354 78.7831 39.0204 78.6412 39.3513ZM63.7047 38.6057C61.868 38.5331 60.3729 38.4753 58.2787 38.4073C61.4211 37.2324 61.6768 37.249 63.7047 38.6057ZM572.659 34.6626C569.715 35.0108 569.715 35.0108 568.923 33.7374C569.457 33.8691 569.934 33.9852 570.372 34.0918C571.244 34.3039 571.962 34.4784 572.659 34.6626ZM46.8007 39.3306C47.088 38.5458 47.2566 38.0435 47.4072 37.5944L47.4804 37.3766C47.6913 37.3937 47.936 37.3987 48.1779 37.4036C48.6683 37.4137 49.1471 37.4235 49.31 37.5336C50.1093 38.2158 49.2562 38.6745 46.8007 39.3306ZM52.7222 37.2194L53.3011 37.5453L53.3022 37.5459C53.9716 37.9229 54.4823 38.2106 55.0953 38.5488C51.5417 39.0135 51.5435 38.9923 52.7222 37.2194ZM-49.9467 26.9218L-46.2984 26.8565C-47.0866 27.4557 -47.498 27.7685 -47.9311 27.802C-48.4041 27.8387 -48.903 27.5422 -49.9467 26.9218ZM-14.1254 47.7454C-13.7319 47.6539 -13.3385 47.5625 -12.9039 47.4914C-12.8554 47.518 -12.8061 47.5446 -12.7566 47.5713C-11.971 47.9945 -11.1373 48.4437 -12.5322 49.6799C-13.2725 48.8067 -13.6998 48.2865 -14.1254 47.7454ZM545.774 35.3339C545.792 35.1225 545.808 34.9324 545.869 34.7202C547.117 34.1491 548.046 34.3224 549.415 35.3532C547.965 35.3434 547.037 35.3394 546.214 35.3358L545.774 35.3339ZM26.9688 43.2526C26.903 43.2428 26.8374 43.2333 26.7723 43.2238C25.7046 43.0685 24.7566 42.9306 25.345 42.1841C25.4415 42.0557 26.0979 41.8964 26.3965 41.9121C27.9685 42.0739 27.711 42.585 26.9688 43.2526ZM19.0695 42.402C21.9756 41.4846 21.9757 41.4846 23.349 42.4731C22.0121 42.4583 20.9648 42.4383 19.4771 42.4098L19.0695 42.402ZM-22.2718 31.0906C-20.0434 30.5864 -19.3369 30.8482 -19.9093 32.0404C-20.9448 31.6157 -21.6083 31.3531 -22.2718 31.0906ZM-35.7977 16.7272L-35.8011 16.7282C-36.1076 16.8178 -36.4142 16.9074 -36.7616 16.9767C-36.8776 16.931 -37.0037 16.8873 -37.1312 16.8432C-37.9609 16.5558 -38.8515 16.2474 -37.4268 15.2156C-36.7535 15.857 -36.2764 16.2913 -35.7996 16.7254L-35.7977 16.7272ZM-28.5312 32.1315L-28.4268 32.021C-27.497 31.0364 -27.4935 31.0327 -26.242 30.9084C-26.161 30.8939 -26.0537 30.9603 -25.8662 31.0763C-25.7519 31.1471 -25.6074 31.2365 -25.4212 31.3371C-25.8808 31.4508 -26.3189 31.5642 -26.8117 31.6917C-27.3047 31.8193 -27.8524 31.961 -28.5312 32.1315ZM20.6016 47.5879C20.5014 47.5052 20.412 47.4224 20.3226 47.3396C20.2334 47.257 20.1437 47.1739 20.0437 47.0914C20.5051 46.9565 20.9558 46.8218 21.4065 46.687C21.8572 46.5523 22.3079 46.4176 22.7693 46.2827C22.8489 46.3551 22.9388 46.4327 23.0286 46.5102C23.1185 46.5878 23.2083 46.6653 23.2879 46.7378C22.4044 47.0491 21.5244 47.3181 20.6016 47.5879ZM52.4713 42.7116C52.4417 42.8071 52.4019 42.8975 52.3622 42.9879C52.3224 43.0783 52.2826 43.1687 52.2531 43.2642C51.848 43.2398 51.4326 43.2103 51.0173 43.1808C50.6021 43.1513 50.1865 43.1217 49.7815 43.0974C49.8388 42.9275 49.8961 42.7576 49.9515 42.6089C50.8064 42.6358 51.6182 42.6635 52.4713 42.7116ZM-2.07172 48.6271L0.846939 48.5748C0.0169983 49.7716 -1.02737 49.4526 -2.07172 48.6271ZM-28.4451 11.3822C-28.5882 11.3003 -28.7317 11.2238 -28.8752 11.1472C-29.0185 11.0707 -29.1624 10.9939 -29.3053 10.9122C-28.6912 10.6608 -28.0782 10.4234 -27.4415 10.1768L-27.4405 10.1764C-27.295 10.1201 -27.1482 10.0632 -26.9999 10.0056L-26.3884 10.3745L-28.4451 11.3822ZM-38.7765 27.6081C-38.747 27.5126 -38.7068 27.4169 -38.6665 27.3212C-38.6263 27.2256 -38.586 27.1299 -38.5565 27.0344C-38.1935 27.049 -37.8201 27.0687 -37.4468 27.0883C-37.0734 27.108 -36.7001 27.1276 -36.3371 27.1423C-36.3622 27.1896 -36.3881 27.2459 -36.4148 27.3039C-36.4964 27.4811 -36.5853 27.6744 -36.6823 27.6761C-37.2101 27.6855 -37.7599 27.658 -38.2962 27.6311C-38.4579 27.623 -38.6183 27.615 -38.7765 27.6081ZM622.845 35.6635C622.753 35.739 622.672 35.809 622.591 35.8791C622.51 35.9491 622.429 36.0192 622.337 36.0947C622.003 35.9953 621.658 35.9014 621.314 35.8075L621.312 35.8069C620.966 35.7129 620.62 35.6187 620.286 35.5192C620.333 35.4656 620.391 35.417 620.449 35.3685C620.506 35.32 620.564 35.2714 620.611 35.2178C620.924 35.2819 621.237 35.3423 621.547 35.4022C621.989 35.4875 622.425 35.5718 622.845 35.6635ZM-40.4414 27.5323C-40.8367 27.645 -41.2321 27.7577 -41.6291 27.8914C-41.8056 27.7052 -41.9923 27.5139 -42.1791 27.3226L-42.1807 27.3209C-42.368 27.129 -42.5553 26.9371 -42.7323 26.7503C-42.4247 26.6604 -42.117 26.5704 -41.8523 26.4813C-41.4115 26.8315 -40.9279 27.1809 -40.4443 27.5303L-40.4414 27.5323ZM-10.6196 24.5711C-10.8297 24.656 -11.0092 24.7348 -11.169 24.805C-11.5497 24.9722 -11.819 25.0905 -12.1238 25.1257C-12.3402 25.1507 -12.9607 24.8875 -12.9107 24.8021C-12.8051 24.5681 -12.4813 24.2879 -12.1308 24.1972C-11.9478 24.1644 -11.6287 24.2638 -11.2092 24.3944C-11.0302 24.4502 -10.8324 24.5118 -10.6196 24.5711ZM-1.38268 24.8068C-0.839584 24.6107 -0.438812 24.4545 -0.141632 24.3386C0.335297 24.1527 0.545456 24.0708 0.649033 24.0949C0.941086 24.163 1.16579 24.2936 1.38614 24.4215C1.48267 24.4776 1.57896 24.5335 1.67914 24.5831C1.56053 24.6345 1.44073 24.6999 1.32094 24.7654C1.08124 24.8963 0.841537 25.0272 0.611404 25.0454C0.290436 25.0643 -0.0409088 25.01 -0.469528 24.9399C-0.731094 24.8971 -1.02888 24.8484 -1.38268 24.8068ZM84.5416 38.6499L84.541 38.6527C84.4684 38.9805 84.4065 39.2598 84.3212 39.5872C81.8819 39.0399 82.3433 38.6519 84.6593 38.1249C84.6149 38.3189 84.5769 38.4902 84.5416 38.6499ZM573.978 31.2407C574.066 31.2903 574.16 31.3383 574.25 31.384C574.495 31.5079 574.706 31.615 574.668 31.6927C574.612 31.8415 574.167 32.0395 573.865 32.066C573.648 32.091 573.196 31.8668 573.207 31.7399C573.215 31.6403 573.398 31.5472 573.627 31.4305C573.738 31.3739 573.86 31.3118 573.978 31.2407ZM-7.75041 27.6216C-7.99873 27.7221 -8.20697 27.8064 -8.40955 27.8242C-8.63962 27.8424 -8.86334 27.7854 -9.08705 27.7284C-9.19896 27.6999 -9.31087 27.6714 -9.42357 27.6523C-9.32295 27.5974 -9.22891 27.5409 -9.13602 27.485C-8.897 27.3414 -8.66548 27.2023 -8.34866 27.1054C-8.26958 27.0912 -8.08807 27.1681 -7.85548 27.2667C-7.70422 27.3308 -7.53108 27.4042 -7.35074 27.4674C-7.49631 27.5187 -7.62833 27.5722 -7.75041 27.6216ZM-16.8242 47.7304C-17.0048 47.8392 -17.1854 47.9479 -17.3231 48.0559C-17.6146 47.9556 -17.895 47.8498 -18.1753 47.7441C-18.4556 47.6383 -18.7359 47.5326 -19.0274 47.4322C-18.9878 47.4069 -18.9481 47.3799 -18.9072 47.352C-18.8078 47.2842 -18.7016 47.2119 -18.5749 47.1498C-17.9919 47.3504 -17.409 47.5509 -16.8242 47.7304ZM-8.70067 23.6714C-8.8026 23.6099 -8.89334 23.5429 -8.9841 23.476C-9.07486 23.409 -9.16562 23.342 -9.26755 23.2805C-8.95932 23.1801 -8.65152 23.0849 -8.34373 22.9898L-8.34209 22.9893C-8.0343 22.8942 -7.7265 22.7991 -7.41827 22.6987C-7.35837 22.7504 -7.28772 22.8019 -7.21707 22.8534C-7.14642 22.9049 -7.07579 22.9564 -7.01588 23.0081C-7.55064 23.2498 -8.12657 23.4712 -8.70067 23.6714ZM-13.3223 28.1443C-13.4378 28.0714 -13.5702 28.0069 -13.6906 27.9482C-13.9094 27.8415 -14.0883 27.7543 -14.0537 27.672C-13.9982 27.5232 -13.5493 27.2831 -13.2489 27.2777C-12.9914 27.2731 -12.4942 27.4753 -12.5067 27.6232C-12.4865 27.7214 -12.6951 27.8235 -12.9434 27.9452C-13.0676 28.006 -13.2018 28.0717 -13.3223 28.1443ZM-7.36707 29.6839C-7.54997 29.5518 -7.70462 29.4462 -7.82388 29.3647C-8.02061 29.2304 -8.12106 29.1619 -8.09323 29.1482C-7.82568 29.0171 -7.5172 28.9064 -7.20863 28.7956L-7.2061 28.7947C-7.15897 28.8354 -7.08524 28.8756 -7.01608 28.9133C-6.90945 28.9714 -6.81367 29.0236 -6.84297 29.0625C-6.90593 29.181 -7.01801 29.3002 -7.1396 29.4296C-7.21484 29.5097 -7.29396 29.5939 -7.36707 29.6839ZM22.1366 23.9002C22.2172 23.9759 22.3333 24.051 22.4365 24.1178C22.5875 24.2154 22.7112 24.2954 22.657 24.334C22.4728 24.4851 22.074 24.64 21.7306 24.6462C21.5832 24.6488 21.4238 24.5519 21.2585 24.4514C21.1832 24.4057 21.1067 24.3591 21.0295 24.3209C21.3126 24.2007 21.5941 24.098 22.0088 23.9468L22.1366 23.9002ZM22.3525 28.9406C22.499 29.1168 22.6233 29.2561 22.7244 29.3693C22.9455 29.617 23.0561 29.7409 23.0463 29.857C23.0383 29.9521 22.813 30.0511 22.5876 30.15C22.5125 30.1831 22.4374 30.2161 22.3703 30.2489C22.326 30.2317 22.2778 30.2145 22.229 30.1972C22.0495 30.1333 21.8622 30.0666 21.8355 29.9842C21.8428 29.898 21.8944 29.8039 22.0075 29.5975C22.0887 29.4493 22.2015 29.2432 22.3525 28.9406ZM54.9601 49.252C55.2051 49.3954 55.409 49.5184 55.6111 49.6625C55.5262 49.6804 55.4403 49.7111 55.357 49.7409C55.226 49.7878 55.1014 49.8323 54.9976 49.8213C54.7847 49.804 54.538 49.6817 54.4611 49.5776C54.438 49.5391 54.546 49.4822 54.6855 49.4089C54.7729 49.363 54.8726 49.3105 54.9601 49.252ZM63.6326 42.9971C64.01 43.0959 64.2192 43.1554 64.4284 43.2149C64.3824 43.2374 64.339 43.2605 64.2969 43.2837C64.2633 43.3022 64.2306 43.3208 64.1983 43.3391C64.0351 43.4317 63.8817 43.5187 63.6701 43.5663C63.5849 43.5816 63.4319 43.5351 63.2657 43.4846C63.1774 43.4578 63.0853 43.4298 62.9978 43.4094C63.1104 43.344 63.2128 43.2736 63.3152 43.2032C63.4174 43.133 63.5201 43.0623 63.6326 42.9971ZM40.2691 42.5712C40.2422 42.6016 40.2184 42.637 40.194 42.6731C40.1324 42.7647 40.0674 42.8612 39.9418 42.8937C39.8535 42.9234 39.6937 42.8981 39.534 42.8729C39.4541 42.8602 39.3743 42.8476 39.3033 42.8418L39.7273 42.3909C39.9383 42.4293 40.1046 42.4897 40.2691 42.5712ZM37.4875 48.5941C37.8233 48.6724 38.0323 48.7319 38.2412 48.7914C38.1581 48.8396 38.0812 48.8938 38.0027 48.9481C37.8686 49.041 37.7325 49.1353 37.5643 49.2049C37.4767 49.2276 36.9743 49.0888 37.019 49.0669C37.1191 48.8962 37.3033 48.7452 37.4875 48.5941ZM31.9027 25.2598C31.7933 25.1989 31.7065 25.1506 31.6347 25.102C31.7012 25.0755 31.7642 25.0452 31.8268 25.0152C31.9729 24.945 32.1167 24.8759 32.2983 24.8578C32.4139 24.8417 32.5628 24.8813 32.7118 24.9208C32.7863 24.9406 32.8609 24.9604 32.9313 24.9733C32.7587 25.0578 32.6031 25.1509 32.4421 25.2471C32.353 25.3004 32.2621 25.3547 32.1659 25.4091C32.0657 25.3505 31.9785 25.302 31.9027 25.2598ZM526.278 35.0474C526.302 35.0239 526.327 35.0001 526.35 34.9768C526.484 34.8457 526.605 34.7274 526.669 34.7262C526.934 34.736 527.175 34.7865 527.411 34.8356C527.516 34.8577 527.621 34.8796 527.726 34.8973L527.173 35.3504C526.999 35.3161 526.81 35.2672 526.616 35.2168C526.482 35.182 526.345 35.1464 526.207 35.1144C526.231 35.0926 526.255 35.0701 526.278 35.0474ZM26.7323 29.3478C26.776 29.3135 26.8115 29.2751 26.8465 29.2371C26.9217 29.1556 26.9948 29.0763 27.1437 29.0449C27.2416 29.0273 27.4057 29.0797 27.57 29.1322C27.5966 29.1407 27.6233 29.1492 27.6496 29.1574C27.6775 29.1661 27.7051 29.1745 27.732 29.1821C27.6408 29.2471 27.5491 29.3173 27.4575 29.3875C27.3659 29.4576 27.2742 29.5279 27.183 29.5928C27.0624 29.5113 26.8996 29.4307 26.7365 29.3499L26.7323 29.3478ZM0.818588 28.1654C0.843628 28.1227 0.86911 28.0748 0.894592 28.0269C0.920074 27.9789 0.945557 27.931 0.970596 27.8883C1.0687 27.8866 1.18001 27.8754 1.28955 27.8644C1.46758 27.8466 1.64088 27.8292 1.74495 27.8534C1.92317 27.9103 2.03252 28.0112 2.13878 28.1093C2.18179 28.149 2.22432 28.1882 2.27069 28.2239C1.84506 28.1893 1.33186 28.1773 0.818588 28.1654ZM595.765 35.5995C595.536 35.6425 595.342 35.6805 595.176 35.7133C594.71 35.8048 594.453 35.8553 594.2 35.8598C593.986 35.8637 593.608 35.7647 593.614 35.7013C593.625 35.5735 593.765 35.4277 593.894 35.2935C593.914 35.2724 593.934 35.2515 593.954 35.231L593.963 35.2329C594.255 35.2903 594.557 35.3498 595.765 35.5995ZM-56.7448 30.7792C-56.6607 30.8144 -56.5729 30.8478 -56.4857 30.881C-56.2722 30.9622 -56.0621 31.0422 -55.9187 31.1445C-55.8775 31.1649 -56.2871 31.4465 -56.3282 31.4262C-56.5693 31.3699 -56.7874 31.3024 -57.0148 31.232L-57.0162 31.2316C-57.1055 31.2039 -57.1962 31.1758 -57.2903 31.1478C-57.1805 31.0817 -57.0865 31.0158 -56.9786 30.9401C-56.9091 30.8915 -56.8337 30.8386 -56.7448 30.7792ZM-22.5823 27.3577C-22.5052 27.3959 -22.4332 27.4315 -22.35 27.4617C-22.4053 27.4888 -22.4569 27.5199 -22.5069 27.55C-22.6183 27.6172 -22.7215 27.6794 -22.8401 27.6815C-23.0117 27.6846 -23.2585 27.5624 -23.2942 27.4786C-23.2668 27.4422 -23.17 27.3979 -23.0665 27.3504C-22.9874 27.3142 -22.9042 27.2761 -22.8454 27.2385C-22.7417 27.2788 -22.6594 27.3195 -22.5823 27.3577ZM2060.14 24.3458C2058.33 24.7976 2056.69 24.478 2054.9 23.3808L2055.09 23.3092C2056.51 22.7804 2057.86 22.2745 2059.76 22.8796C2059.92 22.9383 2060.35 22.8088 2060.85 22.6572L2060.85 22.6567C2061.11 22.5784 2061.39 22.4942 2061.66 22.4271C2062.25 23.3047 2061.78 23.952 2060.14 24.3458ZM2054.77 23.4014C2054.69 22.5859 2053.78 21.9084 2052.22 22.111C2050.07 22.4121 2048.02 22.905 2045.98 23.3924L2045.97 23.3946C2045.47 23.5144 2044.98 23.6338 2044.48 23.75C2044.4 23.7737 2044.41 23.8957 2044.44 24.0837V24.0853V24.0878C2044.45 24.2162 2044.47 24.3749 2044.47 24.5537C2044.99 24.391 2045.45 24.2464 2045.88 24.1127L2045.89 24.11C2046.57 23.8996 2047.16 23.7164 2047.74 23.533C2051.62 24.6071 2051.66 24.6179 2054.77 23.4014ZM2049.54 39.7603C2049.56 39.8362 2049.58 39.912 2049.61 39.9832C2049.53 39.9993 2049.45 40.017 2049.37 40.0354L2049.21 40.0748C2048.41 40.2652 2047.58 40.4624 2047.25 39.7269C2047.14 39.5769 2047.7 39.1848 2048.09 39.1495C2049.33 39.0008 2049.43 39.3829 2049.54 39.7603ZM2052.57 40.5192C2051.5 40.7485 2050.19 41.0293 2049.73 39.9956C2053.83 38.9718 2057.54 38.7727 2062.54 39.4488C2060.52 40.0898 2058.95 40.5907 2057.07 41.1918C2056.38 40.1008 2055.17 40.1639 2053.42 40.3655C2053.18 40.3896 2052.88 40.4522 2052.57 40.5192ZM2114.51 24.2763L2114.37 24.3373C2114.41 24.32 2114.46 24.303 2114.51 24.2863C2114.55 24.6015 2114.6 24.9405 2114.56 25.5888C2113.17 25.5211 2111.82 25.4566 2110.49 25.3933L2110.48 25.3927L2110.48 25.3925C2107.89 25.2689 2105.4 25.15 2102.91 25.0219C2101.71 24.9588 2100.52 24.8806 2099.32 24.8025C2096.28 24.6037 2093.25 24.4054 2090.22 24.4576C2088.14 24.4842 2087.05 24.2745 2086.08 23.3478C2083.54 25.1428 2080.67 25.3033 2077.39 24.2509C2076.77 24.0495 2075.75 23.9678 2075.01 24.0392C2073.56 24.174 2072.14 24.3592 2070.74 24.5399L2070.73 24.5412C2070.11 24.6222 2069.49 24.7023 2068.88 24.7764C2067.98 24.1552 2067.15 23.5763 2066.33 22.9982L2066.33 22.9968L2066.3 22.9747C2067.02 22.1146 2068.55 21.8561 2070.09 21.5954C2071.01 21.4392 2071.94 21.2823 2072.7 20.9946C2072.96 21.0971 2073.23 21.2207 2073.5 21.3478C2074.16 21.6606 2074.87 21.9943 2075.72 22.0846C2076.47 22.1706 2077.34 22.01 2078.29 21.834C2078.73 21.7534 2079.19 21.6695 2079.65 21.6047C2080.46 22.1055 2081.25 22.6272 2082.37 23.3663C2082.62 23.0641 2082.83 22.8139 2083.03 22.5637C2083.23 22.3135 2083.43 22.0633 2083.69 21.7611C2084.59 21.7771 2085.5 21.7947 2086.43 21.8125C2089.27 21.8669 2092.22 21.9235 2095.17 21.9441C2096.8 21.9545 2098.43 21.8677 2100.04 21.7825L2100.72 21.7467C2101.82 21.6973 2102.9 21.6296 2104.07 21.557C2104.69 21.5184 2105.33 21.4783 2106.01 21.4389L2105.77 23.4018C2105.92 23.3515 2106.05 23.3061 2106.17 23.2652L2106.18 23.2618C2106.52 23.1411 2106.76 23.059 2106.99 23.0003C2107.5 22.8891 2108.01 22.7758 2108.52 22.6624C2110.26 22.2775 2111.99 21.8932 2113.8 21.5984C2114.54 21.4636 2116.02 21.7015 2116.33 22.0031C2116.8 22.4345 2116.68 23.088 2116.32 23.547C2116.14 23.7752 2115.61 23.9379 2115.08 24.102C2114.88 24.1621 2114.69 24.2225 2114.51 24.2863L2114.51 24.2763ZM2025.11 39.5448C2023.19 39.1142 2021.7 39.3944 2020.3 39.6578C2019.68 39.7739 2019.08 39.8868 2018.47 39.9342C2017.76 39.9857 2017.01 40.0757 2016.26 40.1661C2014.54 40.3735 2012.81 40.5832 2011.39 40.3372C2009.08 39.9528 2006.72 40.0927 2004.39 40.2316C2001.82 40.3838 1999.28 40.535 1996.82 39.9935C1996.61 39.9475 1996.22 40.0249 1996.03 40.1063C1993.71 41.1437 1990.78 41.155 1987.16 41.1119C1988.31 41.5128 1989.32 41.8683 1990.27 42.2051C1991.43 42.6173 1992.51 43.0015 1993.69 43.4067C1993.95 43.2229 1994.26 43.0025 1994.61 42.7599L1994.62 42.7528C1995.05 42.4522 1995.54 42.1179 1996 41.7769C1996.41 41.7841 1996.81 41.797 1997.2 41.8097C1998.11 41.8392 1999 41.8679 1999.88 41.8245C2002.26 41.7399 2004.51 41.6953 2006.97 41.993C2008.39 42.1629 2010.03 41.8818 2011.68 41.5991C2012.45 41.4683 2013.21 41.3371 2013.96 41.2501C2014.35 41.1936 2014.83 41.1808 2015.21 41.251C2019.17 41.9561 2021.94 40.8632 2025.11 39.5448ZM2026.83 40.633C2027.18 40.6922 2027.51 40.7386 2027.81 40.7819C2028.49 40.8768 2029.05 40.9568 2029.45 41.1236C2032.02 42.2904 2034.46 42.1011 2037.12 41.0909C2039.56 40.1613 2042.3 39.6388 2045.5 40.6687C2045.31 40.0942 2045.08 39.4978 2044.48 39.4026C2043.04 39.1867 2041.27 38.9224 2039.99 39.1535C2036.99 39.7136 2034.24 39.6225 2031.32 39.1898C2030.87 39.1213 2030.36 39.1273 2029.9 39.1327C2029.72 39.1349 2029.55 39.137 2029.39 39.1341C2028.98 39.3714 2028.6 39.5943 2028.21 39.826C2027.78 40.0754 2027.34 40.3349 2026.83 40.633ZM2009.6 45.5722C2009.31 45.4368 2009.03 45.3051 2008.76 45.1785C2008.36 44.9968 2007.99 44.8259 2007.68 44.6707C2005.76 44.9114 2004.09 45.1147 2001.95 45.3727C2002.03 45.5409 2002.04 45.7222 2002.05 45.8987C2002.08 46.4613 2002.11 46.9749 2004.49 46.8561C2005.23 46.8198 2006.07 47.2749 2006.85 47.6955L2006.86 47.7016C2007.08 47.8178 2007.29 47.9312 2007.49 48.0306C2008.17 48.3651 2008.75 48.7346 2009.45 49.1805L2009.47 49.1948C2009.68 49.3298 2009.9 49.4717 2010.14 49.6218C2010.43 49.2601 2010.68 48.9489 2010.91 48.6657L2010.93 48.6362C2011.3 48.1811 2011.61 47.7974 2011.92 47.3901L2008.18 47.3236C2008.55 46.8751 2008.86 46.4925 2009.16 46.1188C2009.3 45.9366 2009.45 45.7566 2009.6 45.5722ZM1976.64 47.884C1976.11 46.7841 1974.6 46.7567 1973.17 46.7305C1972.66 46.7212 1972.15 46.712 1971.71 46.6539C1970.6 46.5073 1969.25 46.6735 1969.49 47.4817C1969.67 48.1617 1970.68 48.349 1971.99 48.2453C1973.13 48.1644 1974.3 48.0707 1975.62 47.9659L1976.64 47.884ZM1987.27 47.0153C1987.27 46.9018 1987.29 46.7866 1987.31 46.6746C1987.36 46.4316 1987.4 46.2038 1987.21 46.0412C1986.94 45.8037 1986.23 45.6008 1985.63 45.569C1985.29 45.5417 1984.56 45.8461 1984.45 46.0345C1984.01 46.8937 1984.66 47.5611 1986.35 47.866C1987.78 48.1242 1989.19 48.2129 1989.82 47.2723C1989.9 47.154 1989.8 47.0115 1989.71 46.8628C1989.66 46.8011 1989.62 46.7383 1989.59 46.6757C1988.85 46.7894 1988.19 46.8836 1987.27 47.0153ZM2033.21 23.5496L2032.49 23.3352L2032.48 23.3343C2031.31 22.9836 2030.67 22.7943 2030 22.6043C2029.61 22.9612 2028.84 23.1109 2028.03 23.2681C2026.78 23.513 2025.43 23.7759 2025.25 24.8676C2026.37 24.6833 2027.41 24.5098 2028.5 24.3281L2028.51 24.3272C2029.91 24.0949 2031.38 23.8491 2033.21 23.5496ZM1936.53 38.4136C1936.52 38.3568 1936.5 38.2998 1936.48 38.2409C1936.47 38.2022 1936.45 38.1627 1936.44 38.1219C1936.43 38.0855 1936.42 38.0482 1936.41 38.0095C1935.93 37.9745 1935.45 37.9369 1934.97 37.8993C1933.53 37.7864 1932.09 37.6735 1930.64 37.6319C1930.23 37.6246 1929.79 37.8527 1929.38 38.0714C1929.22 38.1528 1929.07 38.233 1928.92 38.2993C1929.11 38.3676 1929.29 38.4499 1929.48 38.532C1929.89 38.7172 1930.31 38.9017 1930.78 38.9248C1932.24 38.972 1933.76 38.8932 1935.24 38.7926C1935.54 38.7833 1935.83 38.6728 1936.13 38.5592C1936.19 38.5358 1936.25 38.5123 1936.31 38.4895C1936.39 38.4628 1936.46 38.437 1936.53 38.4136ZM2014.84 31.4511C2012.98 30.6602 2011.27 30.7956 2009.51 30.9345C2009.21 30.9584 2008.91 30.9824 2008.6 31.0018C2009.07 31.5574 2009.39 31.9238 2009.79 32.119C2010.56 32.4972 2011.64 32.2315 2014.84 31.4511ZM1964.88 43.2116C1969.84 43.5114 1970.79 43.1476 1969.73 41.5846C1969.27 41.7381 1968.83 41.8876 1968.37 42.0427C1967.38 42.3747 1966.32 42.7326 1964.88 43.2116ZM1995.72 47.7043C1995.84 47.7754 1995.96 47.8465 1996.08 47.9124C1996.47 47.8384 1996.87 47.7836 1997.27 47.7288L1997.27 47.7285C1998.33 47.5826 1999.4 47.4363 2000.21 46.9282C1999.58 46.7691 1999.01 46.6268 1998.43 46.4845L1998.4 46.4765C1997.84 46.3365 1997.27 46.1963 1996.65 46.0399L1996.39 46.3417C1996.09 46.6842 1995.73 47.0849 1995.36 47.4975C1995.48 47.5629 1995.6 47.6336 1995.72 47.7043ZM1978.38 50.2837L1978.32 50.7904C1980.87 51.7876 1980.87 51.7877 1982.61 50.2111C1981.63 50.2197 1980.74 50.2379 1979.91 50.2551C1979.38 50.2659 1978.88 50.2763 1978.38 50.2837ZM2021.79 27.165L2021.86 27.3956C2022.06 28.0677 2022.22 28.6129 2022.46 29.3447C2023.03 28.9979 2023.51 28.6973 2023.98 28.4078C2024.59 28.028 2025.18 27.6675 2025.86 27.2476L2025.17 27.1596L2024.7 27.1001C2023.74 26.9783 2022.93 26.8742 2021.66 26.7285L2021.79 27.165ZM2039.94 28.1535C2038.33 26.7924 2037.06 26.6007 2035.21 27.6887C2036.49 27.7961 2037.81 27.9253 2039.94 28.1535ZM1923.8 39.2871C1924.39 39.0894 1924.87 38.9362 1925.31 38.7939C1925.82 38.6328 1926.28 38.4857 1926.81 38.304C1925.7 37.8369 1924.86 37.4919 1923.41 36.896L1923.23 36.8233C1923.37 37.4701 1923.48 37.9284 1923.59 38.3918L1923.59 38.3993C1923.66 38.6788 1923.72 38.9606 1923.8 39.2871ZM1938.98 38.5417C1940.84 38.4691 1942.35 38.4114 1944.47 38.3433C1941.56 37.1704 1941.29 37.187 1938.98 38.5417ZM1427.85 34.6343C1430.74 34.9818 1430.74 34.9818 1431.8 33.7103C1431.24 33.8418 1430.73 33.9578 1430.27 34.0643L1430.26 34.0663C1429.35 34.2772 1428.59 34.451 1427.85 34.6343ZM1955.58 37.5441L1955.58 37.5331L1955.55 37.3135C1955.33 37.3306 1955.09 37.3356 1954.84 37.3406C1954.35 37.3506 1953.86 37.3604 1953.68 37.4704C1952.73 38.1516 1953.49 38.6096 1955.83 39.2645C1955.7 38.4886 1955.64 37.9891 1955.58 37.5441ZM1950.31 37.1569L1949.66 37.4813C1948.91 37.8586 1948.33 38.1462 1947.65 38.4844C1951.13 38.9482 1951.13 38.9271 1950.31 37.1569ZM2055.7 26.8687L2052.04 26.8044C2052.66 27.358 2053.01 27.6666 2053.39 27.7357C2053.88 27.8228 2054.44 27.53 2055.7 26.8687ZM2015.38 47.6632C2015 47.5718 2014.63 47.4806 2014.2 47.4096L2014.04 47.4894C2013.16 47.9121 2012.23 48.3607 2013.38 49.5949C2014.3 48.7229 2014.84 48.2035 2015.38 47.6632ZM1454.76 35.303C1454.78 35.0919 1454.81 34.9021 1454.79 34.6903C1453.65 34.1201 1452.68 34.2932 1451.09 35.3225C1452.55 35.3127 1453.49 35.3086 1454.32 35.305L1454.76 35.303ZM1974.97 43.1795L1975.17 43.1508C1976.28 42.9956 1977.26 42.8579 1976.82 42.1125C1976.75 41.9843 1976.13 41.8253 1975.82 41.841C1974.21 42.0027 1974.36 42.5129 1974.97 43.1795ZM1980.22 41.6803C1979.8 41.7587 1979.42 41.9973 1978.77 42.401C1980.12 42.3861 1981.18 42.366 1982.68 42.3375L1983.09 42.3297C1981.48 41.7884 1980.81 41.5671 1980.22 41.6803ZM2024.43 31.9813C2024.1 30.7909 2024.86 30.5295 2027 31.0329L2027 31.0353C2026.28 31.2966 2025.56 31.5585 2024.43 31.9813ZM2043.56 16.6901L2043.57 16.6911C2043.86 16.7805 2044.15 16.8701 2044.48 16.9393C2044.55 16.9138 2044.62 16.8891 2044.7 16.8645C2044.76 16.8449 2044.82 16.8254 2044.88 16.8059C2045.77 16.5189 2046.73 16.2108 2045.51 15.1807C2044.71 15.8174 2044.14 16.2497 2043.58 16.6806L2043.57 16.6831L2043.56 16.6901ZM2033.08 32.0718L2033 31.9616C2032.27 30.9784 2032.27 30.9747 2031.03 30.8507C2030.95 30.8362 2030.83 30.9025 2030.62 31.0184C2030.49 31.0891 2030.33 31.1783 2030.12 31.2788C2030.56 31.3923 2030.98 31.5055 2031.45 31.6329C2031.72 31.7066 2032.01 31.7852 2032.33 31.8713C2032.56 31.9338 2032.81 32.0003 2033.08 32.0718ZM1980.48 47.5079C1980.6 47.4254 1980.71 47.3427 1980.81 47.2601C1980.92 47.1774 1981.03 47.0947 1981.15 47.0122C1980.73 46.8834 1980.32 46.7547 1979.91 46.626L1979.86 46.6084C1979.43 46.4739 1979.01 46.3395 1978.57 46.2048C1978.48 46.2771 1978.37 46.3546 1978.26 46.432C1978.16 46.5095 1978.05 46.5869 1977.96 46.6592C1978.78 46.97 1979.61 47.2386 1980.48 47.5079ZM1949.43 42.6408C1949.44 42.736 1949.46 42.8262 1949.48 42.9163C1949.5 43.0067 1949.53 43.0971 1949.54 43.1925C1949.95 43.1682 1950.37 43.1387 1950.8 43.1092C1951.22 43.0797 1951.64 43.0502 1952.06 43.0258C1952.03 42.8562 1952.01 42.6866 1951.99 42.5381C1951.12 42.5651 1950.3 42.5928 1949.43 42.6408ZM2003.07 48.5443L2000.15 48.4922C2000.74 49.6872 2001.85 49.3686 2003.07 48.5443ZM2044.32 27.5546C2044.31 27.4592 2044.29 27.3637 2044.27 27.2682C2044.25 27.1727 2044.23 27.0771 2044.22 26.9818C2043.85 26.9964 2043.47 27.016 2043.09 27.0357C2042.71 27.0553 2042.33 27.075 2041.96 27.0896C2041.98 27.1368 2041.99 27.193 2042.01 27.251C2042.05 27.4279 2042.1 27.6209 2042.2 27.6226C2042.73 27.632 2043.29 27.6045 2043.83 27.5776L2044.01 27.5687C2044.12 27.5637 2044.22 27.5589 2044.32 27.5546ZM1377.17 35.6366C1377.25 35.7118 1377.31 35.7815 1377.38 35.8512C1377.45 35.9214 1377.51 35.9915 1377.59 36.0672C1377.95 35.9677 1378.31 35.8738 1378.68 35.7798C1379.05 35.6858 1379.42 35.5919 1379.77 35.4925C1379.74 35.4389 1379.69 35.3905 1379.64 35.342C1379.59 35.2935 1379.54 35.2451 1379.51 35.1915C1379.18 35.2555 1378.85 35.3158 1378.53 35.3756L1378.53 35.376C1378.06 35.4611 1377.61 35.5451 1377.17 35.6366ZM2046.01 27.4789C2046.38 27.5913 2046.76 27.7038 2047.13 27.8373C2047.34 27.6589 2047.56 27.4757 2047.77 27.2924L2047.8 27.2676L2047.83 27.2429C2048.05 27.0595 2048.27 26.8764 2048.48 26.6979C2048.18 26.6081 2047.89 26.5183 2047.65 26.4293C2047.13 26.7776 2046.58 27.1251 2046.02 27.4726L2046.02 27.4757L2046.01 27.4789ZM2017.12 24.7557L2017.13 24.7573C2017.48 24.9242 2017.72 25.0423 2018.02 25.0774C2018.23 25.1024 2018.91 24.8395 2018.88 24.7543C2018.82 24.5206 2018.55 24.2409 2018.22 24.1504C2018.04 24.1176 2017.7 24.2169 2017.25 24.3474C2017.06 24.4031 2016.85 24.4645 2016.62 24.5238C2016.82 24.6079 2016.98 24.686 2017.12 24.7557ZM1918 38.0629C1918 38.2591 1918.01 38.432 1918.01 38.5933C1918.01 38.9191 1918.02 39.1972 1918.04 39.523C1920.6 38.9764 1920.22 38.5889 1918 38.0629ZM1427.23 31.2176C1427.13 31.2672 1427.03 31.3151 1426.93 31.3608C1426.66 31.4844 1426.42 31.5914 1426.44 31.669C1426.47 31.8175 1426.88 32.0152 1427.18 32.0416C1427.39 32.0666 1427.89 31.8427 1427.9 31.7161C1427.92 31.6166 1427.75 31.5236 1427.55 31.4071C1427.45 31.3506 1427.34 31.2886 1427.23 31.2176ZM2012.74 27.416C2012.88 27.4672 2013 27.5205 2013.11 27.5698C2013.34 27.6702 2013.53 27.7544 2013.73 27.7722C2013.96 27.7903 2014.2 27.7334 2014.43 27.6765C2014.55 27.648 2014.67 27.6196 2014.79 27.6005C2014.7 27.5456 2014.61 27.4892 2014.53 27.4334C2014.32 27.29 2014.12 27.1511 2013.82 27.0545C2013.74 27.0403 2013.54 27.1171 2013.29 27.2155C2013.12 27.2796 2012.93 27.3527 2012.74 27.416ZM2018.1 47.6481C2018.26 47.7567 2018.42 47.8653 2018.53 47.9731C2018.85 47.8728 2019.15 47.7672 2019.46 47.6615L2019.46 47.6587C2019.76 47.554 2020.06 47.4495 2020.38 47.3502C2020.34 47.325 2020.31 47.298 2020.27 47.2702C2020.19 47.2025 2020.09 47.1302 2019.98 47.0682C2019.35 47.2686 2018.72 47.4688 2018.1 47.6481ZM2015.2 23.4328L2015.2 23.4302L2015.21 23.4277C2015.31 23.3617 2015.42 23.2958 2015.53 23.2352C2015.24 23.1348 2014.95 23.0398 2014.66 22.9448C2014.37 22.8497 2014.08 22.7547 2013.79 22.6544C2013.72 22.7059 2013.64 22.7573 2013.55 22.8086C2013.47 22.8601 2013.39 22.9116 2013.32 22.9633C2013.81 23.2047 2014.34 23.4257 2014.88 23.6256C2014.99 23.5649 2015.1 23.4989 2015.2 23.4328ZM2019.02 27.8962L2019.02 27.8956C2019.26 27.7891 2019.46 27.702 2019.44 27.6198C2019.41 27.4713 2019.01 27.2315 2018.71 27.2262C2018.45 27.2216 2017.91 27.4235 2017.89 27.5713C2017.85 27.6692 2018.04 27.7712 2018.27 27.8926C2018.38 27.9534 2018.5 28.019 2018.61 28.0915C2018.74 28.0189 2018.88 27.9547 2019.02 27.8962ZM2012.3 29.6291C2012.51 29.4972 2012.69 29.3917 2012.82 29.3104C2013.05 29.1763 2013.17 29.1078 2013.14 29.0942C2012.9 28.9631 2012.61 28.8524 2012.32 28.7416C2012.27 28.7819 2012.18 28.822 2012.11 28.8597C2011.99 28.9177 2011.88 28.9699 2011.9 29.0087C2011.94 29.127 2012.03 29.2461 2012.12 29.3753C2012.18 29.4553 2012.24 29.5392 2012.3 29.6291ZM1945.58 49.1716C1945.3 49.3148 1945.07 49.4376 1944.84 49.5815C1944.92 49.5994 1945 49.6301 1945.08 49.6598C1945.2 49.7066 1945.32 49.751 1945.43 49.74C1945.64 49.7227 1945.92 49.6006 1946.02 49.4966C1946.05 49.4582 1945.95 49.4014 1945.82 49.3282C1945.75 49.2823 1945.66 49.23 1945.58 49.1716ZM1938.14 42.9265C1937.74 43.0252 1937.52 43.0846 1937.3 43.1441C1937.37 43.1845 1937.44 43.2269 1937.51 43.2681C1937.65 43.3605 1937.79 43.4474 1937.99 43.4949C1938.07 43.5102 1938.24 43.4638 1938.41 43.4133C1938.51 43.3865 1938.61 43.3586 1938.7 43.3382C1938.64 43.3029 1938.59 43.2662 1938.54 43.2288C1938.5 43.1969 1938.46 43.1645 1938.42 43.1322C1938.33 43.0619 1938.24 42.9917 1938.14 42.9265ZM1961.75 42.5288C1961.76 42.5518 1961.78 42.5765 1961.79 42.6017C1961.83 42.6931 1961.88 42.7894 1962 42.8219C1962.08 42.8516 1962.24 42.8263 1962.41 42.8011C1962.49 42.7885 1962.58 42.7759 1962.65 42.7701L1962.31 42.3199C1962.09 42.3582 1961.92 42.4186 1961.73 42.5C1961.74 42.5091 1961.74 42.5188 1961.75 42.5288ZM1963.29 48.5137C1962.94 48.5916 1962.72 48.651 1962.49 48.7102L1962.49 48.711C1962.56 48.7591 1962.63 48.8129 1962.7 48.8672L1962.7 48.869C1962.82 48.9612 1962.93 49.0545 1963.09 49.1235C1963.17 49.1462 1963.71 49.0076 1963.67 48.9857C1963.6 48.8153 1963.45 48.6645 1963.29 48.5137ZM1474.48 35.0827C1474.45 35.0383 1474.41 34.9911 1474.37 34.9456C1474.26 34.8144 1474.16 34.6963 1474.1 34.6951C1473.83 34.705 1473.58 34.7553 1473.33 34.8044C1473.22 34.8265 1473.11 34.8483 1473 34.8661L1473.46 35.3184C1473.65 35.2841 1473.85 35.2353 1474.05 35.1849C1474.19 35.1501 1474.34 35.1146 1474.48 35.0827ZM1977.98 29.1901L1977.98 29.185C1977.92 29.1036 1977.86 29.0245 1977.72 28.9931C1977.62 28.9755 1977.45 29.0279 1977.27 29.0802L1977.26 29.0824C1977.21 29.0992 1977.15 29.1158 1977.1 29.1301C1977.18 29.195 1977.25 29.2651 1977.33 29.3352C1977.41 29.4053 1977.49 29.4754 1977.57 29.5402C1977.7 29.459 1977.88 29.3786 1978.06 29.2981L1978.07 29.2955C1978.03 29.2628 1978.01 29.2263 1977.98 29.1901ZM2004.38 28.1134C2004.36 28.0541 2004.33 27.9847 2004.31 27.9193C2004.3 27.8906 2004.29 27.8627 2004.28 27.8367C2004.18 27.835 2004.07 27.8238 2003.97 27.8129C2003.79 27.795 2003.62 27.7777 2003.51 27.8019C2003.32 27.8588 2003.19 27.9596 2003.06 28.0575C2003.01 28.0971 2002.96 28.1363 2002.91 28.1719C2003.34 28.1373 2003.86 28.1253 2004.38 28.1134ZM1404.42 35.5712C1404.64 35.6141 1404.83 35.6521 1404.99 35.6847C1405.44 35.7761 1405.69 35.8265 1405.94 35.831C1406.16 35.8348 1406.56 35.736 1406.56 35.6727C1406.58 35.5451 1406.47 35.3997 1406.37 35.2658C1406.35 35.2446 1406.33 35.2237 1406.32 35.2032L1406.31 35.2043C1406.01 35.2619 1405.69 35.3206 1404.42 35.5712ZM2061.58 30.7797L2061.46 30.8215C2061.23 30.9027 2061 30.9825 2060.83 31.0847C2060.79 31.105 2061.14 31.3863 2061.19 31.3659C2061.44 31.3098 2061.68 31.2423 2061.92 31.172C2062.02 31.1443 2062.11 31.1161 2062.21 31.0879C2062.12 31.0219 2062.04 30.9561 2061.94 30.8806C2061.88 30.8319 2061.82 30.7793 2061.74 30.7199C2061.69 30.7403 2061.63 30.7602 2061.58 30.7797ZM2028.37 27.1865C2028.26 27.2268 2028.17 27.2675 2028.08 27.3056L2028.08 27.3064C2028 27.3442 2027.92 27.3795 2027.83 27.4094C2027.88 27.4365 2027.92 27.4675 2027.97 27.4976C2028.07 27.5646 2028.16 27.6267 2028.28 27.6288C2028.45 27.6319 2028.72 27.5099 2028.77 27.4262C2028.75 27.39 2028.67 27.346 2028.57 27.2989L2028.57 27.2983C2028.5 27.2621 2028.42 27.224 2028.37 27.1865Z" fill="white"/>
</g>
<defs>
<clipPath id="clip0">
<rect width="2000" height="58" fill="white"/>
</clipPath>
</defs>
</svg>
