<svg width="547" height="427" fill="none" xmlns="http://www.w3.org/2000/svg"><path d="M517.87 0C537.29 0 547 5.93 547 17.792c0 4.313-2.158 8.626-6.473 12.94-3.237 3.234-8.632 5.39-16.184 6.469-23.735 5.391-47.471 14.556-71.207 27.496-23.736 12.94-43.695 31.81-59.879 56.61-16.183 23.722-24.275 54.453-24.275 92.193 0 12.939 5.934 28.035 17.802 45.288 11.868 16.174 26.972 24.8 45.314 25.879 23.735 2.156 42.076 9.704 55.023 22.644 14.026 12.939 21.039 28.035 21.039 45.287 0 21.566-9.171 39.358-27.512 53.375C463.386 419.991 442.887 427 419.151 427c-38.84 0-71.207-14.557-97.101-43.67-24.814-30.192-37.222-67.932-37.222-113.22 0-40.975 8.092-77.637 24.276-109.985 16.183-33.427 36.682-62.001 61.497-85.724 24.814-23.722 50.168-42.052 76.062-54.992C473.635 6.47 497.371 0 517.87 0ZM233.041 0c19.421 0 29.131 5.93 29.131 17.792 0 4.313-2.158 8.626-6.474 12.94-3.236 3.234-8.631 5.39-16.183 6.469-23.736 5.391-47.472 14.556-71.207 27.496-23.736 12.94-43.696 31.81-59.879 56.61-16.183 23.722-24.275 54.453-24.275 92.193 0 12.939 5.934 28.035 17.802 45.288 11.867 16.174 26.972 24.8 45.313 25.879 23.736 2.156 42.077 9.704 55.024 22.644 14.026 12.939 21.038 28.035 21.038 45.287 0 21.566-9.17 39.358-27.511 53.375C178.557 419.991 158.058 427 134.322 427c-38.84 0-71.207-14.557-97.1-43.67C12.407 353.138 0 315.398 0 270.11c0-40.975 8.092-77.637 24.275-109.985 16.184-33.427 36.683-62.001 61.497-85.724 24.815-23.722 50.169-42.052 76.062-54.992C188.807 6.47 212.542 0 233.041 0Z" fill="#EFF2FF"/></svg>