<svg width="29" height="29" viewBox="0 0 29 29" fill="none" xmlns="http://www.w3.org/2000/svg">
<path d="M6.75769 21.7578C6.75769 22.3101 7.20541 22.7578 7.75769 22.7578H10.7577C11.31 22.7578 11.7577 22.3101 11.7577 21.7578L11.7577 5.75781C11.7577 5.20553 11.31 4.75781 10.7577 4.75781H7.75769C7.2054 4.75781 6.75769 5.20553 6.75769 5.75781V21.7578Z" fill="white"/>
<path d="M15.7577 21.7578C15.7577 22.3101 16.2054 22.7578 16.7577 22.7578H19.7577C20.31 22.7578 20.7577 22.3101 20.7577 21.7578V5.75781C20.7577 5.20553 20.31 4.75781 19.7577 4.75781H16.7577C16.2054 4.75781 15.7577 5.20553 15.7577 5.75781L15.7577 21.7578Z" fill="white"/>
</svg>
